%TF.GenerationSoftware,KiCad,Pcbnew,9.0.3*%
%TF.CreationDate,2026-09-22T23:35:07+05:30*%
%TF.ProjectId,Mic+MPU,4d69632b-4d50-4552-9e6b-696361645f70,rev?*%
%TF.SameCoordinates,Original*%
%TF.FileFunction,Paste,Top*%
%TF.FilePolarity,Positive*%
%FSLAX46Y46*%
G04 Gerber Fmt 4.6, Leading zero omitted, Abs format (unit mm)*
G04 Created by KiCad (PCBNEW 9.0.3) date 2026-09-22 23:35:07*
%MOMM*%
%LPD*%
G01*
G04 APERTURE LIST*
G04 Aperture macros list*
%AMRoundRect*
0 Rectangle with rounded corners*
0 $1 Rounding radius*
0 $2 $3 $4 $5 $6 $7 $8 $9 X,Y pos of 4 corners*
0 Add a 4 corners polygon primitive as box body*
4,1,4,$2,$3,$4,$5,$6,$7,$8,$9,$2,$3,0*
0 Add four circle primitives for the rounded corners*
1,1,$1+$1,$2,$3*
1,1,$1+$1,$4,$5*
1,1,$1+$1,$6,$7*
1,1,$1+$1,$8,$9*
0 Add four rect primitives between the rounded corners*
20,1,$1+$1,$2,$3,$4,$5,0*
20,1,$1+$1,$4,$5,$6,$7,0*
20,1,$1+$1,$6,$7,$8,$9,0*
20,1,$1+$1,$8,$9,$2,$3,0*%
G04 Aperture macros list end*
%ADD10RoundRect,0.140000X-0.021213X0.219203X-0.219203X0.021213X0.021213X-0.219203X0.219203X-0.021213X0*%
%ADD11RoundRect,0.052500X0.070711X-0.243952X0.243952X-0.070711X-0.070711X0.243952X-0.243952X0.070711X0*%
%ADD12RoundRect,0.140000X-0.170000X0.140000X-0.170000X-0.140000X0.170000X-0.140000X0.170000X0.140000X0*%
%ADD13RoundRect,0.052500X-0.222500X0.122500X-0.222500X-0.122500X0.222500X-0.122500X0.222500X0.122500X0*%
%ADD14RoundRect,0.135000X-0.035355X0.226274X-0.226274X0.035355X0.035355X-0.226274X0.226274X-0.035355X0*%
%ADD15RoundRect,0.381000X-0.889000X-1.119000X0.889000X-1.119000X0.889000X1.119000X-0.889000X1.119000X0*%
%ADD16RoundRect,0.140000X-0.140000X-0.170000X0.140000X-0.170000X0.140000X0.170000X-0.140000X0.170000X0*%
%ADD17RoundRect,0.135000X0.226274X0.035355X0.035355X0.226274X-0.226274X-0.035355X-0.035355X-0.226274X0*%
%ADD18RoundRect,0.135000X-0.226274X-0.035355X-0.035355X-0.226274X0.226274X0.035355X0.035355X0.226274X0*%
%ADD19RoundRect,0.140000X-0.219203X-0.021213X-0.021213X-0.219203X0.219203X0.021213X0.021213X0.219203X0*%
%ADD20RoundRect,0.135000X-0.185000X0.135000X-0.185000X-0.135000X0.185000X-0.135000X0.185000X0.135000X0*%
%ADD21RoundRect,0.140000X0.021213X-0.219203X0.219203X-0.021213X-0.021213X0.219203X-0.219203X0.021213X0*%
%ADD22RoundRect,0.140000X0.170000X-0.140000X0.170000X0.140000X-0.170000X0.140000X-0.170000X-0.140000X0*%
%ADD23RoundRect,0.052500X-0.122500X-0.222500X0.122500X-0.222500X0.122500X0.222500X-0.122500X0.222500X0*%
%ADD24RoundRect,0.052500X-0.070711X0.243952X-0.243952X0.070711X0.070711X-0.243952X0.243952X-0.070711X0*%
%ADD25RoundRect,0.052500X-0.243952X-0.070711X-0.070711X-0.243952X0.243952X0.070711X0.070711X0.243952X0*%
%ADD26RoundRect,0.140000X0.219203X0.021213X0.021213X0.219203X-0.219203X-0.021213X-0.021213X-0.219203X0*%
%ADD27RoundRect,0.135000X0.035355X-0.226274X0.226274X-0.035355X-0.035355X0.226274X-0.226274X0.035355X0*%
%ADD28RoundRect,0.135000X0.135000X0.185000X-0.135000X0.185000X-0.135000X-0.185000X0.135000X-0.185000X0*%
%ADD29RoundRect,0.052500X0.122500X0.222500X-0.122500X0.222500X-0.122500X-0.222500X0.122500X-0.222500X0*%
%ADD30RoundRect,0.135000X0.185000X-0.135000X0.185000X0.135000X-0.185000X0.135000X-0.185000X-0.135000X0*%
%ADD31RoundRect,0.052500X0.222500X-0.122500X0.222500X0.122500X-0.222500X0.122500X-0.222500X-0.122500X0*%
%ADD32RoundRect,0.052500X0.243952X0.070711X0.070711X0.243952X-0.243952X-0.070711X-0.070711X-0.243952X0*%
%ADD33RoundRect,0.140000X0.140000X0.170000X-0.140000X0.170000X-0.140000X-0.170000X0.140000X-0.170000X0*%
%ADD34RoundRect,0.135000X-0.135000X-0.185000X0.135000X-0.185000X0.135000X0.185000X-0.135000X0.185000X0*%
G04 APERTURE END LIST*
D10*
%TO.C,C60*%
X41189411Y-105165589D03*
X40510589Y-105844411D03*
%TD*%
D11*
%TO.C,U2*%
X104564329Y-43554767D03*
X105306791Y-42812304D03*
X106049254Y-42069842D03*
X106791716Y-41327380D03*
X108672620Y-43208284D03*
X107930158Y-43950746D03*
X107187696Y-44693209D03*
X106445233Y-45435671D03*
%TD*%
D12*
%TO.C,C56*%
X72425000Y-120240000D03*
X72425000Y-121200000D03*
%TD*%
D13*
%TO.C,U15*%
X76330000Y-118139999D03*
X76330001Y-119190000D03*
X76330000Y-120240001D03*
X76330000Y-121290000D03*
X73670000Y-121290000D03*
X73670000Y-120240001D03*
X73669999Y-119190000D03*
X73670000Y-118139999D03*
%TD*%
D14*
%TO.C,R34*%
X42710624Y-103669376D03*
X41989376Y-104390624D03*
%TD*%
D15*
%TO.C,J3*%
X62055000Y-109990000D03*
X65255000Y-109990000D03*
X68455000Y-109990000D03*
X71655000Y-109990000D03*
X74855000Y-109990000D03*
X78055000Y-109990000D03*
X81255000Y-109990000D03*
X84455000Y-109990000D03*
X87655000Y-109990000D03*
X90855000Y-109990000D03*
X94055000Y-109990000D03*
%TD*%
D16*
%TO.C,C10*%
X120240000Y-77465000D03*
X121200000Y-77465000D03*
%TD*%
D17*
%TO.C,R4*%
X46390624Y-42575624D03*
X45669376Y-41854376D03*
%TD*%
D18*
%TO.C,R10*%
X103764376Y-107294376D03*
X104485624Y-108015624D03*
%TD*%
D19*
%TO.C,C11*%
X105275589Y-108700589D03*
X105954411Y-109379411D03*
%TD*%
D20*
%TO.C,R33*%
X72580000Y-118170000D03*
X72580000Y-119190000D03*
%TD*%
D21*
%TO.C,C2*%
X108870589Y-44874411D03*
X109549411Y-44195589D03*
%TD*%
D22*
%TO.C,C1*%
X77590000Y-29760000D03*
X77590000Y-28800000D03*
%TD*%
D23*
%TO.C,U5*%
X118139999Y-73670000D03*
X119190000Y-73669999D03*
X120240001Y-73670000D03*
X121290000Y-73670000D03*
X121290000Y-76330000D03*
X120240001Y-76330000D03*
X119190000Y-76330001D03*
X118139999Y-76330000D03*
%TD*%
D24*
%TO.C,U16*%
X45435671Y-106445233D03*
X44693209Y-107187696D03*
X43950746Y-107930158D03*
X43208284Y-108672620D03*
X41327380Y-106791716D03*
X42069842Y-106049254D03*
X42812304Y-105306791D03*
X43554767Y-104564329D03*
%TD*%
D25*
%TO.C,U6*%
X106445233Y-104564329D03*
X107187696Y-105306791D03*
X107930158Y-106049254D03*
X108672620Y-106791716D03*
X106791716Y-108672620D03*
X106049254Y-107930158D03*
X105306791Y-107187696D03*
X104564329Y-106445233D03*
%TD*%
D26*
%TO.C,C4*%
X44920000Y-41110000D03*
X44241178Y-40431178D03*
%TD*%
D27*
%TO.C,R2*%
X107444376Y-46325624D03*
X108165624Y-45604376D03*
%TD*%
D28*
%TO.C,R3*%
X31845000Y-72460000D03*
X30825000Y-72460000D03*
%TD*%
D29*
%TO.C,U3*%
X31860000Y-76330000D03*
X30810000Y-76330000D03*
X29760000Y-76330000D03*
X28710000Y-76330000D03*
X28710000Y-73670000D03*
X29760000Y-73670000D03*
X30810000Y-73670000D03*
X31860000Y-73670000D03*
%TD*%
D30*
%TO.C,R1*%
X77595000Y-31825000D03*
X77595000Y-30805000D03*
%TD*%
D31*
%TO.C,U1*%
X73670000Y-31860000D03*
X73670000Y-30810000D03*
X73670000Y-29760000D03*
X73670000Y-28710000D03*
X76330000Y-28710000D03*
X76330000Y-29760000D03*
X76330000Y-30810000D03*
X76330000Y-31860000D03*
%TD*%
D32*
%TO.C,U4*%
X43554767Y-45435671D03*
X42812304Y-44693209D03*
X42069842Y-43950746D03*
X41327380Y-43208284D03*
X43208284Y-41327380D03*
X43950746Y-42069842D03*
X44693209Y-42812304D03*
X45435671Y-43554767D03*
%TD*%
D33*
%TO.C,C3*%
X29760000Y-72425000D03*
X28800000Y-72425000D03*
%TD*%
D34*
%TO.C,R9*%
X118175000Y-77465000D03*
X119195000Y-77465000D03*
%TD*%
M02*
