%TF.GenerationSoftware,KiCad,Pcbnew,9.0.3*%
%TF.CreationDate,2026-09-22T23:35:07+05:30*%
%TF.ProjectId,Mic+MPU,4d69632b-4d50-4552-9e6b-696361645f70,rev?*%
%TF.SameCoordinates,Original*%
%TF.FileFunction,Copper,L1,Top*%
%TF.FilePolarity,Positive*%
%FSLAX46Y46*%
G04 Gerber Fmt 4.6, Leading zero omitted, Abs format (unit mm)*
G04 Created by KiCad (PCBNEW 9.0.3) date 2026-09-22 23:35:07*
%MOMM*%
%LPD*%
G01*
G04 APERTURE LIST*
G04 Aperture macros list*
%AMRoundRect*
0 Rectangle with rounded corners*
0 $1 Rounding radius*
0 $2 $3 $4 $5 $6 $7 $8 $9 X,Y pos of 4 corners*
0 Add a 4 corners polygon primitive as box body*
4,1,4,$2,$3,$4,$5,$6,$7,$8,$9,$2,$3,0*
0 Add four circle primitives for the rounded corners*
1,1,$1+$1,$2,$3*
1,1,$1+$1,$4,$5*
1,1,$1+$1,$6,$7*
1,1,$1+$1,$8,$9*
0 Add four rect primitives between the rounded corners*
20,1,$1+$1,$2,$3,$4,$5,0*
20,1,$1+$1,$4,$5,$6,$7,0*
20,1,$1+$1,$6,$7,$8,$9,0*
20,1,$1+$1,$8,$9,$2,$3,0*%
%AMRotRect*
0 Rectangle, with rotation*
0 The origin of the aperture is its center*
0 $1 length*
0 $2 width*
0 $3 Rotation angle, in degrees counterclockwise*
0 Add horizontal line*
21,1,$1,$2,0,0,$3*%
G04 Aperture macros list end*
%TA.AperFunction,Conductor*%
%ADD10C,0.200000*%
%TD*%
%TA.AperFunction,SMDPad,CuDef*%
%ADD11RoundRect,0.140000X-0.021213X0.219203X-0.219203X0.021213X0.021213X-0.219203X0.219203X-0.021213X0*%
%TD*%
%TA.AperFunction,WasherPad*%
%ADD12C,1.600000*%
%TD*%
%TA.AperFunction,SMDPad,CuDef*%
%ADD13RoundRect,0.052500X0.070711X-0.243952X0.243952X-0.070711X-0.070711X0.243952X-0.243952X0.070711X0*%
%TD*%
%TA.AperFunction,SMDPad,CuDef*%
%ADD14RoundRect,0.140000X-0.170000X0.140000X-0.170000X-0.140000X0.170000X-0.140000X0.170000X0.140000X0*%
%TD*%
%TA.AperFunction,SMDPad,CuDef*%
%ADD15RoundRect,0.052500X-0.222500X0.122500X-0.222500X-0.122500X0.222500X-0.122500X0.222500X0.122500X0*%
%TD*%
%TA.AperFunction,SMDPad,CuDef*%
%ADD16RoundRect,0.135000X-0.035355X0.226274X-0.226274X0.035355X0.035355X-0.226274X0.226274X-0.035355X0*%
%TD*%
%TA.AperFunction,SMDPad,CuDef*%
%ADD17RoundRect,0.381000X-0.889000X-1.119000X0.889000X-1.119000X0.889000X1.119000X-0.889000X1.119000X0*%
%TD*%
%TA.AperFunction,SMDPad,CuDef*%
%ADD18RoundRect,0.140000X-0.140000X-0.170000X0.140000X-0.170000X0.140000X0.170000X-0.140000X0.170000X0*%
%TD*%
%TA.AperFunction,SMDPad,CuDef*%
%ADD19RoundRect,0.135000X0.226274X0.035355X0.035355X0.226274X-0.226274X-0.035355X-0.035355X-0.226274X0*%
%TD*%
%TA.AperFunction,SMDPad,CuDef*%
%ADD20RoundRect,0.135000X-0.226274X-0.035355X-0.035355X-0.226274X0.226274X0.035355X0.035355X0.226274X0*%
%TD*%
%TA.AperFunction,SMDPad,CuDef*%
%ADD21RoundRect,0.140000X-0.219203X-0.021213X-0.021213X-0.219203X0.219203X0.021213X0.021213X0.219203X0*%
%TD*%
%TA.AperFunction,SMDPad,CuDef*%
%ADD22RoundRect,0.135000X-0.185000X0.135000X-0.185000X-0.135000X0.185000X-0.135000X0.185000X0.135000X0*%
%TD*%
%TA.AperFunction,SMDPad,CuDef*%
%ADD23RoundRect,0.140000X0.021213X-0.219203X0.219203X-0.021213X-0.021213X0.219203X-0.219203X0.021213X0*%
%TD*%
%TA.AperFunction,SMDPad,CuDef*%
%ADD24RoundRect,0.140000X0.170000X-0.140000X0.170000X0.140000X-0.170000X0.140000X-0.170000X-0.140000X0*%
%TD*%
%TA.AperFunction,SMDPad,CuDef*%
%ADD25RoundRect,0.052500X-0.122500X-0.222500X0.122500X-0.222500X0.122500X0.222500X-0.122500X0.222500X0*%
%TD*%
%TA.AperFunction,SMDPad,CuDef*%
%ADD26RoundRect,0.052500X-0.070711X0.243952X-0.243952X0.070711X0.070711X-0.243952X0.243952X-0.070711X0*%
%TD*%
%TA.AperFunction,ComponentPad*%
%ADD27RoundRect,0.250000X-0.600000X-0.750000X0.600000X-0.750000X0.600000X0.750000X-0.600000X0.750000X0*%
%TD*%
%TA.AperFunction,ComponentPad*%
%ADD28O,1.700000X2.000000*%
%TD*%
%TA.AperFunction,SMDPad,CuDef*%
%ADD29RoundRect,0.052500X-0.243952X-0.070711X-0.070711X-0.243952X0.243952X0.070711X0.070711X0.243952X0*%
%TD*%
%TA.AperFunction,SMDPad,CuDef*%
%ADD30RoundRect,0.140000X0.219203X0.021213X0.021213X0.219203X-0.219203X-0.021213X-0.021213X-0.219203X0*%
%TD*%
%TA.AperFunction,SMDPad,CuDef*%
%ADD31RoundRect,0.135000X0.035355X-0.226274X0.226274X-0.035355X-0.035355X0.226274X-0.226274X0.035355X0*%
%TD*%
%TA.AperFunction,SMDPad,CuDef*%
%ADD32RoundRect,0.135000X0.135000X0.185000X-0.135000X0.185000X-0.135000X-0.185000X0.135000X-0.185000X0*%
%TD*%
%TA.AperFunction,ComponentPad*%
%ADD33C,3.100000*%
%TD*%
%TA.AperFunction,ConnectorPad*%
%ADD34C,5.400000*%
%TD*%
%TA.AperFunction,SMDPad,CuDef*%
%ADD35RoundRect,0.052500X0.122500X0.222500X-0.122500X0.222500X-0.122500X-0.222500X0.122500X-0.222500X0*%
%TD*%
%TA.AperFunction,SMDPad,CuDef*%
%ADD36RoundRect,0.135000X0.185000X-0.135000X0.185000X0.135000X-0.185000X0.135000X-0.185000X-0.135000X0*%
%TD*%
%TA.AperFunction,SMDPad,CuDef*%
%ADD37RoundRect,0.052500X0.222500X-0.122500X0.222500X0.122500X-0.222500X0.122500X-0.222500X-0.122500X0*%
%TD*%
%TA.AperFunction,SMDPad,CuDef*%
%ADD38RoundRect,0.052500X0.243952X0.070711X0.070711X0.243952X-0.243952X-0.070711X-0.070711X-0.243952X0*%
%TD*%
%TA.AperFunction,SMDPad,CuDef*%
%ADD39RoundRect,0.140000X0.140000X0.170000X-0.140000X0.170000X-0.140000X-0.170000X0.140000X-0.170000X0*%
%TD*%
%TA.AperFunction,ComponentPad*%
%ADD40RotRect,1.700000X1.700000X315.000000*%
%TD*%
%TA.AperFunction,ComponentPad*%
%ADD41C,1.700000*%
%TD*%
%TA.AperFunction,SMDPad,CuDef*%
%ADD42RoundRect,0.135000X-0.135000X-0.185000X0.135000X-0.185000X0.135000X0.185000X-0.135000X0.185000X0*%
%TD*%
%TA.AperFunction,ViaPad*%
%ADD43C,0.620000*%
%TD*%
%TA.AperFunction,ViaPad*%
%ADD44C,0.600000*%
%TD*%
%TA.AperFunction,Conductor*%
%ADD45C,0.400000*%
%TD*%
%TA.AperFunction,Conductor*%
%ADD46C,0.300000*%
%TD*%
%TA.AperFunction,Conductor*%
%ADD47C,0.600000*%
%TD*%
%TA.AperFunction,Conductor*%
%ADD48C,0.800000*%
%TD*%
G04 APERTURE END LIST*
D10*
%TO.N,/SCK_MIC*%
X65225000Y-115537500D02*
X64845000Y-115882500D01*
X65520000Y-115440000D02*
X65865000Y-115820000D01*
%TD*%
D11*
%TO.P,C60,1*%
%TO.N,+3V3*%
X41189411Y-105165589D03*
%TO.P,C60,2*%
%TO.N,GND*%
X40510589Y-105844411D03*
%TD*%
D12*
%TO.P,U2,*%
%TO.N,*%
X107732168Y-42267832D03*
D13*
%TO.P,U2,1,SCK*%
%TO.N,/SCK_MIC*%
X104564329Y-43554767D03*
%TO.P,U2,2,SD*%
%TO.N,/SD_1*%
X105306791Y-42812304D03*
%TO.P,U2,3,WS*%
%TO.N,/WS*%
X106049254Y-42069842D03*
%TO.P,U2,4,L/R*%
%TO.N,+3V3*%
X106791716Y-41327380D03*
%TO.P,U2,5,GND*%
%TO.N,GND*%
X108672620Y-43208284D03*
%TO.P,U2,6,VDD*%
%TO.N,+3V3*%
X107930158Y-43950746D03*
%TO.P,U2,7,EN*%
%TO.N,Net-(U2-EN)*%
X107187696Y-44693209D03*
%TO.P,U2,8,GND*%
%TO.N,GND*%
X106445233Y-45435671D03*
%TD*%
D14*
%TO.P,C56,1*%
%TO.N,+3V3*%
X72425000Y-120240000D03*
%TO.P,C56,2*%
%TO.N,GND*%
X72425000Y-121200000D03*
%TD*%
D12*
%TO.P,U15,*%
%TO.N,*%
X75000000Y-121290000D03*
D15*
%TO.P,U15,1,SCK*%
%TO.N,/SCK_MIC*%
X76330000Y-118139999D03*
%TO.P,U15,2,SD*%
%TO.N,/SD_3*%
X76330001Y-119190000D03*
%TO.P,U15,3,WS*%
%TO.N,/WS*%
X76330000Y-120240001D03*
%TO.P,U15,4,L/R*%
%TO.N,GND*%
X76330000Y-121290000D03*
%TO.P,U15,5,GND*%
X73670000Y-121290000D03*
%TO.P,U15,6,VDD*%
%TO.N,+3V3*%
X73670000Y-120240001D03*
%TO.P,U15,7,EN*%
%TO.N,Net-(U15-EN)*%
X73669999Y-119190000D03*
%TO.P,U15,8,GND*%
%TO.N,GND*%
X73670000Y-118139999D03*
%TD*%
D16*
%TO.P,R34,1*%
%TO.N,+3V3*%
X42710624Y-103669376D03*
%TO.P,R34,2*%
%TO.N,Net-(U16-EN)*%
X41989376Y-104390624D03*
%TD*%
D17*
%TO.P,J3,1,Pin_1*%
%TO.N,+12V*%
X62055000Y-109990000D03*
%TO.P,J3,2,Pin_2*%
%TO.N,/SCK_MIC*%
X65255000Y-109990000D03*
%TO.P,J3,3,Pin_3*%
%TO.N,/WS*%
X68455000Y-109990000D03*
%TO.P,J3,4,Pin_4*%
%TO.N,/SD_3*%
X71655000Y-109990000D03*
%TO.P,J3,5,Pin_5*%
%TO.N,/UART_TX*%
X74855000Y-109990000D03*
%TO.P,J3,6,Pin_6*%
%TO.N,/UART_RX*%
X78055000Y-109990000D03*
%TO.P,J3,7,Pin_7*%
%TO.N,/RX*%
X81255000Y-109990000D03*
%TO.P,J3,8,Pin_8*%
%TO.N,/TX*%
X84455000Y-109990000D03*
%TO.P,J3,9,Pin_9*%
%TO.N,/Boot*%
X87655000Y-109990000D03*
%TO.P,J3,10,Pin_10*%
%TO.N,/RST*%
X90855000Y-109990000D03*
%TO.P,J3,11,Pin_11*%
%TO.N,GND*%
X94055000Y-109990000D03*
%TD*%
D18*
%TO.P,C10,1*%
%TO.N,+3V3*%
X120240000Y-77465000D03*
%TO.P,C10,2*%
%TO.N,GND*%
X121200000Y-77465000D03*
%TD*%
D19*
%TO.P,R4,1*%
%TO.N,+3V3*%
X46390624Y-42575624D03*
%TO.P,R4,2*%
%TO.N,Net-(U4-EN)*%
X45669376Y-41854376D03*
%TD*%
D20*
%TO.P,R10,1*%
%TO.N,+3V3*%
X103764376Y-107294376D03*
%TO.P,R10,2*%
%TO.N,Net-(U6-EN)*%
X104485624Y-108015624D03*
%TD*%
D21*
%TO.P,C11,1*%
%TO.N,+3V3*%
X105275589Y-108700589D03*
%TO.P,C11,2*%
%TO.N,GND*%
X105954411Y-109379411D03*
%TD*%
D22*
%TO.P,R33,1*%
%TO.N,+3V3*%
X72580000Y-118170000D03*
%TO.P,R33,2*%
%TO.N,Net-(U15-EN)*%
X72580000Y-119190000D03*
%TD*%
D23*
%TO.P,C2,1*%
%TO.N,+3V3*%
X108870589Y-44874411D03*
%TO.P,C2,2*%
%TO.N,GND*%
X109549411Y-44195589D03*
%TD*%
D24*
%TO.P,C1,1*%
%TO.N,+3V3*%
X77590000Y-29760000D03*
%TO.P,C1,2*%
%TO.N,GND*%
X77590000Y-28800000D03*
%TD*%
D12*
%TO.P,U5,*%
%TO.N,*%
X121290000Y-75000000D03*
D25*
%TO.P,U5,1,SCK*%
%TO.N,/SCK_MIC*%
X118139999Y-73670000D03*
%TO.P,U5,2,SD*%
%TO.N,/SD_2*%
X119190000Y-73669999D03*
%TO.P,U5,3,WS*%
%TO.N,/WS*%
X120240001Y-73670000D03*
%TO.P,U5,4,L/R*%
%TO.N,GND*%
X121290000Y-73670000D03*
%TO.P,U5,5,GND*%
X121290000Y-76330000D03*
%TO.P,U5,6,VDD*%
%TO.N,+3V3*%
X120240001Y-76330000D03*
%TO.P,U5,7,EN*%
%TO.N,Net-(U5-EN)*%
X119190000Y-76330001D03*
%TO.P,U5,8,GND*%
%TO.N,GND*%
X118139999Y-76330000D03*
%TD*%
D12*
%TO.P,U16,*%
%TO.N,*%
X42267832Y-107732168D03*
D26*
%TO.P,U16,1,SCK*%
%TO.N,/SCK_MIC*%
X45435671Y-106445233D03*
%TO.P,U16,2,SD*%
%TO.N,/SD_3*%
X44693209Y-107187696D03*
%TO.P,U16,3,WS*%
%TO.N,/WS*%
X43950746Y-107930158D03*
%TO.P,U16,4,L/R*%
%TO.N,+3V3*%
X43208284Y-108672620D03*
%TO.P,U16,5,GND*%
%TO.N,GND*%
X41327380Y-106791716D03*
%TO.P,U16,6,VDD*%
%TO.N,+3V3*%
X42069842Y-106049254D03*
%TO.P,U16,7,EN*%
%TO.N,Net-(U16-EN)*%
X42812304Y-105306791D03*
%TO.P,U16,8,GND*%
%TO.N,GND*%
X43554767Y-104564329D03*
%TD*%
D27*
%TO.P,J1,1,Pin_1*%
%TO.N,+12V*%
X63180000Y-31175000D03*
D28*
%TO.P,J1,2,Pin_2*%
%TO.N,GND*%
X65680000Y-31175000D03*
%TD*%
D12*
%TO.P,U6,*%
%TO.N,*%
X107732168Y-107732168D03*
D29*
%TO.P,U6,1,SCK*%
%TO.N,/SCK_MIC*%
X106445233Y-104564329D03*
%TO.P,U6,2,SD*%
%TO.N,/SD_2*%
X107187696Y-105306791D03*
%TO.P,U6,3,WS*%
%TO.N,/WS*%
X107930158Y-106049254D03*
%TO.P,U6,4,L/R*%
%TO.N,+3V3*%
X108672620Y-106791716D03*
%TO.P,U6,5,GND*%
%TO.N,GND*%
X106791716Y-108672620D03*
%TO.P,U6,6,VDD*%
%TO.N,+3V3*%
X106049254Y-107930158D03*
%TO.P,U6,7,EN*%
%TO.N,Net-(U6-EN)*%
X105306791Y-107187696D03*
%TO.P,U6,8,GND*%
%TO.N,GND*%
X104564329Y-106445233D03*
%TD*%
D30*
%TO.P,C4,1*%
%TO.N,+3V3*%
X44920000Y-41110000D03*
%TO.P,C4,2*%
%TO.N,GND*%
X44241178Y-40431178D03*
%TD*%
D31*
%TO.P,R2,1*%
%TO.N,+3V3*%
X107444376Y-46325624D03*
%TO.P,R2,2*%
%TO.N,Net-(U2-EN)*%
X108165624Y-45604376D03*
%TD*%
D32*
%TO.P,R3,1*%
%TO.N,+3V3*%
X31845000Y-72460000D03*
%TO.P,R3,2*%
%TO.N,Net-(U3-EN)*%
X30825000Y-72460000D03*
%TD*%
D33*
%TO.P,H1,1*%
%TO.N,N/C*%
X75000000Y-40000000D03*
D34*
X75000000Y-40000000D03*
%TD*%
D12*
%TO.P,U3,*%
%TO.N,*%
X28710000Y-75000000D03*
D35*
%TO.P,U3,1,SCK*%
%TO.N,/SCK_MIC*%
X31860000Y-76330000D03*
%TO.P,U3,2,SD*%
%TO.N,/SD_4*%
X30810000Y-76330000D03*
%TO.P,U3,3,WS*%
%TO.N,/WS*%
X29760000Y-76330000D03*
%TO.P,U3,4,L/R*%
%TO.N,GND*%
X28710000Y-76330000D03*
%TO.P,U3,5,GND*%
X28710000Y-73670000D03*
%TO.P,U3,6,VDD*%
%TO.N,+3V3*%
X29760000Y-73670000D03*
%TO.P,U3,7,EN*%
%TO.N,Net-(U3-EN)*%
X30810000Y-73670000D03*
%TO.P,U3,8,GND*%
%TO.N,GND*%
X31860000Y-73670000D03*
%TD*%
D36*
%TO.P,R1,1*%
%TO.N,+3V3*%
X77595000Y-31825000D03*
%TO.P,R1,2*%
%TO.N,Net-(U1-EN)*%
X77595000Y-30805000D03*
%TD*%
D12*
%TO.P,U1,*%
%TO.N,*%
X75000000Y-28710000D03*
D37*
%TO.P,U1,1,SCK*%
%TO.N,/SCK_MIC*%
X73670000Y-31860000D03*
%TO.P,U1,2,SD*%
%TO.N,/SD_1*%
X73670000Y-30810000D03*
%TO.P,U1,3,WS*%
%TO.N,/WS*%
X73670000Y-29760000D03*
%TO.P,U1,4,L/R*%
%TO.N,GND*%
X73670000Y-28710000D03*
%TO.P,U1,5,GND*%
X76330000Y-28710000D03*
%TO.P,U1,6,VDD*%
%TO.N,+3V3*%
X76330000Y-29760000D03*
%TO.P,U1,7,EN*%
%TO.N,Net-(U1-EN)*%
X76330000Y-30810000D03*
%TO.P,U1,8,GND*%
%TO.N,GND*%
X76330000Y-31860000D03*
%TD*%
D12*
%TO.P,U4,*%
%TO.N,*%
X42267832Y-42267832D03*
D38*
%TO.P,U4,1,SCK*%
%TO.N,/SCK_MIC*%
X43554767Y-45435671D03*
%TO.P,U4,2,SD*%
%TO.N,/SD_4*%
X42812304Y-44693209D03*
%TO.P,U4,3,WS*%
%TO.N,/WS*%
X42069842Y-43950746D03*
%TO.P,U4,4,L/R*%
%TO.N,+3V3*%
X41327380Y-43208284D03*
%TO.P,U4,5,GND*%
%TO.N,GND*%
X43208284Y-41327380D03*
%TO.P,U4,6,VDD*%
%TO.N,+3V3*%
X43950746Y-42069842D03*
%TO.P,U4,7,EN*%
%TO.N,Net-(U4-EN)*%
X44693209Y-42812304D03*
%TO.P,U4,8,GND*%
%TO.N,GND*%
X45435671Y-43554767D03*
%TD*%
D39*
%TO.P,C3,1*%
%TO.N,+3V3*%
X29760000Y-72425000D03*
%TO.P,C3,2*%
%TO.N,GND*%
X28800000Y-72425000D03*
%TD*%
D40*
%TO.P,J2,1,Pin_1*%
%TO.N,/TX*%
X115340000Y-99530000D03*
D41*
%TO.P,J2,2,Pin_2*%
%TO.N,/RX*%
X113543949Y-101326051D03*
%TD*%
D42*
%TO.P,R9,1*%
%TO.N,+3V3*%
X118175000Y-77465000D03*
%TO.P,R9,2*%
%TO.N,Net-(U5-EN)*%
X119195000Y-77465000D03*
%TD*%
D43*
%TO.N,GND*%
X94755000Y-105520000D03*
X62250000Y-120930000D03*
X118870000Y-87935000D03*
D44*
X67095000Y-121555000D03*
D43*
X110600000Y-43460000D03*
X72155000Y-27610000D03*
X115930000Y-87935000D03*
X62255000Y-118395000D03*
X122925000Y-77475000D03*
X46535000Y-44650000D03*
X76310000Y-123070000D03*
X33020000Y-73675000D03*
X65670000Y-33320000D03*
X57835000Y-114280000D03*
X106970000Y-110400000D03*
X39205000Y-107140000D03*
X27040000Y-73670000D03*
X27075000Y-76330000D03*
D44*
X72430000Y-122510000D03*
D43*
X27380000Y-72445000D03*
X118835000Y-80900000D03*
X122050000Y-72400000D03*
X77635000Y-27530000D03*
X105445000Y-46405000D03*
X101525000Y-111480000D03*
X38065000Y-103035000D03*
X43430000Y-39630000D03*
X76340000Y-32805000D03*
%TO.N,+3V3*%
X85395000Y-44330000D03*
X110765000Y-85790000D03*
X91455000Y-81665000D03*
X45320000Y-47200000D03*
X115395000Y-85775000D03*
%TO.N,/WS*%
X41017068Y-45217068D03*
X46947294Y-108757706D03*
X102680000Y-41645000D03*
X117425000Y-70945000D03*
D44*
X79295000Y-119730000D03*
D43*
X30620000Y-78680000D03*
X108547500Y-102607500D03*
X84527500Y-113830000D03*
X71940000Y-30330000D03*
%TO.N,/SCK_MIC*%
X85810000Y-115885000D03*
%TO.N,/SD_1*%
X99490000Y-46290000D03*
X79985000Y-95770000D03*
X102490000Y-43300000D03*
%TO.N,/SD_2*%
X112835000Y-72120000D03*
X103995000Y-100100000D03*
X87920000Y-94730000D03*
X105520605Y-101620605D03*
X80820000Y-94730000D03*
X114497000Y-72120000D03*
%TO.N,/SD_3*%
X48180000Y-106315000D03*
X71820000Y-112200000D03*
X77105000Y-102800000D03*
X77100000Y-91620000D03*
X77100000Y-116965000D03*
%TO.N,/SD_4*%
X32315000Y-78735000D03*
X41385000Y-46455000D03*
%TO.N,+5V*%
X89445000Y-54330000D03*
X57325000Y-72285000D03*
%TO.N,+12V*%
X54840000Y-54230000D03*
%TO.N,/RST*%
X52040000Y-100250000D03*
X82955000Y-99835000D03*
X91465000Y-101285000D03*
X91465000Y-97390000D03*
X46925000Y-72845000D03*
%TO.N,/Boot*%
X96175000Y-93295000D03*
X87660000Y-107535000D03*
X96170000Y-97060000D03*
%TO.N,/TX*%
X108975000Y-91705000D03*
X110962500Y-96662500D03*
%TO.N,/RX*%
X109880000Y-97810000D03*
X107690000Y-91100000D03*
%TO.N,/UART_TX*%
X69450000Y-98265000D03*
%TO.N,/UART_RX*%
X70565000Y-97660000D03*
%TO.N,Net-(U12-IO30)*%
X70570000Y-85330000D03*
X70570000Y-91100000D03*
%TO.N,Net-(U12-IO31)*%
X69285000Y-91110000D03*
X69290000Y-85335000D03*
%TD*%
D45*
%TO.N,GND*%
X115730000Y-79800000D02*
X115730000Y-76750000D01*
X115730000Y-76750000D02*
X116150000Y-76330000D01*
X99525000Y-109480000D02*
X99525000Y-107865000D01*
X116150000Y-76330000D02*
X118139999Y-76330000D01*
X106791716Y-108672620D02*
X106661202Y-108672620D01*
X38065000Y-103035000D02*
X41130000Y-99970000D01*
X104564329Y-106444329D02*
X104564329Y-106445233D01*
X108672620Y-43208284D02*
X108672620Y-43318798D01*
X43208284Y-41327380D02*
X43344976Y-41327380D01*
X72425000Y-121200000D02*
X72425000Y-122505000D01*
X72145000Y-27620000D02*
X72155000Y-27610000D01*
X105954411Y-109384411D02*
X106970000Y-110400000D01*
X77590000Y-28800000D02*
X77520000Y-28730000D01*
D46*
X62250000Y-120930000D02*
X62250000Y-118400000D01*
D45*
X72425000Y-122505000D02*
X72430000Y-122510000D01*
D47*
X76330000Y-121290000D02*
X76330000Y-123050000D01*
D48*
X65680000Y-33310000D02*
X65670000Y-33320000D01*
D45*
X44231178Y-40431178D02*
X43430000Y-39630000D01*
X77520000Y-28730000D02*
X77520000Y-27645000D01*
D46*
X61950000Y-118395000D02*
X57835000Y-114280000D01*
D45*
X73670000Y-28710000D02*
X72340000Y-28710000D01*
D46*
X40900000Y-106233822D02*
X40510589Y-105844411D01*
D45*
X109864411Y-44195589D02*
X110600000Y-43460000D01*
X72340000Y-28710000D02*
X72145000Y-28515000D01*
X40510589Y-105844411D02*
X40500589Y-105844411D01*
X77520000Y-27645000D02*
X77635000Y-27530000D01*
X31860000Y-73670000D02*
X33015000Y-73670000D01*
X73670000Y-121290000D02*
X72515000Y-121290000D01*
X67095000Y-121555000D02*
X67095000Y-117650000D01*
X42790000Y-99970000D02*
X44785000Y-101965000D01*
X101525000Y-111480000D02*
X99525000Y-109480000D01*
X28710000Y-76330000D02*
X27075000Y-76330000D01*
X28710000Y-72515000D02*
X28800000Y-72425000D01*
X45439767Y-43554767D02*
X46535000Y-44650000D01*
D47*
X76330000Y-123050000D02*
X76310000Y-123070000D01*
D45*
X122915000Y-77465000D02*
X122925000Y-77475000D01*
D47*
X94055000Y-109990000D02*
X94055000Y-106220000D01*
D45*
X108672620Y-43318798D02*
X109549411Y-44195589D01*
X44785000Y-101965000D02*
X44785000Y-103340000D01*
X72145000Y-28515000D02*
X72145000Y-27620000D01*
D46*
X62250000Y-118400000D02*
X62255000Y-118395000D01*
D45*
X76330000Y-31860000D02*
X76330000Y-32795000D01*
X67095000Y-117650000D02*
X68208000Y-116537000D01*
D47*
X94055000Y-106220000D02*
X94755000Y-105520000D01*
D45*
X121290000Y-77375000D02*
X121200000Y-77465000D01*
X116830000Y-80900000D02*
X115730000Y-79800000D01*
X118835000Y-80900000D02*
X116830000Y-80900000D01*
X77500000Y-28710000D02*
X77590000Y-28800000D01*
D46*
X40900000Y-106365000D02*
X40900000Y-106233822D01*
D45*
X43560671Y-104564329D02*
X43554767Y-104564329D01*
X68208000Y-116537000D02*
X72967000Y-116537000D01*
D46*
X115930000Y-87935000D02*
X118870000Y-87935000D01*
D45*
X72515000Y-121290000D02*
X72425000Y-121200000D01*
X121290000Y-73160000D02*
X122050000Y-72400000D01*
X40500589Y-105844411D02*
X39205000Y-107140000D01*
X44785000Y-103340000D02*
X43560671Y-104564329D01*
D46*
X40900664Y-106365000D02*
X40900000Y-106365000D01*
D45*
X101600000Y-105790000D02*
X103910000Y-105790000D01*
X45435671Y-43554767D02*
X45439767Y-43554767D01*
X27400000Y-72425000D02*
X27380000Y-72445000D01*
X33015000Y-73670000D02*
X33020000Y-73675000D01*
D48*
X65680000Y-31175000D02*
X65680000Y-33310000D01*
D46*
X41327380Y-106791716D02*
X40900664Y-106365000D01*
D45*
X28800000Y-72425000D02*
X27400000Y-72425000D01*
X106445233Y-45435671D02*
X106414329Y-45435671D01*
D46*
X62255000Y-118395000D02*
X61950000Y-118395000D01*
D45*
X72967000Y-116537000D02*
X73670000Y-117240000D01*
X99525000Y-107865000D02*
X101600000Y-105790000D01*
X103910000Y-105790000D02*
X104564329Y-106444329D01*
X76330000Y-28710000D02*
X77500000Y-28710000D01*
X106414329Y-45435671D02*
X105445000Y-46405000D01*
X73670000Y-117240000D02*
X73670000Y-118139999D01*
X121290000Y-76330000D02*
X121290000Y-77375000D01*
X121200000Y-77465000D02*
X122915000Y-77465000D01*
X43344976Y-41327380D02*
X44241178Y-40431178D01*
X109549411Y-44195589D02*
X109864411Y-44195589D01*
X106661202Y-108672620D02*
X105954411Y-109379411D01*
X28710000Y-73670000D02*
X27040000Y-73670000D01*
X28710000Y-73670000D02*
X28710000Y-72515000D01*
X44241178Y-40431178D02*
X44231178Y-40431178D01*
X121290000Y-73670000D02*
X121290000Y-73160000D01*
X76330000Y-32795000D02*
X76340000Y-32805000D01*
X105954411Y-109379411D02*
X105954411Y-109384411D01*
X41130000Y-99970000D02*
X42790000Y-99970000D01*
%TO.N,+3V3*%
X120240001Y-76330000D02*
X120240000Y-77465000D01*
X32935000Y-72460000D02*
X32940000Y-72455000D01*
D47*
X42825452Y-109145452D02*
X43160000Y-109480000D01*
D45*
X79045000Y-28545000D02*
X79260000Y-28545000D01*
X109968284Y-106791716D02*
X109970000Y-106790000D01*
X41327380Y-43208284D02*
X40510664Y-44025000D01*
X105975000Y-40510664D02*
X105975000Y-40300000D01*
X108870589Y-44874411D02*
X108870589Y-44880589D01*
X72580000Y-118170000D02*
X72345000Y-117935000D01*
X41327380Y-43207380D02*
X40455000Y-42335000D01*
D47*
X43208284Y-108672620D02*
X44075000Y-109539336D01*
D45*
X118175000Y-77465000D02*
X118175000Y-78410000D01*
X108924668Y-106539668D02*
X109129336Y-106335000D01*
X101320000Y-107890000D02*
X101320000Y-108340000D01*
X101320000Y-108340000D02*
X103610000Y-110630000D01*
X108853823Y-44874411D02*
X107930158Y-43950746D01*
X102255000Y-106770000D02*
X101320000Y-107705000D01*
X108924668Y-106539668D02*
X108945000Y-106560000D01*
X76330000Y-29760000D02*
X77590000Y-29760000D01*
X29760000Y-73670000D02*
X29760000Y-72425000D01*
X78395000Y-29760000D02*
X79045000Y-29110000D01*
X43208284Y-108672620D02*
X43208284Y-109178284D01*
D47*
X42490000Y-109390904D02*
X42490000Y-109395000D01*
D45*
X78771030Y-28545000D02*
X79045000Y-28545000D01*
X43950746Y-42069842D02*
X43960158Y-42069842D01*
X42069842Y-106049254D02*
X42069842Y-106046020D01*
X108672620Y-106791716D02*
X109276716Y-106791716D01*
D47*
X43208284Y-108672620D02*
X42825452Y-109055452D01*
D45*
X77590000Y-29760000D02*
X78395000Y-29760000D01*
X42710624Y-103669376D02*
X43845000Y-102535000D01*
X41327380Y-43208284D02*
X40906716Y-43208284D01*
X106480000Y-39665000D02*
X106555000Y-39590000D01*
X43960158Y-42069842D02*
X44920000Y-41110000D01*
X106046020Y-107930158D02*
X105275589Y-108700589D01*
X77675000Y-29760000D02*
X77720000Y-29715000D01*
X77595000Y-31825000D02*
X79180000Y-31825000D01*
X42069842Y-106046020D02*
X41189411Y-105165589D01*
D47*
X109455000Y-107574096D02*
X109455000Y-107575000D01*
D45*
X108672620Y-106791716D02*
X108924668Y-106539668D01*
X40906716Y-43208284D02*
X40455000Y-43660000D01*
X106480000Y-40535000D02*
X106480000Y-39665000D01*
X41327380Y-43208284D02*
X41327380Y-43207380D01*
X47435000Y-43620000D02*
X47435000Y-43625000D01*
X109276716Y-106791716D02*
X109695000Y-107210000D01*
X41327380Y-43208284D02*
X40788284Y-43208284D01*
D47*
X108672620Y-106791716D02*
X109129336Y-106335000D01*
D45*
X46390624Y-42575624D02*
X47435000Y-43620000D01*
X108870589Y-44874411D02*
X108853823Y-44874411D01*
X79180000Y-31825000D02*
X79190000Y-31835000D01*
X79045000Y-29110000D02*
X79045000Y-28545000D01*
X109129336Y-106335000D02*
X109990000Y-106335000D01*
X40788284Y-43208284D02*
X40550000Y-42970000D01*
X103240000Y-106770000D02*
X102255000Y-106770000D01*
X118175000Y-78410000D02*
X118370000Y-78605000D01*
D47*
X108672620Y-106791716D02*
X109455000Y-107574096D01*
D45*
X106480000Y-41015664D02*
X106480000Y-40535000D01*
X107444376Y-46325624D02*
X106645000Y-47125000D01*
X106791716Y-41327380D02*
X106480000Y-41015664D01*
X73670000Y-120240001D02*
X72425000Y-120240000D01*
X108945000Y-106560000D02*
X109915000Y-106560000D01*
D47*
X42825452Y-109055452D02*
X42825452Y-109145452D01*
D45*
X106645000Y-47125000D02*
X106635000Y-47125000D01*
X43208284Y-109178284D02*
X43605000Y-109575000D01*
X43845000Y-102535000D02*
X43880000Y-102535000D01*
X103764376Y-107294376D02*
X103240000Y-106770000D01*
X106049254Y-107930158D02*
X106046020Y-107930158D01*
D47*
X42825452Y-109055452D02*
X42490000Y-109390904D01*
D45*
X31845000Y-72460000D02*
X32935000Y-72460000D01*
X72345000Y-117935000D02*
X70780000Y-117935000D01*
X108672620Y-106791716D02*
X109968284Y-106791716D01*
X106791716Y-41327380D02*
X105975000Y-40510664D01*
X108870589Y-44880589D02*
X109560000Y-45570000D01*
X101320000Y-107705000D02*
X101320000Y-107890000D01*
X40510664Y-44025000D02*
X39740000Y-44025000D01*
X44075000Y-109539336D02*
X44075000Y-110015000D01*
%TO.N,Net-(U1-EN)*%
X77685000Y-30810000D02*
X76330000Y-30810000D01*
%TO.N,Net-(U2-EN)*%
X107254457Y-44693209D02*
X108165624Y-45604376D01*
X107187696Y-44693209D02*
X107254457Y-44693209D01*
%TO.N,Net-(U5-EN)*%
X119195000Y-77465000D02*
X119195000Y-76335001D01*
X119195000Y-76335001D02*
X119190000Y-76330001D01*
%TO.N,Net-(U6-EN)*%
X105306791Y-107187696D02*
X105306791Y-107194457D01*
X105306791Y-107194457D02*
X104485624Y-108015624D01*
%TO.N,Net-(U15-EN)*%
X73669999Y-119190000D02*
X72580000Y-119190000D01*
%TO.N,Net-(U16-EN)*%
X42812304Y-105213552D02*
X41989376Y-104390624D01*
X42812304Y-105306791D02*
X42812304Y-105213552D01*
%TO.N,/WS*%
X105074412Y-41095000D02*
X103230000Y-41095000D01*
D47*
X69195000Y-113830000D02*
X68455000Y-113090000D01*
X84527500Y-113830000D02*
X69195000Y-113830000D01*
D45*
X43950746Y-107930158D02*
X45240588Y-109220000D01*
X109555000Y-104424412D02*
X109555000Y-103615000D01*
X42069842Y-43980158D02*
X41017068Y-45032932D01*
X29760000Y-76330000D02*
X29760000Y-77820000D01*
X76330000Y-120240000D02*
X78785000Y-120240000D01*
X120240001Y-71575001D02*
X119610000Y-70945000D01*
X73670000Y-29760000D02*
X72510000Y-29760000D01*
X42069842Y-43950746D02*
X42069842Y-43980158D01*
D47*
X68455000Y-113090000D02*
X68455000Y-109990000D01*
D45*
X103230000Y-41095000D02*
X102680000Y-41645000D01*
X107930158Y-106049254D02*
X109555000Y-104424412D01*
X72510000Y-29760000D02*
X71940000Y-30330000D01*
X119610000Y-70945000D02*
X117425000Y-70945000D01*
X46485000Y-109220000D02*
X46947294Y-108757706D01*
X29760000Y-77820000D02*
X30620000Y-78680000D01*
X120240001Y-73670000D02*
X120240001Y-71575001D01*
X78785000Y-120240000D02*
X79295000Y-119730000D01*
X109555000Y-103615000D02*
X108547500Y-102607500D01*
X45240588Y-109220000D02*
X46485000Y-109220000D01*
X41017068Y-45032932D02*
X41017068Y-45217068D01*
X106049254Y-42069842D02*
X105074412Y-41095000D01*
%TO.N,/SCK_MIC*%
X113835000Y-74205000D02*
X113835000Y-73605000D01*
X97140000Y-111245000D02*
X97140000Y-109065000D01*
X33560000Y-76330000D02*
X33965000Y-75925000D01*
X65255000Y-115875000D02*
X65245000Y-115885000D01*
X64600000Y-115885000D02*
X64365000Y-115885000D01*
X102342500Y-45757500D02*
X101737500Y-45757500D01*
X104437952Y-102557048D02*
X103647952Y-102557048D01*
X47982500Y-103802500D02*
X47982500Y-103152500D01*
X40790000Y-95960000D02*
X47982500Y-103152500D01*
X92500000Y-115885000D02*
X97140000Y-111245000D01*
X33535000Y-76330000D02*
X33950000Y-76330000D01*
X64600000Y-115885000D02*
X65245000Y-115885000D01*
X76665000Y-115885000D02*
X76885000Y-115885000D01*
X34005000Y-75925000D02*
X34005000Y-76385000D01*
X76330000Y-115955000D02*
X76260000Y-115885000D01*
X110657500Y-54677500D02*
X106345000Y-50365000D01*
X76330000Y-116220000D02*
X76665000Y-115885000D01*
X102442048Y-45677048D02*
X102352048Y-45767048D01*
X48030452Y-103850452D02*
X47982500Y-103802500D01*
X76260000Y-115885000D02*
X76885000Y-115885000D01*
X97140000Y-109065000D02*
X103647952Y-102557048D01*
X101945000Y-45965000D02*
X101737500Y-45757500D01*
X73670000Y-31860000D02*
X73670000Y-33610000D01*
X76885000Y-115885000D02*
X85810000Y-115885000D01*
X48323404Y-103557500D02*
X48387500Y-103557500D01*
X102442048Y-45677048D02*
X102154096Y-45965000D01*
X45435671Y-106445233D02*
X48030452Y-103850452D01*
X48387500Y-103557500D02*
X48737500Y-103907500D01*
X33560000Y-76330000D02*
X34005000Y-76775000D01*
X113900000Y-73670000D02*
X113835000Y-73605000D01*
X47982500Y-103152500D02*
X48387500Y-103557500D01*
X106345000Y-50365000D02*
X102400000Y-46420000D01*
X33535000Y-76330000D02*
X33560000Y-76330000D01*
X65255000Y-109990000D02*
X65255000Y-115875000D01*
X65245000Y-115885000D02*
X65985000Y-115885000D01*
X104043404Y-102162500D02*
X104042500Y-102162500D01*
X113445000Y-92760000D02*
X113835000Y-92370000D01*
X104564329Y-43554767D02*
X102442048Y-45677048D01*
X75870000Y-115885000D02*
X76260000Y-115885000D01*
X63060000Y-115885000D02*
X63680000Y-115885000D01*
X48737500Y-103907500D02*
X60715000Y-115885000D01*
X76330000Y-116220000D02*
X76330000Y-115955000D01*
X114360000Y-73670000D02*
X113900000Y-73670000D01*
X34005000Y-89175000D02*
X40477500Y-95647500D01*
X104437952Y-102557048D02*
X104260452Y-102379548D01*
X113835000Y-92370000D02*
X113835000Y-74205000D01*
X63680000Y-115885000D02*
X64365000Y-115885000D01*
X85810000Y-115885000D02*
X92500000Y-115885000D01*
X103627500Y-102577500D02*
X104042500Y-102162500D01*
X102352048Y-46372048D02*
X102400000Y-46420000D01*
X76330000Y-118140000D02*
X76330000Y-116220000D01*
X43549329Y-45435671D02*
X34005000Y-54980000D01*
X114360000Y-73670000D02*
X113835000Y-73145000D01*
X74190000Y-34130000D02*
X74245000Y-34130000D01*
X65985000Y-115885000D02*
X75870000Y-115885000D01*
X113835000Y-73145000D02*
X113835000Y-72940000D01*
X104437952Y-102557048D02*
X104437952Y-101937952D01*
X48030452Y-103850452D02*
X48087500Y-103907500D01*
X31860000Y-76330000D02*
X33535000Y-76330000D01*
X104437952Y-101937952D02*
X104352500Y-101852500D01*
X106445233Y-104564329D02*
X104437952Y-102557048D01*
X102352048Y-45767048D02*
X102342500Y-45757500D01*
X60715000Y-115885000D02*
X63060000Y-115885000D01*
X90110000Y-34130000D02*
X74245000Y-34130000D01*
X34005000Y-54980000D02*
X34005000Y-75925000D01*
X104352500Y-101852500D02*
X111842500Y-94362500D01*
X34005000Y-76385000D02*
X34005000Y-76775000D01*
X48087500Y-103907500D02*
X48737500Y-103907500D01*
X114360000Y-73680000D02*
X113835000Y-74205000D01*
X34005000Y-76775000D02*
X34005000Y-89175000D01*
X118139999Y-73670000D02*
X114360000Y-73670000D01*
X104042500Y-102162500D02*
X104352500Y-101852500D01*
X102400000Y-46420000D02*
X101945000Y-45965000D01*
X113835000Y-72940000D02*
X113835000Y-60275000D01*
X111842500Y-94362500D02*
X113445000Y-92760000D01*
X113835000Y-57855000D02*
X110657500Y-54677500D01*
X76330000Y-116220000D02*
X75995000Y-115885000D01*
X33965000Y-75925000D02*
X34005000Y-75925000D01*
X113835000Y-73605000D02*
X113835000Y-72940000D01*
X102352048Y-46372048D02*
X102352048Y-45767048D01*
X73670000Y-33610000D02*
X74190000Y-34130000D01*
X102154096Y-45965000D02*
X101945000Y-45965000D01*
X43554767Y-45435671D02*
X43549329Y-45435671D01*
X103647952Y-102557048D02*
X103627500Y-102577500D01*
X75995000Y-115885000D02*
X75870000Y-115885000D01*
X104260452Y-102379548D02*
X104043404Y-102162500D01*
X114360000Y-73670000D02*
X114360000Y-73680000D01*
X113835000Y-60275000D02*
X113835000Y-57855000D01*
X33950000Y-76330000D02*
X34005000Y-76385000D01*
X48030452Y-103850452D02*
X48323404Y-103557500D01*
X40477500Y-95647500D02*
X40790000Y-95960000D01*
X101737500Y-45757500D02*
X90110000Y-34130000D01*
%TO.N,/SD_1*%
X72525000Y-31385000D02*
X72525000Y-34635000D01*
X73670000Y-30810000D02*
X73100000Y-30810000D01*
X73100000Y-30810000D02*
X72525000Y-31385000D01*
X73615000Y-35725000D02*
X88925000Y-35725000D01*
X72525000Y-34635000D02*
X73615000Y-35725000D01*
D47*
X79985000Y-65795000D02*
X99490000Y-46290000D01*
D45*
X104664487Y-42170000D02*
X105306791Y-42812304D01*
D47*
X79985000Y-95770000D02*
X79985000Y-65795000D01*
D45*
X103620000Y-42170000D02*
X104664487Y-42170000D01*
X102490000Y-43300000D02*
X103620000Y-42170000D01*
X88925000Y-35725000D02*
X99490000Y-46290000D01*
%TO.N,/SD_2*%
X119190000Y-72740000D02*
X119190000Y-73669999D01*
X106795000Y-102895000D02*
X106820000Y-102895000D01*
X118570000Y-72120000D02*
X119190000Y-72740000D01*
X112835000Y-72120000D02*
X112835000Y-91245000D01*
X107585000Y-103660000D02*
X107585000Y-104909487D01*
D47*
X80820000Y-94730000D02*
X87920000Y-94730000D01*
D45*
X112835000Y-91245000D02*
X103995000Y-100085000D01*
X114497000Y-72120000D02*
X118570000Y-72120000D01*
X105520605Y-101620605D02*
X106795000Y-102895000D01*
X107585000Y-104909487D02*
X107187696Y-105306791D01*
X106820000Y-102895000D02*
X107585000Y-103660000D01*
X103995000Y-100085000D02*
X103995000Y-100100000D01*
%TO.N,/SD_3*%
X77105000Y-91625000D02*
X77100000Y-91620000D01*
X77100000Y-118420001D02*
X76330001Y-119190000D01*
X71820000Y-112200000D02*
X71820000Y-110155000D01*
X71820000Y-110020000D02*
X71800000Y-110000000D01*
X77100000Y-116965000D02*
X77100000Y-118420001D01*
X77105000Y-102800000D02*
X77105000Y-91625000D01*
X71820000Y-110155000D02*
X71655000Y-109990000D01*
X45380513Y-107875000D02*
X44693209Y-107187696D01*
X48180000Y-106315000D02*
X46620000Y-107875000D01*
X46620000Y-107875000D02*
X45380513Y-107875000D01*
%TO.N,Net-(U3-EN)*%
X30810000Y-73670000D02*
X30810000Y-72475000D01*
X30810000Y-72475000D02*
X30825000Y-72460000D01*
%TO.N,Net-(U4-EN)*%
X44693209Y-42812304D02*
X44711448Y-42812304D01*
X44711448Y-42812304D02*
X45669376Y-41854376D01*
%TO.N,/SD_4*%
X32315000Y-78680000D02*
X30810000Y-77175000D01*
X32315000Y-78735000D02*
X32315000Y-78680000D01*
X30810000Y-77175000D02*
X30810000Y-76330000D01*
X42812304Y-44693209D02*
X42812304Y-45027696D01*
X42812304Y-45027696D02*
X41385000Y-46455000D01*
D47*
%TO.N,+5V*%
X71490000Y-72285000D02*
X89445000Y-54330000D01*
X57325000Y-72285000D02*
X71490000Y-72285000D01*
D48*
%TO.N,+12V*%
X56590000Y-31125000D02*
X63130000Y-31125000D01*
X58025000Y-110000000D02*
X58035000Y-109990000D01*
X58035000Y-109990000D02*
X62055000Y-109990000D01*
X54840000Y-32875000D02*
X56590000Y-31125000D01*
X54840000Y-54230000D02*
X54840000Y-106815000D01*
X63130000Y-31125000D02*
X63180000Y-31175000D01*
X54840000Y-106815000D02*
X58025000Y-110000000D01*
X54840000Y-54230000D02*
X54840000Y-32875000D01*
D47*
%TO.N,/RST*%
X46975000Y-94090000D02*
X46975000Y-72895000D01*
X52040000Y-100250000D02*
X52040000Y-99155000D01*
X52040000Y-99155000D02*
X46975000Y-94090000D01*
X46975000Y-72895000D02*
X46925000Y-72845000D01*
X85400000Y-97390000D02*
X91465000Y-97390000D01*
X82955000Y-99835000D02*
X85400000Y-97390000D01*
X90855000Y-101895000D02*
X90855000Y-109990000D01*
X91465000Y-101285000D02*
X90855000Y-101895000D01*
%TO.N,/Boot*%
X96175000Y-97055000D02*
X96170000Y-97060000D01*
X96175000Y-93295000D02*
X96175000Y-97055000D01*
X87660000Y-107535000D02*
X87660000Y-109985000D01*
X87660000Y-109985000D02*
X87655000Y-109990000D01*
%TO.N,/TX*%
X110962500Y-96662500D02*
X112472500Y-96662500D01*
X112472500Y-96662500D02*
X115340000Y-99530000D01*
X100810000Y-99870000D02*
X108975000Y-91705000D01*
X84455000Y-104445000D02*
X89030000Y-99870000D01*
X89030000Y-99870000D02*
X100810000Y-99870000D01*
X84455000Y-109990000D02*
X84455000Y-104445000D01*
%TO.N,/RX*%
X107690000Y-91100000D02*
X99673000Y-99117000D01*
X81255000Y-104995000D02*
X81255000Y-109990000D01*
X109880000Y-97810000D02*
X110027898Y-97810000D01*
X87133000Y-99117000D02*
X81255000Y-104995000D01*
X99673000Y-99117000D02*
X87133000Y-99117000D01*
X110027898Y-97810000D02*
X113543949Y-101326051D01*
%TO.N,/UART_TX*%
X74855000Y-103670000D02*
X74855000Y-109990000D01*
X69450000Y-98265000D02*
X74855000Y-103670000D01*
%TO.N,/UART_RX*%
X78055000Y-109990000D02*
X78055000Y-105150000D01*
X78055000Y-105150000D02*
X70565000Y-97660000D01*
%TO.N,Net-(U12-IO30)*%
X70570000Y-85330000D02*
X70570000Y-91100000D01*
%TO.N,Net-(U12-IO31)*%
X69285000Y-85340000D02*
X69290000Y-85335000D01*
X69285000Y-91110000D02*
X69285000Y-85340000D01*
%TD*%
%TA.AperFunction,Conductor*%
%TO.N,+3V3*%
G36*
X74053492Y-119871191D02*
G01*
X74105216Y-119918163D01*
X74123334Y-119985643D01*
X74102094Y-120052206D01*
X74087049Y-120070436D01*
X73881423Y-120276062D01*
X73873477Y-120280400D01*
X73868052Y-120287648D01*
X73843292Y-120296882D01*
X73820100Y-120309547D01*
X73811070Y-120308901D01*
X73802588Y-120312065D01*
X73776767Y-120306448D01*
X73750408Y-120304563D01*
X73741354Y-120298744D01*
X73734315Y-120297213D01*
X73706061Y-120276062D01*
X73633937Y-120203938D01*
X73600452Y-120142615D01*
X73605436Y-120072923D01*
X73633937Y-120028576D01*
X73753616Y-119908897D01*
X73814939Y-119875412D01*
X73816954Y-119874991D01*
X73852706Y-119867880D01*
X73876889Y-119865499D01*
X73935784Y-119865499D01*
X73935791Y-119865499D01*
X73984588Y-119859639D01*
X74053492Y-119871191D01*
G37*
%TD.AperFunction*%
%TA.AperFunction,Conductor*%
G36*
X106189952Y-107429743D02*
G01*
X106222000Y-107491829D01*
X106224253Y-107515359D01*
X106224253Y-107806158D01*
X106221702Y-107814843D01*
X106222991Y-107823805D01*
X106212012Y-107847845D01*
X106204568Y-107873197D01*
X106197727Y-107879124D01*
X106193966Y-107887361D01*
X106171731Y-107901650D01*
X106151764Y-107918952D01*
X106141249Y-107921239D01*
X106135188Y-107925135D01*
X106100253Y-107930158D01*
X105998255Y-107930158D01*
X105931216Y-107910473D01*
X105885461Y-107857669D01*
X105874255Y-107806158D01*
X105874255Y-107643667D01*
X105893940Y-107576628D01*
X105895093Y-107574866D01*
X105927566Y-107526268D01*
X105927567Y-107526264D01*
X105928931Y-107524224D01*
X105944355Y-107505431D01*
X105972384Y-107477403D01*
X106002743Y-107438758D01*
X106059636Y-107398200D01*
X106129424Y-107394839D01*
X106189952Y-107429743D01*
G37*
%TD.AperFunction*%
%TA.AperFunction,Conductor*%
G36*
X42430132Y-105893940D02*
G01*
X42431953Y-105895132D01*
X42462162Y-105915317D01*
X42471965Y-105923363D01*
X42475996Y-105926048D01*
X42478534Y-105928321D01*
X42522597Y-105972384D01*
X42564390Y-106005216D01*
X42567369Y-106007884D01*
X42583753Y-106034321D01*
X42601800Y-106059637D01*
X42601998Y-106063761D01*
X42604175Y-106067273D01*
X42603664Y-106098371D01*
X42605160Y-106129426D01*
X42603096Y-106133003D01*
X42603029Y-106137134D01*
X42585790Y-106163014D01*
X42570256Y-106189953D01*
X42566585Y-106191847D01*
X42564296Y-106195285D01*
X42535797Y-106207739D01*
X42508170Y-106222000D01*
X42504059Y-106221609D01*
X42500274Y-106223264D01*
X42484641Y-106224253D01*
X42193842Y-106224253D01*
X42126803Y-106204568D01*
X42081048Y-106151764D01*
X42069842Y-106100253D01*
X42069842Y-105998255D01*
X42089527Y-105931216D01*
X42142331Y-105885461D01*
X42193842Y-105874255D01*
X42363093Y-105874255D01*
X42430132Y-105893940D01*
G37*
%TD.AperFunction*%
%TA.AperFunction,Conductor*%
G36*
X120052206Y-75897905D02*
G01*
X120070436Y-75912950D01*
X120276062Y-76118576D01*
X120280399Y-76126520D01*
X120287648Y-76131946D01*
X120296884Y-76156708D01*
X120309547Y-76179899D01*
X120308901Y-76188927D01*
X120312065Y-76197410D01*
X120306448Y-76223232D01*
X120304563Y-76249591D01*
X120298745Y-76258643D01*
X120297214Y-76265683D01*
X120276063Y-76293938D01*
X120203940Y-76366062D01*
X120142617Y-76399547D01*
X120072925Y-76394563D01*
X120028577Y-76366062D01*
X119913898Y-76251383D01*
X119880413Y-76190060D01*
X119879972Y-76187946D01*
X119868580Y-76130673D01*
X119868579Y-76130670D01*
X119867881Y-76127161D01*
X119865499Y-76102970D01*
X119865499Y-76064216D01*
X119865499Y-76064209D01*
X119859639Y-76015411D01*
X119871191Y-75946506D01*
X119918163Y-75894782D01*
X119985643Y-75876665D01*
X120052206Y-75897905D01*
G37*
%TD.AperFunction*%
%TA.AperFunction,Conductor*%
G36*
X29927077Y-73605438D02*
G01*
X29971424Y-73633938D01*
X30091101Y-73753615D01*
X30100163Y-73770210D01*
X30113296Y-73783821D01*
X30123700Y-73813316D01*
X30124586Y-73814938D01*
X30125037Y-73817105D01*
X30132117Y-73852699D01*
X30134500Y-73876888D01*
X30134500Y-73935786D01*
X30140360Y-73984585D01*
X30128807Y-74053493D01*
X30081834Y-74105216D01*
X30014354Y-74123333D01*
X29947792Y-74102092D01*
X29929563Y-74087048D01*
X29723938Y-73881423D01*
X29719599Y-73873478D01*
X29712351Y-73868052D01*
X29703115Y-73843289D01*
X29690453Y-73820100D01*
X29691098Y-73811069D01*
X29687935Y-73802587D01*
X29693551Y-73776766D01*
X29695437Y-73750408D01*
X29701255Y-73741354D01*
X29702787Y-73734314D01*
X29723938Y-73706060D01*
X29796062Y-73633937D01*
X29857386Y-73600453D01*
X29927077Y-73605438D01*
G37*
%TD.AperFunction*%
%TA.AperFunction,Conductor*%
G36*
X107873197Y-43795432D02*
G01*
X107918952Y-43848236D01*
X107930158Y-43899747D01*
X107930158Y-44001745D01*
X107910473Y-44068784D01*
X107857669Y-44114539D01*
X107806158Y-44125745D01*
X107703668Y-44125745D01*
X107636629Y-44106060D01*
X107634816Y-44104872D01*
X107586268Y-44072434D01*
X107586269Y-44072434D01*
X107586267Y-44072433D01*
X107492407Y-44033555D01*
X107463258Y-44016503D01*
X107438758Y-43997256D01*
X107398200Y-43940363D01*
X107394841Y-43870574D01*
X107429745Y-43810047D01*
X107491831Y-43778000D01*
X107515360Y-43775747D01*
X107806158Y-43775747D01*
X107873197Y-43795432D01*
G37*
%TD.AperFunction*%
%TA.AperFunction,Conductor*%
G36*
X44068784Y-42089527D02*
G01*
X44114539Y-42142331D01*
X44125745Y-42193842D01*
X44125745Y-42363091D01*
X44106060Y-42430130D01*
X44104846Y-42431983D01*
X44084681Y-42462161D01*
X44069263Y-42480948D01*
X44027625Y-42522587D01*
X44027612Y-42522601D01*
X43997256Y-42561243D01*
X43940362Y-42601800D01*
X43870573Y-42605159D01*
X43810046Y-42570254D01*
X43777999Y-42508168D01*
X43775747Y-42484640D01*
X43775747Y-42193842D01*
X43778297Y-42185156D01*
X43777009Y-42176195D01*
X43787987Y-42152154D01*
X43795432Y-42126803D01*
X43802272Y-42120875D01*
X43806034Y-42112639D01*
X43828268Y-42098349D01*
X43848236Y-42081048D01*
X43858750Y-42078760D01*
X43864812Y-42074865D01*
X43899747Y-42069842D01*
X44001745Y-42069842D01*
X44068784Y-42089527D01*
G37*
%TD.AperFunction*%
%TA.AperFunction,Conductor*%
G36*
X76249589Y-29695436D02*
G01*
X76293937Y-29723937D01*
X76366061Y-29796061D01*
X76399546Y-29857384D01*
X76394562Y-29927076D01*
X76366061Y-29971423D01*
X76246384Y-30091100D01*
X76229788Y-30100162D01*
X76216179Y-30113294D01*
X76186681Y-30123700D01*
X76185061Y-30124585D01*
X76182895Y-30125036D01*
X76147298Y-30132117D01*
X76123108Y-30134500D01*
X76064213Y-30134500D01*
X76015413Y-30140360D01*
X75946505Y-30128807D01*
X75894781Y-30081834D01*
X75876665Y-30014354D01*
X75897906Y-29947791D01*
X75912950Y-29929563D01*
X76118575Y-29723937D01*
X76179898Y-29690452D01*
X76249589Y-29695436D01*
G37*
%TD.AperFunction*%
%TA.AperFunction,Conductor*%
G36*
X75700159Y-25205447D02*
G01*
X77093005Y-25244525D01*
X77096354Y-25244666D01*
X78487603Y-25322797D01*
X78491056Y-25323040D01*
X79879530Y-25440156D01*
X79882876Y-25440486D01*
X81229681Y-25592234D01*
X81267527Y-25596499D01*
X81270980Y-25596937D01*
X82650644Y-25791713D01*
X82654034Y-25792240D01*
X84027761Y-26025646D01*
X84031161Y-26026273D01*
X85397749Y-26298104D01*
X85401088Y-26298817D01*
X86574093Y-26566548D01*
X86759540Y-26608875D01*
X86762914Y-26609694D01*
X88112165Y-26957737D01*
X88115411Y-26958623D01*
X89454415Y-27344384D01*
X89457663Y-27345370D01*
X90785248Y-27768509D01*
X90788480Y-27769589D01*
X91706224Y-28090721D01*
X92103709Y-28229807D01*
X92106973Y-28231001D01*
X93061359Y-28595310D01*
X93408695Y-28727895D01*
X93411927Y-28729181D01*
X94699218Y-29262394D01*
X94702412Y-29263770D01*
X95024024Y-29407682D01*
X95974240Y-29832876D01*
X95977364Y-29834327D01*
X96398914Y-30037335D01*
X97232755Y-30438892D01*
X97235867Y-30440445D01*
X97479689Y-30566406D01*
X98473804Y-31079978D01*
X98476798Y-31081577D01*
X99563724Y-31682301D01*
X99696339Y-31755595D01*
X99699359Y-31757320D01*
X100899458Y-32465240D01*
X100902429Y-32467049D01*
X101410528Y-32786309D01*
X102057784Y-33193007D01*
X102082222Y-33208362D01*
X102085131Y-33210247D01*
X103243677Y-33984362D01*
X103246496Y-33986304D01*
X104382935Y-34792650D01*
X104385684Y-34794660D01*
X104797020Y-35104222D01*
X105498980Y-35632502D01*
X105501730Y-35634632D01*
X106591108Y-36503382D01*
X106593796Y-36505588D01*
X107658360Y-37404532D01*
X107660986Y-37406813D01*
X108699930Y-38335269D01*
X108702486Y-38337618D01*
X109403581Y-39000445D01*
X109715002Y-39294868D01*
X109717495Y-39297293D01*
X110702706Y-40282504D01*
X110705131Y-40284997D01*
X110946279Y-40540068D01*
X111603372Y-41235098D01*
X111662376Y-41297508D01*
X111664730Y-41300069D01*
X112593186Y-42339013D01*
X112595467Y-42341639D01*
X113494411Y-43406203D01*
X113496617Y-43408891D01*
X114365367Y-44498269D01*
X114367497Y-44501019D01*
X114754344Y-45015048D01*
X115189157Y-45592813D01*
X115205317Y-45614285D01*
X115207357Y-45617076D01*
X116013680Y-46753481D01*
X116015647Y-46756338D01*
X116201545Y-47034554D01*
X116789745Y-47914858D01*
X116791637Y-47917777D01*
X117532950Y-49097570D01*
X117534759Y-49100541D01*
X118242679Y-50300640D01*
X118244404Y-50303660D01*
X118918402Y-51523165D01*
X118920041Y-51526232D01*
X119559554Y-52764132D01*
X119561107Y-52767244D01*
X120165665Y-54022620D01*
X120167130Y-54025775D01*
X120736229Y-55297587D01*
X120737605Y-55300781D01*
X121270818Y-56588072D01*
X121272104Y-56591304D01*
X121768997Y-57893024D01*
X121770192Y-57896290D01*
X122230399Y-59211486D01*
X122231501Y-59214785D01*
X122654617Y-60542296D01*
X122655627Y-60545624D01*
X123041361Y-61884533D01*
X123042277Y-61887889D01*
X123390303Y-63237080D01*
X123391124Y-63240459D01*
X123701175Y-64598880D01*
X123701901Y-64602282D01*
X123973724Y-65968828D01*
X123974355Y-65972248D01*
X124207755Y-67345942D01*
X124208289Y-67349379D01*
X124403062Y-68729022D01*
X124403500Y-68732472D01*
X124559507Y-70117065D01*
X124559848Y-70120527D01*
X124676958Y-71508935D01*
X124677202Y-71512404D01*
X124755330Y-72903583D01*
X124755476Y-72907058D01*
X124760483Y-73085500D01*
X124794198Y-74287205D01*
X124794553Y-74299840D01*
X124794602Y-74303318D01*
X124794602Y-75696681D01*
X124794553Y-75700159D01*
X124755476Y-77092941D01*
X124755330Y-77096416D01*
X124677202Y-78487595D01*
X124676958Y-78491064D01*
X124559848Y-79879472D01*
X124559507Y-79882934D01*
X124403500Y-81267527D01*
X124403062Y-81270977D01*
X124208289Y-82650620D01*
X124207755Y-82654057D01*
X123974355Y-84027751D01*
X123973724Y-84031171D01*
X123701901Y-85397717D01*
X123701175Y-85401119D01*
X123391124Y-86759540D01*
X123390303Y-86762919D01*
X123042277Y-88112110D01*
X123041361Y-88115466D01*
X122655627Y-89454375D01*
X122654617Y-89457703D01*
X122231501Y-90785214D01*
X122230399Y-90788513D01*
X121770192Y-92103709D01*
X121768997Y-92106975D01*
X121272104Y-93408695D01*
X121270818Y-93411927D01*
X120737605Y-94699218D01*
X120736229Y-94702412D01*
X120167130Y-95974224D01*
X120165665Y-95977379D01*
X119561107Y-97232755D01*
X119559554Y-97235867D01*
X118920041Y-98473767D01*
X118918402Y-98476834D01*
X118244404Y-99696339D01*
X118242679Y-99699359D01*
X117534759Y-100899458D01*
X117532950Y-100902429D01*
X116791637Y-102082222D01*
X116789745Y-102085141D01*
X116015652Y-103243654D01*
X116013680Y-103246518D01*
X115207370Y-104382906D01*
X115205317Y-104385714D01*
X114367497Y-105498980D01*
X114365367Y-105501730D01*
X113496617Y-106591108D01*
X113494411Y-106593796D01*
X112595467Y-107658360D01*
X112593186Y-107660986D01*
X111664730Y-108699930D01*
X111662376Y-108702491D01*
X110705131Y-109715002D01*
X110702706Y-109717495D01*
X109717495Y-110702706D01*
X109715002Y-110705131D01*
X108702491Y-111662376D01*
X108699930Y-111664730D01*
X107660986Y-112593186D01*
X107658360Y-112595467D01*
X106593796Y-113494411D01*
X106591108Y-113496617D01*
X105501730Y-114365367D01*
X105498980Y-114367497D01*
X104385714Y-115205317D01*
X104382906Y-115207370D01*
X103246518Y-116013680D01*
X103243654Y-116015652D01*
X102085141Y-116789745D01*
X102082222Y-116791637D01*
X100902429Y-117532950D01*
X100899458Y-117534759D01*
X99699359Y-118242679D01*
X99696339Y-118244404D01*
X98476834Y-118918402D01*
X98473767Y-118920041D01*
X97235867Y-119559554D01*
X97232755Y-119561107D01*
X95977379Y-120165665D01*
X95974224Y-120167130D01*
X94702412Y-120736229D01*
X94699218Y-120737605D01*
X93411927Y-121270818D01*
X93408695Y-121272104D01*
X92106975Y-121768997D01*
X92103709Y-121770192D01*
X90788513Y-122230399D01*
X90785214Y-122231501D01*
X89457703Y-122654617D01*
X89454375Y-122655627D01*
X88115466Y-123041361D01*
X88112110Y-123042277D01*
X86762919Y-123390303D01*
X86759540Y-123391124D01*
X85401119Y-123701175D01*
X85397717Y-123701901D01*
X84031171Y-123973724D01*
X84027751Y-123974355D01*
X82654057Y-124207755D01*
X82650620Y-124208289D01*
X81270977Y-124403062D01*
X81267527Y-124403500D01*
X79882934Y-124559507D01*
X79879472Y-124559848D01*
X78491064Y-124676958D01*
X78487595Y-124677202D01*
X77096416Y-124755330D01*
X77092941Y-124755476D01*
X75700159Y-124794553D01*
X75696681Y-124794602D01*
X74303319Y-124794602D01*
X74299841Y-124794553D01*
X72907058Y-124755476D01*
X72903583Y-124755330D01*
X71512404Y-124677202D01*
X71508935Y-124676958D01*
X70120527Y-124559848D01*
X70117065Y-124559507D01*
X68732472Y-124403500D01*
X68729022Y-124403062D01*
X67349379Y-124208289D01*
X67345942Y-124207755D01*
X65972248Y-123974355D01*
X65968828Y-123973724D01*
X64602282Y-123701901D01*
X64598880Y-123701175D01*
X63240459Y-123391124D01*
X63237080Y-123390303D01*
X61887889Y-123042277D01*
X61884533Y-123041361D01*
X61811387Y-123020288D01*
X60545624Y-122655627D01*
X60542296Y-122654617D01*
X59214785Y-122231501D01*
X59211486Y-122230399D01*
X57896290Y-121770192D01*
X57893024Y-121768997D01*
X56591304Y-121272104D01*
X56588072Y-121270818D01*
X55300781Y-120737605D01*
X55297587Y-120736229D01*
X54025775Y-120167130D01*
X54022620Y-120165665D01*
X52767244Y-119561107D01*
X52764132Y-119559554D01*
X51720887Y-119020602D01*
X51526221Y-118920035D01*
X51523165Y-118918402D01*
X51501313Y-118906325D01*
X50958371Y-118606251D01*
X50303660Y-118244404D01*
X50300640Y-118242679D01*
X49100541Y-117534759D01*
X49097570Y-117532950D01*
X47917777Y-116791637D01*
X47914858Y-116789745D01*
X46756345Y-116015652D01*
X46753481Y-116013680D01*
X46077600Y-115534117D01*
X45617076Y-115207357D01*
X45614302Y-115205330D01*
X45071281Y-114796664D01*
X44501019Y-114367497D01*
X44498269Y-114365367D01*
X43408891Y-113496617D01*
X43406203Y-113494411D01*
X42341639Y-112595467D01*
X42339013Y-112593186D01*
X41357908Y-111716418D01*
X41300067Y-111664728D01*
X41297508Y-111662376D01*
X41293376Y-111658470D01*
X40494799Y-110903481D01*
X40284997Y-110705131D01*
X40282504Y-110702706D01*
X39297293Y-109717495D01*
X39294868Y-109715002D01*
X38983917Y-109386098D01*
X38337618Y-108702486D01*
X38335269Y-108699930D01*
X38301080Y-108661673D01*
X37902868Y-108216072D01*
X37406813Y-107660986D01*
X37404532Y-107658360D01*
X36505588Y-106593796D01*
X36503382Y-106591108D01*
X35634632Y-105501730D01*
X35632502Y-105498980D01*
X35281173Y-105032146D01*
X34794660Y-104385684D01*
X34792650Y-104382935D01*
X33986304Y-103246496D01*
X33984347Y-103243654D01*
X33964178Y-103213469D01*
X33210247Y-102085131D01*
X33208362Y-102082222D01*
X33199463Y-102068060D01*
X32757595Y-101364831D01*
X32467049Y-100902429D01*
X32465240Y-100899458D01*
X31757320Y-99699359D01*
X31755595Y-99696339D01*
X31668051Y-99537940D01*
X31081577Y-98476798D01*
X31079978Y-98473804D01*
X30601048Y-97546744D01*
X30440445Y-97235867D01*
X30438892Y-97232755D01*
X30159979Y-96653587D01*
X29834327Y-95977364D01*
X29832869Y-95974224D01*
X29823419Y-95953106D01*
X29381900Y-94966406D01*
X29263770Y-94702412D01*
X29262394Y-94699218D01*
X28729181Y-93411927D01*
X28727895Y-93408695D01*
X28650729Y-93206543D01*
X28231001Y-92106973D01*
X28229807Y-92103709D01*
X28171178Y-91936157D01*
X27769589Y-90788480D01*
X27768509Y-90785248D01*
X27345370Y-89457663D01*
X27344384Y-89454415D01*
X26958623Y-88115411D01*
X26957737Y-88112165D01*
X26609694Y-86762914D01*
X26608875Y-86759540D01*
X26317789Y-85484209D01*
X26298817Y-85401088D01*
X26298098Y-85397717D01*
X26269744Y-85255173D01*
X26026273Y-84031161D01*
X26025644Y-84027751D01*
X25792244Y-82654057D01*
X25791710Y-82650620D01*
X25645964Y-81618255D01*
X25596937Y-81270977D01*
X25596499Y-81267527D01*
X25592234Y-81229681D01*
X25440486Y-79882876D01*
X25440156Y-79879530D01*
X25323040Y-78491056D01*
X25322797Y-78487595D01*
X25315131Y-78351084D01*
X25244666Y-77096354D01*
X25244525Y-77093005D01*
X25205447Y-75700159D01*
X25205398Y-75696681D01*
X25205398Y-74303318D01*
X25205447Y-74299840D01*
X25205801Y-74287206D01*
X25225357Y-73590168D01*
X26229500Y-73590168D01*
X26229500Y-73749831D01*
X26260645Y-73906406D01*
X26260648Y-73906418D01*
X26321742Y-74053914D01*
X26321744Y-74053918D01*
X26410439Y-74186659D01*
X26410445Y-74186667D01*
X26523332Y-74299554D01*
X26523340Y-74299560D01*
X26656081Y-74388255D01*
X26656085Y-74388257D01*
X26794284Y-74445500D01*
X26803586Y-74449353D01*
X26943623Y-74477208D01*
X26960168Y-74480499D01*
X26960172Y-74480500D01*
X26960173Y-74480500D01*
X27119828Y-74480500D01*
X27119829Y-74480499D01*
X27276414Y-74449353D01*
X27311102Y-74434984D01*
X27380569Y-74427516D01*
X27443048Y-74458790D01*
X27478701Y-74518879D01*
X27476484Y-74587864D01*
X27441523Y-74695461D01*
X27441523Y-74695464D01*
X27409500Y-74897648D01*
X27409500Y-75102351D01*
X27441523Y-75304535D01*
X27441523Y-75304538D01*
X27471046Y-75395399D01*
X27473041Y-75465240D01*
X27436961Y-75525073D01*
X27374260Y-75555901D01*
X27317121Y-75552378D01*
X27311410Y-75550645D01*
X27154831Y-75519500D01*
X27154827Y-75519500D01*
X26995173Y-75519500D01*
X26995168Y-75519500D01*
X26838593Y-75550645D01*
X26838581Y-75550648D01*
X26691085Y-75611742D01*
X26691081Y-75611744D01*
X26558340Y-75700439D01*
X26558332Y-75700445D01*
X26445445Y-75813332D01*
X26445439Y-75813340D01*
X26356744Y-75946081D01*
X26356742Y-75946085D01*
X26295648Y-76093581D01*
X26295645Y-76093593D01*
X26264500Y-76250168D01*
X26264500Y-76409831D01*
X26295645Y-76566406D01*
X26295648Y-76566418D01*
X26356742Y-76713914D01*
X26356744Y-76713918D01*
X26445439Y-76846659D01*
X26445445Y-76846667D01*
X26558332Y-76959554D01*
X26558340Y-76959560D01*
X26691081Y-77048255D01*
X26691085Y-77048257D01*
X26829284Y-77105500D01*
X26838586Y-77109353D01*
X26943261Y-77130174D01*
X26995168Y-77140499D01*
X26995172Y-77140500D01*
X26995173Y-77140500D01*
X27154828Y-77140500D01*
X27154829Y-77140499D01*
X27311414Y-77109353D01*
X27458916Y-77048256D01*
X27458924Y-77048250D01*
X27464290Y-77045383D01*
X27465594Y-77047824D01*
X27520943Y-77030519D01*
X27523105Y-77030500D01*
X28268647Y-77030500D01*
X28314136Y-77039144D01*
X28455338Y-77094828D01*
X28544207Y-77105500D01*
X28875792Y-77105499D01*
X28920719Y-77100104D01*
X28989625Y-77111656D01*
X29041349Y-77158629D01*
X29059500Y-77223220D01*
X29059500Y-77751006D01*
X29059500Y-77888994D01*
X29059500Y-77888996D01*
X29059499Y-77888996D01*
X29086418Y-78024322D01*
X29086421Y-78024332D01*
X29139222Y-78151807D01*
X29215887Y-78266545D01*
X29215888Y-78266546D01*
X29807813Y-78858470D01*
X29836639Y-78911261D01*
X29838878Y-78910582D01*
X29840648Y-78916418D01*
X29901742Y-79063914D01*
X29901744Y-79063918D01*
X29990439Y-79196659D01*
X29990445Y-79196667D01*
X30103332Y-79309554D01*
X30103340Y-79309560D01*
X30236081Y-79398255D01*
X30236085Y-79398257D01*
X30368864Y-79453255D01*
X30383586Y-79459353D01*
X30540168Y-79490499D01*
X30540172Y-79490500D01*
X30540173Y-79490500D01*
X30699828Y-79490500D01*
X30699829Y-79490499D01*
X30856414Y-79459353D01*
X31003916Y-79398256D01*
X31003918Y-79398255D01*
X31069844Y-79354203D01*
X31136664Y-79309557D01*
X31249557Y-79196664D01*
X31338256Y-79063916D01*
X31341547Y-79055971D01*
X31385387Y-79001566D01*
X31451680Y-78979500D01*
X31519380Y-78996778D01*
X31566992Y-79047914D01*
X31570670Y-79055968D01*
X31596744Y-79118918D01*
X31685439Y-79251659D01*
X31685445Y-79251667D01*
X31798332Y-79364554D01*
X31798340Y-79364560D01*
X31931081Y-79453255D01*
X31931085Y-79453257D01*
X32020999Y-79490500D01*
X32078586Y-79514353D01*
X32235168Y-79545499D01*
X32235172Y-79545500D01*
X32235173Y-79545500D01*
X32394828Y-79545500D01*
X32394829Y-79545499D01*
X32551414Y-79514353D01*
X32684194Y-79459354D01*
X32698914Y-79453257D01*
X32698918Y-79453255D01*
X32781231Y-79398255D01*
X32831664Y-79364557D01*
X32944557Y-79251664D01*
X33033256Y-79118916D01*
X33056039Y-79063914D01*
X33065939Y-79040012D01*
X33109779Y-78985608D01*
X33176073Y-78963543D01*
X33243773Y-78980822D01*
X33291384Y-79031959D01*
X33304500Y-79087464D01*
X33304500Y-89106006D01*
X33304500Y-89243994D01*
X33304500Y-89243996D01*
X33304499Y-89243996D01*
X33331418Y-89379322D01*
X33331421Y-89379332D01*
X33384222Y-89506807D01*
X33460887Y-89621545D01*
X33460888Y-89621546D01*
X39933386Y-96094043D01*
X42897162Y-99057819D01*
X42930647Y-99119142D01*
X42925663Y-99188834D01*
X42883791Y-99244767D01*
X42818327Y-99269184D01*
X42809481Y-99269500D01*
X41061004Y-99269500D01*
X40925677Y-99296418D01*
X40925667Y-99296421D01*
X40798192Y-99349222D01*
X40683454Y-99425887D01*
X37886528Y-102222813D01*
X37833740Y-102251637D01*
X37834420Y-102253877D01*
X37828583Y-102255647D01*
X37681085Y-102316742D01*
X37681081Y-102316744D01*
X37548340Y-102405439D01*
X37548332Y-102405445D01*
X37435445Y-102518332D01*
X37435439Y-102518340D01*
X37346744Y-102651081D01*
X37346742Y-102651085D01*
X37285648Y-102798581D01*
X37285645Y-102798593D01*
X37254500Y-102955168D01*
X37254500Y-103114831D01*
X37285645Y-103271406D01*
X37285648Y-103271418D01*
X37346742Y-103418914D01*
X37346744Y-103418918D01*
X37435439Y-103551659D01*
X37435445Y-103551667D01*
X37548332Y-103664554D01*
X37548340Y-103664560D01*
X37681081Y-103753255D01*
X37681085Y-103753257D01*
X37779659Y-103794087D01*
X37828586Y-103814353D01*
X37974822Y-103843441D01*
X37985168Y-103845499D01*
X37985172Y-103845500D01*
X37985173Y-103845500D01*
X38144828Y-103845500D01*
X38144829Y-103845499D01*
X38301414Y-103814353D01*
X38436326Y-103758471D01*
X38448914Y-103753257D01*
X38448918Y-103753255D01*
X38514844Y-103709203D01*
X38581664Y-103664557D01*
X38694557Y-103551664D01*
X38769760Y-103439114D01*
X38783255Y-103418918D01*
X38783257Y-103418914D01*
X38844353Y-103271414D01*
X38844355Y-103271403D01*
X38846121Y-103265585D01*
X38848824Y-103266405D01*
X38875453Y-103215236D01*
X38877134Y-103213521D01*
X39172826Y-102917829D01*
X42312631Y-102917829D01*
X42312631Y-102917830D01*
X42710623Y-103315822D01*
X43078270Y-102948175D01*
X43051476Y-102925291D01*
X43051476Y-102925290D01*
X42910889Y-102848002D01*
X42910879Y-102847999D01*
X42755491Y-102808102D01*
X42595044Y-102808102D01*
X42439649Y-102848001D01*
X42312631Y-102917829D01*
X39172826Y-102917829D01*
X41383838Y-100706819D01*
X41445161Y-100673334D01*
X41471519Y-100670500D01*
X42448481Y-100670500D01*
X42515520Y-100690185D01*
X42536162Y-100706819D01*
X44048181Y-102218838D01*
X44081666Y-102280161D01*
X44084500Y-102306519D01*
X44084500Y-102998480D01*
X44064815Y-103065519D01*
X44048181Y-103086161D01*
X43696040Y-103438301D01*
X43634717Y-103471786D01*
X43565025Y-103466802D01*
X43509092Y-103424930D01*
X43499697Y-103410358D01*
X43454703Y-103328516D01*
X43454702Y-103328514D01*
X43431823Y-103301728D01*
X42975082Y-103758471D01*
X42913759Y-103791956D01*
X42844068Y-103786972D01*
X42799720Y-103758471D01*
X42710625Y-103669376D01*
X42621882Y-103758118D01*
X42614136Y-103762347D01*
X42608875Y-103769430D01*
X42583943Y-103778833D01*
X42560559Y-103791602D01*
X42551758Y-103790972D01*
X42543501Y-103794087D01*
X42517442Y-103788518D01*
X42490867Y-103786618D01*
X42482005Y-103780945D01*
X42475174Y-103779486D01*
X42447607Y-103758927D01*
X42446842Y-103758438D01*
X42446520Y-103758118D01*
X42358004Y-103669602D01*
X42353329Y-103665609D01*
X42350029Y-103662333D01*
X42350002Y-103662285D01*
X42349707Y-103662012D01*
X41959078Y-103271383D01*
X41959077Y-103271383D01*
X41889249Y-103398399D01*
X41872723Y-103462764D01*
X41836984Y-103522802D01*
X41783459Y-103552029D01*
X41718220Y-103568780D01*
X41577512Y-103646133D01*
X41550038Y-103669599D01*
X41550021Y-103669615D01*
X41268370Y-103951267D01*
X41268359Y-103951279D01*
X41244887Y-103978759D01*
X41244885Y-103978760D01*
X41244885Y-103978762D01*
X41221117Y-104021996D01*
X41167533Y-104119465D01*
X41140049Y-104226507D01*
X41104311Y-104286545D01*
X41050783Y-104315773D01*
X40930723Y-104346599D01*
X40797316Y-104419939D01*
X40797316Y-104419940D01*
X41278507Y-104901131D01*
X41282845Y-104909076D01*
X41290093Y-104914502D01*
X41299327Y-104939261D01*
X41311992Y-104962454D01*
X41311346Y-104971483D01*
X41314510Y-104979966D01*
X41308893Y-105005786D01*
X41307008Y-105032146D01*
X41301189Y-105041200D01*
X41299658Y-105048239D01*
X41278507Y-105076494D01*
X41150167Y-105204833D01*
X41088844Y-105238317D01*
X41019152Y-105233333D01*
X40974805Y-105204832D01*
X40896550Y-105126577D01*
X40896533Y-105126561D01*
X40868846Y-105102914D01*
X40868842Y-105102911D01*
X40727034Y-105024952D01*
X40717082Y-105022397D01*
X40660243Y-104989975D01*
X40443762Y-104773494D01*
X40443761Y-104773494D01*
X40370422Y-104906898D01*
X40364586Y-104929628D01*
X40328846Y-104989665D01*
X40275323Y-105018891D01*
X40251716Y-105024952D01*
X40109909Y-105102911D01*
X40109905Y-105102914D01*
X40082218Y-105126561D01*
X40082201Y-105126577D01*
X39792755Y-105416023D01*
X39792739Y-105416040D01*
X39769092Y-105443727D01*
X39769089Y-105443731D01*
X39691131Y-105585536D01*
X39672734Y-105657188D01*
X39640311Y-105714030D01*
X39026528Y-106327813D01*
X38973740Y-106356637D01*
X38974420Y-106358877D01*
X38968583Y-106360647D01*
X38821085Y-106421742D01*
X38821081Y-106421744D01*
X38688340Y-106510439D01*
X38688332Y-106510445D01*
X38575445Y-106623332D01*
X38575439Y-106623340D01*
X38486744Y-106756081D01*
X38486742Y-106756085D01*
X38425648Y-106903581D01*
X38425645Y-106903593D01*
X38394500Y-107060168D01*
X38394500Y-107219831D01*
X38425645Y-107376406D01*
X38425648Y-107376418D01*
X38486742Y-107523914D01*
X38486744Y-107523918D01*
X38575439Y-107656659D01*
X38575445Y-107656667D01*
X38688332Y-107769554D01*
X38688340Y-107769560D01*
X38821081Y-107858255D01*
X38821085Y-107858257D01*
X38962932Y-107917011D01*
X38968586Y-107919353D01*
X39125168Y-107950499D01*
X39125172Y-107950500D01*
X39125173Y-107950500D01*
X39284828Y-107950500D01*
X39284829Y-107950499D01*
X39441414Y-107919353D01*
X39552845Y-107873197D01*
X39588914Y-107858257D01*
X39588918Y-107858255D01*
X39666886Y-107806158D01*
X39721664Y-107769557D01*
X39834557Y-107656664D01*
X39919309Y-107529823D01*
X39923255Y-107523918D01*
X39923638Y-107522993D01*
X39984353Y-107376414D01*
X39984355Y-107376403D01*
X39986121Y-107370585D01*
X39988824Y-107371405D01*
X40015453Y-107320236D01*
X40017132Y-107318523D01*
X40388007Y-106947649D01*
X40395951Y-106943311D01*
X40401377Y-106936064D01*
X40426136Y-106926829D01*
X40449329Y-106914165D01*
X40458358Y-106914810D01*
X40466841Y-106911647D01*
X40492661Y-106917263D01*
X40519021Y-106919149D01*
X40528074Y-106924967D01*
X40535114Y-106926499D01*
X40563368Y-106947650D01*
X40574267Y-106958549D01*
X40600320Y-106996827D01*
X40606492Y-107011036D01*
X40661785Y-107081423D01*
X40955861Y-107375497D01*
X40989345Y-107436818D01*
X40990652Y-107482574D01*
X40967332Y-107629815D01*
X40967332Y-107834519D01*
X40999354Y-108036702D01*
X41062613Y-108231391D01*
X41090837Y-108286782D01*
X41145190Y-108393456D01*
X41155547Y-108413781D01*
X41275860Y-108579381D01*
X41420618Y-108724139D01*
X41520382Y-108796620D01*
X41586222Y-108844455D01*
X41702439Y-108903671D01*
X41768608Y-108937386D01*
X41768610Y-108937386D01*
X41768613Y-108937388D01*
X41835987Y-108959279D01*
X41963297Y-109000645D01*
X42030292Y-109011256D01*
X42165480Y-109032668D01*
X42165481Y-109032668D01*
X42370182Y-109032668D01*
X42370184Y-109032668D01*
X42518034Y-109009250D01*
X42587326Y-109018204D01*
X42625112Y-109044042D01*
X42918892Y-109337822D01*
X42989224Y-109393074D01*
X42989228Y-109393076D01*
X43033285Y-109412212D01*
X43033285Y-108846720D01*
X43033711Y-108845267D01*
X43033319Y-108843804D01*
X43043526Y-108811841D01*
X43052970Y-108779681D01*
X43054262Y-108778224D01*
X43054575Y-108777246D01*
X43061313Y-108770277D01*
X43078308Y-108751124D01*
X43081268Y-108748678D01*
X43115051Y-108724134D01*
X43134406Y-108704778D01*
X43138951Y-108701024D01*
X43165869Y-108689487D01*
X43191570Y-108675454D01*
X43200974Y-108674442D01*
X43203172Y-108673501D01*
X43205734Y-108673931D01*
X43217928Y-108672620D01*
X43259283Y-108672620D01*
X43326322Y-108692305D01*
X43372077Y-108745109D01*
X43383283Y-108796620D01*
X43383283Y-109459931D01*
X43429460Y-109453584D01*
X43429463Y-109453583D01*
X43568760Y-109393077D01*
X43568762Y-109393076D01*
X43639096Y-109337823D01*
X43873485Y-109103433D01*
X43873492Y-109103425D01*
X43901470Y-109067811D01*
X43958363Y-109027253D01*
X44028152Y-109023892D01*
X44086662Y-109056731D01*
X44794041Y-109764111D01*
X44794042Y-109764112D01*
X44908780Y-109840777D01*
X45011538Y-109883340D01*
X45036260Y-109893580D01*
X45036264Y-109893580D01*
X45036265Y-109893581D01*
X45171591Y-109920500D01*
X45171594Y-109920500D01*
X46553996Y-109920500D01*
X46645040Y-109902389D01*
X46689328Y-109893580D01*
X46753069Y-109867177D01*
X46816807Y-109840777D01*
X46816808Y-109840776D01*
X46816811Y-109840775D01*
X46931543Y-109764114D01*
X47125764Y-109569890D01*
X47178557Y-109541063D01*
X47177879Y-109538827D01*
X47183697Y-109537061D01*
X47183708Y-109537059D01*
X47331210Y-109475962D01*
X47331210Y-109475961D01*
X47331212Y-109475961D01*
X47435139Y-109406519D01*
X47463958Y-109387263D01*
X47576851Y-109274370D01*
X47633330Y-109189843D01*
X47665549Y-109141624D01*
X47665551Y-109141620D01*
X47715449Y-109021155D01*
X47726647Y-108994120D01*
X47757794Y-108837533D01*
X47757794Y-108677879D01*
X47726647Y-108521292D01*
X47687792Y-108427487D01*
X47665551Y-108373791D01*
X47665549Y-108373787D01*
X47576854Y-108241046D01*
X47576848Y-108241038D01*
X47498414Y-108162604D01*
X47464929Y-108101281D01*
X47469913Y-108031589D01*
X47498414Y-107987242D01*
X47928258Y-107557398D01*
X48358471Y-107127184D01*
X48411263Y-107098357D01*
X48410585Y-107096121D01*
X48416403Y-107094355D01*
X48416414Y-107094353D01*
X48563916Y-107033256D01*
X48563916Y-107033255D01*
X48563918Y-107033255D01*
X48683239Y-106953527D01*
X48696664Y-106944557D01*
X48809557Y-106831664D01*
X48870674Y-106740196D01*
X48898255Y-106698918D01*
X48898257Y-106698914D01*
X48938011Y-106602939D01*
X48959353Y-106551414D01*
X48990500Y-106394827D01*
X48990500Y-106235173D01*
X48959353Y-106078586D01*
X48951504Y-106059637D01*
X48898257Y-105931085D01*
X48898255Y-105931081D01*
X48809560Y-105798340D01*
X48809554Y-105798332D01*
X48696667Y-105685445D01*
X48696659Y-105685439D01*
X48563918Y-105596744D01*
X48563914Y-105596742D01*
X48416418Y-105535648D01*
X48416406Y-105535645D01*
X48259831Y-105504500D01*
X48259827Y-105504500D01*
X48100173Y-105504500D01*
X48100168Y-105504500D01*
X47943593Y-105535645D01*
X47943581Y-105535648D01*
X47796085Y-105596742D01*
X47796081Y-105596744D01*
X47663340Y-105685439D01*
X47663332Y-105685445D01*
X47550445Y-105798332D01*
X47550439Y-105798340D01*
X47461744Y-105931081D01*
X47461742Y-105931085D01*
X47400647Y-106078583D01*
X47398877Y-106084420D01*
X47396261Y-106083626D01*
X47369197Y-106135123D01*
X47367813Y-106136528D01*
X46366162Y-107138181D01*
X46339234Y-107152884D01*
X46313416Y-107169477D01*
X46307215Y-107170368D01*
X46304839Y-107171666D01*
X46278481Y-107174500D01*
X46102489Y-107174500D01*
X46035450Y-107154815D01*
X45989695Y-107102011D01*
X45979751Y-107032853D01*
X46008776Y-106969297D01*
X46014807Y-106962819D01*
X46034315Y-106943311D01*
X46101264Y-106876361D01*
X46156559Y-106805975D01*
X46217032Y-106666749D01*
X46243080Y-106628478D01*
X48227241Y-104644319D01*
X48254168Y-104629615D01*
X48279987Y-104613023D01*
X48286187Y-104612131D01*
X48288564Y-104610834D01*
X48314922Y-104608000D01*
X48395981Y-104608000D01*
X48463020Y-104627685D01*
X48483662Y-104644319D01*
X57316379Y-113477036D01*
X57349864Y-113538359D01*
X57344880Y-113608051D01*
X57316380Y-113652398D01*
X57205441Y-113763337D01*
X57205439Y-113763340D01*
X57116744Y-113896081D01*
X57116742Y-113896085D01*
X57055648Y-114043581D01*
X57055645Y-114043593D01*
X57024500Y-114200168D01*
X57024500Y-114359831D01*
X57055645Y-114516406D01*
X57055648Y-114516418D01*
X57116742Y-114663914D01*
X57116744Y-114663918D01*
X57205439Y-114796659D01*
X57205445Y-114796667D01*
X57318332Y-114909554D01*
X57318340Y-114909560D01*
X57451081Y-114998255D01*
X57451085Y-114998257D01*
X57518861Y-115026330D01*
X57598586Y-115059353D01*
X57681307Y-115075807D01*
X57743216Y-115108189D01*
X57744796Y-115109742D01*
X61535331Y-118900277D01*
X61544385Y-118906326D01*
X61589193Y-118959934D01*
X61599500Y-119009432D01*
X61599500Y-120407064D01*
X61579815Y-120474103D01*
X61578603Y-120475954D01*
X61531746Y-120546080D01*
X61531742Y-120546087D01*
X61470647Y-120693585D01*
X61470645Y-120693593D01*
X61439500Y-120850168D01*
X61439500Y-121009831D01*
X61470645Y-121166406D01*
X61470648Y-121166418D01*
X61531742Y-121313914D01*
X61531744Y-121313918D01*
X61620439Y-121446659D01*
X61620445Y-121446667D01*
X61733332Y-121559554D01*
X61733340Y-121559560D01*
X61866081Y-121648255D01*
X61866085Y-121648257D01*
X62013581Y-121709351D01*
X62013586Y-121709353D01*
X62170168Y-121740499D01*
X62170172Y-121740500D01*
X62170173Y-121740500D01*
X62329828Y-121740500D01*
X62329829Y-121740499D01*
X62486414Y-121709353D01*
X62633916Y-121648256D01*
X62633918Y-121648255D01*
X62711539Y-121596390D01*
X62766664Y-121559557D01*
X62879557Y-121446664D01*
X62968256Y-121313916D01*
X63029353Y-121166414D01*
X63060500Y-121009827D01*
X63060500Y-120850173D01*
X63029353Y-120693586D01*
X62968256Y-120546084D01*
X62921396Y-120475953D01*
X62900520Y-120409276D01*
X62900500Y-120407064D01*
X62900500Y-118925418D01*
X62920185Y-118858379D01*
X62921398Y-118856527D01*
X62924051Y-118852556D01*
X62973256Y-118778916D01*
X63034353Y-118631414D01*
X63065500Y-118474827D01*
X63065500Y-118315173D01*
X63034353Y-118158586D01*
X63034351Y-118158581D01*
X62973257Y-118011085D01*
X62973255Y-118011081D01*
X62884560Y-117878340D01*
X62884554Y-117878332D01*
X62771667Y-117765445D01*
X62771659Y-117765439D01*
X62638918Y-117676744D01*
X62638914Y-117676742D01*
X62491418Y-117615648D01*
X62491406Y-117615645D01*
X62334831Y-117584500D01*
X62334827Y-117584500D01*
X62175173Y-117584500D01*
X62143649Y-117590770D01*
X62074058Y-117584541D01*
X62031779Y-117556833D01*
X61272127Y-116797181D01*
X61238642Y-116735858D01*
X61243626Y-116666166D01*
X61285498Y-116610233D01*
X61350962Y-116585816D01*
X61359808Y-116585500D01*
X62991007Y-116585500D01*
X63611007Y-116585500D01*
X64296007Y-116585500D01*
X64531007Y-116585500D01*
X65176006Y-116585500D01*
X65176007Y-116585500D01*
X65916007Y-116585500D01*
X66869481Y-116585500D01*
X66936520Y-116605185D01*
X66982275Y-116657989D01*
X66992219Y-116727147D01*
X66963194Y-116790703D01*
X66957162Y-116797181D01*
X66550888Y-117203453D01*
X66550887Y-117203454D01*
X66474222Y-117318192D01*
X66421421Y-117445667D01*
X66421420Y-117445671D01*
X66421420Y-117445672D01*
X66403876Y-117533873D01*
X66403876Y-117533874D01*
X66394500Y-117581006D01*
X66394500Y-121129684D01*
X66385061Y-121177136D01*
X66325264Y-121321498D01*
X66325261Y-121321510D01*
X66294500Y-121476153D01*
X66294500Y-121633846D01*
X66325261Y-121788489D01*
X66325264Y-121788501D01*
X66385602Y-121934172D01*
X66385609Y-121934185D01*
X66473210Y-122065288D01*
X66473213Y-122065292D01*
X66584707Y-122176786D01*
X66584711Y-122176789D01*
X66715814Y-122264390D01*
X66715827Y-122264397D01*
X66861498Y-122324735D01*
X66861503Y-122324737D01*
X67016153Y-122355499D01*
X67016156Y-122355500D01*
X67016158Y-122355500D01*
X67173844Y-122355500D01*
X67173845Y-122355499D01*
X67328497Y-122324737D01*
X67474179Y-122264394D01*
X67605289Y-122176789D01*
X67716789Y-122065289D01*
X67804394Y-121934179D01*
X67864737Y-121788497D01*
X67895500Y-121633842D01*
X67895500Y-121476158D01*
X67895500Y-121476155D01*
X67895499Y-121476153D01*
X67864738Y-121321510D01*
X67864737Y-121321503D01*
X67861594Y-121313914D01*
X67804939Y-121177136D01*
X67795500Y-121129684D01*
X67795500Y-117991519D01*
X67815185Y-117924480D01*
X67831819Y-117903838D01*
X68461838Y-117273819D01*
X68523161Y-117240334D01*
X68549519Y-117237500D01*
X72042789Y-117237500D01*
X72109828Y-117257185D01*
X72155583Y-117309989D01*
X72165527Y-117379147D01*
X72136502Y-117442703D01*
X72105910Y-117468232D01*
X72002714Y-117529261D01*
X72002705Y-117529268D01*
X71889268Y-117642705D01*
X71889261Y-117642714D01*
X71807595Y-117780805D01*
X71767156Y-117920000D01*
X72456000Y-117920000D01*
X72523039Y-117939685D01*
X72568794Y-117992489D01*
X72580000Y-118044000D01*
X72580000Y-118295500D01*
X72577514Y-118303966D01*
X72578802Y-118312697D01*
X72567820Y-118336977D01*
X72560315Y-118362539D01*
X72553647Y-118368316D01*
X72550010Y-118376359D01*
X72527643Y-118390848D01*
X72507511Y-118408294D01*
X72497234Y-118410549D01*
X72491371Y-118414348D01*
X72457337Y-118419305D01*
X72456455Y-118419499D01*
X72455977Y-118419500D01*
X72330820Y-118419501D01*
X72324706Y-118419981D01*
X72320062Y-118419999D01*
X72320010Y-118419984D01*
X72319607Y-118420000D01*
X71767156Y-118420000D01*
X71807594Y-118559193D01*
X71841419Y-118616388D01*
X71858601Y-118684112D01*
X71841419Y-118742628D01*
X71807130Y-118800607D01*
X71807129Y-118800611D01*
X71762335Y-118954791D01*
X71762334Y-118954797D01*
X71759500Y-118990811D01*
X71759500Y-119389169D01*
X71759501Y-119389191D01*
X71762334Y-119425200D01*
X71762334Y-119425203D01*
X71762335Y-119425204D01*
X71787610Y-119512202D01*
X71800940Y-119558082D01*
X71800740Y-119627952D01*
X71769546Y-119680357D01*
X71745281Y-119704621D01*
X71745277Y-119704627D01*
X71662968Y-119843804D01*
X71620496Y-119990000D01*
X72301000Y-119990000D01*
X72309685Y-119992550D01*
X72318647Y-119991262D01*
X72342687Y-120002240D01*
X72368039Y-120009685D01*
X72373966Y-120016525D01*
X72382203Y-120020287D01*
X72396492Y-120042521D01*
X72413794Y-120062489D01*
X72416081Y-120073003D01*
X72419977Y-120079065D01*
X72425000Y-120114000D01*
X72425000Y-120295500D01*
X72405315Y-120362539D01*
X72352511Y-120408294D01*
X72301000Y-120419500D01*
X72190302Y-120419500D01*
X72154008Y-120422356D01*
X72154002Y-120422357D01*
X71998610Y-120467503D01*
X71998605Y-120467506D01*
X71989766Y-120472732D01*
X71926648Y-120490000D01*
X71620496Y-120490000D01*
X71662968Y-120636194D01*
X71674911Y-120656389D01*
X71692092Y-120724113D01*
X71674911Y-120782628D01*
X71662506Y-120803604D01*
X71662504Y-120803609D01*
X71617357Y-120959002D01*
X71617356Y-120959008D01*
X71614500Y-120995302D01*
X71614500Y-121404697D01*
X71617356Y-121440991D01*
X71617357Y-121440997D01*
X71662504Y-121596390D01*
X71662505Y-121596393D01*
X71662506Y-121596395D01*
X71693418Y-121648665D01*
X71707232Y-121672022D01*
X71724500Y-121735143D01*
X71724500Y-122096755D01*
X71715061Y-122144207D01*
X71660264Y-122276498D01*
X71660262Y-122276507D01*
X71629500Y-122431153D01*
X71629500Y-122588846D01*
X71660261Y-122743489D01*
X71660264Y-122743501D01*
X71720602Y-122889172D01*
X71720609Y-122889185D01*
X71808210Y-123020288D01*
X71808213Y-123020292D01*
X71919707Y-123131786D01*
X71919711Y-123131789D01*
X72050814Y-123219390D01*
X72050827Y-123219397D01*
X72196498Y-123279735D01*
X72196503Y-123279737D01*
X72330637Y-123306418D01*
X72351153Y-123310499D01*
X72351156Y-123310500D01*
X72351158Y-123310500D01*
X72508844Y-123310500D01*
X72508845Y-123310499D01*
X72663497Y-123279737D01*
X72809179Y-123219394D01*
X72940289Y-123131789D01*
X73051789Y-123020289D01*
X73139394Y-122889179D01*
X73199737Y-122743497D01*
X73230500Y-122588842D01*
X73230500Y-122431158D01*
X73230500Y-122431155D01*
X73230499Y-122431153D01*
X73199738Y-122276507D01*
X73199735Y-122276498D01*
X73152289Y-122161952D01*
X73144820Y-122092483D01*
X73176095Y-122030004D01*
X73236184Y-121994352D01*
X73266850Y-121990500D01*
X73738993Y-121990500D01*
X73803073Y-121977753D01*
X73872661Y-121983979D01*
X73927581Y-122026484D01*
X73988278Y-122110027D01*
X74008034Y-122137219D01*
X74152786Y-122281971D01*
X74307749Y-122394556D01*
X74318390Y-122402287D01*
X74434607Y-122461503D01*
X74500776Y-122495218D01*
X74500778Y-122495218D01*
X74500781Y-122495220D01*
X74605137Y-122529127D01*
X74695465Y-122558477D01*
X74782140Y-122572205D01*
X74897648Y-122590500D01*
X74897649Y-122590500D01*
X75102351Y-122590500D01*
X75102352Y-122590500D01*
X75304534Y-122558477D01*
X75304539Y-122558475D01*
X75304541Y-122558475D01*
X75367180Y-122538122D01*
X75395300Y-122537317D01*
X75423147Y-122533314D01*
X75429757Y-122536332D01*
X75437021Y-122536125D01*
X75461112Y-122550652D01*
X75486703Y-122562339D01*
X75490631Y-122568452D01*
X75496855Y-122572205D01*
X75509269Y-122597453D01*
X75524477Y-122621117D01*
X75525953Y-122631385D01*
X75527684Y-122634905D01*
X75529500Y-122656052D01*
X75529500Y-122827141D01*
X75527117Y-122851332D01*
X75499500Y-122990169D01*
X75499500Y-123149831D01*
X75530645Y-123306406D01*
X75530648Y-123306418D01*
X75591742Y-123453914D01*
X75591744Y-123453918D01*
X75680439Y-123586659D01*
X75680445Y-123586667D01*
X75793332Y-123699554D01*
X75793340Y-123699560D01*
X75926081Y-123788255D01*
X75926085Y-123788257D01*
X76073581Y-123849351D01*
X76073586Y-123849353D01*
X76230168Y-123880499D01*
X76230172Y-123880500D01*
X76230173Y-123880500D01*
X76389828Y-123880500D01*
X76389829Y-123880499D01*
X76546414Y-123849353D01*
X76693916Y-123788256D01*
X76693918Y-123788255D01*
X76759844Y-123744203D01*
X76826664Y-123699557D01*
X76939557Y-123586664D01*
X77028256Y-123453916D01*
X77033103Y-123442212D01*
X77038309Y-123431207D01*
X77039388Y-123429186D01*
X77039394Y-123429179D01*
X77099737Y-123283497D01*
X77119612Y-123183580D01*
X77130500Y-123128843D01*
X77130500Y-122971158D01*
X77130500Y-121211158D01*
X77130500Y-121211155D01*
X77106140Y-121088692D01*
X77112367Y-121019100D01*
X77155230Y-120963923D01*
X77221120Y-120940678D01*
X77227757Y-120940500D01*
X78853996Y-120940500D01*
X78945040Y-120922389D01*
X78989328Y-120913580D01*
X79053069Y-120887177D01*
X79116807Y-120860777D01*
X79116808Y-120860776D01*
X79116811Y-120860775D01*
X79231543Y-120784114D01*
X79489588Y-120526067D01*
X79529810Y-120499192D01*
X79585915Y-120475954D01*
X79674173Y-120439397D01*
X79674176Y-120439395D01*
X79674179Y-120439394D01*
X79805289Y-120351789D01*
X79916789Y-120240289D01*
X80004394Y-120109179D01*
X80064737Y-119963497D01*
X80095500Y-119808842D01*
X80095500Y-119651158D01*
X80095500Y-119651155D01*
X80095499Y-119651153D01*
X80081225Y-119579393D01*
X80064737Y-119496503D01*
X80043263Y-119444660D01*
X80004397Y-119350827D01*
X80004390Y-119350814D01*
X79916789Y-119219711D01*
X79916786Y-119219707D01*
X79805292Y-119108213D01*
X79805288Y-119108210D01*
X79674185Y-119020609D01*
X79674172Y-119020602D01*
X79528501Y-118960264D01*
X79528489Y-118960261D01*
X79373845Y-118929500D01*
X79373842Y-118929500D01*
X79216158Y-118929500D01*
X79216155Y-118929500D01*
X79061510Y-118960261D01*
X79061498Y-118960264D01*
X78915827Y-119020602D01*
X78915814Y-119020609D01*
X78784711Y-119108210D01*
X78784707Y-119108213D01*
X78673213Y-119219707D01*
X78673210Y-119219711D01*
X78585609Y-119350814D01*
X78585602Y-119350827D01*
X78539160Y-119462952D01*
X78495320Y-119517356D01*
X78429026Y-119539421D01*
X78424599Y-119539500D01*
X77270519Y-119539500D01*
X77203480Y-119519815D01*
X77157725Y-119467011D01*
X77147781Y-119397853D01*
X77176806Y-119334297D01*
X77182838Y-119327819D01*
X77402445Y-119108213D01*
X77644114Y-118866544D01*
X77720775Y-118751812D01*
X77725699Y-118739926D01*
X77760716Y-118655386D01*
X77773580Y-118624329D01*
X77791134Y-118536079D01*
X77800500Y-118488997D01*
X77800500Y-117413105D01*
X77817446Y-117355391D01*
X77815384Y-117354289D01*
X77818252Y-117348921D01*
X77818256Y-117348916D01*
X77879353Y-117201414D01*
X77910500Y-117044827D01*
X77910500Y-116885173D01*
X77910206Y-116883698D01*
X77880369Y-116733691D01*
X77886596Y-116664100D01*
X77929459Y-116608922D01*
X77995349Y-116585678D01*
X78001986Y-116585500D01*
X85361895Y-116585500D01*
X85419607Y-116602446D01*
X85420710Y-116600383D01*
X85426079Y-116603252D01*
X85426084Y-116603256D01*
X85573586Y-116664353D01*
X85730168Y-116695499D01*
X85730172Y-116695500D01*
X85730173Y-116695500D01*
X85889828Y-116695500D01*
X85889829Y-116695499D01*
X86046414Y-116664353D01*
X86193916Y-116603256D01*
X86193924Y-116603250D01*
X86199290Y-116600383D01*
X86200594Y-116602824D01*
X86255943Y-116585519D01*
X86258105Y-116585500D01*
X92568996Y-116585500D01*
X92660040Y-116567389D01*
X92704328Y-116558580D01*
X92768069Y-116532177D01*
X92831807Y-116505777D01*
X92831808Y-116505776D01*
X92831811Y-116505775D01*
X92946543Y-116429114D01*
X97684114Y-111691543D01*
X97760775Y-111576811D01*
X97767809Y-111559831D01*
X97813578Y-111449332D01*
X97813580Y-111449328D01*
X97829456Y-111369517D01*
X97840500Y-111313996D01*
X97840500Y-109406519D01*
X97860185Y-109339480D01*
X97876819Y-109318838D01*
X98612819Y-108582838D01*
X98674142Y-108549353D01*
X98743834Y-108554337D01*
X98799767Y-108596209D01*
X98824184Y-108661673D01*
X98824500Y-108670519D01*
X98824500Y-109411006D01*
X98824500Y-109548994D01*
X98824500Y-109548996D01*
X98824499Y-109548996D01*
X98851418Y-109684322D01*
X98851421Y-109684332D01*
X98904222Y-109811807D01*
X98980887Y-109926545D01*
X98980888Y-109926546D01*
X100712813Y-111658470D01*
X100741639Y-111711261D01*
X100743878Y-111710582D01*
X100745648Y-111716418D01*
X100806742Y-111863914D01*
X100806744Y-111863918D01*
X100895439Y-111996659D01*
X100895445Y-111996667D01*
X101008332Y-112109554D01*
X101008340Y-112109560D01*
X101141081Y-112198255D01*
X101141085Y-112198257D01*
X101288581Y-112259351D01*
X101288586Y-112259353D01*
X101445168Y-112290499D01*
X101445172Y-112290500D01*
X101445173Y-112290500D01*
X101604828Y-112290500D01*
X101604829Y-112290499D01*
X101761414Y-112259353D01*
X101908916Y-112198256D01*
X101908918Y-112198255D01*
X102025776Y-112120173D01*
X102041664Y-112109557D01*
X102154557Y-111996664D01*
X102243256Y-111863916D01*
X102304353Y-111716414D01*
X102335500Y-111559827D01*
X102335500Y-111400173D01*
X102304353Y-111243586D01*
X102298188Y-111228702D01*
X102243257Y-111096085D01*
X102243255Y-111096081D01*
X102154560Y-110963340D01*
X102154554Y-110963332D01*
X102041667Y-110850445D01*
X102041659Y-110850439D01*
X101908918Y-110761744D01*
X101908914Y-110761742D01*
X101761418Y-110700648D01*
X101755582Y-110698878D01*
X101756378Y-110696253D01*
X101704916Y-110669236D01*
X101703470Y-110667813D01*
X100261819Y-109226162D01*
X100228334Y-109164839D01*
X100225500Y-109138481D01*
X100225500Y-108206519D01*
X100245185Y-108139480D01*
X100261819Y-108118838D01*
X101131149Y-107249508D01*
X102903102Y-107249508D01*
X102903102Y-107409955D01*
X102943001Y-107565350D01*
X103012830Y-107692367D01*
X103410822Y-107294376D01*
X103043174Y-106926728D01*
X103020296Y-106953516D01*
X103020289Y-106953527D01*
X102943002Y-107094110D01*
X102942999Y-107094120D01*
X102903102Y-107249508D01*
X101131149Y-107249508D01*
X101853838Y-106526819D01*
X101915161Y-106493334D01*
X101941519Y-106490500D01*
X103271009Y-106490500D01*
X103338048Y-106510185D01*
X103366017Y-106542463D01*
X103853472Y-107029918D01*
X103886957Y-107091241D01*
X103881973Y-107160933D01*
X103853472Y-107205280D01*
X103764376Y-107294376D01*
X103853116Y-107383116D01*
X103857344Y-107390859D01*
X103864428Y-107396122D01*
X103873832Y-107421054D01*
X103886601Y-107444439D01*
X103885971Y-107453239D01*
X103889086Y-107461496D01*
X103883517Y-107487553D01*
X103881617Y-107514131D01*
X103875944Y-107522993D01*
X103874485Y-107529823D01*
X103853922Y-107557398D01*
X103853438Y-107558155D01*
X103852794Y-107558803D01*
X103764602Y-107646996D01*
X103760621Y-107651656D01*
X103757342Y-107654960D01*
X103757294Y-107654986D01*
X103757020Y-107655283D01*
X103366382Y-108045920D01*
X103366383Y-108045921D01*
X103493397Y-108115747D01*
X103493402Y-108115749D01*
X103557762Y-108132274D01*
X103617800Y-108168012D01*
X103647029Y-108221540D01*
X103653880Y-108248222D01*
X103663781Y-108286782D01*
X103697723Y-108348522D01*
X103741133Y-108427487D01*
X103764599Y-108454961D01*
X103764615Y-108454978D01*
X104046267Y-108736629D01*
X104046278Y-108736639D01*
X104046285Y-108736646D01*
X104073762Y-108760115D01*
X104167852Y-108811841D01*
X104214465Y-108837467D01*
X104241682Y-108844455D01*
X104369177Y-108877190D01*
X104429213Y-108912926D01*
X104451165Y-108953043D01*
X104453730Y-108952028D01*
X104456600Y-108959279D01*
X104529939Y-109092682D01*
X105011130Y-108611492D01*
X105019075Y-108607153D01*
X105024501Y-108599906D01*
X105049260Y-108590671D01*
X105072453Y-108578007D01*
X105081482Y-108578652D01*
X105089965Y-108575489D01*
X105115785Y-108581105D01*
X105142144Y-108582991D01*
X105151197Y-108588809D01*
X105158238Y-108590341D01*
X105186492Y-108611492D01*
X105314832Y-108739832D01*
X105348317Y-108801155D01*
X105343333Y-108870847D01*
X105314833Y-108915194D01*
X105236565Y-108993462D01*
X105236565Y-108993463D01*
X105236563Y-108993465D01*
X105236004Y-108994120D01*
X105212914Y-109021153D01*
X105212911Y-109021157D01*
X105134952Y-109162964D01*
X105132398Y-109172914D01*
X105099976Y-109229754D01*
X104883493Y-109446236D01*
X105016902Y-109519578D01*
X105039625Y-109525413D01*
X105099663Y-109561151D01*
X105128892Y-109614677D01*
X105134954Y-109638286D01*
X105212911Y-109780090D01*
X105212914Y-109780094D01*
X105236561Y-109807781D01*
X105236577Y-109807798D01*
X105526023Y-110097244D01*
X105526039Y-110097259D01*
X105553729Y-110120909D01*
X105695540Y-110198869D01*
X105773916Y-110218992D01*
X105830757Y-110251414D01*
X106157813Y-110578470D01*
X106186639Y-110631261D01*
X106188878Y-110630582D01*
X106190648Y-110636418D01*
X106251742Y-110783914D01*
X106251744Y-110783918D01*
X106340439Y-110916659D01*
X106340445Y-110916667D01*
X106453332Y-111029554D01*
X106453340Y-111029560D01*
X106586081Y-111118255D01*
X106586085Y-111118257D01*
X106733581Y-111179351D01*
X106733586Y-111179353D01*
X106890168Y-111210499D01*
X106890172Y-111210500D01*
X106890173Y-111210500D01*
X107049828Y-111210500D01*
X107049829Y-111210499D01*
X107206414Y-111179353D01*
X107353916Y-111118256D01*
X107353918Y-111118255D01*
X107419844Y-111074203D01*
X107486664Y-111029557D01*
X107599557Y-110916664D01*
X107644203Y-110849844D01*
X107688255Y-110783918D01*
X107688257Y-110783914D01*
X107721894Y-110702706D01*
X107749353Y-110636414D01*
X107780500Y-110479827D01*
X107780500Y-110320173D01*
X107749353Y-110163586D01*
X107721880Y-110097259D01*
X107688257Y-110016085D01*
X107688255Y-110016081D01*
X107599560Y-109883340D01*
X107599554Y-109883332D01*
X107486667Y-109770445D01*
X107486659Y-109770439D01*
X107353918Y-109681744D01*
X107353914Y-109681742D01*
X107206418Y-109620648D01*
X107200582Y-109618878D01*
X107201378Y-109616253D01*
X107195113Y-109612964D01*
X107176724Y-109608964D01*
X107151438Y-109590035D01*
X107149916Y-109589236D01*
X107148470Y-109587813D01*
X107077770Y-109517113D01*
X107044285Y-109455790D01*
X107049269Y-109386098D01*
X107079697Y-109341733D01*
X107078801Y-109340837D01*
X107081816Y-109337822D01*
X107123080Y-109296556D01*
X107141859Y-109281145D01*
X107238258Y-109216734D01*
X107335830Y-109119162D01*
X107372128Y-109064836D01*
X107425738Y-109020034D01*
X107494627Y-109011256D01*
X107566511Y-109022641D01*
X107629816Y-109032668D01*
X107629817Y-109032668D01*
X107834519Y-109032668D01*
X107834520Y-109032668D01*
X108036702Y-109000645D01*
X108231387Y-108937388D01*
X108413778Y-108844455D01*
X108542000Y-108751297D01*
X108579381Y-108724139D01*
X108579383Y-108724136D01*
X108579387Y-108724134D01*
X108724134Y-108579387D01*
X108724136Y-108579383D01*
X108724139Y-108579381D01*
X108776900Y-108506758D01*
X108844455Y-108413778D01*
X108937388Y-108231387D01*
X109000645Y-108036702D01*
X109032668Y-107834520D01*
X109032668Y-107629816D01*
X109009250Y-107481963D01*
X109018204Y-107412672D01*
X109044042Y-107374885D01*
X109337826Y-107081102D01*
X109393075Y-107010774D01*
X109412214Y-106966715D01*
X108846722Y-106966715D01*
X108845271Y-106966288D01*
X108843810Y-106966681D01*
X108811850Y-106956475D01*
X108779683Y-106947030D01*
X108778227Y-106945738D01*
X108777251Y-106945427D01*
X108770283Y-106938690D01*
X108751128Y-106921694D01*
X108748662Y-106918709D01*
X108724134Y-106884949D01*
X108704776Y-106865591D01*
X108701026Y-106861052D01*
X108689490Y-106834136D01*
X108675454Y-106808431D01*
X108674442Y-106799027D01*
X108673502Y-106796832D01*
X108673931Y-106794272D01*
X108672620Y-106782073D01*
X108672620Y-106740717D01*
X108692305Y-106673678D01*
X108745109Y-106627923D01*
X108796620Y-106616717D01*
X109459932Y-106616717D01*
X109459932Y-106616716D01*
X109453585Y-106570542D01*
X109453583Y-106570537D01*
X109393079Y-106431241D01*
X109393076Y-106431237D01*
X109337823Y-106360903D01*
X109103433Y-106126514D01*
X109103413Y-106126496D01*
X109067810Y-106098527D01*
X109027252Y-106041634D01*
X109023893Y-105971845D01*
X109056729Y-105913339D01*
X110099114Y-104870955D01*
X110175775Y-104756223D01*
X110182227Y-104740648D01*
X110222127Y-104644319D01*
X110228580Y-104628740D01*
X110255500Y-104493406D01*
X110255500Y-104355418D01*
X110255500Y-103546007D01*
X110255500Y-103546004D01*
X110234237Y-103439114D01*
X110233718Y-103436503D01*
X110232336Y-103429557D01*
X110228581Y-103410677D01*
X110228580Y-103410671D01*
X110175775Y-103283189D01*
X110099114Y-103168457D01*
X110099112Y-103168454D01*
X110099111Y-103168453D01*
X109359685Y-102429028D01*
X109330854Y-102376229D01*
X109328619Y-102376908D01*
X109326853Y-102371086D01*
X109265755Y-102223581D01*
X109177060Y-102090840D01*
X109177054Y-102090832D01*
X109064167Y-101977945D01*
X109064159Y-101977939D01*
X108931418Y-101889244D01*
X108931414Y-101889242D01*
X108783918Y-101828148D01*
X108783906Y-101828145D01*
X108627331Y-101797000D01*
X108627327Y-101797000D01*
X108467673Y-101797000D01*
X108467668Y-101797000D01*
X108311093Y-101828145D01*
X108311081Y-101828148D01*
X108163585Y-101889242D01*
X108163581Y-101889244D01*
X108030840Y-101977939D01*
X108030832Y-101977945D01*
X107917945Y-102090832D01*
X107917939Y-102090840D01*
X107829244Y-102223581D01*
X107829242Y-102223585D01*
X107768148Y-102371081D01*
X107768145Y-102371093D01*
X107737000Y-102527668D01*
X107736403Y-102533734D01*
X107733629Y-102533460D01*
X107717315Y-102589020D01*
X107664511Y-102634775D01*
X107595353Y-102644719D01*
X107531797Y-102615694D01*
X107525319Y-102609662D01*
X107266546Y-102350888D01*
X107266545Y-102350887D01*
X107244954Y-102336461D01*
X107201352Y-102307327D01*
X107182566Y-102291909D01*
X106332790Y-101442133D01*
X106303959Y-101389334D01*
X106301724Y-101390013D01*
X106299958Y-101384191D01*
X106291937Y-101364827D01*
X106238861Y-101236689D01*
X106204565Y-101185361D01*
X106183288Y-101153517D01*
X106162411Y-101086839D01*
X106180896Y-101019459D01*
X106198706Y-100996950D01*
X108990817Y-98204838D01*
X109052138Y-98171355D01*
X109121830Y-98176339D01*
X109177763Y-98218211D01*
X109181598Y-98223631D01*
X109250439Y-98326659D01*
X109250445Y-98326667D01*
X109363332Y-98439554D01*
X109363340Y-98439560D01*
X109496081Y-98528255D01*
X109496085Y-98528257D01*
X109610168Y-98575511D01*
X109643586Y-98589353D01*
X109646120Y-98589857D01*
X109647324Y-98590486D01*
X109649421Y-98591123D01*
X109649300Y-98591520D01*
X109708032Y-98622239D01*
X109709614Y-98623794D01*
X112164104Y-101078284D01*
X112197589Y-101139607D01*
X112198897Y-101185361D01*
X112193449Y-101219762D01*
X112193449Y-101219764D01*
X112193449Y-101432338D01*
X112203483Y-101495695D01*
X112206671Y-101515821D01*
X112226703Y-101642294D01*
X112283193Y-101816153D01*
X112292393Y-101844465D01*
X112388900Y-102033871D01*
X112513839Y-102205837D01*
X112664162Y-102356160D01*
X112836128Y-102481099D01*
X112836130Y-102481100D01*
X112836133Y-102481102D01*
X113025537Y-102577608D01*
X113227706Y-102643297D01*
X113437662Y-102676551D01*
X113437663Y-102676551D01*
X113650235Y-102676551D01*
X113650236Y-102676551D01*
X113860192Y-102643297D01*
X114062361Y-102577608D01*
X114251765Y-102481102D01*
X114273738Y-102465137D01*
X114423735Y-102356160D01*
X114423737Y-102356157D01*
X114423741Y-102356155D01*
X114574053Y-102205843D01*
X114574055Y-102205839D01*
X114574058Y-102205837D01*
X114698997Y-102033871D01*
X114698996Y-102033871D01*
X114699000Y-102033867D01*
X114795506Y-101844463D01*
X114861195Y-101642294D01*
X114894449Y-101432338D01*
X114894449Y-101271776D01*
X114914134Y-101204737D01*
X114966938Y-101158982D01*
X115036096Y-101149038D01*
X115069961Y-101158982D01*
X115197540Y-101217246D01*
X115197541Y-101217246D01*
X115197543Y-101217247D01*
X115340000Y-101237728D01*
X115482457Y-101217247D01*
X115613373Y-101157459D01*
X115660056Y-101119840D01*
X116929838Y-99850056D01*
X116967459Y-99803373D01*
X117027247Y-99672457D01*
X117047728Y-99530000D01*
X117027247Y-99387543D01*
X116996696Y-99320647D01*
X116967460Y-99256629D01*
X116967459Y-99256628D01*
X116967459Y-99256627D01*
X116929840Y-99209944D01*
X116929835Y-99209939D01*
X116929831Y-99209934D01*
X115660059Y-97940165D01*
X115660053Y-97940160D01*
X115660049Y-97940156D01*
X115613373Y-97902540D01*
X115482459Y-97842753D01*
X115482455Y-97842752D01*
X115340000Y-97822272D01*
X115197544Y-97842752D01*
X115197540Y-97842753D01*
X115066629Y-97902539D01*
X115030415Y-97931722D01*
X114965863Y-97958459D01*
X114897104Y-97946052D01*
X114864929Y-97922850D01*
X112982792Y-96040713D01*
X112982788Y-96040710D01*
X112851685Y-95953109D01*
X112851672Y-95953102D01*
X112706001Y-95892764D01*
X112705989Y-95892761D01*
X112551345Y-95862000D01*
X112551342Y-95862000D01*
X111633019Y-95862000D01*
X111565980Y-95842315D01*
X111520225Y-95789511D01*
X111510281Y-95720353D01*
X111539306Y-95656797D01*
X111545338Y-95650319D01*
X114379112Y-92816545D01*
X114379114Y-92816543D01*
X114444600Y-92718535D01*
X114455775Y-92701811D01*
X114503909Y-92585606D01*
X114508580Y-92574329D01*
X114513210Y-92551048D01*
X114520252Y-92515650D01*
X114520252Y-92515645D01*
X114535500Y-92438993D01*
X114535500Y-87855168D01*
X115119500Y-87855168D01*
X115119500Y-88014831D01*
X115150645Y-88171406D01*
X115150648Y-88171418D01*
X115211742Y-88318914D01*
X115211744Y-88318918D01*
X115300439Y-88451659D01*
X115300445Y-88451667D01*
X115413332Y-88564554D01*
X115413340Y-88564560D01*
X115546081Y-88653255D01*
X115546085Y-88653257D01*
X115693581Y-88714351D01*
X115693586Y-88714353D01*
X115850168Y-88745499D01*
X115850172Y-88745500D01*
X115850173Y-88745500D01*
X116009828Y-88745500D01*
X116009829Y-88745499D01*
X116166414Y-88714353D01*
X116313916Y-88653256D01*
X116384044Y-88606398D01*
X116450721Y-88585520D01*
X116452935Y-88585500D01*
X118347065Y-88585500D01*
X118414104Y-88605185D01*
X118415956Y-88606398D01*
X118486084Y-88653256D01*
X118486086Y-88653257D01*
X118486090Y-88653259D01*
X118633581Y-88714351D01*
X118633586Y-88714353D01*
X118790168Y-88745499D01*
X118790172Y-88745500D01*
X118790173Y-88745500D01*
X118949828Y-88745500D01*
X118949829Y-88745499D01*
X119106414Y-88714353D01*
X119253916Y-88653256D01*
X119253918Y-88653255D01*
X119325860Y-88605185D01*
X119386664Y-88564557D01*
X119499557Y-88451664D01*
X119588256Y-88318916D01*
X119649353Y-88171414D01*
X119680500Y-88014827D01*
X119680500Y-87855173D01*
X119649353Y-87698586D01*
X119649351Y-87698581D01*
X119588257Y-87551085D01*
X119588255Y-87551081D01*
X119499560Y-87418340D01*
X119499554Y-87418332D01*
X119386667Y-87305445D01*
X119386659Y-87305439D01*
X119253918Y-87216744D01*
X119253914Y-87216742D01*
X119106418Y-87155648D01*
X119106406Y-87155645D01*
X118949831Y-87124500D01*
X118949827Y-87124500D01*
X118790173Y-87124500D01*
X118790168Y-87124500D01*
X118633593Y-87155645D01*
X118633581Y-87155648D01*
X118486090Y-87216740D01*
X118486078Y-87216747D01*
X118415956Y-87263602D01*
X118349279Y-87284480D01*
X118347065Y-87284500D01*
X116452935Y-87284500D01*
X116385896Y-87264815D01*
X116384044Y-87263602D01*
X116313921Y-87216747D01*
X116313909Y-87216740D01*
X116166418Y-87155648D01*
X116166406Y-87155645D01*
X116009831Y-87124500D01*
X116009827Y-87124500D01*
X115850173Y-87124500D01*
X115850168Y-87124500D01*
X115693593Y-87155645D01*
X115693581Y-87155648D01*
X115546085Y-87216742D01*
X115546081Y-87216744D01*
X115413340Y-87305439D01*
X115413332Y-87305445D01*
X115300445Y-87418332D01*
X115300439Y-87418340D01*
X115211744Y-87551081D01*
X115211742Y-87551085D01*
X115150648Y-87698581D01*
X115150645Y-87698593D01*
X115119500Y-87855168D01*
X114535500Y-87855168D01*
X114535500Y-74546519D01*
X114544144Y-74517078D01*
X114550668Y-74487092D01*
X114554422Y-74482076D01*
X114555185Y-74479480D01*
X114571819Y-74458838D01*
X114623838Y-74406819D01*
X114685161Y-74373334D01*
X114711519Y-74370500D01*
X117698646Y-74370500D01*
X117744135Y-74379144D01*
X117885337Y-74434828D01*
X117974206Y-74445500D01*
X118305791Y-74445499D01*
X118394661Y-74434828D01*
X118536078Y-74379060D01*
X118590074Y-74338112D01*
X118655385Y-74313289D01*
X118723749Y-74327716D01*
X118739926Y-74338113D01*
X118793919Y-74379058D01*
X118793920Y-74379058D01*
X118793921Y-74379059D01*
X118935338Y-74434827D01*
X119024207Y-74445499D01*
X119355792Y-74445498D01*
X119444662Y-74434827D01*
X119586079Y-74379059D01*
X119640076Y-74338111D01*
X119705383Y-74313289D01*
X119773747Y-74327716D01*
X119789920Y-74338108D01*
X119843922Y-74379060D01*
X119984008Y-74434303D01*
X120039151Y-74477208D01*
X120062344Y-74543116D01*
X120056448Y-74587975D01*
X120021523Y-74695461D01*
X120021523Y-74695464D01*
X119989500Y-74897648D01*
X119989500Y-75102351D01*
X120021523Y-75304535D01*
X120021523Y-75304538D01*
X120056603Y-75412502D01*
X120058598Y-75482343D01*
X120022517Y-75542176D01*
X119984162Y-75566175D01*
X119844166Y-75621381D01*
X119790336Y-75662201D01*
X119725024Y-75687023D01*
X119656661Y-75672594D01*
X119640488Y-75662200D01*
X119586080Y-75620941D01*
X119444660Y-75565172D01*
X119402465Y-75560105D01*
X119355793Y-75554501D01*
X119355786Y-75554501D01*
X119024213Y-75554501D01*
X118935339Y-75565172D01*
X118793919Y-75620941D01*
X118739925Y-75661887D01*
X118674614Y-75686710D01*
X118606250Y-75672282D01*
X118590075Y-75661887D01*
X118536079Y-75620940D01*
X118394659Y-75565171D01*
X118352464Y-75560104D01*
X118305792Y-75554500D01*
X118305785Y-75554500D01*
X117974212Y-75554500D01*
X117885338Y-75565171D01*
X117810097Y-75594843D01*
X117767245Y-75611742D01*
X117744136Y-75620855D01*
X117698646Y-75629500D01*
X116081004Y-75629500D01*
X115945677Y-75656418D01*
X115945667Y-75656421D01*
X115818192Y-75709222D01*
X115703454Y-75785887D01*
X115185887Y-76303454D01*
X115109222Y-76418192D01*
X115056421Y-76545667D01*
X115056418Y-76545679D01*
X115032324Y-76666806D01*
X115032324Y-76666812D01*
X115029500Y-76681007D01*
X115029500Y-79731006D01*
X115029500Y-79868994D01*
X115029500Y-79868996D01*
X115029499Y-79868996D01*
X115056418Y-80004322D01*
X115056421Y-80004332D01*
X115109222Y-80131807D01*
X115185887Y-80246545D01*
X116383454Y-81444112D01*
X116498192Y-81520777D01*
X116625667Y-81573578D01*
X116625672Y-81573580D01*
X116625676Y-81573580D01*
X116625677Y-81573581D01*
X116761003Y-81600500D01*
X116761006Y-81600500D01*
X116761007Y-81600500D01*
X118386895Y-81600500D01*
X118444607Y-81617446D01*
X118445710Y-81615383D01*
X118451079Y-81618252D01*
X118451084Y-81618256D01*
X118598586Y-81679353D01*
X118755168Y-81710499D01*
X118755172Y-81710500D01*
X118755173Y-81710500D01*
X118914828Y-81710500D01*
X118914829Y-81710499D01*
X119071414Y-81679353D01*
X119218916Y-81618256D01*
X119218918Y-81618255D01*
X119285782Y-81573578D01*
X119351664Y-81529557D01*
X119464557Y-81416664D01*
X119553256Y-81283916D01*
X119558616Y-81270977D01*
X119614351Y-81136418D01*
X119614353Y-81136414D01*
X119645500Y-80979827D01*
X119645500Y-80820173D01*
X119614353Y-80663586D01*
X119614351Y-80663581D01*
X119553257Y-80516085D01*
X119553255Y-80516081D01*
X119464560Y-80383340D01*
X119464554Y-80383332D01*
X119351667Y-80270445D01*
X119351659Y-80270439D01*
X119218918Y-80181744D01*
X119218914Y-80181742D01*
X119071418Y-80120648D01*
X119071406Y-80120645D01*
X118914831Y-80089500D01*
X118914827Y-80089500D01*
X118755173Y-80089500D01*
X118755168Y-80089500D01*
X118598593Y-80120645D01*
X118598585Y-80120647D01*
X118451087Y-80181742D01*
X118445710Y-80184617D01*
X118444405Y-80182175D01*
X118389057Y-80199481D01*
X118386895Y-80199500D01*
X117171519Y-80199500D01*
X117104480Y-80179815D01*
X117083838Y-80163181D01*
X116466819Y-79546162D01*
X116433334Y-79484839D01*
X116430500Y-79458481D01*
X116430500Y-77715000D01*
X117405069Y-77715000D01*
X117407832Y-77750122D01*
X117407833Y-77750128D01*
X117452592Y-77904188D01*
X117452593Y-77904191D01*
X117534261Y-78042285D01*
X117534268Y-78042294D01*
X117647705Y-78155731D01*
X117647714Y-78155738D01*
X117785805Y-78237404D01*
X117925000Y-78277844D01*
X117925000Y-77715000D01*
X117405069Y-77715000D01*
X116430500Y-77715000D01*
X116430500Y-77154500D01*
X116450185Y-77087461D01*
X116502989Y-77041706D01*
X116554500Y-77030500D01*
X117286416Y-77030500D01*
X117353455Y-77050185D01*
X117399210Y-77102989D01*
X117409154Y-77172147D01*
X117408399Y-77176776D01*
X117407832Y-77179875D01*
X117405069Y-77215000D01*
X118051000Y-77215000D01*
X118118039Y-77234685D01*
X118163794Y-77287489D01*
X118175000Y-77339000D01*
X118175000Y-77465000D01*
X118300501Y-77465000D01*
X118308967Y-77467486D01*
X118317699Y-77466198D01*
X118341978Y-77477179D01*
X118367540Y-77484685D01*
X118373318Y-77491354D01*
X118381360Y-77494991D01*
X118395848Y-77517355D01*
X118413295Y-77537489D01*
X118415550Y-77547764D01*
X118419350Y-77553630D01*
X118424306Y-77587664D01*
X118424500Y-77588546D01*
X118424500Y-77588750D01*
X118424501Y-77714180D01*
X118424982Y-77720294D01*
X118424999Y-77724939D01*
X118424984Y-77724990D01*
X118425000Y-77725393D01*
X118425000Y-78277844D01*
X118564194Y-78237405D01*
X118564196Y-78237404D01*
X118621386Y-78203582D01*
X118689109Y-78186398D01*
X118747629Y-78203581D01*
X118805607Y-78237869D01*
X118846268Y-78249682D01*
X118959791Y-78282664D01*
X118959794Y-78282664D01*
X118959796Y-78282665D01*
X118995819Y-78285500D01*
X119394180Y-78285499D01*
X119430204Y-78282665D01*
X119584393Y-78237869D01*
X119660141Y-78193071D01*
X119727864Y-78175889D01*
X119786383Y-78193072D01*
X119843804Y-78227031D01*
X119990000Y-78269504D01*
X119990000Y-77589000D01*
X119992550Y-77580314D01*
X119991262Y-77571353D01*
X120002240Y-77547312D01*
X120009685Y-77521961D01*
X120016525Y-77516033D01*
X120020287Y-77507797D01*
X120042521Y-77493507D01*
X120062489Y-77476206D01*
X120073003Y-77473918D01*
X120079065Y-77470023D01*
X120114000Y-77465000D01*
X120295500Y-77465000D01*
X120362539Y-77484685D01*
X120408294Y-77537489D01*
X120419500Y-77589000D01*
X120419500Y-77699697D01*
X120422356Y-77735991D01*
X120422357Y-77735997D01*
X120467503Y-77891389D01*
X120467505Y-77891393D01*
X120467506Y-77891395D01*
X120472732Y-77900233D01*
X120490000Y-77963352D01*
X120490000Y-78269503D01*
X120636194Y-78227032D01*
X120656384Y-78215091D01*
X120724108Y-78197906D01*
X120782629Y-78215089D01*
X120803605Y-78227494D01*
X120839312Y-78237868D01*
X120959002Y-78272642D01*
X120959005Y-78272642D01*
X120959007Y-78272643D01*
X120995310Y-78275500D01*
X120995318Y-78275500D01*
X121404682Y-78275500D01*
X121404690Y-78275500D01*
X121440993Y-78272643D01*
X121440995Y-78272642D01*
X121440997Y-78272642D01*
X121503947Y-78254353D01*
X121596395Y-78227494D01*
X121672022Y-78182767D01*
X121735143Y-78165500D01*
X122461930Y-78165500D01*
X122528969Y-78185185D01*
X122530759Y-78186357D01*
X122541084Y-78193256D01*
X122541086Y-78193257D01*
X122541088Y-78193258D01*
X122648787Y-78237868D01*
X122688586Y-78254353D01*
X122845163Y-78285498D01*
X122845168Y-78285499D01*
X122845172Y-78285500D01*
X122845173Y-78285500D01*
X123004828Y-78285500D01*
X123004829Y-78285499D01*
X123161414Y-78254353D01*
X123297690Y-78197906D01*
X123308914Y-78193257D01*
X123308918Y-78193255D01*
X123440338Y-78105443D01*
X123441664Y-78104557D01*
X123554557Y-77991664D01*
X123643256Y-77858916D01*
X123704353Y-77711414D01*
X123735500Y-77554827D01*
X123735500Y-77395173D01*
X123704353Y-77238586D01*
X123694923Y-77215819D01*
X123643257Y-77091085D01*
X123643255Y-77091081D01*
X123554560Y-76958340D01*
X123554554Y-76958332D01*
X123441667Y-76845445D01*
X123441659Y-76845439D01*
X123308918Y-76756744D01*
X123308914Y-76756742D01*
X123161418Y-76695648D01*
X123161406Y-76695645D01*
X123004831Y-76664500D01*
X123004827Y-76664500D01*
X122845173Y-76664500D01*
X122845168Y-76664500D01*
X122688593Y-76695645D01*
X122688585Y-76695647D01*
X122611331Y-76727646D01*
X122545146Y-76755061D01*
X122497695Y-76764500D01*
X122114500Y-76764500D01*
X122047461Y-76744815D01*
X122001706Y-76692011D01*
X121990500Y-76640500D01*
X121990500Y-76261007D01*
X121990030Y-76258643D01*
X121977753Y-76196926D01*
X121983979Y-76127338D01*
X122026484Y-76072418D01*
X122137219Y-75991966D01*
X122281966Y-75847219D01*
X122281968Y-75847215D01*
X122281971Y-75847213D01*
X122334732Y-75774590D01*
X122402287Y-75681610D01*
X122495220Y-75499219D01*
X122558477Y-75304534D01*
X122590500Y-75102352D01*
X122590500Y-74897648D01*
X122558477Y-74695466D01*
X122558476Y-74695464D01*
X122501100Y-74518879D01*
X122495220Y-74500781D01*
X122495218Y-74500778D01*
X122495218Y-74500776D01*
X122447344Y-74406819D01*
X122402287Y-74318390D01*
X122379630Y-74287205D01*
X122281971Y-74152786D01*
X122137219Y-74008034D01*
X122104944Y-73984585D01*
X122026484Y-73927581D01*
X121983819Y-73872252D01*
X121977753Y-73803072D01*
X121990500Y-73738993D01*
X121990500Y-73501518D01*
X122010185Y-73434479D01*
X122026815Y-73413841D01*
X122228471Y-73212184D01*
X122281263Y-73183357D01*
X122280585Y-73181121D01*
X122286403Y-73179355D01*
X122286414Y-73179353D01*
X122433916Y-73118256D01*
X122433916Y-73118255D01*
X122433918Y-73118255D01*
X122550369Y-73040445D01*
X122566664Y-73029557D01*
X122679557Y-72916664D01*
X122743373Y-72821156D01*
X122768255Y-72783918D01*
X122768257Y-72783914D01*
X122804675Y-72695993D01*
X122829353Y-72636414D01*
X122860500Y-72479827D01*
X122860500Y-72320173D01*
X122829353Y-72163586D01*
X122786896Y-72061084D01*
X122768257Y-72016085D01*
X122768255Y-72016081D01*
X122679560Y-71883340D01*
X122679554Y-71883332D01*
X122566667Y-71770445D01*
X122566659Y-71770439D01*
X122433918Y-71681744D01*
X122433914Y-71681742D01*
X122286418Y-71620648D01*
X122286406Y-71620645D01*
X122129831Y-71589500D01*
X122129827Y-71589500D01*
X121970173Y-71589500D01*
X121970168Y-71589500D01*
X121813593Y-71620645D01*
X121813581Y-71620648D01*
X121666085Y-71681742D01*
X121666081Y-71681744D01*
X121533340Y-71770439D01*
X121533332Y-71770445D01*
X121420445Y-71883332D01*
X121420439Y-71883340D01*
X121331744Y-72016081D01*
X121331742Y-72016085D01*
X121270647Y-72163583D01*
X121268877Y-72169420D01*
X121266261Y-72168626D01*
X121262959Y-72174909D01*
X121258965Y-72193273D01*
X121239977Y-72218637D01*
X121239197Y-72220123D01*
X121237814Y-72221528D01*
X121152181Y-72307160D01*
X121090860Y-72340645D01*
X121021168Y-72335661D01*
X120965234Y-72293790D01*
X120940817Y-72228326D01*
X120940501Y-72219479D01*
X120940501Y-71506005D01*
X120913582Y-71370678D01*
X120913581Y-71370677D01*
X120913581Y-71370673D01*
X120911967Y-71366777D01*
X120860778Y-71243193D01*
X120784113Y-71128455D01*
X120056545Y-70400887D01*
X119941807Y-70324222D01*
X119814332Y-70271421D01*
X119814322Y-70271418D01*
X119678996Y-70244500D01*
X119678994Y-70244500D01*
X119678993Y-70244500D01*
X117873105Y-70244500D01*
X117815392Y-70227553D01*
X117814290Y-70229617D01*
X117808912Y-70226742D01*
X117661414Y-70165647D01*
X117661406Y-70165645D01*
X117504831Y-70134500D01*
X117504827Y-70134500D01*
X117345173Y-70134500D01*
X117345168Y-70134500D01*
X117188593Y-70165645D01*
X117188581Y-70165648D01*
X117041085Y-70226742D01*
X117041081Y-70226744D01*
X116908340Y-70315439D01*
X116908332Y-70315445D01*
X116795445Y-70428332D01*
X116795439Y-70428340D01*
X116706744Y-70561081D01*
X116706742Y-70561085D01*
X116645648Y-70708581D01*
X116645645Y-70708593D01*
X116614500Y-70865168D01*
X116614500Y-71024831D01*
X116645645Y-71181406D01*
X116645648Y-71181418D01*
X116673247Y-71248048D01*
X116680716Y-71317517D01*
X116649440Y-71379996D01*
X116589351Y-71415648D01*
X116558686Y-71419500D01*
X114945105Y-71419500D01*
X114887392Y-71402553D01*
X114886290Y-71404617D01*
X114880912Y-71401742D01*
X114733414Y-71340647D01*
X114733406Y-71340645D01*
X114635309Y-71321132D01*
X114573398Y-71288747D01*
X114538824Y-71228031D01*
X114535500Y-71199515D01*
X114535500Y-57786004D01*
X114508581Y-57650677D01*
X114508580Y-57650676D01*
X114508580Y-57650672D01*
X114508578Y-57650667D01*
X114455777Y-57523192D01*
X114379112Y-57408454D01*
X114379111Y-57408453D01*
X111104043Y-54133386D01*
X103127885Y-46157228D01*
X103094400Y-46095905D01*
X103099384Y-46026213D01*
X103127881Y-45981871D01*
X104747576Y-44362175D01*
X104785846Y-44336128D01*
X104925071Y-44275655D01*
X104995457Y-44220362D01*
X105229922Y-43985895D01*
X105285217Y-43915509D01*
X105345780Y-43776078D01*
X105355008Y-43708941D01*
X105383636Y-43645208D01*
X105442178Y-43607069D01*
X105460966Y-43602982D01*
X105528102Y-43593755D01*
X105638533Y-43545788D01*
X105667529Y-43533194D01*
X105667529Y-43533193D01*
X105667533Y-43533192D01*
X105737919Y-43477899D01*
X105972384Y-43243432D01*
X106027679Y-43173046D01*
X106088242Y-43033615D01*
X106097469Y-42966480D01*
X106126098Y-42902746D01*
X106184641Y-42864607D01*
X106203426Y-42860520D01*
X106270565Y-42851293D01*
X106408684Y-42791300D01*
X106478015Y-42782646D01*
X106541019Y-42812850D01*
X106568570Y-42848739D01*
X106574573Y-42860520D01*
X106618726Y-42947176D01*
X106619883Y-42949445D01*
X106740196Y-43115045D01*
X106884954Y-43259803D01*
X107050553Y-43380116D01*
X107050555Y-43380117D01*
X107050558Y-43380119D01*
X107151707Y-43431657D01*
X107202503Y-43479632D01*
X107219298Y-43547453D01*
X107209146Y-43591543D01*
X107149194Y-43729567D01*
X107149192Y-43729572D01*
X107139993Y-43796501D01*
X107111362Y-43860235D01*
X107052820Y-43898373D01*
X107034033Y-43902460D01*
X106966384Y-43911758D01*
X106826957Y-43972318D01*
X106826954Y-43972321D01*
X106756567Y-44027614D01*
X106522104Y-44262079D01*
X106522100Y-44262084D01*
X106466809Y-44332464D01*
X106466808Y-44332466D01*
X106406244Y-44471900D01*
X106397017Y-44539033D01*
X106368386Y-44602767D01*
X106309844Y-44640905D01*
X106291058Y-44644992D01*
X106223920Y-44654220D01*
X106084494Y-44714780D01*
X106084491Y-44714783D01*
X106014104Y-44770076D01*
X105779641Y-45004541D01*
X105779637Y-45004546D01*
X105724346Y-45074926D01*
X105687605Y-45159511D01*
X105661552Y-45197789D01*
X105266528Y-45592813D01*
X105213740Y-45621637D01*
X105214420Y-45623877D01*
X105208583Y-45625647D01*
X105061085Y-45686742D01*
X105061081Y-45686744D01*
X104928340Y-45775439D01*
X104928332Y-45775445D01*
X104815445Y-45888332D01*
X104815439Y-45888340D01*
X104726744Y-46021081D01*
X104726742Y-46021085D01*
X104665648Y-46168581D01*
X104665645Y-46168593D01*
X104634500Y-46325168D01*
X104634500Y-46484831D01*
X104665645Y-46641406D01*
X104665648Y-46641418D01*
X104726742Y-46788914D01*
X104726744Y-46788918D01*
X104815439Y-46921659D01*
X104815445Y-46921667D01*
X104928332Y-47034554D01*
X104928340Y-47034560D01*
X105061081Y-47123255D01*
X105061085Y-47123257D01*
X105208581Y-47184351D01*
X105208586Y-47184353D01*
X105365168Y-47215499D01*
X105365172Y-47215500D01*
X105365173Y-47215500D01*
X105524828Y-47215500D01*
X105524829Y-47215499D01*
X105681414Y-47184353D01*
X105828916Y-47123256D01*
X105828918Y-47123255D01*
X105909064Y-47069703D01*
X105943307Y-47046823D01*
X107076728Y-47046823D01*
X107076728Y-47046824D01*
X107103514Y-47069702D01*
X107103516Y-47069703D01*
X107244114Y-47146998D01*
X107244120Y-47147000D01*
X107399508Y-47186897D01*
X107399516Y-47186898D01*
X107559950Y-47186898D01*
X107559955Y-47186897D01*
X107715344Y-47147000D01*
X107715348Y-47146998D01*
X107842368Y-47077168D01*
X107444376Y-46679177D01*
X107076728Y-47046823D01*
X105943307Y-47046823D01*
X105961664Y-47034557D01*
X106074557Y-46921664D01*
X106074560Y-46921659D01*
X106074563Y-46921656D01*
X106163255Y-46788918D01*
X106177349Y-46754892D01*
X106224353Y-46641414D01*
X106224355Y-46641403D01*
X106226121Y-46635585D01*
X106228824Y-46636405D01*
X106231988Y-46630325D01*
X106236035Y-46611723D01*
X106254517Y-46587033D01*
X106255453Y-46585236D01*
X106257135Y-46583520D01*
X106406309Y-46434346D01*
X106467630Y-46400863D01*
X106537322Y-46405847D01*
X106593255Y-46447719D01*
X106614092Y-46491189D01*
X106623000Y-46525884D01*
X106623002Y-46525889D01*
X106700291Y-46666476D01*
X106723175Y-46693270D01*
X107179918Y-46236528D01*
X107241241Y-46203043D01*
X107310933Y-46208027D01*
X107355280Y-46236528D01*
X107444375Y-46325623D01*
X107533116Y-46236882D01*
X107540861Y-46232652D01*
X107546124Y-46225569D01*
X107571054Y-46216166D01*
X107594439Y-46203397D01*
X107603240Y-46204026D01*
X107611498Y-46200912D01*
X107637556Y-46206480D01*
X107664131Y-46208381D01*
X107672992Y-46214052D01*
X107679825Y-46215513D01*
X107707400Y-46236077D01*
X107708157Y-46236561D01*
X107708396Y-46236798D01*
X107796996Y-46325398D01*
X107801670Y-46329390D01*
X107804968Y-46332664D01*
X107804994Y-46332711D01*
X107805290Y-46332985D01*
X108195920Y-46723616D01*
X108265749Y-46596599D01*
X108265750Y-46596595D01*
X108282274Y-46532237D01*
X108318011Y-46472199D01*
X108371537Y-46442971D01*
X108436782Y-46426219D01*
X108463478Y-46411543D01*
X108577483Y-46348869D01*
X108577483Y-46348868D01*
X108577486Y-46348867D01*
X108604963Y-46325399D01*
X108886646Y-46043715D01*
X108910115Y-46016238D01*
X108987467Y-45875534D01*
X109009287Y-45790550D01*
X109045022Y-45730518D01*
X109098556Y-45701287D01*
X109129269Y-45693402D01*
X109129280Y-45693397D01*
X109262682Y-45620059D01*
X109262683Y-45620059D01*
X108927602Y-45284978D01*
X108925155Y-45282461D01*
X108914478Y-45271162D01*
X108910115Y-45263225D01*
X108886647Y-45235748D01*
X108784405Y-45133507D01*
X108783183Y-45132213D01*
X108768077Y-45102585D01*
X108752145Y-45073407D01*
X108752274Y-45071589D01*
X108751447Y-45069966D01*
X108754756Y-45036886D01*
X108757129Y-45003715D01*
X108758250Y-45001970D01*
X108758403Y-45000444D01*
X108762754Y-44994961D01*
X108785630Y-44959367D01*
X108909832Y-44835166D01*
X108971155Y-44801682D01*
X109040847Y-44806666D01*
X109085194Y-44835167D01*
X109163449Y-44913422D01*
X109163465Y-44913437D01*
X109191155Y-44937087D01*
X109191157Y-44937088D01*
X109332960Y-45015044D01*
X109332961Y-45015044D01*
X109332966Y-45015047D01*
X109340882Y-45017079D01*
X109342909Y-45017600D01*
X109399756Y-45050024D01*
X109616237Y-45266505D01*
X109616237Y-45266504D01*
X109689575Y-45133102D01*
X109689579Y-45133093D01*
X109695412Y-45110375D01*
X109731149Y-45050336D01*
X109784678Y-45021107D01*
X109808282Y-45015047D01*
X109950093Y-44937087D01*
X109977783Y-44913437D01*
X109983856Y-44907363D01*
X110045176Y-44873875D01*
X110047305Y-44873432D01*
X110068739Y-44869169D01*
X110196222Y-44816364D01*
X110310954Y-44739703D01*
X110778472Y-44272183D01*
X110831263Y-44243357D01*
X110830585Y-44241121D01*
X110836403Y-44239355D01*
X110836414Y-44239353D01*
X110983916Y-44178256D01*
X110983916Y-44178255D01*
X110983918Y-44178255D01*
X111062505Y-44125745D01*
X111116664Y-44089557D01*
X111229557Y-43976664D01*
X111294122Y-43880035D01*
X111318255Y-43843918D01*
X111318257Y-43843914D01*
X111346355Y-43776078D01*
X111379353Y-43696414D01*
X111410500Y-43539827D01*
X111410500Y-43380173D01*
X111379353Y-43223586D01*
X111369790Y-43200499D01*
X111318257Y-43076085D01*
X111318255Y-43076081D01*
X111229560Y-42943340D01*
X111229554Y-42943332D01*
X111116667Y-42830445D01*
X111116659Y-42830439D01*
X110983918Y-42741744D01*
X110983914Y-42741742D01*
X110836418Y-42680648D01*
X110836406Y-42680645D01*
X110679831Y-42649500D01*
X110679827Y-42649500D01*
X110520173Y-42649500D01*
X110520168Y-42649500D01*
X110363593Y-42680645D01*
X110363581Y-42680648D01*
X110216085Y-42741742D01*
X110216081Y-42741744D01*
X110083340Y-42830439D01*
X110083332Y-42830445D01*
X109970445Y-42943332D01*
X109970439Y-42943340D01*
X109881744Y-43076081D01*
X109881742Y-43076085D01*
X109819455Y-43226462D01*
X109819435Y-43226746D01*
X109819217Y-43227036D01*
X109818316Y-43229213D01*
X109817760Y-43228982D01*
X109800704Y-43251765D01*
X109783555Y-43277898D01*
X109779936Y-43279508D01*
X109777563Y-43282679D01*
X109748279Y-43293601D01*
X109719724Y-43306313D01*
X109715809Y-43305711D01*
X109712099Y-43307096D01*
X109681557Y-43300452D01*
X109650664Y-43295708D01*
X109646579Y-43292843D01*
X109643826Y-43292244D01*
X109615572Y-43271093D01*
X109456295Y-43111816D01*
X109430245Y-43073542D01*
X109393508Y-42988964D01*
X109338215Y-42918577D01*
X109296562Y-42876924D01*
X109281141Y-42858133D01*
X109216737Y-42761746D01*
X109216731Y-42761738D01*
X109119165Y-42664172D01*
X109119161Y-42664169D01*
X109064838Y-42627871D01*
X109020033Y-42574258D01*
X109011256Y-42505371D01*
X109032668Y-42370184D01*
X109032668Y-42165480D01*
X109030557Y-42152154D01*
X109000645Y-41963297D01*
X108970816Y-41871494D01*
X108937388Y-41768613D01*
X108937386Y-41768610D01*
X108937386Y-41768608D01*
X108878953Y-41653928D01*
X108844455Y-41586222D01*
X108829162Y-41565173D01*
X108724139Y-41420618D01*
X108579381Y-41275860D01*
X108413781Y-41155547D01*
X108413780Y-41155546D01*
X108413778Y-41155545D01*
X108356821Y-41126523D01*
X108231391Y-41062613D01*
X108036702Y-40999354D01*
X107862163Y-40971710D01*
X107834520Y-40967332D01*
X107629816Y-40967332D01*
X107597692Y-40972420D01*
X107481966Y-40990749D01*
X107412672Y-40981794D01*
X107374887Y-40955957D01*
X107081107Y-40662177D01*
X107010774Y-40606924D01*
X106966715Y-40587786D01*
X106966715Y-41153278D01*
X106966288Y-41154728D01*
X106966681Y-41156190D01*
X106956475Y-41188149D01*
X106947030Y-41220317D01*
X106945738Y-41221772D01*
X106945427Y-41222749D01*
X106938690Y-41229716D01*
X106921694Y-41248872D01*
X106918709Y-41251337D01*
X106884949Y-41275866D01*
X106865591Y-41295223D01*
X106861052Y-41298974D01*
X106834136Y-41310509D01*
X106808431Y-41324546D01*
X106799027Y-41325557D01*
X106796832Y-41326498D01*
X106794272Y-41326068D01*
X106782073Y-41327380D01*
X106740717Y-41327380D01*
X106673678Y-41307695D01*
X106627923Y-41254891D01*
X106616717Y-41203380D01*
X106616717Y-40540068D01*
X106616716Y-40540067D01*
X106570542Y-40546414D01*
X106570537Y-40546416D01*
X106431241Y-40606920D01*
X106431237Y-40606923D01*
X106360903Y-40662176D01*
X106126514Y-40896566D01*
X106126500Y-40896581D01*
X106098526Y-40932191D01*
X106041632Y-40972747D01*
X105971843Y-40976106D01*
X105913337Y-40943268D01*
X105520958Y-40550888D01*
X105520957Y-40550887D01*
X105406219Y-40474222D01*
X105278744Y-40421421D01*
X105278734Y-40421418D01*
X105143408Y-40394500D01*
X105143406Y-40394500D01*
X105143405Y-40394500D01*
X103161007Y-40394500D01*
X103161003Y-40394500D01*
X103059892Y-40414612D01*
X103059886Y-40414613D01*
X103052591Y-40416065D01*
X103025671Y-40421420D01*
X102979609Y-40440500D01*
X102975231Y-40442313D01*
X102975223Y-40442316D01*
X102898191Y-40474223D01*
X102859359Y-40500171D01*
X102859358Y-40500171D01*
X102783461Y-40550883D01*
X102783453Y-40550889D01*
X102501529Y-40832813D01*
X102448738Y-40861638D01*
X102449418Y-40863878D01*
X102443581Y-40865648D01*
X102296085Y-40926742D01*
X102296081Y-40926744D01*
X102163340Y-41015439D01*
X102163332Y-41015445D01*
X102050445Y-41128332D01*
X102050439Y-41128340D01*
X101961744Y-41261081D01*
X101961742Y-41261085D01*
X101900648Y-41408581D01*
X101900645Y-41408593D01*
X101869500Y-41565168D01*
X101869500Y-41724831D01*
X101900645Y-41881406D01*
X101900648Y-41881418D01*
X101961742Y-42028914D01*
X101961744Y-42028918D01*
X102050439Y-42161659D01*
X102050445Y-42161667D01*
X102163332Y-42274554D01*
X102163340Y-42274560D01*
X102232339Y-42320664D01*
X102277145Y-42374276D01*
X102285852Y-42443601D01*
X102255698Y-42506628D01*
X102210902Y-42538327D01*
X102106081Y-42581744D01*
X101973340Y-42670439D01*
X101973332Y-42670445D01*
X101860445Y-42783332D01*
X101860439Y-42783340D01*
X101771744Y-42916081D01*
X101771742Y-42916085D01*
X101710648Y-43063581D01*
X101710645Y-43063593D01*
X101679500Y-43220168D01*
X101679500Y-43379831D01*
X101710645Y-43536406D01*
X101710648Y-43536418D01*
X101771742Y-43683914D01*
X101771744Y-43683918D01*
X101860439Y-43816659D01*
X101860445Y-43816667D01*
X101973332Y-43929554D01*
X101973340Y-43929560D01*
X102106081Y-44018255D01*
X102106085Y-44018257D01*
X102236882Y-44072434D01*
X102253586Y-44079353D01*
X102387852Y-44106060D01*
X102410168Y-44110499D01*
X102410172Y-44110500D01*
X102410173Y-44110500D01*
X102569828Y-44110500D01*
X102569828Y-44110499D01*
X102726414Y-44079353D01*
X102726416Y-44079351D01*
X102728286Y-44078980D01*
X102797878Y-44085207D01*
X102853055Y-44128070D01*
X102876300Y-44193959D01*
X102860232Y-44261956D01*
X102840159Y-44288278D01*
X102137228Y-44991209D01*
X102075905Y-45024694D01*
X102006213Y-45019710D01*
X101961866Y-44991209D01*
X90556546Y-33585888D01*
X90556545Y-33585887D01*
X90441807Y-33509222D01*
X90314332Y-33456421D01*
X90314322Y-33456418D01*
X90178996Y-33429500D01*
X90178994Y-33429500D01*
X90178993Y-33429500D01*
X77129491Y-33429500D01*
X77062452Y-33409815D01*
X77016697Y-33357011D01*
X77006753Y-33287853D01*
X77026388Y-33236610D01*
X77029253Y-33232322D01*
X77058256Y-33188916D01*
X77119353Y-33041414D01*
X77150500Y-32884827D01*
X77150500Y-32725173D01*
X77150500Y-32725170D01*
X77150280Y-32722938D01*
X77150500Y-32721777D01*
X77150500Y-32719081D01*
X77151011Y-32719081D01*
X77163296Y-32654291D01*
X77211359Y-32603579D01*
X77279209Y-32586902D01*
X77308275Y-32591702D01*
X77309874Y-32592166D01*
X77309877Y-32592167D01*
X77345000Y-32594931D01*
X77345000Y-32594930D01*
X77845000Y-32594930D01*
X77880122Y-32592167D01*
X77880128Y-32592166D01*
X78034188Y-32547407D01*
X78034191Y-32547406D01*
X78172285Y-32465738D01*
X78172294Y-32465731D01*
X78285731Y-32352294D01*
X78285738Y-32352285D01*
X78367404Y-32214194D01*
X78407844Y-32075000D01*
X77845000Y-32075000D01*
X77845000Y-32594930D01*
X77345000Y-32594930D01*
X77345000Y-31949000D01*
X77364685Y-31881961D01*
X77417489Y-31836206D01*
X77469000Y-31825000D01*
X77595000Y-31825000D01*
X77595000Y-31699499D01*
X77597486Y-31691032D01*
X77596198Y-31682301D01*
X77607179Y-31658021D01*
X77614685Y-31632460D01*
X77621354Y-31626681D01*
X77624991Y-31618640D01*
X77647355Y-31604151D01*
X77667489Y-31586705D01*
X77677764Y-31584449D01*
X77683630Y-31580650D01*
X77717664Y-31575693D01*
X77718546Y-31575500D01*
X77718750Y-31575499D01*
X77844180Y-31575499D01*
X77850294Y-31575017D01*
X77854939Y-31575001D01*
X77854990Y-31575015D01*
X77855393Y-31575000D01*
X78407844Y-31575000D01*
X78367404Y-31435805D01*
X78333581Y-31378612D01*
X78316398Y-31310888D01*
X78333582Y-31252369D01*
X78367867Y-31194396D01*
X78367869Y-31194393D01*
X78405560Y-31064660D01*
X78412664Y-31040208D01*
X78412665Y-31040202D01*
X78415499Y-31004188D01*
X78415500Y-31004181D01*
X78415499Y-30605820D01*
X78412665Y-30569796D01*
X78367869Y-30415607D01*
X78320570Y-30335629D01*
X78303388Y-30267907D01*
X78320573Y-30209386D01*
X78352031Y-30156196D01*
X78394504Y-30010000D01*
X77714000Y-30010000D01*
X77705314Y-30007449D01*
X77696353Y-30008738D01*
X77672312Y-29997759D01*
X77646961Y-29990315D01*
X77641033Y-29983474D01*
X77632797Y-29979713D01*
X77618507Y-29957478D01*
X77601206Y-29937511D01*
X77598918Y-29926996D01*
X77595023Y-29920935D01*
X77590000Y-29886000D01*
X77590000Y-29704500D01*
X77609685Y-29637461D01*
X77662489Y-29591706D01*
X77714000Y-29580500D01*
X77824682Y-29580500D01*
X77824690Y-29580500D01*
X77860993Y-29577643D01*
X77860995Y-29577642D01*
X77860997Y-29577642D01*
X78016389Y-29532496D01*
X78016389Y-29532495D01*
X78016395Y-29532494D01*
X78025233Y-29527267D01*
X78088352Y-29510000D01*
X78394504Y-29510000D01*
X78352031Y-29363803D01*
X78340090Y-29343613D01*
X78322906Y-29275889D01*
X78340089Y-29217369D01*
X78352494Y-29196395D01*
X78397643Y-29040993D01*
X78400500Y-29004690D01*
X78400500Y-28595310D01*
X78397643Y-28559007D01*
X78352494Y-28403605D01*
X78270117Y-28264313D01*
X78270115Y-28264311D01*
X78270112Y-28264307D01*
X78256819Y-28251014D01*
X78242115Y-28224086D01*
X78225523Y-28198268D01*
X78224631Y-28192067D01*
X78223334Y-28189691D01*
X78220500Y-28163333D01*
X78220500Y-28142083D01*
X78240185Y-28075044D01*
X78256817Y-28054403D01*
X78264557Y-28046664D01*
X78327449Y-27952539D01*
X78353255Y-27913918D01*
X78353257Y-27913914D01*
X78413033Y-27769600D01*
X78414353Y-27766414D01*
X78445500Y-27609827D01*
X78445500Y-27450173D01*
X78414353Y-27293586D01*
X78414351Y-27293581D01*
X78353257Y-27146085D01*
X78353255Y-27146081D01*
X78264560Y-27013340D01*
X78264554Y-27013332D01*
X78151667Y-26900445D01*
X78151659Y-26900439D01*
X78018918Y-26811744D01*
X78018914Y-26811742D01*
X77871418Y-26750648D01*
X77871406Y-26750645D01*
X77714831Y-26719500D01*
X77714827Y-26719500D01*
X77555173Y-26719500D01*
X77555168Y-26719500D01*
X77398593Y-26750645D01*
X77398581Y-26750648D01*
X77251085Y-26811742D01*
X77251081Y-26811744D01*
X77118340Y-26900439D01*
X77118332Y-26900445D01*
X77005445Y-27013332D01*
X77005439Y-27013340D01*
X76916744Y-27146081D01*
X76916742Y-27146085D01*
X76855648Y-27293581D01*
X76855645Y-27293593D01*
X76824500Y-27450168D01*
X76824500Y-27538658D01*
X76822117Y-27562850D01*
X76819500Y-27576005D01*
X76819500Y-27885500D01*
X76799815Y-27952539D01*
X76747011Y-27998294D01*
X76695500Y-28009500D01*
X76261007Y-28009500D01*
X76237619Y-28014151D01*
X76196925Y-28022246D01*
X76127333Y-28016017D01*
X76072416Y-27973512D01*
X75991969Y-27862784D01*
X75847213Y-27718028D01*
X75681613Y-27597715D01*
X75681612Y-27597714D01*
X75681610Y-27597713D01*
X75589676Y-27550870D01*
X75499223Y-27504781D01*
X75304534Y-27441522D01*
X75129995Y-27413878D01*
X75102352Y-27409500D01*
X74897648Y-27409500D01*
X74873329Y-27413351D01*
X74695465Y-27441522D01*
X74500776Y-27504781D01*
X74318386Y-27597715D01*
X74152786Y-27718028D01*
X74008032Y-27862782D01*
X74008028Y-27862787D01*
X73927581Y-27973514D01*
X73872251Y-28016180D01*
X73803071Y-28022246D01*
X73738995Y-28009500D01*
X73738993Y-28009500D01*
X73052076Y-28009500D01*
X72985037Y-27989815D01*
X72939282Y-27937011D01*
X72929338Y-27867853D01*
X72933416Y-27849503D01*
X72934354Y-27846410D01*
X72965499Y-27689831D01*
X72965500Y-27689828D01*
X72965500Y-27530172D01*
X72965499Y-27530168D01*
X72947866Y-27441522D01*
X72934353Y-27373586D01*
X72901214Y-27293581D01*
X72873257Y-27226085D01*
X72873255Y-27226081D01*
X72784560Y-27093340D01*
X72784554Y-27093332D01*
X72671667Y-26980445D01*
X72671659Y-26980439D01*
X72538918Y-26891744D01*
X72538914Y-26891742D01*
X72391418Y-26830648D01*
X72391406Y-26830645D01*
X72234831Y-26799500D01*
X72234827Y-26799500D01*
X72075173Y-26799500D01*
X72075168Y-26799500D01*
X71918593Y-26830645D01*
X71918581Y-26830648D01*
X71771085Y-26891742D01*
X71771081Y-26891744D01*
X71638340Y-26980439D01*
X71638332Y-26980445D01*
X71525445Y-27093332D01*
X71525439Y-27093340D01*
X71436744Y-27226081D01*
X71436742Y-27226085D01*
X71375648Y-27373581D01*
X71375645Y-27373593D01*
X71344500Y-27530168D01*
X71344500Y-27689831D01*
X71375645Y-27846406D01*
X71375648Y-27846418D01*
X71435061Y-27989854D01*
X71444500Y-28037306D01*
X71444500Y-28446006D01*
X71444500Y-28583994D01*
X71444500Y-28583996D01*
X71444499Y-28583996D01*
X71471418Y-28719322D01*
X71471421Y-28719332D01*
X71524222Y-28846807D01*
X71600887Y-28961545D01*
X71871661Y-29232319D01*
X71875999Y-29240264D01*
X71883247Y-29245690D01*
X71892481Y-29270448D01*
X71905146Y-29293642D01*
X71904500Y-29302672D01*
X71907664Y-29311155D01*
X71902047Y-29336975D01*
X71900162Y-29363334D01*
X71894343Y-29372388D01*
X71892812Y-29379427D01*
X71871663Y-29407678D01*
X71813930Y-29465412D01*
X71761528Y-29517814D01*
X71708740Y-29546637D01*
X71709420Y-29548877D01*
X71703583Y-29550647D01*
X71556085Y-29611742D01*
X71556081Y-29611744D01*
X71423340Y-29700439D01*
X71423332Y-29700445D01*
X71310445Y-29813332D01*
X71310439Y-29813340D01*
X71221744Y-29946081D01*
X71221742Y-29946085D01*
X71160648Y-30093581D01*
X71160645Y-30093593D01*
X71129500Y-30250168D01*
X71129500Y-30409831D01*
X71160645Y-30566406D01*
X71160648Y-30566418D01*
X71221742Y-30713914D01*
X71221744Y-30713918D01*
X71310439Y-30846659D01*
X71310445Y-30846667D01*
X71423332Y-30959554D01*
X71423340Y-30959560D01*
X71556081Y-31048255D01*
X71556085Y-31048257D01*
X71703581Y-31109351D01*
X71703586Y-31109353D01*
X71737821Y-31116162D01*
X71799732Y-31148547D01*
X71834306Y-31209263D01*
X71835248Y-31261970D01*
X71825518Y-31310888D01*
X71824500Y-31316007D01*
X71824500Y-34566006D01*
X71824500Y-34703994D01*
X71824500Y-34703996D01*
X71824499Y-34703996D01*
X71851418Y-34839322D01*
X71851421Y-34839332D01*
X71904222Y-34966807D01*
X71980887Y-35081545D01*
X73168454Y-36269112D01*
X73283192Y-36345777D01*
X73410667Y-36398578D01*
X73410672Y-36398580D01*
X73410676Y-36398580D01*
X73410677Y-36398581D01*
X73546003Y-36425500D01*
X73546006Y-36425500D01*
X73546007Y-36425500D01*
X88583481Y-36425500D01*
X88650520Y-36445185D01*
X88671162Y-36461819D01*
X98340951Y-46131608D01*
X98374436Y-46192931D01*
X98369452Y-46262623D01*
X98340951Y-46306970D01*
X90443140Y-54204781D01*
X90381817Y-54238266D01*
X90312125Y-54233282D01*
X90256192Y-54191410D01*
X90233842Y-54141293D01*
X90224353Y-54093586D01*
X90194958Y-54022620D01*
X90163257Y-53946085D01*
X90163255Y-53946081D01*
X90074560Y-53813340D01*
X90074554Y-53813332D01*
X89961667Y-53700445D01*
X89961659Y-53700439D01*
X89828918Y-53611744D01*
X89828914Y-53611742D01*
X89681418Y-53550648D01*
X89681406Y-53550645D01*
X89524831Y-53519500D01*
X89524827Y-53519500D01*
X89365173Y-53519500D01*
X89365168Y-53519500D01*
X89208593Y-53550645D01*
X89208581Y-53550648D01*
X89061085Y-53611742D01*
X89061081Y-53611744D01*
X88928340Y-53700439D01*
X88928332Y-53700445D01*
X88815449Y-53813329D01*
X88815442Y-53813337D01*
X88793744Y-53845808D01*
X88778326Y-53864594D01*
X71194741Y-71448181D01*
X71133418Y-71481666D01*
X71107060Y-71484500D01*
X57467312Y-71484500D01*
X57443121Y-71482117D01*
X57427276Y-71478965D01*
X57404828Y-71474500D01*
X57404827Y-71474500D01*
X57245173Y-71474500D01*
X57245168Y-71474500D01*
X57088593Y-71505645D01*
X57088581Y-71505648D01*
X56941085Y-71566742D01*
X56941081Y-71566744D01*
X56808340Y-71655439D01*
X56808332Y-71655445D01*
X56695445Y-71768332D01*
X56695439Y-71768340D01*
X56606744Y-71901081D01*
X56606742Y-71901085D01*
X56545648Y-72048581D01*
X56545645Y-72048593D01*
X56514500Y-72205168D01*
X56514500Y-72364831D01*
X56545645Y-72521406D01*
X56545648Y-72521418D01*
X56606742Y-72668914D01*
X56606744Y-72668918D01*
X56695439Y-72801659D01*
X56695445Y-72801667D01*
X56808332Y-72914554D01*
X56808340Y-72914560D01*
X56941081Y-73003255D01*
X56941085Y-73003257D01*
X57065373Y-73054738D01*
X57088586Y-73064353D01*
X57206880Y-73087883D01*
X57245168Y-73095499D01*
X57245172Y-73095500D01*
X57245173Y-73095500D01*
X57404828Y-73095500D01*
X57404828Y-73095499D01*
X57443121Y-73087882D01*
X57467312Y-73085500D01*
X71568844Y-73085500D01*
X71568845Y-73085499D01*
X71723497Y-73054737D01*
X71847784Y-73003256D01*
X71869172Y-72994397D01*
X71869172Y-72994396D01*
X71869179Y-72994394D01*
X72000289Y-72906789D01*
X78972819Y-65934259D01*
X79034142Y-65900774D01*
X79103834Y-65905758D01*
X79159767Y-65947630D01*
X79184184Y-66013094D01*
X79184500Y-66021940D01*
X79184500Y-95627687D01*
X79182117Y-95651879D01*
X79174500Y-95690171D01*
X79174500Y-95849831D01*
X79205645Y-96006406D01*
X79205648Y-96006418D01*
X79266742Y-96153914D01*
X79266744Y-96153918D01*
X79355439Y-96286659D01*
X79355445Y-96286667D01*
X79468332Y-96399554D01*
X79468340Y-96399560D01*
X79601081Y-96488255D01*
X79601085Y-96488257D01*
X79748581Y-96549351D01*
X79748586Y-96549353D01*
X79900146Y-96579500D01*
X79905168Y-96580499D01*
X79905172Y-96580500D01*
X79905173Y-96580500D01*
X80064828Y-96580500D01*
X80064829Y-96580499D01*
X80221414Y-96549353D01*
X80368916Y-96488256D01*
X80368918Y-96488255D01*
X80434844Y-96444203D01*
X80501664Y-96399557D01*
X80614557Y-96286664D01*
X80703256Y-96153916D01*
X80764353Y-96006414D01*
X80795500Y-95849827D01*
X80795500Y-95690173D01*
X80794996Y-95687638D01*
X80795117Y-95686284D01*
X80794903Y-95684110D01*
X80795315Y-95684069D01*
X80795819Y-95678432D01*
X80792771Y-95669707D01*
X80798884Y-95644184D01*
X80801223Y-95618046D01*
X80806893Y-95610746D01*
X80809046Y-95601759D01*
X80827986Y-95583593D01*
X80844086Y-95562869D01*
X80854140Y-95558510D01*
X80859472Y-95553397D01*
X80879932Y-95547330D01*
X80892791Y-95541756D01*
X80899207Y-95540500D01*
X80899827Y-95540500D01*
X80938345Y-95532838D01*
X80938490Y-95532810D01*
X80938681Y-95532827D01*
X80962312Y-95530500D01*
X87777688Y-95530500D01*
X87801878Y-95532882D01*
X87840171Y-95540499D01*
X87840172Y-95540500D01*
X87840173Y-95540500D01*
X87999828Y-95540500D01*
X87999829Y-95540499D01*
X88156414Y-95509353D01*
X88303916Y-95448256D01*
X88303918Y-95448255D01*
X88369844Y-95404203D01*
X88436664Y-95359557D01*
X88549557Y-95246664D01*
X88638256Y-95113916D01*
X88699353Y-94966414D01*
X88730500Y-94809827D01*
X88730500Y-94650173D01*
X88699353Y-94493586D01*
X88689246Y-94469185D01*
X88638257Y-94346085D01*
X88638255Y-94346081D01*
X88549560Y-94213340D01*
X88549554Y-94213332D01*
X88436667Y-94100445D01*
X88436659Y-94100439D01*
X88303918Y-94011744D01*
X88303914Y-94011742D01*
X88156418Y-93950648D01*
X88156406Y-93950645D01*
X87999831Y-93919500D01*
X87999827Y-93919500D01*
X87840173Y-93919500D01*
X87840172Y-93919500D01*
X87817723Y-93923965D01*
X87801878Y-93927117D01*
X87777688Y-93929500D01*
X80962312Y-93929500D01*
X80940028Y-93927481D01*
X80939080Y-93927307D01*
X80899827Y-93919500D01*
X80896341Y-93919500D01*
X80887216Y-93917833D01*
X80860398Y-93904335D01*
X80832552Y-93893089D01*
X80829509Y-93888788D01*
X80824805Y-93886421D01*
X80809541Y-93860566D01*
X80792197Y-93836052D01*
X80791067Y-93829273D01*
X80789285Y-93826254D01*
X80789522Y-93819996D01*
X80785500Y-93795852D01*
X80785500Y-66177939D01*
X80805185Y-66110900D01*
X80821814Y-66090263D01*
X99955410Y-46956666D01*
X99974188Y-46941255D01*
X100006664Y-46919557D01*
X100119557Y-46806664D01*
X100196562Y-46691418D01*
X100208255Y-46673918D01*
X100208257Y-46673914D01*
X100234702Y-46610069D01*
X100269353Y-46526414D01*
X100300500Y-46369827D01*
X100300500Y-46210173D01*
X100269353Y-46053586D01*
X100243319Y-45990733D01*
X100208257Y-45906085D01*
X100208255Y-45906081D01*
X100119560Y-45773340D01*
X100119554Y-45773332D01*
X100006667Y-45660445D01*
X100006659Y-45660439D01*
X99873918Y-45571744D01*
X99873914Y-45571742D01*
X99726418Y-45510648D01*
X99720582Y-45508878D01*
X99721378Y-45506253D01*
X99669916Y-45479236D01*
X99668470Y-45477813D01*
X89371546Y-35180888D01*
X89371545Y-35180887D01*
X89256807Y-35104222D01*
X89171918Y-35069061D01*
X89117514Y-35025220D01*
X89095449Y-34958926D01*
X89112728Y-34891227D01*
X89163865Y-34843616D01*
X89219370Y-34830500D01*
X89768481Y-34830500D01*
X89835520Y-34850185D01*
X89856162Y-34866819D01*
X101193385Y-46204042D01*
X101193386Y-46204043D01*
X101296313Y-46306970D01*
X101396546Y-46407202D01*
X101396565Y-46407223D01*
X101855886Y-46866543D01*
X113098181Y-58108838D01*
X113131666Y-58170161D01*
X113134500Y-58196519D01*
X113134500Y-71202101D01*
X113114815Y-71269140D01*
X113062011Y-71314895D01*
X112992853Y-71324839D01*
X112986309Y-71323718D01*
X112914831Y-71309500D01*
X112914827Y-71309500D01*
X112755173Y-71309500D01*
X112755168Y-71309500D01*
X112598593Y-71340645D01*
X112598581Y-71340648D01*
X112451085Y-71401742D01*
X112451081Y-71401744D01*
X112318340Y-71490439D01*
X112318332Y-71490445D01*
X112205445Y-71603332D01*
X112205439Y-71603340D01*
X112116744Y-71736081D01*
X112116742Y-71736085D01*
X112055648Y-71883581D01*
X112055645Y-71883593D01*
X112024500Y-72040168D01*
X112024500Y-72199831D01*
X112055645Y-72356406D01*
X112055648Y-72356418D01*
X112116741Y-72503911D01*
X112119616Y-72509289D01*
X112117162Y-72510600D01*
X112134480Y-72565863D01*
X112134500Y-72568105D01*
X112134500Y-90903480D01*
X112114815Y-90970519D01*
X112098181Y-90991161D01*
X103793285Y-99296056D01*
X103753057Y-99322936D01*
X103611082Y-99381744D01*
X103611081Y-99381744D01*
X103478340Y-99470439D01*
X103478332Y-99470445D01*
X103365445Y-99583332D01*
X103365439Y-99583340D01*
X103276744Y-99716081D01*
X103276742Y-99716085D01*
X103215648Y-99863581D01*
X103215645Y-99863593D01*
X103184500Y-100020168D01*
X103184500Y-100179831D01*
X103215645Y-100336406D01*
X103215648Y-100336418D01*
X103276742Y-100483914D01*
X103276744Y-100483918D01*
X103365439Y-100616659D01*
X103365445Y-100616667D01*
X103478332Y-100729554D01*
X103478340Y-100729560D01*
X103611081Y-100818255D01*
X103611085Y-100818257D01*
X103749774Y-100875703D01*
X103758586Y-100879353D01*
X103915168Y-100910499D01*
X103915172Y-100910500D01*
X104004481Y-100910500D01*
X104071520Y-100930185D01*
X104117275Y-100982989D01*
X104127219Y-101052147D01*
X104098194Y-101115703D01*
X104092162Y-101122181D01*
X103201409Y-102012934D01*
X96595888Y-108618453D01*
X96595887Y-108618454D01*
X96519222Y-108733192D01*
X96466421Y-108860667D01*
X96466418Y-108860679D01*
X96440009Y-108993448D01*
X96440006Y-108993463D01*
X96439500Y-108996002D01*
X96439500Y-110903481D01*
X96419815Y-110970520D01*
X96403181Y-110991162D01*
X96024825Y-111369517D01*
X95963502Y-111403002D01*
X95893810Y-111398018D01*
X95837877Y-111356146D01*
X95813460Y-111290682D01*
X95816809Y-111251911D01*
X95822581Y-111228704D01*
X95825500Y-111185657D01*
X95825499Y-108794344D01*
X95822581Y-108751296D01*
X95776307Y-108565225D01*
X95721621Y-108454961D01*
X95691118Y-108393456D01*
X95691116Y-108393453D01*
X95570990Y-108244010D01*
X95570989Y-108244009D01*
X95421546Y-108123883D01*
X95421543Y-108123881D01*
X95249778Y-108038694D01*
X95249776Y-108038693D01*
X95249775Y-108038693D01*
X95211939Y-108029283D01*
X95063708Y-107992419D01*
X95035006Y-107990473D01*
X95020657Y-107989500D01*
X95020655Y-107989500D01*
X94979500Y-107989500D01*
X94912461Y-107969815D01*
X94866706Y-107917011D01*
X94855500Y-107865500D01*
X94855500Y-106602939D01*
X94875185Y-106535900D01*
X94891815Y-106515262D01*
X95220410Y-106186666D01*
X95239188Y-106171255D01*
X95271664Y-106149557D01*
X95384557Y-106036664D01*
X95455015Y-105931216D01*
X95473255Y-105903918D01*
X95473257Y-105903914D01*
X95524732Y-105779641D01*
X95534353Y-105756414D01*
X95565500Y-105599827D01*
X95565500Y-105440173D01*
X95534353Y-105283586D01*
X95501733Y-105204833D01*
X95473257Y-105136085D01*
X95473255Y-105136081D01*
X95384560Y-105003340D01*
X95384554Y-105003332D01*
X95271667Y-104890445D01*
X95271659Y-104890439D01*
X95138918Y-104801744D01*
X95138914Y-104801742D01*
X94991418Y-104740648D01*
X94991406Y-104740645D01*
X94834831Y-104709500D01*
X94834827Y-104709500D01*
X94675173Y-104709500D01*
X94675168Y-104709500D01*
X94518593Y-104740645D01*
X94518581Y-104740648D01*
X94371085Y-104801742D01*
X94371081Y-104801744D01*
X94238340Y-104890439D01*
X94238332Y-104890445D01*
X94125449Y-105003329D01*
X94125442Y-105003337D01*
X94103744Y-105035808D01*
X94088326Y-105054594D01*
X93661344Y-105481578D01*
X93544711Y-105598211D01*
X93514956Y-105627966D01*
X93433209Y-105709712D01*
X93345609Y-105840814D01*
X93345602Y-105840827D01*
X93285264Y-105986498D01*
X93285261Y-105986510D01*
X93254500Y-106141153D01*
X93254500Y-107865500D01*
X93234815Y-107932539D01*
X93182011Y-107978294D01*
X93130503Y-107989500D01*
X93089345Y-107989500D01*
X93089339Y-107989501D01*
X93046298Y-107992418D01*
X93046297Y-107992418D01*
X92860221Y-108038694D01*
X92688456Y-108123881D01*
X92688453Y-108123883D01*
X92533770Y-108248222D01*
X92532091Y-108246133D01*
X92481302Y-108273835D01*
X92411613Y-108268819D01*
X92377365Y-108246809D01*
X92376230Y-108248222D01*
X92221546Y-108123883D01*
X92221543Y-108123881D01*
X92049778Y-108038694D01*
X92049776Y-108038693D01*
X92049775Y-108038693D01*
X92011939Y-108029283D01*
X91863708Y-107992419D01*
X91835006Y-107990473D01*
X91820657Y-107989500D01*
X91820655Y-107989500D01*
X91779500Y-107989500D01*
X91712461Y-107969815D01*
X91666706Y-107917011D01*
X91655500Y-107865500D01*
X91655500Y-102277938D01*
X91675185Y-102210899D01*
X91691815Y-102190261D01*
X91930407Y-101951668D01*
X91949185Y-101936257D01*
X91981664Y-101914557D01*
X92094557Y-101801664D01*
X92183256Y-101668916D01*
X92244353Y-101521414D01*
X92275500Y-101364827D01*
X92275500Y-101205173D01*
X92244353Y-101048586D01*
X92236386Y-101029353D01*
X92183257Y-100901087D01*
X92183256Y-100901084D01*
X92158070Y-100863390D01*
X92137193Y-100796712D01*
X92155678Y-100729332D01*
X92207658Y-100682642D01*
X92261173Y-100670500D01*
X100888844Y-100670500D01*
X100888845Y-100670499D01*
X101043497Y-100639737D01*
X101189179Y-100579394D01*
X101320289Y-100491789D01*
X109440410Y-92371666D01*
X109459188Y-92356255D01*
X109491664Y-92334557D01*
X109604557Y-92221664D01*
X109649203Y-92154844D01*
X109693255Y-92088918D01*
X109693257Y-92088914D01*
X109754351Y-91941418D01*
X109754353Y-91941414D01*
X109785500Y-91784827D01*
X109785500Y-91625173D01*
X109754353Y-91468586D01*
X109699603Y-91336406D01*
X109693257Y-91321085D01*
X109693255Y-91321081D01*
X109604560Y-91188340D01*
X109604554Y-91188332D01*
X109491667Y-91075445D01*
X109491659Y-91075439D01*
X109358918Y-90986744D01*
X109358914Y-90986742D01*
X109211418Y-90925648D01*
X109211406Y-90925645D01*
X109054831Y-90894500D01*
X109054827Y-90894500D01*
X108895173Y-90894500D01*
X108895168Y-90894500D01*
X108738593Y-90925645D01*
X108738581Y-90925648D01*
X108640844Y-90966132D01*
X108571375Y-90973601D01*
X108508896Y-90942325D01*
X108473244Y-90882236D01*
X108471774Y-90875759D01*
X108469353Y-90863587D01*
X108469351Y-90863581D01*
X108408257Y-90716085D01*
X108408255Y-90716081D01*
X108319560Y-90583340D01*
X108319554Y-90583332D01*
X108206667Y-90470445D01*
X108206659Y-90470439D01*
X108073918Y-90381744D01*
X108073914Y-90381742D01*
X107926418Y-90320648D01*
X107926406Y-90320645D01*
X107769831Y-90289500D01*
X107769827Y-90289500D01*
X107610173Y-90289500D01*
X107610168Y-90289500D01*
X107453593Y-90320645D01*
X107453581Y-90320648D01*
X107306085Y-90381742D01*
X107306081Y-90381744D01*
X107173340Y-90470439D01*
X107173332Y-90470445D01*
X107060449Y-90583329D01*
X107060442Y-90583337D01*
X107038744Y-90615808D01*
X107023326Y-90634594D01*
X99377741Y-98280181D01*
X99316418Y-98313666D01*
X99290060Y-98316500D01*
X91946030Y-98316500D01*
X91878991Y-98296815D01*
X91833236Y-98244011D01*
X91823292Y-98174853D01*
X91852317Y-98111297D01*
X91877138Y-98089398D01*
X91981664Y-98019557D01*
X92094557Y-97906664D01*
X92150946Y-97822272D01*
X92183255Y-97773918D01*
X92183257Y-97773914D01*
X92240613Y-97635443D01*
X92244353Y-97626414D01*
X92275500Y-97469827D01*
X92275500Y-97310173D01*
X92244353Y-97153586D01*
X92183256Y-97006084D01*
X92183255Y-97006082D01*
X92183254Y-97006080D01*
X92165944Y-96980173D01*
X95359500Y-96980173D01*
X95359500Y-96985391D01*
X95359500Y-97139831D01*
X95390645Y-97296406D01*
X95390648Y-97296418D01*
X95451742Y-97443914D01*
X95451744Y-97443918D01*
X95540439Y-97576659D01*
X95540445Y-97576667D01*
X95653332Y-97689554D01*
X95653340Y-97689560D01*
X95786081Y-97778255D01*
X95786085Y-97778257D01*
X95933581Y-97839351D01*
X95933586Y-97839353D01*
X96090168Y-97870499D01*
X96090172Y-97870500D01*
X96090173Y-97870500D01*
X96249828Y-97870500D01*
X96249829Y-97870499D01*
X96406414Y-97839353D01*
X96553916Y-97778256D01*
X96553918Y-97778255D01*
X96619844Y-97734203D01*
X96686664Y-97689557D01*
X96799557Y-97576664D01*
X96860374Y-97485645D01*
X96888255Y-97443918D01*
X96888257Y-97443914D01*
X96949351Y-97296418D01*
X96949353Y-97296414D01*
X96980500Y-97139827D01*
X96980500Y-96980173D01*
X96977883Y-96967016D01*
X96975500Y-96942824D01*
X96975500Y-93437311D01*
X96977883Y-93413118D01*
X96985500Y-93374828D01*
X96985500Y-93215172D01*
X96985499Y-93215168D01*
X96954354Y-93058593D01*
X96954353Y-93058586D01*
X96954351Y-93058581D01*
X96893257Y-92911085D01*
X96893255Y-92911081D01*
X96804560Y-92778340D01*
X96804554Y-92778332D01*
X96691667Y-92665445D01*
X96691659Y-92665439D01*
X96558918Y-92576744D01*
X96558914Y-92576742D01*
X96411418Y-92515648D01*
X96411406Y-92515645D01*
X96254831Y-92484500D01*
X96254827Y-92484500D01*
X96095173Y-92484500D01*
X96095168Y-92484500D01*
X95938593Y-92515645D01*
X95938581Y-92515648D01*
X95791085Y-92576742D01*
X95791081Y-92576744D01*
X95658340Y-92665439D01*
X95658332Y-92665445D01*
X95545445Y-92778332D01*
X95545439Y-92778340D01*
X95456744Y-92911081D01*
X95456742Y-92911085D01*
X95395648Y-93058581D01*
X95395645Y-93058593D01*
X95364500Y-93215168D01*
X95364500Y-93374828D01*
X95372117Y-93413118D01*
X95374500Y-93437311D01*
X95374500Y-96892550D01*
X95372560Y-96912236D01*
X95372453Y-96914987D01*
X95372290Y-96915867D01*
X95359500Y-96980173D01*
X92165944Y-96980173D01*
X92094560Y-96873340D01*
X92094554Y-96873332D01*
X91981667Y-96760445D01*
X91981659Y-96760439D01*
X91848918Y-96671744D01*
X91848914Y-96671742D01*
X91701418Y-96610648D01*
X91701406Y-96610645D01*
X91544831Y-96579500D01*
X91544827Y-96579500D01*
X91385173Y-96579500D01*
X91385172Y-96579500D01*
X91362723Y-96583965D01*
X91346878Y-96587117D01*
X91322688Y-96589500D01*
X85321155Y-96589500D01*
X85166508Y-96620261D01*
X85166498Y-96620264D01*
X85020827Y-96680602D01*
X85020814Y-96680609D01*
X84914164Y-96751871D01*
X84914163Y-96751873D01*
X84901343Y-96760439D01*
X84889705Y-96768215D01*
X82489594Y-99168326D01*
X82470808Y-99183744D01*
X82438337Y-99205442D01*
X82438329Y-99205449D01*
X82325445Y-99318332D01*
X82325439Y-99318340D01*
X82236744Y-99451081D01*
X82236742Y-99451085D01*
X82175648Y-99598581D01*
X82175645Y-99598593D01*
X82144500Y-99755168D01*
X82144500Y-99914831D01*
X82175645Y-100071406D01*
X82175648Y-100071418D01*
X82236742Y-100218914D01*
X82236744Y-100218918D01*
X82325439Y-100351659D01*
X82325445Y-100351667D01*
X82438332Y-100464554D01*
X82438340Y-100464560D01*
X82571081Y-100553255D01*
X82571085Y-100553257D01*
X82718581Y-100614351D01*
X82718586Y-100614353D01*
X82875168Y-100645499D01*
X82875172Y-100645500D01*
X82875173Y-100645500D01*
X83034828Y-100645500D01*
X83034829Y-100645499D01*
X83191414Y-100614353D01*
X83338916Y-100553256D01*
X83338918Y-100553255D01*
X83430913Y-100491786D01*
X83471664Y-100464557D01*
X83584557Y-100351664D01*
X83606255Y-100319188D01*
X83621666Y-100300410D01*
X85695259Y-98226819D01*
X85756582Y-98193334D01*
X85782940Y-98190500D01*
X86669969Y-98190500D01*
X86737008Y-98210185D01*
X86782763Y-98262989D01*
X86792707Y-98332147D01*
X86763682Y-98395703D01*
X86738860Y-98417602D01*
X86622712Y-98495209D01*
X86589667Y-98528255D01*
X86511211Y-98606711D01*
X86511209Y-98606713D01*
X80727270Y-104390651D01*
X80633213Y-104484707D01*
X80633210Y-104484711D01*
X80545609Y-104615814D01*
X80545602Y-104615827D01*
X80485264Y-104761498D01*
X80485261Y-104761510D01*
X80454500Y-104916153D01*
X80454500Y-107865500D01*
X80434815Y-107932539D01*
X80382011Y-107978294D01*
X80330503Y-107989500D01*
X80289345Y-107989500D01*
X80289339Y-107989501D01*
X80246298Y-107992418D01*
X80246297Y-107992418D01*
X80060221Y-108038694D01*
X79888456Y-108123881D01*
X79888453Y-108123883D01*
X79733770Y-108248222D01*
X79732091Y-108246133D01*
X79681302Y-108273835D01*
X79611613Y-108268819D01*
X79577365Y-108246809D01*
X79576230Y-108248222D01*
X79421546Y-108123883D01*
X79421543Y-108123881D01*
X79249778Y-108038694D01*
X79249776Y-108038693D01*
X79249775Y-108038693D01*
X79211939Y-108029283D01*
X79063708Y-107992419D01*
X79035006Y-107990473D01*
X79020657Y-107989500D01*
X79020655Y-107989500D01*
X78979500Y-107989500D01*
X78912461Y-107969815D01*
X78866706Y-107917011D01*
X78855500Y-107865500D01*
X78855500Y-105071158D01*
X78844275Y-105014722D01*
X78844275Y-105014721D01*
X78829265Y-104939261D01*
X78824738Y-104916503D01*
X78764394Y-104770821D01*
X78764392Y-104770818D01*
X78764390Y-104770814D01*
X78676789Y-104639711D01*
X78676786Y-104639707D01*
X77631830Y-103594752D01*
X77598345Y-103533429D01*
X77603329Y-103463737D01*
X77631829Y-103419391D01*
X77734557Y-103316664D01*
X77802329Y-103215236D01*
X77823255Y-103183918D01*
X77823257Y-103183914D01*
X77872297Y-103065519D01*
X77884353Y-103036414D01*
X77915500Y-102879827D01*
X77915500Y-102720173D01*
X77884353Y-102563586D01*
X77823256Y-102416084D01*
X77823252Y-102416079D01*
X77820383Y-102410710D01*
X77822824Y-102409405D01*
X77805519Y-102354057D01*
X77805500Y-102351895D01*
X77805500Y-92058841D01*
X77817671Y-92010268D01*
X77815925Y-92009545D01*
X77879351Y-91856418D01*
X77879353Y-91856414D01*
X77910500Y-91699827D01*
X77910500Y-91540173D01*
X77879353Y-91383586D01*
X77863953Y-91346406D01*
X77818257Y-91236085D01*
X77818255Y-91236081D01*
X77729560Y-91103340D01*
X77729554Y-91103332D01*
X77616667Y-90990445D01*
X77616659Y-90990439D01*
X77483918Y-90901744D01*
X77483914Y-90901742D01*
X77336418Y-90840648D01*
X77336406Y-90840645D01*
X77179831Y-90809500D01*
X77179827Y-90809500D01*
X77020173Y-90809500D01*
X77020168Y-90809500D01*
X76863593Y-90840645D01*
X76863581Y-90840648D01*
X76716085Y-90901742D01*
X76716081Y-90901744D01*
X76583340Y-90990439D01*
X76583332Y-90990445D01*
X76470445Y-91103332D01*
X76470439Y-91103340D01*
X76381744Y-91236081D01*
X76381742Y-91236085D01*
X76320648Y-91383581D01*
X76320645Y-91383593D01*
X76289500Y-91540168D01*
X76289500Y-91699831D01*
X76320645Y-91856406D01*
X76320648Y-91856418D01*
X76381741Y-92003911D01*
X76381743Y-92003914D01*
X76383601Y-92006695D01*
X76384126Y-92008372D01*
X76384613Y-92009283D01*
X76384440Y-92009375D01*
X76404480Y-92073372D01*
X76404500Y-92075587D01*
X76404500Y-102068060D01*
X76384815Y-102135099D01*
X76332011Y-102180854D01*
X76262853Y-102190798D01*
X76199297Y-102161773D01*
X76192819Y-102155741D01*
X71231672Y-97194594D01*
X71216251Y-97175804D01*
X71194555Y-97143333D01*
X71081667Y-97030445D01*
X71081659Y-97030439D01*
X70948918Y-96941744D01*
X70948914Y-96941742D01*
X70801418Y-96880648D01*
X70801406Y-96880645D01*
X70644831Y-96849500D01*
X70644827Y-96849500D01*
X70485173Y-96849500D01*
X70485168Y-96849500D01*
X70328593Y-96880645D01*
X70328581Y-96880648D01*
X70181085Y-96941742D01*
X70181081Y-96941744D01*
X70048340Y-97030439D01*
X70048332Y-97030445D01*
X69935445Y-97143332D01*
X69935439Y-97143340D01*
X69846744Y-97276081D01*
X69846742Y-97276085D01*
X69793287Y-97405140D01*
X69749446Y-97459544D01*
X69683152Y-97481609D01*
X69654535Y-97479305D01*
X69529831Y-97454500D01*
X69529827Y-97454500D01*
X69370173Y-97454500D01*
X69370168Y-97454500D01*
X69213593Y-97485645D01*
X69213581Y-97485648D01*
X69066085Y-97546742D01*
X69066081Y-97546744D01*
X68933340Y-97635439D01*
X68933332Y-97635445D01*
X68820445Y-97748332D01*
X68820439Y-97748340D01*
X68731744Y-97881081D01*
X68731742Y-97881085D01*
X68670648Y-98028581D01*
X68670645Y-98028593D01*
X68639500Y-98185168D01*
X68639500Y-98344831D01*
X68670645Y-98501406D01*
X68670648Y-98501418D01*
X68731742Y-98648914D01*
X68731744Y-98648918D01*
X68820439Y-98781659D01*
X68820445Y-98781667D01*
X68933333Y-98894555D01*
X68933336Y-98894557D01*
X68965806Y-98916252D01*
X68984595Y-98931673D01*
X74018181Y-103965258D01*
X74051666Y-104026581D01*
X74054500Y-104052939D01*
X74054500Y-107865500D01*
X74034815Y-107932539D01*
X73982011Y-107978294D01*
X73930503Y-107989500D01*
X73889345Y-107989500D01*
X73889339Y-107989501D01*
X73846298Y-107992418D01*
X73846297Y-107992418D01*
X73660221Y-108038694D01*
X73488456Y-108123881D01*
X73488453Y-108123883D01*
X73333770Y-108248222D01*
X73332091Y-108246133D01*
X73281302Y-108273835D01*
X73211613Y-108268819D01*
X73177365Y-108246809D01*
X73176230Y-108248222D01*
X73021546Y-108123883D01*
X73021543Y-108123881D01*
X72849778Y-108038694D01*
X72849776Y-108038693D01*
X72849775Y-108038693D01*
X72811939Y-108029283D01*
X72663708Y-107992419D01*
X72639105Y-107990751D01*
X72620657Y-107989500D01*
X72620654Y-107989500D01*
X70689343Y-107989500D01*
X70689340Y-107989501D01*
X70646298Y-107992418D01*
X70646297Y-107992418D01*
X70460221Y-108038694D01*
X70288456Y-108123881D01*
X70288453Y-108123883D01*
X70133770Y-108248222D01*
X70132091Y-108246133D01*
X70081302Y-108273835D01*
X70011613Y-108268819D01*
X69977365Y-108246809D01*
X69976230Y-108248222D01*
X69821546Y-108123883D01*
X69821543Y-108123881D01*
X69649778Y-108038694D01*
X69649776Y-108038693D01*
X69649775Y-108038693D01*
X69611939Y-108029283D01*
X69463708Y-107992419D01*
X69439105Y-107990751D01*
X69420657Y-107989500D01*
X69420654Y-107989500D01*
X67489343Y-107989500D01*
X67489340Y-107989501D01*
X67446298Y-107992418D01*
X67446297Y-107992418D01*
X67260221Y-108038694D01*
X67088456Y-108123881D01*
X67088453Y-108123883D01*
X66933770Y-108248222D01*
X66932091Y-108246133D01*
X66881302Y-108273835D01*
X66811613Y-108268819D01*
X66777365Y-108246809D01*
X66776230Y-108248222D01*
X66621546Y-108123883D01*
X66621543Y-108123881D01*
X66449778Y-108038694D01*
X66449776Y-108038693D01*
X66449775Y-108038693D01*
X66411939Y-108029283D01*
X66263708Y-107992419D01*
X66239105Y-107990751D01*
X66220657Y-107989500D01*
X66220654Y-107989500D01*
X64289343Y-107989500D01*
X64289340Y-107989501D01*
X64246298Y-107992418D01*
X64246297Y-107992418D01*
X64060221Y-108038694D01*
X63888456Y-108123881D01*
X63888453Y-108123883D01*
X63733770Y-108248222D01*
X63732091Y-108246133D01*
X63681302Y-108273835D01*
X63611613Y-108268819D01*
X63577365Y-108246809D01*
X63576230Y-108248222D01*
X63421546Y-108123883D01*
X63421543Y-108123881D01*
X63249778Y-108038694D01*
X63249776Y-108038693D01*
X63249775Y-108038693D01*
X63211939Y-108029283D01*
X63063708Y-107992419D01*
X63039105Y-107990751D01*
X63020657Y-107989500D01*
X63020654Y-107989500D01*
X61089343Y-107989500D01*
X61089340Y-107989501D01*
X61046298Y-107992418D01*
X61046297Y-107992418D01*
X60860221Y-108038694D01*
X60688456Y-108123881D01*
X60688453Y-108123883D01*
X60539010Y-108244009D01*
X60539009Y-108244010D01*
X60418883Y-108393453D01*
X60418881Y-108393456D01*
X60333694Y-108565221D01*
X60287419Y-108751291D01*
X60284500Y-108794345D01*
X60284500Y-108965500D01*
X60264815Y-109032539D01*
X60212011Y-109078294D01*
X60160500Y-109089500D01*
X58439362Y-109089500D01*
X58372323Y-109069815D01*
X58351681Y-109053181D01*
X55776819Y-106478319D01*
X55743334Y-106416996D01*
X55740500Y-106390638D01*
X55740500Y-91030173D01*
X68474500Y-91030173D01*
X68474500Y-91034987D01*
X68474500Y-91189831D01*
X68505645Y-91346406D01*
X68505648Y-91346418D01*
X68566742Y-91493914D01*
X68566744Y-91493918D01*
X68655439Y-91626659D01*
X68655445Y-91626667D01*
X68768332Y-91739554D01*
X68768340Y-91739560D01*
X68901081Y-91828255D01*
X68901085Y-91828257D01*
X69024446Y-91879354D01*
X69048586Y-91889353D01*
X69205168Y-91920499D01*
X69205172Y-91920500D01*
X69205173Y-91920500D01*
X69364828Y-91920500D01*
X69364829Y-91920499D01*
X69521414Y-91889353D01*
X69668916Y-91828256D01*
X69668918Y-91828255D01*
X69734844Y-91784203D01*
X69801664Y-91739557D01*
X69844818Y-91696402D01*
X69906138Y-91662917D01*
X69975830Y-91667900D01*
X70020180Y-91696402D01*
X70053332Y-91729554D01*
X70053340Y-91729560D01*
X70186081Y-91818255D01*
X70186085Y-91818257D01*
X70333581Y-91879351D01*
X70333586Y-91879353D01*
X70490168Y-91910499D01*
X70490172Y-91910500D01*
X70490173Y-91910500D01*
X70649828Y-91910500D01*
X70649829Y-91910499D01*
X70806414Y-91879353D01*
X70904748Y-91838621D01*
X70953914Y-91818257D01*
X70953918Y-91818255D01*
X71071693Y-91739560D01*
X71086664Y-91729557D01*
X71199557Y-91616664D01*
X71281573Y-91493918D01*
X71288255Y-91483918D01*
X71288257Y-91483914D01*
X71349351Y-91336418D01*
X71349353Y-91336414D01*
X71380500Y-91179827D01*
X71380500Y-91020173D01*
X71372883Y-90981879D01*
X71370500Y-90957687D01*
X71370500Y-85472311D01*
X71372883Y-85448118D01*
X71374506Y-85439963D01*
X71377912Y-85422833D01*
X71380500Y-85409828D01*
X71380500Y-85250172D01*
X71380499Y-85250168D01*
X71350349Y-85098593D01*
X71349353Y-85093586D01*
X71349351Y-85093581D01*
X71288257Y-84946085D01*
X71288255Y-84946081D01*
X71199560Y-84813340D01*
X71199554Y-84813332D01*
X71086667Y-84700445D01*
X71086659Y-84700439D01*
X70953918Y-84611744D01*
X70953914Y-84611742D01*
X70806418Y-84550648D01*
X70806406Y-84550645D01*
X70649831Y-84519500D01*
X70649827Y-84519500D01*
X70490173Y-84519500D01*
X70490168Y-84519500D01*
X70333593Y-84550645D01*
X70333581Y-84550648D01*
X70186085Y-84611742D01*
X70186081Y-84611744D01*
X70053340Y-84700439D01*
X70053332Y-84700445D01*
X70015181Y-84738597D01*
X69953858Y-84772082D01*
X69884166Y-84767098D01*
X69839819Y-84738597D01*
X69806667Y-84705445D01*
X69806659Y-84705439D01*
X69673918Y-84616744D01*
X69673914Y-84616742D01*
X69526418Y-84555648D01*
X69526406Y-84555645D01*
X69369831Y-84524500D01*
X69369827Y-84524500D01*
X69210173Y-84524500D01*
X69210168Y-84524500D01*
X69053593Y-84555645D01*
X69053581Y-84555648D01*
X68906085Y-84616742D01*
X68906081Y-84616744D01*
X68773340Y-84705439D01*
X68773332Y-84705445D01*
X68660445Y-84818332D01*
X68660439Y-84818340D01*
X68571744Y-84951081D01*
X68571742Y-84951085D01*
X68510648Y-85098581D01*
X68510645Y-85098593D01*
X68479500Y-85255168D01*
X68479500Y-85414826D01*
X68482117Y-85427982D01*
X68484500Y-85452176D01*
X68484500Y-90967687D01*
X68482708Y-90985877D01*
X68482595Y-90989337D01*
X68482367Y-90990619D01*
X68474500Y-91030173D01*
X55740500Y-91030173D01*
X55740500Y-39820259D01*
X71799500Y-39820259D01*
X71799500Y-40179740D01*
X71839746Y-40536935D01*
X71839748Y-40536951D01*
X71919737Y-40887407D01*
X71919741Y-40887419D01*
X72038465Y-41226711D01*
X72194432Y-41550579D01*
X72216826Y-41586218D01*
X72385685Y-41854956D01*
X72609812Y-42136003D01*
X72863997Y-42390188D01*
X73145044Y-42614315D01*
X73449418Y-42805566D01*
X73773292Y-42961536D01*
X73979557Y-43033711D01*
X74112580Y-43080258D01*
X74112592Y-43080262D01*
X74463052Y-43160252D01*
X74820260Y-43200499D01*
X74820261Y-43200500D01*
X74820264Y-43200500D01*
X75179739Y-43200500D01*
X75179739Y-43200499D01*
X75536948Y-43160252D01*
X75887408Y-43080262D01*
X76226708Y-42961536D01*
X76550582Y-42805566D01*
X76854956Y-42614315D01*
X77136003Y-42390188D01*
X77390188Y-42136003D01*
X77614315Y-41854956D01*
X77805566Y-41550582D01*
X77961536Y-41226708D01*
X78080262Y-40887408D01*
X78160252Y-40536948D01*
X78200500Y-40179736D01*
X78200500Y-39820264D01*
X78160252Y-39463052D01*
X78080262Y-39112592D01*
X77961536Y-38773292D01*
X77805566Y-38449418D01*
X77614315Y-38145044D01*
X77390188Y-37863997D01*
X77136003Y-37609812D01*
X76854956Y-37385685D01*
X76550582Y-37194434D01*
X76550579Y-37194432D01*
X76226711Y-37038465D01*
X75887419Y-36919741D01*
X75887407Y-36919737D01*
X75536951Y-36839748D01*
X75536935Y-36839746D01*
X75179740Y-36799500D01*
X75179736Y-36799500D01*
X74820264Y-36799500D01*
X74820259Y-36799500D01*
X74463064Y-36839746D01*
X74463048Y-36839748D01*
X74112592Y-36919737D01*
X74112580Y-36919741D01*
X73773288Y-37038465D01*
X73449420Y-37194432D01*
X73145045Y-37385684D01*
X72863997Y-37609811D01*
X72609811Y-37863997D01*
X72385684Y-38145045D01*
X72194432Y-38449420D01*
X72038465Y-38773288D01*
X71919741Y-39112580D01*
X71919737Y-39112592D01*
X71839748Y-39463048D01*
X71839746Y-39463064D01*
X71799500Y-39820259D01*
X55740500Y-39820259D01*
X55740500Y-33299361D01*
X55760185Y-33232322D01*
X55776819Y-33211680D01*
X56926680Y-32061819D01*
X56988003Y-32028334D01*
X57014361Y-32025500D01*
X61733130Y-32025500D01*
X61800169Y-32045185D01*
X61845924Y-32097989D01*
X61850836Y-32110495D01*
X61858058Y-32132290D01*
X61895186Y-32244334D01*
X61987288Y-32393656D01*
X62111344Y-32517712D01*
X62260666Y-32609814D01*
X62427203Y-32664999D01*
X62529991Y-32675500D01*
X63830008Y-32675499D01*
X63932797Y-32664999D01*
X64099334Y-32609814D01*
X64248656Y-32517712D01*
X64372712Y-32393656D01*
X64464814Y-32244334D01*
X64464814Y-32244331D01*
X64468178Y-32238879D01*
X64485469Y-32223326D01*
X64499407Y-32204708D01*
X64510959Y-32200399D01*
X64520126Y-32192154D01*
X64543081Y-32188418D01*
X64564871Y-32180291D01*
X64576917Y-32182911D01*
X64589088Y-32180931D01*
X64610420Y-32190199D01*
X64633144Y-32195143D01*
X64648838Y-32206892D01*
X64653170Y-32208774D01*
X64661398Y-32216294D01*
X64743181Y-32298077D01*
X64776666Y-32359400D01*
X64779500Y-32385758D01*
X64779500Y-33168818D01*
X64777118Y-33193007D01*
X64769500Y-33231308D01*
X64769500Y-33408696D01*
X64804103Y-33582658D01*
X64804105Y-33582666D01*
X64871988Y-33746548D01*
X64970534Y-33894034D01*
X64970540Y-33894041D01*
X65095958Y-34019459D01*
X65095965Y-34019465D01*
X65243451Y-34118011D01*
X65243452Y-34118011D01*
X65243453Y-34118012D01*
X65407334Y-34185895D01*
X65581303Y-34220499D01*
X65581307Y-34220500D01*
X65581308Y-34220500D01*
X65758693Y-34220500D01*
X65758694Y-34220499D01*
X65932666Y-34185895D01*
X66096547Y-34118012D01*
X66244036Y-34019464D01*
X66379464Y-33884036D01*
X66451985Y-33775500D01*
X66478013Y-33736547D01*
X66511953Y-33654606D01*
X66545895Y-33572666D01*
X66580500Y-33398692D01*
X66580500Y-33221308D01*
X66580500Y-32385758D01*
X66600185Y-32318719D01*
X66616819Y-32298077D01*
X66659035Y-32255861D01*
X66710104Y-32204792D01*
X66710106Y-32204788D01*
X66710109Y-32204786D01*
X66835048Y-32032820D01*
X66835047Y-32032820D01*
X66835051Y-32032816D01*
X66931557Y-31843412D01*
X66997246Y-31641243D01*
X67030500Y-31431287D01*
X67030500Y-30918713D01*
X66997246Y-30708757D01*
X66931557Y-30506588D01*
X66835051Y-30317184D01*
X66835049Y-30317181D01*
X66835048Y-30317179D01*
X66710109Y-30145213D01*
X66559786Y-29994890D01*
X66387820Y-29869951D01*
X66198414Y-29773444D01*
X66198413Y-29773443D01*
X66198412Y-29773443D01*
X65996243Y-29707754D01*
X65996241Y-29707753D01*
X65996240Y-29707753D01*
X65834957Y-29682208D01*
X65786287Y-29674500D01*
X65573713Y-29674500D01*
X65525042Y-29682208D01*
X65363760Y-29707753D01*
X65161585Y-29773444D01*
X64972179Y-29869951D01*
X64800215Y-29994889D01*
X64661398Y-30133706D01*
X64600075Y-30167190D01*
X64530383Y-30162206D01*
X64474450Y-30120334D01*
X64468178Y-30111120D01*
X64372712Y-29956344D01*
X64248657Y-29832289D01*
X64248656Y-29832288D01*
X64099334Y-29740186D01*
X63932797Y-29685001D01*
X63932795Y-29685000D01*
X63830010Y-29674500D01*
X62529998Y-29674500D01*
X62529981Y-29674501D01*
X62427203Y-29685000D01*
X62427200Y-29685001D01*
X62260668Y-29740185D01*
X62260663Y-29740187D01*
X62111342Y-29832289D01*
X61987289Y-29956342D01*
X61895187Y-30105663D01*
X61895184Y-30105671D01*
X61883972Y-30139506D01*
X61844199Y-30196950D01*
X61779683Y-30223772D01*
X61766267Y-30224500D01*
X56501303Y-30224500D01*
X56327341Y-30259103D01*
X56327333Y-30259105D01*
X56226151Y-30301016D01*
X56226145Y-30301019D01*
X56218674Y-30304114D01*
X56163453Y-30326987D01*
X56055688Y-30398994D01*
X56052295Y-30401260D01*
X56052283Y-30401268D01*
X56015962Y-30425537D01*
X54140536Y-32300963D01*
X54110550Y-32345841D01*
X54110542Y-32345853D01*
X54108803Y-32348457D01*
X54041987Y-32448453D01*
X54028899Y-32480051D01*
X54025443Y-32488393D01*
X54025439Y-32488401D01*
X53974106Y-32612331D01*
X53974103Y-32612341D01*
X53951494Y-32726007D01*
X53939500Y-32786304D01*
X53939500Y-106903696D01*
X53974103Y-107077658D01*
X53974105Y-107077666D01*
X54006000Y-107154668D01*
X54006002Y-107154673D01*
X54008046Y-107159606D01*
X54041987Y-107241547D01*
X54079035Y-107296993D01*
X54082834Y-107302679D01*
X54082839Y-107302688D01*
X54140532Y-107389031D01*
X54140538Y-107389039D01*
X57450958Y-110699459D01*
X57450965Y-110699465D01*
X57598451Y-110798011D01*
X57598452Y-110798011D01*
X57598453Y-110798012D01*
X57762334Y-110865895D01*
X57936303Y-110900499D01*
X57936307Y-110900500D01*
X57936308Y-110900500D01*
X58113693Y-110900500D01*
X58113693Y-110900499D01*
X58151986Y-110892882D01*
X58176177Y-110890500D01*
X60160501Y-110890500D01*
X60227540Y-110910185D01*
X60273295Y-110962989D01*
X60284501Y-111014500D01*
X60284501Y-111185659D01*
X60287418Y-111228701D01*
X60287418Y-111228702D01*
X60293189Y-111251906D01*
X60330061Y-111400172D01*
X60333694Y-111414778D01*
X60418881Y-111586543D01*
X60418883Y-111586546D01*
X60539009Y-111735989D01*
X60539010Y-111735990D01*
X60688453Y-111856116D01*
X60688456Y-111856118D01*
X60854959Y-111938695D01*
X60860225Y-111941307D01*
X61010013Y-111978558D01*
X61046291Y-111987580D01*
X61046292Y-111987580D01*
X61046296Y-111987581D01*
X61089343Y-111990500D01*
X63020656Y-111990499D01*
X63063704Y-111987581D01*
X63249775Y-111941307D01*
X63421547Y-111856116D01*
X63570990Y-111735990D01*
X63570991Y-111735989D01*
X63576230Y-111731778D01*
X63577915Y-111733874D01*
X63628642Y-111706176D01*
X63698334Y-111711160D01*
X63732627Y-111733199D01*
X63733770Y-111731778D01*
X63888453Y-111856116D01*
X63888456Y-111856118D01*
X64054959Y-111938695D01*
X64060225Y-111941307D01*
X64210013Y-111978558D01*
X64246291Y-111987580D01*
X64246292Y-111987580D01*
X64246296Y-111987581D01*
X64289343Y-111990500D01*
X64430500Y-111990499D01*
X64497539Y-112010183D01*
X64543294Y-112062987D01*
X64554500Y-112114499D01*
X64554500Y-115060500D01*
X64534815Y-115127539D01*
X64482011Y-115173294D01*
X64430500Y-115184500D01*
X61056519Y-115184500D01*
X60989480Y-115164815D01*
X60968838Y-115148181D01*
X49184043Y-103363386D01*
X48829724Y-103009066D01*
X48829701Y-103009045D01*
X48429043Y-102608386D01*
X34741819Y-88921162D01*
X34708334Y-88859839D01*
X34705500Y-88833481D01*
X34705500Y-72765168D01*
X46114500Y-72765168D01*
X46114500Y-72924831D01*
X46145645Y-73081406D01*
X46145647Y-73081414D01*
X46165061Y-73128283D01*
X46174500Y-73175736D01*
X46174500Y-94168846D01*
X46205261Y-94323489D01*
X46205264Y-94323501D01*
X46265602Y-94469172D01*
X46265609Y-94469185D01*
X46353210Y-94600288D01*
X46353213Y-94600292D01*
X51203181Y-99450259D01*
X51236666Y-99511582D01*
X51239500Y-99537940D01*
X51239500Y-100107687D01*
X51237117Y-100131879D01*
X51229500Y-100170171D01*
X51229500Y-100329831D01*
X51260645Y-100486406D01*
X51260648Y-100486418D01*
X51321742Y-100633914D01*
X51321744Y-100633918D01*
X51410439Y-100766659D01*
X51410445Y-100766667D01*
X51523332Y-100879554D01*
X51523340Y-100879560D01*
X51656081Y-100968255D01*
X51656085Y-100968257D01*
X51803581Y-101029351D01*
X51803586Y-101029353D01*
X51918180Y-101052147D01*
X51960168Y-101060499D01*
X51960172Y-101060500D01*
X51960173Y-101060500D01*
X52119828Y-101060500D01*
X52119829Y-101060499D01*
X52276414Y-101029353D01*
X52423916Y-100968256D01*
X52423918Y-100968255D01*
X52526880Y-100899458D01*
X52556664Y-100879557D01*
X52669557Y-100766664D01*
X52720658Y-100690185D01*
X52758255Y-100633918D01*
X52758257Y-100633914D01*
X52791667Y-100553255D01*
X52819353Y-100486414D01*
X52850500Y-100329827D01*
X52850500Y-100170173D01*
X52842883Y-100131879D01*
X52840500Y-100107687D01*
X52840500Y-99076162D01*
X52840499Y-99076152D01*
X52839175Y-99069493D01*
X52839175Y-99069492D01*
X52809739Y-98921510D01*
X52809738Y-98921503D01*
X52749394Y-98775821D01*
X52749392Y-98775818D01*
X52749390Y-98775814D01*
X52661789Y-98644711D01*
X52661786Y-98644707D01*
X47811819Y-93794740D01*
X47778334Y-93733417D01*
X47775500Y-93707059D01*
X47775500Y-72816157D01*
X47775499Y-72816156D01*
X47768493Y-72780931D01*
X47768493Y-72780927D01*
X47744739Y-72661510D01*
X47744738Y-72661503D01*
X47684394Y-72515821D01*
X47684392Y-72515818D01*
X47684390Y-72515814D01*
X47596790Y-72384713D01*
X47596789Y-72384711D01*
X47591670Y-72379592D01*
X47576253Y-72360806D01*
X47554557Y-72328336D01*
X47554555Y-72328334D01*
X47554553Y-72328331D01*
X47441667Y-72215445D01*
X47441659Y-72215439D01*
X47308918Y-72126744D01*
X47308914Y-72126742D01*
X47161418Y-72065648D01*
X47161406Y-72065645D01*
X47004831Y-72034500D01*
X47004827Y-72034500D01*
X46845173Y-72034500D01*
X46845168Y-72034500D01*
X46688593Y-72065645D01*
X46688581Y-72065648D01*
X46541085Y-72126742D01*
X46541081Y-72126744D01*
X46408340Y-72215439D01*
X46408332Y-72215445D01*
X46295445Y-72328332D01*
X46295439Y-72328340D01*
X46206744Y-72461081D01*
X46206742Y-72461085D01*
X46145648Y-72608581D01*
X46145645Y-72608593D01*
X46114500Y-72765168D01*
X34705500Y-72765168D01*
X34705500Y-55321518D01*
X34725185Y-55254479D01*
X34741814Y-55233842D01*
X43976290Y-45999365D01*
X43995074Y-45983950D01*
X44001309Y-45979785D01*
X44098881Y-45882213D01*
X44163296Y-45785807D01*
X44178709Y-45767027D01*
X44220360Y-45725378D01*
X44275655Y-45654991D01*
X44336218Y-45515561D01*
X44356917Y-45364960D01*
X44336218Y-45214360D01*
X44300537Y-45132213D01*
X44275657Y-45074932D01*
X44275655Y-45074930D01*
X44275655Y-45074929D01*
X44220362Y-45004543D01*
X43985895Y-44770078D01*
X43934664Y-44729831D01*
X43915511Y-44714784D01*
X43915509Y-44714783D01*
X43776076Y-44654219D01*
X43708941Y-44644992D01*
X43645207Y-44616362D01*
X43607069Y-44557819D01*
X43602982Y-44539031D01*
X43597757Y-44501019D01*
X43593755Y-44471898D01*
X43566622Y-44409432D01*
X43533194Y-44332470D01*
X43533192Y-44332468D01*
X43533192Y-44332467D01*
X43477899Y-44262081D01*
X43243432Y-44027616D01*
X43229286Y-44016503D01*
X43173048Y-43972322D01*
X43173046Y-43972321D01*
X43170702Y-43971303D01*
X43033615Y-43911758D01*
X43033613Y-43911757D01*
X43033612Y-43911757D01*
X42966479Y-43902530D01*
X42902745Y-43873900D01*
X42864607Y-43815357D01*
X42860520Y-43796569D01*
X42857704Y-43776079D01*
X42851293Y-43729435D01*
X42808803Y-43631612D01*
X42791300Y-43591315D01*
X42782646Y-43521983D01*
X42812850Y-43458979D01*
X42848738Y-43431429D01*
X42949442Y-43380119D01*
X43032600Y-43319702D01*
X43115045Y-43259803D01*
X43115047Y-43259800D01*
X43115051Y-43259798D01*
X43259798Y-43115051D01*
X43259800Y-43115047D01*
X43259803Y-43115045D01*
X43380116Y-42949446D01*
X43380117Y-42949445D01*
X43380119Y-42949442D01*
X43431658Y-42848290D01*
X43479631Y-42797496D01*
X43547452Y-42780701D01*
X43591544Y-42790853D01*
X43729566Y-42850805D01*
X43729570Y-42850806D01*
X43796498Y-42860005D01*
X43860233Y-42888634D01*
X43898373Y-42947176D01*
X43902460Y-42965966D01*
X43911758Y-43033615D01*
X43972318Y-43173042D01*
X43972320Y-43173044D01*
X43972321Y-43173046D01*
X44027614Y-43243432D01*
X44262081Y-43477897D01*
X44332467Y-43533192D01*
X44471898Y-43593755D01*
X44538655Y-43602930D01*
X44539031Y-43602982D01*
X44602766Y-43631612D01*
X44640905Y-43690154D01*
X44644992Y-43708941D01*
X44654220Y-43776079D01*
X44714780Y-43915505D01*
X44714782Y-43915507D01*
X44714783Y-43915509D01*
X44770076Y-43985895D01*
X45004543Y-44220360D01*
X45004546Y-44220362D01*
X45074926Y-44275653D01*
X45074934Y-44275658D01*
X45221386Y-44339270D01*
X45259666Y-44365323D01*
X45722814Y-44828471D01*
X45751642Y-44881266D01*
X45753880Y-44880588D01*
X45755648Y-44886418D01*
X45816742Y-45033914D01*
X45816744Y-45033918D01*
X45905439Y-45166659D01*
X45905445Y-45166667D01*
X46018332Y-45279554D01*
X46018340Y-45279560D01*
X46151081Y-45368255D01*
X46151085Y-45368257D01*
X46237204Y-45403928D01*
X46298586Y-45429353D01*
X46455168Y-45460499D01*
X46455172Y-45460500D01*
X46455173Y-45460500D01*
X46614828Y-45460500D01*
X46614829Y-45460499D01*
X46771414Y-45429353D01*
X46918916Y-45368256D01*
X46918918Y-45368255D01*
X46984844Y-45324203D01*
X47051664Y-45279557D01*
X47164557Y-45166664D01*
X47253256Y-45033916D01*
X47258563Y-45021105D01*
X47314351Y-44886418D01*
X47314353Y-44886414D01*
X47345500Y-44729827D01*
X47345500Y-44570173D01*
X47314353Y-44413586D01*
X47288494Y-44351157D01*
X47253257Y-44266085D01*
X47253255Y-44266081D01*
X47164560Y-44133340D01*
X47164554Y-44133332D01*
X47051667Y-44020445D01*
X47051659Y-44020439D01*
X46918918Y-43931744D01*
X46918914Y-43931742D01*
X46771418Y-43870648D01*
X46765588Y-43868880D01*
X46766386Y-43866246D01*
X46714956Y-43839275D01*
X46713471Y-43837814D01*
X46491391Y-43615734D01*
X46457906Y-43554411D01*
X46462890Y-43484719D01*
X46504762Y-43428786D01*
X46548237Y-43407948D01*
X46590884Y-43396999D01*
X46590885Y-43396998D01*
X46731477Y-43319707D01*
X46731484Y-43319702D01*
X46758269Y-43296823D01*
X46301528Y-42840082D01*
X46268043Y-42778759D01*
X46273027Y-42709067D01*
X46301528Y-42664720D01*
X46390624Y-42575624D01*
X46390623Y-42575623D01*
X46744177Y-42575623D01*
X47111823Y-42943269D01*
X47134702Y-42916484D01*
X47134707Y-42916477D01*
X47211998Y-42775885D01*
X47212000Y-42775879D01*
X47251897Y-42620491D01*
X47251898Y-42620484D01*
X47251898Y-42460049D01*
X47251897Y-42460044D01*
X47212000Y-42304655D01*
X47211997Y-42304647D01*
X47142169Y-42177631D01*
X46744177Y-42575623D01*
X46390623Y-42575623D01*
X46301882Y-42486882D01*
X46268397Y-42425559D01*
X46273381Y-42355867D01*
X46301882Y-42311520D01*
X46345212Y-42268190D01*
X46390398Y-42223004D01*
X46391374Y-42221860D01*
X46397989Y-42214704D01*
X46788615Y-41824077D01*
X46661600Y-41754250D01*
X46661590Y-41754247D01*
X46597236Y-41737724D01*
X46537198Y-41701987D01*
X46507970Y-41648460D01*
X46491219Y-41583218D01*
X46491217Y-41583215D01*
X46491217Y-41583213D01*
X46413868Y-41442516D01*
X46413867Y-41442514D01*
X46390399Y-41415037D01*
X46390384Y-41415021D01*
X46108732Y-41133370D01*
X46108720Y-41133359D01*
X46108715Y-41133354D01*
X46081238Y-41109885D01*
X45940534Y-41032533D01*
X45845607Y-41008159D01*
X45785569Y-40972420D01*
X45756341Y-40918892D01*
X45738991Y-40851321D01*
X45738986Y-40851308D01*
X45665648Y-40717905D01*
X45665647Y-40717904D01*
X45184457Y-41199095D01*
X45176511Y-41203433D01*
X45171086Y-41210681D01*
X45146326Y-41219915D01*
X45123134Y-41232580D01*
X45114104Y-41231934D01*
X45105622Y-41235098D01*
X45079801Y-41229481D01*
X45053442Y-41227596D01*
X45044388Y-41221777D01*
X45037349Y-41220246D01*
X45009095Y-41199095D01*
X44880756Y-41070756D01*
X44847271Y-41009433D01*
X44852255Y-40939741D01*
X44880754Y-40895395D01*
X44959026Y-40817124D01*
X44982676Y-40789434D01*
X45060636Y-40647623D01*
X45063189Y-40637678D01*
X45095613Y-40580831D01*
X45312093Y-40364350D01*
X45178689Y-40291011D01*
X45178681Y-40291008D01*
X45155961Y-40285175D01*
X45095923Y-40249437D01*
X45066695Y-40195908D01*
X45060636Y-40172307D01*
X44982676Y-40030496D01*
X44959026Y-40002806D01*
X44959011Y-40002790D01*
X44669565Y-39713344D01*
X44669548Y-39713328D01*
X44641861Y-39689681D01*
X44641857Y-39689678D01*
X44500051Y-39611720D01*
X44401491Y-39586414D01*
X44387171Y-39578246D01*
X44372902Y-39575142D01*
X44344648Y-39553991D01*
X44242185Y-39451528D01*
X44213354Y-39398729D01*
X44211119Y-39399408D01*
X44209353Y-39393586D01*
X44148255Y-39246081D01*
X44059560Y-39113340D01*
X44059554Y-39113332D01*
X43946667Y-39000445D01*
X43946659Y-39000439D01*
X43813918Y-38911744D01*
X43813914Y-38911742D01*
X43666418Y-38850648D01*
X43666406Y-38850645D01*
X43509831Y-38819500D01*
X43509827Y-38819500D01*
X43350173Y-38819500D01*
X43350168Y-38819500D01*
X43193593Y-38850645D01*
X43193581Y-38850648D01*
X43046085Y-38911742D01*
X43046081Y-38911744D01*
X42913340Y-39000439D01*
X42913332Y-39000445D01*
X42800445Y-39113332D01*
X42800439Y-39113340D01*
X42711744Y-39246081D01*
X42711742Y-39246085D01*
X42650648Y-39393581D01*
X42650645Y-39393593D01*
X42619500Y-39550168D01*
X42619500Y-39709831D01*
X42650645Y-39866406D01*
X42650648Y-39866418D01*
X42711742Y-40013914D01*
X42711744Y-40013918D01*
X42800439Y-40146659D01*
X42800445Y-40146667D01*
X42913332Y-40259554D01*
X42913340Y-40259560D01*
X43046081Y-40348255D01*
X43046084Y-40348256D01*
X43051133Y-40350348D01*
X43105536Y-40394190D01*
X43127599Y-40460485D01*
X43110318Y-40528184D01*
X43059180Y-40575793D01*
X43053080Y-40578642D01*
X42988966Y-40606490D01*
X42918568Y-40661792D01*
X42876925Y-40703435D01*
X42858138Y-40718854D01*
X42761738Y-40783269D01*
X42761735Y-40783272D01*
X42664172Y-40880834D01*
X42664169Y-40880838D01*
X42627871Y-40935162D01*
X42574258Y-40979967D01*
X42505371Y-40988743D01*
X42370184Y-40967332D01*
X42165480Y-40967332D01*
X42141161Y-40971183D01*
X41963297Y-40999354D01*
X41768608Y-41062613D01*
X41586218Y-41155547D01*
X41420618Y-41275860D01*
X41275860Y-41420618D01*
X41155547Y-41586218D01*
X41062613Y-41768608D01*
X40999354Y-41963297D01*
X40967332Y-42165480D01*
X40967332Y-42370184D01*
X40967331Y-42370184D01*
X40990748Y-42518034D01*
X40981793Y-42587327D01*
X40955957Y-42625112D01*
X40662173Y-42918897D01*
X40606924Y-42989225D01*
X40587786Y-43033285D01*
X41153278Y-43033285D01*
X41154728Y-43033711D01*
X41156190Y-43033319D01*
X41188149Y-43043524D01*
X41220317Y-43052970D01*
X41221772Y-43054261D01*
X41222749Y-43054573D01*
X41229716Y-43061309D01*
X41248872Y-43078306D01*
X41251337Y-43081290D01*
X41275866Y-43115051D01*
X41295223Y-43134408D01*
X41298974Y-43138948D01*
X41310509Y-43165863D01*
X41324546Y-43191569D01*
X41325557Y-43200972D01*
X41326498Y-43203168D01*
X41326068Y-43205727D01*
X41327380Y-43217927D01*
X41327380Y-43259283D01*
X41307695Y-43326322D01*
X41254891Y-43372077D01*
X41203380Y-43383283D01*
X40540068Y-43383283D01*
X40546414Y-43429457D01*
X40546416Y-43429462D01*
X40606920Y-43568758D01*
X40606923Y-43568762D01*
X40662176Y-43639096D01*
X40896566Y-43873485D01*
X40896576Y-43873494D01*
X40948660Y-43914410D01*
X40989217Y-43971303D01*
X40992578Y-44041092D01*
X40959739Y-44099601D01*
X40472956Y-44586385D01*
X40472953Y-44586389D01*
X40422205Y-44662339D01*
X40406788Y-44681126D01*
X40387511Y-44700404D01*
X40387510Y-44700405D01*
X40298810Y-44833154D01*
X40237716Y-44980649D01*
X40237713Y-44980661D01*
X40206568Y-45137236D01*
X40206568Y-45296899D01*
X40237713Y-45453474D01*
X40237716Y-45453486D01*
X40298810Y-45600982D01*
X40298812Y-45600986D01*
X40387507Y-45733727D01*
X40387513Y-45733735D01*
X40500400Y-45846622D01*
X40500408Y-45846628D01*
X40618891Y-45925796D01*
X40663697Y-45979408D01*
X40672404Y-46048733D01*
X40664562Y-46076350D01*
X40605648Y-46218581D01*
X40605645Y-46218593D01*
X40574500Y-46375168D01*
X40574500Y-46534831D01*
X40605645Y-46691406D01*
X40605648Y-46691418D01*
X40666742Y-46838914D01*
X40666744Y-46838918D01*
X40755439Y-46971659D01*
X40755445Y-46971667D01*
X40801379Y-47017601D01*
X40834864Y-47078924D01*
X40829880Y-47148616D01*
X40801379Y-47192963D01*
X33460888Y-54533453D01*
X33460885Y-54533456D01*
X33390947Y-54638128D01*
X33384225Y-54648189D01*
X33331420Y-54775671D01*
X33331418Y-54775677D01*
X33304500Y-54911004D01*
X33304500Y-72754117D01*
X33284815Y-72821156D01*
X33232011Y-72866911D01*
X33162853Y-72876855D01*
X33156310Y-72875735D01*
X33133527Y-72871203D01*
X33099827Y-72864500D01*
X32940173Y-72864500D01*
X32940168Y-72864500D01*
X32783593Y-72895645D01*
X32783582Y-72895648D01*
X32777571Y-72898138D01*
X32708101Y-72905604D01*
X32645623Y-72874326D01*
X32609973Y-72814236D01*
X32611047Y-72748978D01*
X32612167Y-72745122D01*
X32614931Y-72710000D01*
X31969000Y-72710000D01*
X31901961Y-72690315D01*
X31856206Y-72637511D01*
X31845000Y-72586000D01*
X31845000Y-72460000D01*
X31719499Y-72460000D01*
X31711032Y-72457513D01*
X31702301Y-72458802D01*
X31678021Y-72447820D01*
X31652460Y-72440315D01*
X31646681Y-72433645D01*
X31638640Y-72430009D01*
X31624151Y-72407644D01*
X31606705Y-72387511D01*
X31604449Y-72377235D01*
X31600650Y-72371370D01*
X31595693Y-72337335D01*
X31595500Y-72336454D01*
X31595499Y-72336249D01*
X31595499Y-72210820D01*
X31595017Y-72204705D01*
X31595001Y-72200061D01*
X31595015Y-72200009D01*
X31595000Y-72199607D01*
X31595000Y-71647154D01*
X32095000Y-71647154D01*
X32095000Y-72210000D01*
X32614931Y-72210000D01*
X32612167Y-72174877D01*
X32612166Y-72174871D01*
X32567407Y-72020811D01*
X32567406Y-72020808D01*
X32485738Y-71882714D01*
X32485731Y-71882705D01*
X32372294Y-71769268D01*
X32372285Y-71769261D01*
X32234191Y-71687593D01*
X32234188Y-71687591D01*
X32095001Y-71647153D01*
X32095000Y-71647154D01*
X31595000Y-71647154D01*
X31594998Y-71647153D01*
X31455811Y-71687591D01*
X31455810Y-71687592D01*
X31398611Y-71721419D01*
X31330886Y-71738600D01*
X31272371Y-71721419D01*
X31248382Y-71707232D01*
X31214393Y-71687131D01*
X31214392Y-71687130D01*
X31214391Y-71687130D01*
X31214388Y-71687129D01*
X31060208Y-71642335D01*
X31060202Y-71642334D01*
X31024181Y-71639500D01*
X30625830Y-71639500D01*
X30625808Y-71639501D01*
X30589794Y-71642335D01*
X30435611Y-71687129D01*
X30435601Y-71687133D01*
X30379447Y-71720342D01*
X30311723Y-71737523D01*
X30253207Y-71720341D01*
X30156193Y-71662967D01*
X30156190Y-71662965D01*
X30010001Y-71620493D01*
X30010000Y-71620494D01*
X30010000Y-72301000D01*
X30007449Y-72309685D01*
X30008738Y-72318647D01*
X29997759Y-72342687D01*
X29990315Y-72368039D01*
X29983474Y-72373966D01*
X29979713Y-72382203D01*
X29957478Y-72396492D01*
X29937511Y-72413794D01*
X29926996Y-72416081D01*
X29920935Y-72419977D01*
X29886000Y-72425000D01*
X29704500Y-72425000D01*
X29637461Y-72405315D01*
X29591706Y-72352511D01*
X29580500Y-72301000D01*
X29580500Y-72190317D01*
X29580499Y-72190302D01*
X29578396Y-72163583D01*
X29577643Y-72154007D01*
X29569722Y-72126744D01*
X29532495Y-71998608D01*
X29532492Y-71998600D01*
X29527266Y-71989763D01*
X29510000Y-71926645D01*
X29510000Y-71620494D01*
X29509998Y-71620493D01*
X29363809Y-71662965D01*
X29363806Y-71662967D01*
X29343608Y-71674912D01*
X29275884Y-71692092D01*
X29217370Y-71674910D01*
X29196397Y-71662507D01*
X29196390Y-71662504D01*
X29040997Y-71617357D01*
X29040991Y-71617356D01*
X29004697Y-71614500D01*
X29004690Y-71614500D01*
X28595310Y-71614500D01*
X28595302Y-71614500D01*
X28559008Y-71617356D01*
X28559002Y-71617357D01*
X28403609Y-71662504D01*
X28403606Y-71662505D01*
X28327978Y-71707232D01*
X28264857Y-71724500D01*
X27783163Y-71724500D01*
X27735710Y-71715061D01*
X27616414Y-71665647D01*
X27616406Y-71665645D01*
X27459831Y-71634500D01*
X27459827Y-71634500D01*
X27300173Y-71634500D01*
X27300168Y-71634500D01*
X27143593Y-71665645D01*
X27143581Y-71665648D01*
X26996085Y-71726742D01*
X26996081Y-71726744D01*
X26863340Y-71815439D01*
X26863332Y-71815445D01*
X26750445Y-71928332D01*
X26750439Y-71928340D01*
X26661744Y-72061081D01*
X26661742Y-72061085D01*
X26600648Y-72208581D01*
X26600645Y-72208593D01*
X26569500Y-72365168D01*
X26569500Y-72524831D01*
X26600645Y-72681406D01*
X26600648Y-72681418D01*
X26661421Y-72828138D01*
X26668890Y-72897607D01*
X26637615Y-72960086D01*
X26615751Y-72978692D01*
X26523336Y-73040442D01*
X26523332Y-73040445D01*
X26410445Y-73153332D01*
X26410439Y-73153340D01*
X26321744Y-73286081D01*
X26321742Y-73286085D01*
X26260648Y-73433581D01*
X26260645Y-73433593D01*
X26229500Y-73590168D01*
X25225357Y-73590168D01*
X25244525Y-72906991D01*
X25244666Y-72903648D01*
X25322797Y-71512391D01*
X25323041Y-71508935D01*
X25323318Y-71505648D01*
X25440157Y-70120462D01*
X25440485Y-70117130D01*
X25596499Y-68732465D01*
X25596937Y-68729022D01*
X25791715Y-67349344D01*
X25792238Y-67345976D01*
X26025648Y-65972225D01*
X26026275Y-65968828D01*
X26030492Y-65947630D01*
X26298107Y-64602235D01*
X26298814Y-64598925D01*
X26608879Y-63240438D01*
X26609696Y-63237080D01*
X26633994Y-63142885D01*
X26957741Y-61887816D01*
X26958617Y-61884606D01*
X27344390Y-60545564D01*
X27345363Y-60542355D01*
X27768516Y-59214729D01*
X27769581Y-59211540D01*
X28229815Y-57896265D01*
X28231002Y-57893024D01*
X28271854Y-57786004D01*
X28727906Y-56591275D01*
X28729181Y-56588072D01*
X29253805Y-55321518D01*
X29262400Y-55300765D01*
X29263770Y-55297587D01*
X29283060Y-55254479D01*
X29832889Y-54025731D01*
X29834314Y-54022662D01*
X30438899Y-52767229D01*
X30440445Y-52764132D01*
X31079993Y-51526165D01*
X31081561Y-51523230D01*
X31755612Y-50303628D01*
X31757301Y-50300671D01*
X32465252Y-49100519D01*
X32467049Y-49097570D01*
X33208389Y-47917734D01*
X33210226Y-47914901D01*
X33984385Y-46756289D01*
X33986281Y-46753536D01*
X34792674Y-45617030D01*
X34794634Y-45614349D01*
X35632515Y-44501001D01*
X35634632Y-44498269D01*
X35655663Y-44471898D01*
X36503390Y-43408880D01*
X36505588Y-43406203D01*
X36524942Y-43383283D01*
X37404556Y-42341610D01*
X37406788Y-42339041D01*
X38335306Y-41300028D01*
X38337585Y-41297548D01*
X39294902Y-40284961D01*
X39297257Y-40282540D01*
X40282540Y-39297257D01*
X40284961Y-39294902D01*
X41297548Y-38337585D01*
X41300028Y-38335306D01*
X42339041Y-37406788D01*
X42341610Y-37404556D01*
X43406213Y-36505579D01*
X43408891Y-36503382D01*
X44498286Y-35634618D01*
X44501001Y-35632515D01*
X45614349Y-34794634D01*
X45617030Y-34792674D01*
X46753536Y-33986281D01*
X46756289Y-33984385D01*
X47914901Y-33210226D01*
X47917734Y-33208389D01*
X49097590Y-32467036D01*
X49100519Y-32465252D01*
X50300671Y-31757301D01*
X50303628Y-31755612D01*
X51523230Y-31081561D01*
X51526165Y-31079993D01*
X52764147Y-30440437D01*
X52767229Y-30438899D01*
X54022662Y-29834314D01*
X54025731Y-29832889D01*
X55297603Y-29263763D01*
X55300765Y-29262400D01*
X56588100Y-28729169D01*
X56591275Y-28727906D01*
X57893049Y-28230992D01*
X57896265Y-28229815D01*
X59211540Y-27769581D01*
X59214729Y-27768516D01*
X60542355Y-27345363D01*
X60545564Y-27344390D01*
X61884606Y-26958617D01*
X61887816Y-26957741D01*
X63237101Y-26609690D01*
X63240438Y-26608879D01*
X64598925Y-26298814D01*
X64602235Y-26298107D01*
X65968850Y-26026270D01*
X65972225Y-26025648D01*
X67345976Y-25792238D01*
X67349344Y-25791715D01*
X68729028Y-25596936D01*
X68732465Y-25596499D01*
X70117130Y-25440485D01*
X70120462Y-25440157D01*
X71508948Y-25323040D01*
X71512391Y-25322797D01*
X72903648Y-25244666D01*
X72906991Y-25244525D01*
X74299841Y-25205447D01*
X74303319Y-25205398D01*
X75696681Y-25205398D01*
X75700159Y-25205447D01*
G37*
%TD.AperFunction*%
%TD*%
M02*
