M48
; DRILL file {KiCad 9.0.3} date 2026-09-22T23:35:10+0530
; FORMAT={-:-/ absolute / metric / decimal}
; #@! TF.CreationDate,2026-09-22T23:35:10+05:30
; #@! TF.GenerationSoftware,Kicad,Pcbnew,9.0.3
; #@! TF.FileFunction,MixedPlating,1,2
FMAT,2
METRIC
; #@! TA.AperFunction,Plated,PTH,ViaDrill
T1C0.300
; #@! TA.AperFunction,Plated,PTH,ComponentDrill
T2C1.000
; #@! TA.AperFunction,Plated,PTH,ComponentDrill
T3C2.700
; #@! TA.AperFunction,NonPlated,NPTH,ComponentDrill
T4C1.050
%
G90
G05
T1
X27.04Y-73.67
X27.075Y-76.33
X27.38Y-72.445
X30.62Y-78.68
X32.315Y-78.735
X33.02Y-73.675
X38.065Y-103.035
X39.205Y-107.14
X41.017Y-45.217
X41.385Y-46.455
X43.43Y-39.63
X45.32Y-47.2
X46.535Y-44.65
X46.925Y-72.845
X46.947Y-108.758
X48.18Y-106.315
X52.04Y-100.25
X54.84Y-54.23
X57.325Y-72.285
X57.835Y-114.28
X62.25Y-120.93
X62.255Y-118.395
X65.67Y-33.32
X67.095Y-121.555
X69.285Y-91.11
X69.29Y-85.335
X69.45Y-98.265
X70.565Y-97.66
X70.57Y-85.33
X70.57Y-91.1
X71.82Y-112.2
X71.94Y-30.33
X72.155Y-27.61
X72.43Y-122.51
X76.31Y-123.07
X76.34Y-32.805
X77.1Y-91.62
X77.1Y-116.965
X77.105Y-102.8
X77.635Y-27.53
X79.295Y-119.73
X79.985Y-95.77
X80.82Y-94.73
X82.955Y-99.835
X84.527Y-113.83
X85.395Y-44.33
X85.81Y-115.885
X87.66Y-107.535
X87.92Y-94.73
X89.445Y-54.33
X91.455Y-81.665
X91.465Y-97.39
X91.465Y-101.285
X94.755Y-105.52
X96.17Y-97.06
X96.175Y-93.295
X99.49Y-46.29
X101.525Y-111.48
X102.49Y-43.3
X102.68Y-41.645
X103.995Y-100.1
X105.445Y-46.405
X105.521Y-101.621
X106.97Y-110.4
X107.69Y-91.1
X108.547Y-102.608
X108.975Y-91.705
X109.88Y-97.81
X110.6Y-43.46
X110.765Y-85.79
X110.962Y-96.662
X112.835Y-72.12
X114.497Y-72.12
X115.395Y-85.775
X115.93Y-87.935
X117.425Y-70.945
X118.835Y-80.9
X118.87Y-87.935
X122.05Y-72.4
X122.925Y-77.475
T2
X63.18Y-31.175
X65.68Y-31.175
X113.544Y-101.326
X115.34Y-99.53
T3
X75.0Y-40.0
T4
X28.71Y-75.0
X42.268Y-42.268
X42.268Y-107.732
X75.0Y-28.71
X75.0Y-121.29
X107.732Y-42.268
X107.732Y-107.732
X121.29Y-75.0
M30
