%TF.GenerationSoftware,KiCad,Pcbnew,9.0.3*%
%TF.CreationDate,2026-09-22T23:35:07+05:30*%
%TF.ProjectId,Mic+MPU,4d69632b-4d50-4552-9e6b-696361645f70,rev?*%
%TF.SameCoordinates,Original*%
%TF.FileFunction,Legend,Top*%
%TF.FilePolarity,Positive*%
%FSLAX46Y46*%
G04 Gerber Fmt 4.6, Leading zero omitted, Abs format (unit mm)*
G04 Created by KiCad (PCBNEW 9.0.3) date 2026-09-22 23:35:07*
%MOMM*%
%LPD*%
G01*
G04 APERTURE LIST*
%ADD10C,0.120000*%
G04 APERTURE END LIST*
D10*
%TO.C,C60*%
X40671693Y-105174190D02*
X40519190Y-105326693D01*
X41180810Y-105683307D02*
X41028307Y-105835810D01*
%TO.C,C56*%
X72065000Y-120612164D02*
X72065000Y-120827836D01*
X72785000Y-120612164D02*
X72785000Y-120827836D01*
%TO.C,R34*%
X42189940Y-103652659D02*
X41972659Y-103869940D01*
X42727341Y-104190060D02*
X42510060Y-104407341D01*
%TO.C,C10*%
X120612164Y-77105000D02*
X120827836Y-77105000D01*
X120612164Y-77825000D02*
X120827836Y-77825000D01*
%TO.C,R4*%
X45869940Y-42592341D02*
X45652659Y-42375060D01*
X46407341Y-42054940D02*
X46190060Y-41837659D01*
%TO.C,R10*%
X103747659Y-107815060D02*
X103964940Y-108032341D01*
X104285060Y-107277659D02*
X104502341Y-107494940D01*
%TO.C,C11*%
X105284190Y-109218307D02*
X105436693Y-109370810D01*
X105793307Y-108709190D02*
X105945810Y-108861693D01*
%TO.C,R33*%
X72200000Y-118526359D02*
X72200000Y-118833641D01*
X72960000Y-118526359D02*
X72960000Y-118833641D01*
%TO.C,C2*%
X108879190Y-44356693D02*
X109031693Y-44204190D01*
X109388307Y-44865810D02*
X109540810Y-44713307D01*
%TO.C,C1*%
X77230000Y-29387836D02*
X77230000Y-29172164D01*
X77950000Y-29387836D02*
X77950000Y-29172164D01*
%TO.C,J1*%
X60330000Y-28425000D02*
X60330000Y-29674999D01*
X60620000Y-28715000D02*
X60620000Y-34685000D01*
X60620000Y-34685000D02*
X68240000Y-34685000D01*
X60629999Y-29475000D02*
X62430001Y-29475000D01*
X60630000Y-28725000D02*
X60629999Y-29475000D01*
X60630000Y-30975000D02*
X61380000Y-30975000D01*
X61380000Y-30975000D02*
X61380000Y-33925000D01*
X61380000Y-33925000D02*
X64430000Y-33925000D01*
X61580000Y-28425000D02*
X60330000Y-28425000D01*
X62430000Y-28725000D02*
X60630000Y-28725000D01*
X62430001Y-29475000D02*
X62430000Y-28725000D01*
X63930000Y-28725000D02*
X63930000Y-29475000D01*
X63930000Y-29475000D02*
X64930000Y-29475000D01*
X64930000Y-28725000D02*
X63930000Y-28725000D01*
X64930000Y-29475000D02*
X64930000Y-28725000D01*
X66430000Y-28725000D02*
X66430000Y-29475000D01*
X66430000Y-29475000D02*
X68230000Y-29475000D01*
X67480000Y-30975000D02*
X67480000Y-33925000D01*
X67480000Y-33925000D02*
X64430000Y-33925000D01*
X68230000Y-28725000D02*
X66430000Y-28725000D01*
X68230000Y-29475000D02*
X68230000Y-28725000D01*
X68230000Y-30975000D02*
X67480000Y-30975000D01*
X68240000Y-28715000D02*
X60620000Y-28715000D01*
X68240000Y-34685000D02*
X68240000Y-28715000D01*
%TO.C,C4*%
X44402282Y-41101399D02*
X44249779Y-40948896D01*
X44911399Y-40592282D02*
X44758896Y-40439779D01*
%TO.C,R2*%
X107427659Y-45804940D02*
X107644940Y-45587659D01*
X107965060Y-46342341D02*
X108182341Y-46125060D01*
%TO.C,R3*%
X31488641Y-72080000D02*
X31181359Y-72080000D01*
X31488641Y-72840000D02*
X31181359Y-72840000D01*
%TO.C,R1*%
X77215000Y-31468641D02*
X77215000Y-31161359D01*
X77975000Y-31468641D02*
X77975000Y-31161359D01*
%TO.C,C3*%
X29387836Y-72065000D02*
X29172164Y-72065000D01*
X29387836Y-72785000D02*
X29172164Y-72785000D01*
%TO.C,J2*%
X111592334Y-101326051D02*
X113543949Y-103277666D01*
X113466167Y-99452218D02*
X111592334Y-101326051D01*
X113466167Y-99452218D02*
X115417782Y-101403833D01*
X114364193Y-98554193D02*
X115340000Y-97578385D01*
X115340000Y-97578385D02*
X116315807Y-98554193D01*
X115417782Y-101403833D02*
X113543949Y-103277666D01*
%TO.C,R9*%
X118531359Y-77085000D02*
X118838641Y-77085000D01*
X118531359Y-77845000D02*
X118838641Y-77845000D01*
%TD*%
M02*
