%TF.GenerationSoftware,KiCad,Pcbnew,9.0.3*%
%TF.CreationDate,2026-09-22T23:36:47+05:30*%
%TF.ProjectId,Accoustic_Sensing_Node,4163636f-7573-4746-9963-5f53656e7369,rev?*%
%TF.SameCoordinates,Original*%
%TF.FileFunction,Copper,L2,Inr*%
%TF.FilePolarity,Positive*%
%FSLAX46Y46*%
G04 Gerber Fmt 4.6, Leading zero omitted, Abs format (unit mm)*
G04 Created by KiCad (PCBNEW 9.0.3) date 2026-09-22 23:36:47*
%MOMM*%
%LPD*%
G01*
G04 APERTURE LIST*
G04 Aperture macros list*
%AMOutline5P*
0 Free polygon, 5 corners , with rotation*
0 The origin of the aperture is its center*
0 number of corners: always 5*
0 $1 to $10 corner X, Y*
0 $11 Rotation angle, in degrees counterclockwise*
0 create outline with 5 corners*
4,1,5,$1,$2,$3,$4,$5,$6,$7,$8,$9,$10,$1,$2,$11*%
%AMOutline6P*
0 Free polygon, 6 corners , with rotation*
0 The origin of the aperture is its center*
0 number of corners: always 6*
0 $1 to $12 corner X, Y*
0 $13 Rotation angle, in degrees counterclockwise*
0 create outline with 6 corners*
4,1,6,$1,$2,$3,$4,$5,$6,$7,$8,$9,$10,$11,$12,$1,$2,$13*%
%AMOutline7P*
0 Free polygon, 7 corners , with rotation*
0 The origin of the aperture is its center*
0 number of corners: always 7*
0 $1 to $14 corner X, Y*
0 $15 Rotation angle, in degrees counterclockwise*
0 create outline with 7 corners*
4,1,7,$1,$2,$3,$4,$5,$6,$7,$8,$9,$10,$11,$12,$13,$14,$1,$2,$15*%
%AMOutline8P*
0 Free polygon, 8 corners , with rotation*
0 The origin of the aperture is its center*
0 number of corners: always 8*
0 $1 to $16 corner X, Y*
0 $17 Rotation angle, in degrees counterclockwise*
0 create outline with 8 corners*
4,1,8,$1,$2,$3,$4,$5,$6,$7,$8,$9,$10,$11,$12,$13,$14,$15,$16,$1,$2,$17*%
G04 Aperture macros list end*
%TA.AperFunction,ComponentPad*%
%ADD10C,3.100000*%
%TD*%
%TA.AperFunction,CastellatedPad*%
%ADD11Outline6P,-1.270000X0.992000X-0.762000X1.500000X0.762000X1.500000X1.270000X0.992000X1.270000X-1.500000X-1.270000X-1.500000X0.000000*%
%TD*%
%TA.AperFunction,HeatsinkPad*%
%ADD12O,2.100000X1.000000*%
%TD*%
%TA.AperFunction,HeatsinkPad*%
%ADD13O,1.600000X1.000000*%
%TD*%
%TA.AperFunction,ViaPad*%
%ADD14C,0.620000*%
%TD*%
G04 APERTURE END LIST*
D10*
%TO.N,N/C*%
%TO.C,H1*%
X75000000Y-40000000D03*
%TD*%
D11*
%TO.N,GND*%
%TO.C,J3*%
X92355000Y-110590000D03*
%TD*%
D12*
%TO.N,GND*%
%TO.C,J1*%
X94547000Y-54493001D03*
D13*
X98727000Y-54493001D03*
D12*
X94547000Y-45853001D03*
D13*
X98727000Y-45853001D03*
%TD*%
D14*
%TO.N,GND*%
X65590000Y-97170000D03*
X76405000Y-68370000D03*
X51755000Y-66885000D03*
X53850000Y-66885000D03*
X52790000Y-66885000D03*
X85945000Y-69905000D03*
X56555000Y-103050000D03*
X63275000Y-66200000D03*
X50920000Y-75975000D03*
X64555000Y-49860000D03*
X87005000Y-62880000D03*
X55640000Y-103075000D03*
X59730000Y-51270000D03*
X55370000Y-55950000D03*
X53940000Y-103890000D03*
X97870000Y-89370000D03*
X96005000Y-91950000D03*
X53855000Y-41095000D03*
X51445000Y-103885000D03*
X55455000Y-67590000D03*
X60150000Y-65125000D03*
X55620000Y-102235000D03*
X87000000Y-63695000D03*
X55470000Y-68710000D03*
X63595000Y-48945000D03*
X64390000Y-59110000D03*
X98325000Y-73630000D03*
X60760000Y-51275000D03*
X96935000Y-91955000D03*
X87935000Y-62885000D03*
X52240000Y-52050000D03*
X73850000Y-72605000D03*
X98315000Y-75350000D03*
X69360000Y-51145000D03*
X72340000Y-48715000D03*
X85940000Y-70810000D03*
X60760000Y-48255000D03*
X82965000Y-89830000D03*
X54715000Y-36865000D03*
X79575000Y-101350000D03*
X81652000Y-50173001D03*
X64705000Y-81820000D03*
X74445000Y-47695000D03*
X57525000Y-93275000D03*
X51830000Y-74925000D03*
X59720000Y-47320000D03*
X64560000Y-96265000D03*
X63285000Y-67110000D03*
X50745000Y-45615000D03*
X56060000Y-72925000D03*
X55370000Y-54890000D03*
X62225000Y-61015000D03*
X88110000Y-104135000D03*
X96955000Y-89375000D03*
X75670000Y-63695000D03*
X96155000Y-72460000D03*
X96390000Y-49206999D03*
X50750000Y-51605000D03*
X87095000Y-105920000D03*
X53820000Y-45165000D03*
X73830000Y-62880000D03*
X64545000Y-41985000D03*
X56990000Y-108465000D03*
X91205000Y-55150000D03*
X55615000Y-103890000D03*
X55495000Y-69635000D03*
X82065000Y-88070000D03*
X55035000Y-72930000D03*
X55360000Y-58275000D03*
X56530000Y-103865000D03*
X50600000Y-37195000D03*
X85960000Y-61125000D03*
X96010000Y-90235000D03*
X96940000Y-91140000D03*
X94980000Y-90230000D03*
X92350000Y-107585000D03*
X51825000Y-73900000D03*
X53945000Y-102235000D03*
X64400000Y-67125000D03*
X87950000Y-61120000D03*
X51870000Y-84225000D03*
X60760000Y-45210000D03*
X99230000Y-75345000D03*
X59730000Y-50230000D03*
X73825000Y-63695000D03*
X56535000Y-102210000D03*
X96395000Y-51070000D03*
X81755000Y-106910000D03*
X81637000Y-49303001D03*
X74265000Y-94005000D03*
X72350000Y-51585000D03*
X51915000Y-40455000D03*
X57490000Y-102930000D03*
X78535000Y-98780000D03*
X75820000Y-55565000D03*
X54775000Y-103890000D03*
X75675000Y-62880000D03*
X59212000Y-73020000D03*
X68915000Y-37535000D03*
X74760000Y-62885000D03*
X64555000Y-48960000D03*
X62865000Y-80105000D03*
X73235000Y-94020000D03*
X64715000Y-80100000D03*
X77025000Y-45295000D03*
X53855000Y-43240000D03*
X53990000Y-77055000D03*
X97310000Y-53035000D03*
X72340000Y-43570000D03*
X55360000Y-57215000D03*
X59415000Y-61355000D03*
X54780000Y-102235000D03*
X76400000Y-86130000D03*
X52225000Y-50120000D03*
X99240000Y-73625000D03*
X50915000Y-73890000D03*
X96395000Y-48176999D03*
X85935000Y-71625000D03*
X52305000Y-103070000D03*
X72197217Y-89663000D03*
X53885000Y-85295000D03*
X73250000Y-94870000D03*
X79565000Y-98765000D03*
X59730000Y-48270000D03*
X78550000Y-100550000D03*
X72795000Y-63710000D03*
X82582000Y-51078001D03*
X82587000Y-50173001D03*
X54705000Y-38135000D03*
X59890000Y-104277500D03*
X72785000Y-61125000D03*
X81765000Y-79290000D03*
X51895000Y-38220000D03*
X84955000Y-105705000D03*
X51635000Y-70440000D03*
X59415000Y-60315000D03*
X98125000Y-49211999D03*
X73390000Y-44610000D03*
X54030000Y-70440000D03*
X72330000Y-46725000D03*
X72795000Y-71695000D03*
X80622000Y-51088001D03*
X96390000Y-50155000D03*
X76120000Y-96590000D03*
X72800000Y-62895000D03*
X64545000Y-40925000D03*
X96010000Y-91135000D03*
X50755000Y-48505000D03*
X64390000Y-64255000D03*
X88855000Y-61975000D03*
X70155000Y-67905000D03*
X63795000Y-81010000D03*
X70675000Y-64890000D03*
X73380000Y-45685000D03*
X82055000Y-88930000D03*
X87095000Y-105000000D03*
X97860000Y-90230000D03*
X51895000Y-37180000D03*
X63790000Y-81825000D03*
X72800000Y-61975000D03*
X63285000Y-68030000D03*
X75225000Y-94015000D03*
X64555000Y-50920000D03*
X52235000Y-53050000D03*
X65590000Y-96270000D03*
X71545000Y-65135000D03*
X97300000Y-51075000D03*
X97300000Y-47246999D03*
X74180000Y-104755000D03*
X97310000Y-49206999D03*
X97065000Y-101335000D03*
X60555000Y-68050000D03*
X57150000Y-39550000D03*
X73250000Y-95790000D03*
X53485000Y-46440000D03*
X68820000Y-97180000D03*
X53485000Y-53565000D03*
X75210000Y-104760000D03*
X73240000Y-67585000D03*
X96395000Y-47241999D03*
X62245000Y-64270000D03*
X81740000Y-106040000D03*
X74445000Y-48735000D03*
X53145000Y-103070000D03*
X81755000Y-107810000D03*
X76405000Y-70315000D03*
X80607000Y-49318001D03*
X53990000Y-75995000D03*
X64390000Y-65175000D03*
X74610000Y-73660000D03*
X62235000Y-63005000D03*
X64710000Y-81005000D03*
X82980000Y-88065000D03*
X88125000Y-105905000D03*
X59425000Y-58200000D03*
X73380000Y-46725000D03*
X87940000Y-61980000D03*
X81760000Y-80195000D03*
X87005000Y-61980000D03*
X66100000Y-72010000D03*
X63585000Y-48035000D03*
X52415000Y-57985000D03*
X91175000Y-45715000D03*
X98110000Y-52010000D03*
X50755000Y-49565000D03*
X80515000Y-99635000D03*
X63585000Y-46075000D03*
X57470000Y-104600000D03*
X73245000Y-96605000D03*
X61165000Y-101815000D03*
X97295000Y-52005000D03*
X94980000Y-91150000D03*
X60660000Y-39720000D03*
X53845000Y-44190000D03*
X63595000Y-50905000D03*
X79405000Y-87880000D03*
X76420000Y-71415000D03*
X82597000Y-49313001D03*
X75215000Y-94875000D03*
X74765000Y-61980000D03*
X71845000Y-71640000D03*
X66470000Y-39650000D03*
X81775000Y-78430000D03*
X68075000Y-86705000D03*
X64545000Y-46990000D03*
X82960000Y-90645000D03*
X74445000Y-44630000D03*
X88850000Y-62880000D03*
X64545000Y-46090000D03*
X81430000Y-99630000D03*
X80840000Y-81015000D03*
X67775000Y-95425000D03*
X50745000Y-44555000D03*
X54970000Y-66870000D03*
X80510000Y-100540000D03*
X76405000Y-69225000D03*
X98115000Y-47251999D03*
X98110000Y-48181999D03*
X75985000Y-67545000D03*
X76415000Y-72420000D03*
X96395000Y-52005000D03*
X85975000Y-62895000D03*
X62865000Y-81005000D03*
X66320000Y-89855000D03*
X74095000Y-80840000D03*
X53975000Y-72930000D03*
X88405000Y-58375000D03*
X64400000Y-68045000D03*
X98335000Y-72770000D03*
X58935000Y-104277500D03*
X97060000Y-102150000D03*
X64535000Y-43040000D03*
X52250000Y-49030000D03*
X96245000Y-61140000D03*
X50755000Y-47605000D03*
X97850000Y-91950000D03*
X54335000Y-59040000D03*
X87080000Y-104150000D03*
X59730000Y-49310000D03*
X52285000Y-102230000D03*
X80725000Y-106905000D03*
X91195000Y-53620000D03*
X78550000Y-99630000D03*
X73390000Y-48715000D03*
X74755000Y-63700000D03*
X74445000Y-43590000D03*
X67790000Y-97195000D03*
X78545000Y-101365000D03*
X53985000Y-74970000D03*
X55975000Y-77995000D03*
X97295000Y-50160000D03*
X50915000Y-72830000D03*
X53965000Y-103075000D03*
X79580000Y-99635000D03*
X61730000Y-71055000D03*
X53485000Y-50545000D03*
X50775000Y-50515000D03*
X61175000Y-103440000D03*
X94190000Y-101350000D03*
X81420000Y-101350000D03*
X74435000Y-45705000D03*
X80850000Y-79295000D03*
X59425000Y-62305000D03*
X60760000Y-49315000D03*
X95995000Y-89365000D03*
X64390000Y-63215000D03*
X54800000Y-103075000D03*
X74280000Y-95775000D03*
X50920000Y-74915000D03*
X75535000Y-72620000D03*
X84955000Y-106605000D03*
X99235000Y-74530000D03*
X63575000Y-43045000D03*
X53990000Y-77985000D03*
X86990000Y-61110000D03*
X96235000Y-67360000D03*
X61205000Y-104260000D03*
X64725000Y-79240000D03*
X72340000Y-49635000D03*
X80710000Y-106055000D03*
X57460000Y-103750000D03*
X76430000Y-78012000D03*
X85955000Y-69045000D03*
X60355000Y-100515000D03*
X59610000Y-68095000D03*
X75680000Y-61975000D03*
X61100000Y-65115000D03*
X74275000Y-96590000D03*
X67790000Y-96275000D03*
X52220000Y-51075000D03*
X64390000Y-66215000D03*
X59700000Y-39705000D03*
X55000000Y-77970000D03*
X52280000Y-103885000D03*
X50600000Y-38255000D03*
X69395000Y-46490000D03*
X53485000Y-47500000D03*
X72340000Y-47675000D03*
X50600000Y-39360000D03*
X98125000Y-53040000D03*
X63585000Y-46995000D03*
X55090000Y-70440000D03*
X62860000Y-81820000D03*
X63810000Y-79245000D03*
X76140000Y-94010000D03*
X94965000Y-89380000D03*
X56275000Y-73710000D03*
X51385000Y-59070000D03*
X88845000Y-63695000D03*
X80725000Y-107825000D03*
X76420000Y-76755000D03*
X59720000Y-46280000D03*
X61165000Y-100020000D03*
X53835000Y-40060000D03*
X74435000Y-46745000D03*
X72035000Y-58310000D03*
X64215000Y-39670000D03*
X99250000Y-72765000D03*
X50745000Y-52560000D03*
X72330000Y-45685000D03*
X74180000Y-105675000D03*
X64380000Y-62265000D03*
X68820000Y-96280000D03*
X53475000Y-49615000D03*
X97855000Y-91135000D03*
X82045000Y-90650000D03*
X62235000Y-59940000D03*
X51880000Y-85300000D03*
X61835000Y-81020000D03*
X50575000Y-40475000D03*
X75175000Y-58665000D03*
X98110000Y-50165000D03*
X58405000Y-39740000D03*
X85795000Y-43255000D03*
X53845000Y-42205000D03*
X53475000Y-57985000D03*
X71720000Y-70715000D03*
X73815000Y-61110000D03*
X75195000Y-103890000D03*
X94185000Y-102165000D03*
X50765000Y-53535000D03*
X53720000Y-36865000D03*
X72340000Y-44610000D03*
X81425000Y-100535000D03*
X54395000Y-54475000D03*
X61195000Y-100955000D03*
X98115000Y-51080000D03*
X62920000Y-39705000D03*
X51450000Y-102230000D03*
X75205000Y-96595000D03*
X61830000Y-81835000D03*
X80845000Y-80200000D03*
X64545000Y-48050000D03*
X74165000Y-67545000D03*
X65175000Y-39685000D03*
X81755000Y-81010000D03*
X60750000Y-46265000D03*
X87930000Y-63700000D03*
X50755000Y-43500000D03*
X96945000Y-90235000D03*
X50845000Y-84230000D03*
X64545000Y-45030000D03*
X63585000Y-45035000D03*
X96390000Y-53035000D03*
X96150000Y-101340000D03*
X68805000Y-95410000D03*
X84940000Y-104835000D03*
X83925000Y-105700000D03*
X81440000Y-98770000D03*
X69370000Y-52055000D03*
X53845000Y-38150000D03*
X72260000Y-68645000D03*
X79490000Y-53960000D03*
X55000000Y-77040000D03*
X50755000Y-46545000D03*
X73830000Y-61980000D03*
X73390000Y-47675000D03*
X98320000Y-74535000D03*
X74165000Y-103905000D03*
X80860000Y-78435000D03*
X53120000Y-103885000D03*
X88125000Y-105005000D03*
X72985000Y-72580000D03*
X74775000Y-61120000D03*
X97295000Y-48176999D03*
X53485000Y-52505000D03*
X71105000Y-67905000D03*
X50855000Y-85305000D03*
X95215000Y-102150000D03*
X80525000Y-98775000D03*
X88865000Y-61115000D03*
X50695000Y-66885000D03*
X83925000Y-106620000D03*
X61955000Y-39685000D03*
X51915000Y-41515000D03*
X64390000Y-60150000D03*
X79580000Y-100535000D03*
X75210000Y-105660000D03*
X82050000Y-89835000D03*
X51470000Y-103070000D03*
X94975000Y-91965000D03*
X72265000Y-67650000D03*
X59730000Y-44165000D03*
X61180000Y-102635000D03*
X75690000Y-61115000D03*
X96145000Y-102155000D03*
X75115000Y-67530000D03*
X95220000Y-101335000D03*
X63585000Y-40930000D03*
X59425000Y-59240000D03*
X60750000Y-47325000D03*
X53880000Y-84230000D03*
X80610000Y-50165000D03*
X62225000Y-62055000D03*
X53125000Y-102230000D03*
X73390000Y-43570000D03*
X83910000Y-104850000D03*
X53475000Y-48555000D03*
X60760000Y-50215000D03*
X60760000Y-44150000D03*
X72340000Y-50675000D03*
X63595000Y-49865000D03*
X64545000Y-95415000D03*
X53485000Y-51605000D03*
X65575000Y-95400000D03*
X82970000Y-88925000D03*
X50755000Y-42440000D03*
X51640000Y-71285000D03*
X69385000Y-48605000D03*
X53985000Y-73910000D03*
X85975000Y-61975000D03*
X52930000Y-84225000D03*
X71080000Y-68870000D03*
X63585000Y-41970000D03*
X52940000Y-85300000D03*
X76130000Y-94870000D03*
X81652000Y-51073001D03*
X64560000Y-97185000D03*
X59730000Y-45205000D03*
X74280000Y-94875000D03*
X71095000Y-69865000D03*
X76125000Y-95775000D03*
X69395000Y-47530000D03*
X80505000Y-101355000D03*
X64380000Y-61225000D03*
X75210000Y-95780000D03*
X53820000Y-39075000D03*
X62235000Y-58900000D03*
X85970000Y-63710000D03*
X63800000Y-80105000D03*
%TO.N,+3V3*%
X87390000Y-36580000D03*
X74000000Y-92430000D03*
X83920000Y-43270000D03*
X69925000Y-87965000D03*
X83615000Y-64530000D03*
X69920000Y-88855000D03*
X64995000Y-72030000D03*
X89870000Y-36580000D03*
X95240000Y-61160000D03*
X61661319Y-76378681D03*
X70415000Y-63930000D03*
X51195000Y-107380000D03*
X59825000Y-63765000D03*
X79137000Y-46263001D03*
X51330000Y-77210000D03*
X64335708Y-86110706D03*
X82290000Y-40515000D03*
X63050000Y-54595000D03*
X72630000Y-77250000D03*
X59957236Y-77732764D03*
X71885000Y-92725000D03*
X59600000Y-69400000D03*
X87205000Y-43380000D03*
X93465000Y-86365000D03*
X65930000Y-56960000D03*
X96155000Y-75630000D03*
X78985000Y-91730000D03*
%TO.N,+5V*%
X88110000Y-45790000D03*
X81045000Y-61225000D03*
X69782930Y-62609344D03*
%TO.N,/GPIO_0_1*%
X89185000Y-83675000D03*
X69375000Y-85182000D03*
X83250000Y-83670000D03*
%TO.N,/RESET_1*%
X66930000Y-75245000D03*
X57258000Y-84445000D03*
X78375000Y-75090000D03*
X88345000Y-77475000D03*
%TO.N,Net-(U9-VDD)*%
X84115000Y-57120000D03*
X84750000Y-53390000D03*
%TO.N,Net-(CH334F1-LED_1)*%
X86840000Y-42165000D03*
X81402000Y-46853001D03*
%TO.N,Net-(CH334F1-LED_3{slash}SCA)*%
X89370000Y-42160000D03*
X85315000Y-51435001D03*
%TO.N,/WS*%
X61466181Y-90073819D03*
X59960283Y-90079717D03*
%TO.N,/RST_MAX*%
X65195000Y-52825000D03*
X69390000Y-52870000D03*
X59187000Y-70306990D03*
X64561181Y-84813819D03*
%TO.N,/SCL_MPU*%
X68975000Y-90468000D03*
X68880000Y-83740000D03*
%TO.N,/RST_1*%
X77435000Y-73475000D03*
X84190000Y-73445000D03*
%TO.N,Net-(Q2-B)*%
X82290000Y-72360000D03*
X79350000Y-72355000D03*
%TO.N,Net-(F1-Pad2)*%
X92132000Y-52573001D03*
X92132000Y-47773001D03*
X92122000Y-40803001D03*
%TO.N,/BUSY*%
X69545000Y-49550000D03*
X58332000Y-83243568D03*
%TO.N,/DIO1*%
X57885000Y-47555000D03*
X57376793Y-80141793D03*
%TO.N,/SD_DATA2_1*%
X74492000Y-82130000D03*
X73475000Y-84070000D03*
%TO.N,/SCK*%
X60865000Y-85140000D03*
X69390000Y-45545000D03*
%TO.N,/RST_LORA*%
X68072902Y-84643000D03*
X68625000Y-48070000D03*
%TO.N,/NSS*%
X66972000Y-78505000D03*
X69175000Y-39550000D03*
%TO.N,/MOSI*%
X61352500Y-85937500D03*
X69732000Y-41650000D03*
%TO.N,/MISO*%
X69610000Y-43555000D03*
X57197000Y-82535000D03*
%TO.N,/GPS_RX*%
X53775000Y-61525000D03*
X66945000Y-77202000D03*
%TO.N,/TIMEPULSE*%
X53805000Y-62625000D03*
X66972000Y-83743708D03*
%TO.N,/GPS_TX*%
X53740000Y-60420000D03*
X67838568Y-76676999D03*
%TO.N,/V_BAT_S*%
X58245000Y-89060000D03*
X60735000Y-89060000D03*
%TO.N,/ON*%
X77215000Y-74420000D03*
X97225000Y-56900000D03*
%TO.N,Net-(Q4-B)*%
X92905000Y-73858000D03*
X89530000Y-71500000D03*
%TO.N,/RST_2*%
X94840000Y-75130000D03*
X86885000Y-75125000D03*
%TO.N,Net-(D13-K)*%
X86690000Y-76130000D03*
X88555000Y-78250000D03*
%TD*%
%TA.AperFunction,Conductor*%
%TO.N,GND*%
G36*
X86790955Y-35820185D02*
G01*
X86836710Y-35872989D01*
X86846654Y-35942147D01*
X86817629Y-36005703D01*
X86811597Y-36012181D01*
X86760445Y-36063332D01*
X86760439Y-36063340D01*
X86671744Y-36196081D01*
X86671742Y-36196085D01*
X86610648Y-36343581D01*
X86610645Y-36343593D01*
X86579500Y-36500168D01*
X86579500Y-36659831D01*
X86610645Y-36816406D01*
X86610648Y-36816418D01*
X86671742Y-36963914D01*
X86671744Y-36963918D01*
X86760439Y-37096659D01*
X86760445Y-37096667D01*
X86873332Y-37209554D01*
X86873340Y-37209560D01*
X87006081Y-37298255D01*
X87006085Y-37298257D01*
X87153581Y-37359351D01*
X87153586Y-37359353D01*
X87310168Y-37390499D01*
X87310172Y-37390500D01*
X87310173Y-37390500D01*
X87469828Y-37390500D01*
X87469829Y-37390499D01*
X87626414Y-37359353D01*
X87773916Y-37298256D01*
X87773918Y-37298255D01*
X87839844Y-37254203D01*
X87906664Y-37209557D01*
X88019557Y-37096664D01*
X88108256Y-36963916D01*
X88169353Y-36816414D01*
X88200500Y-36659827D01*
X88200500Y-36500173D01*
X88169353Y-36343586D01*
X88169351Y-36343581D01*
X88108257Y-36196085D01*
X88108255Y-36196081D01*
X88019560Y-36063340D01*
X88019554Y-36063332D01*
X87968403Y-36012181D01*
X87934918Y-35950858D01*
X87939902Y-35881166D01*
X87981774Y-35825233D01*
X88047238Y-35800816D01*
X88056084Y-35800500D01*
X89203916Y-35800500D01*
X89270955Y-35820185D01*
X89316710Y-35872989D01*
X89326654Y-35942147D01*
X89297629Y-36005703D01*
X89291597Y-36012181D01*
X89240445Y-36063332D01*
X89240439Y-36063340D01*
X89151744Y-36196081D01*
X89151742Y-36196085D01*
X89090648Y-36343581D01*
X89090645Y-36343593D01*
X89059500Y-36500168D01*
X89059500Y-36659831D01*
X89090645Y-36816406D01*
X89090648Y-36816418D01*
X89151742Y-36963914D01*
X89151744Y-36963918D01*
X89240439Y-37096659D01*
X89240445Y-37096667D01*
X89353332Y-37209554D01*
X89353340Y-37209560D01*
X89486081Y-37298255D01*
X89486085Y-37298257D01*
X89633581Y-37359351D01*
X89633586Y-37359353D01*
X89790168Y-37390499D01*
X89790172Y-37390500D01*
X89790173Y-37390500D01*
X89949828Y-37390500D01*
X89949829Y-37390499D01*
X90106414Y-37359353D01*
X90253916Y-37298256D01*
X90253918Y-37298255D01*
X90319844Y-37254203D01*
X90386664Y-37209557D01*
X90499557Y-37096664D01*
X90588256Y-36963916D01*
X90649353Y-36816414D01*
X90680500Y-36659827D01*
X90680500Y-36500173D01*
X90649353Y-36343586D01*
X90649351Y-36343581D01*
X90588257Y-36196085D01*
X90588255Y-36196081D01*
X90499560Y-36063340D01*
X90499554Y-36063332D01*
X90448403Y-36012181D01*
X90414918Y-35950858D01*
X90419902Y-35881166D01*
X90461774Y-35825233D01*
X90527238Y-35800816D01*
X90536084Y-35800500D01*
X99675500Y-35800500D01*
X99742539Y-35820185D01*
X99788294Y-35872989D01*
X99799500Y-35924500D01*
X99799500Y-44934490D01*
X99779815Y-45001529D01*
X99727011Y-45047284D01*
X99657853Y-45057228D01*
X99606609Y-45037592D01*
X99500684Y-44966815D01*
X99500671Y-44966808D01*
X99318693Y-44891431D01*
X99318681Y-44891428D01*
X99125495Y-44853001D01*
X98977000Y-44853001D01*
X98977000Y-45553001D01*
X98477000Y-45553001D01*
X98477000Y-44853001D01*
X98328504Y-44853001D01*
X98135318Y-44891428D01*
X98135306Y-44891431D01*
X97953328Y-44966808D01*
X97953315Y-44966815D01*
X97789537Y-45076249D01*
X97789533Y-45076252D01*
X97650251Y-45215534D01*
X97650248Y-45215538D01*
X97540814Y-45379316D01*
X97540807Y-45379329D01*
X97465430Y-45561308D01*
X97465430Y-45561310D01*
X97457138Y-45603001D01*
X98260012Y-45603001D01*
X98242795Y-45612941D01*
X98186940Y-45668796D01*
X98147444Y-45737205D01*
X98127000Y-45813505D01*
X98127000Y-45892497D01*
X98147444Y-45968797D01*
X98186940Y-46037206D01*
X98242795Y-46093061D01*
X98260012Y-46103001D01*
X97457138Y-46103001D01*
X97465430Y-46144691D01*
X97465430Y-46144693D01*
X97540807Y-46326672D01*
X97540814Y-46326684D01*
X97650248Y-46490463D01*
X97650251Y-46490467D01*
X97789533Y-46629749D01*
X97789537Y-46629752D01*
X97953315Y-46739186D01*
X97953328Y-46739193D01*
X98135306Y-46814570D01*
X98135318Y-46814573D01*
X98328504Y-46853000D01*
X98328508Y-46853001D01*
X98477000Y-46853001D01*
X98477000Y-46153001D01*
X98977000Y-46153001D01*
X98977000Y-46853001D01*
X99125492Y-46853001D01*
X99125495Y-46853000D01*
X99318681Y-46814573D01*
X99318693Y-46814570D01*
X99500671Y-46739193D01*
X99500683Y-46739186D01*
X99606609Y-46668409D01*
X99673286Y-46647531D01*
X99740666Y-46666015D01*
X99787357Y-46717994D01*
X99799500Y-46771511D01*
X99799500Y-53574490D01*
X99779815Y-53641529D01*
X99727011Y-53687284D01*
X99657853Y-53697228D01*
X99606609Y-53677592D01*
X99500684Y-53606815D01*
X99500671Y-53606808D01*
X99318693Y-53531431D01*
X99318681Y-53531428D01*
X99125495Y-53493001D01*
X98977000Y-53493001D01*
X98977000Y-54193001D01*
X98477000Y-54193001D01*
X98477000Y-53493001D01*
X98328504Y-53493001D01*
X98135318Y-53531428D01*
X98135306Y-53531431D01*
X97953328Y-53606808D01*
X97953315Y-53606815D01*
X97789537Y-53716249D01*
X97789533Y-53716252D01*
X97650251Y-53855534D01*
X97650248Y-53855538D01*
X97540814Y-54019316D01*
X97540807Y-54019329D01*
X97465430Y-54201308D01*
X97465430Y-54201310D01*
X97457138Y-54243001D01*
X98260012Y-54243001D01*
X98242795Y-54252941D01*
X98186940Y-54308796D01*
X98147444Y-54377205D01*
X98127000Y-54453505D01*
X98127000Y-54532497D01*
X98147444Y-54608797D01*
X98186940Y-54677206D01*
X98242795Y-54733061D01*
X98260012Y-54743001D01*
X97457138Y-54743001D01*
X97465430Y-54784691D01*
X97465430Y-54784693D01*
X97540807Y-54966672D01*
X97540814Y-54966685D01*
X97650248Y-55130463D01*
X97650251Y-55130467D01*
X97789533Y-55269749D01*
X97789537Y-55269752D01*
X97953315Y-55379186D01*
X97953328Y-55379193D01*
X98135306Y-55454570D01*
X98135318Y-55454573D01*
X98328504Y-55493000D01*
X98328508Y-55493001D01*
X98477000Y-55493001D01*
X98477000Y-54793001D01*
X98977000Y-54793001D01*
X98977000Y-55493001D01*
X99125492Y-55493001D01*
X99125495Y-55493000D01*
X99318681Y-55454573D01*
X99318693Y-55454570D01*
X99500671Y-55379193D01*
X99500683Y-55379186D01*
X99606609Y-55308409D01*
X99673286Y-55287531D01*
X99740666Y-55306015D01*
X99787357Y-55357994D01*
X99799500Y-55411511D01*
X99799500Y-110275500D01*
X99779815Y-110342539D01*
X99727011Y-110388294D01*
X99675500Y-110399500D01*
X94249000Y-110399500D01*
X94181961Y-110379815D01*
X94136206Y-110327011D01*
X94125000Y-110275500D01*
X94125000Y-109557058D01*
X94124999Y-109557056D01*
X94114450Y-109473074D01*
X94059429Y-109340241D01*
X94007507Y-109273403D01*
X94007496Y-109273390D01*
X93441609Y-108707503D01*
X93441596Y-108707492D01*
X93374758Y-108655570D01*
X93241924Y-108600549D01*
X93157941Y-108590000D01*
X92605000Y-108590000D01*
X92605000Y-110041517D01*
X92586591Y-110030889D01*
X92433991Y-109990000D01*
X92276009Y-109990000D01*
X92123409Y-110030889D01*
X92105000Y-110041517D01*
X92105000Y-108590000D01*
X91552056Y-108590000D01*
X91468074Y-108600549D01*
X91335241Y-108655570D01*
X91268403Y-108707492D01*
X91268390Y-108707503D01*
X90702503Y-109273390D01*
X90702492Y-109273403D01*
X90650570Y-109340241D01*
X90650570Y-109340242D01*
X90595549Y-109473075D01*
X90585000Y-109557058D01*
X90585000Y-110275500D01*
X90582449Y-110284185D01*
X90583738Y-110293147D01*
X90572759Y-110317187D01*
X90565315Y-110342539D01*
X90558474Y-110348466D01*
X90554713Y-110356703D01*
X90532478Y-110370992D01*
X90512511Y-110388294D01*
X90501996Y-110390581D01*
X90495935Y-110394477D01*
X90461000Y-110399500D01*
X90307836Y-110399500D01*
X90240797Y-110379815D01*
X90195042Y-110327011D01*
X90189905Y-110313819D01*
X90180276Y-110284185D01*
X90174873Y-110267555D01*
X90174871Y-110267552D01*
X90174871Y-110267550D01*
X90096231Y-110113211D01*
X90093812Y-110109881D01*
X89994414Y-109973072D01*
X89871928Y-109850586D01*
X89731788Y-109748768D01*
X89577445Y-109670127D01*
X89412701Y-109616598D01*
X89412699Y-109616597D01*
X89412698Y-109616597D01*
X89281271Y-109595781D01*
X89241611Y-109589500D01*
X89068389Y-109589500D01*
X89028728Y-109595781D01*
X88897302Y-109616597D01*
X88732552Y-109670128D01*
X88578211Y-109748768D01*
X88498256Y-109806859D01*
X88438072Y-109850586D01*
X88438070Y-109850588D01*
X88438069Y-109850588D01*
X88315588Y-109973069D01*
X88315588Y-109973070D01*
X88315586Y-109973072D01*
X88303287Y-109990000D01*
X88213768Y-110113211D01*
X88135128Y-110267550D01*
X88120095Y-110313819D01*
X88080657Y-110371494D01*
X88016298Y-110398692D01*
X88002164Y-110399500D01*
X87107836Y-110399500D01*
X87040797Y-110379815D01*
X86995042Y-110327011D01*
X86989905Y-110313819D01*
X86980276Y-110284185D01*
X86974873Y-110267555D01*
X86974871Y-110267552D01*
X86974871Y-110267550D01*
X86896231Y-110113211D01*
X86893812Y-110109881D01*
X86794414Y-109973072D01*
X86671928Y-109850586D01*
X86531788Y-109748768D01*
X86377445Y-109670127D01*
X86212701Y-109616598D01*
X86212699Y-109616597D01*
X86212698Y-109616597D01*
X86081271Y-109595781D01*
X86041611Y-109589500D01*
X85868389Y-109589500D01*
X85828728Y-109595781D01*
X85697302Y-109616597D01*
X85532552Y-109670128D01*
X85378211Y-109748768D01*
X85298256Y-109806859D01*
X85238072Y-109850586D01*
X85238070Y-109850588D01*
X85238069Y-109850588D01*
X85115588Y-109973069D01*
X85115588Y-109973070D01*
X85115586Y-109973072D01*
X85103287Y-109990000D01*
X85013768Y-110113211D01*
X84935128Y-110267550D01*
X84920095Y-110313819D01*
X84880657Y-110371494D01*
X84816298Y-110398692D01*
X84802164Y-110399500D01*
X83907836Y-110399500D01*
X83840797Y-110379815D01*
X83795042Y-110327011D01*
X83789905Y-110313819D01*
X83780276Y-110284185D01*
X83774873Y-110267555D01*
X83774871Y-110267552D01*
X83774871Y-110267550D01*
X83696231Y-110113211D01*
X83693812Y-110109881D01*
X83594414Y-109973072D01*
X83471928Y-109850586D01*
X83331788Y-109748768D01*
X83177445Y-109670127D01*
X83012701Y-109616598D01*
X83012699Y-109616597D01*
X83012698Y-109616597D01*
X82881271Y-109595781D01*
X82841611Y-109589500D01*
X82668389Y-109589500D01*
X82628728Y-109595781D01*
X82497302Y-109616597D01*
X82332552Y-109670128D01*
X82178211Y-109748768D01*
X82098256Y-109806859D01*
X82038072Y-109850586D01*
X82038070Y-109850588D01*
X82038069Y-109850588D01*
X81915588Y-109973069D01*
X81915588Y-109973070D01*
X81915586Y-109973072D01*
X81903287Y-109990000D01*
X81813768Y-110113211D01*
X81735128Y-110267550D01*
X81720095Y-110313819D01*
X81680657Y-110371494D01*
X81616298Y-110398692D01*
X81602164Y-110399500D01*
X80707836Y-110399500D01*
X80640797Y-110379815D01*
X80595042Y-110327011D01*
X80589905Y-110313819D01*
X80580276Y-110284185D01*
X80574873Y-110267555D01*
X80574871Y-110267552D01*
X80574871Y-110267550D01*
X80496231Y-110113211D01*
X80493812Y-110109881D01*
X80394414Y-109973072D01*
X80271928Y-109850586D01*
X80131788Y-109748768D01*
X79977445Y-109670127D01*
X79812701Y-109616598D01*
X79812699Y-109616597D01*
X79812698Y-109616597D01*
X79681271Y-109595781D01*
X79641611Y-109589500D01*
X79468389Y-109589500D01*
X79428728Y-109595781D01*
X79297302Y-109616597D01*
X79132552Y-109670128D01*
X78978211Y-109748768D01*
X78898256Y-109806859D01*
X78838072Y-109850586D01*
X78838070Y-109850588D01*
X78838069Y-109850588D01*
X78715588Y-109973069D01*
X78715588Y-109973070D01*
X78715586Y-109973072D01*
X78703287Y-109990000D01*
X78613768Y-110113211D01*
X78535128Y-110267550D01*
X78520095Y-110313819D01*
X78480657Y-110371494D01*
X78416298Y-110398692D01*
X78402164Y-110399500D01*
X77507836Y-110399500D01*
X77440797Y-110379815D01*
X77395042Y-110327011D01*
X77389905Y-110313819D01*
X77380276Y-110284185D01*
X77374873Y-110267555D01*
X77374871Y-110267552D01*
X77374871Y-110267550D01*
X77296231Y-110113211D01*
X77293812Y-110109881D01*
X77194414Y-109973072D01*
X77071928Y-109850586D01*
X76931788Y-109748768D01*
X76777445Y-109670127D01*
X76612701Y-109616598D01*
X76612699Y-109616597D01*
X76612698Y-109616597D01*
X76481271Y-109595781D01*
X76441611Y-109589500D01*
X76268389Y-109589500D01*
X76228728Y-109595781D01*
X76097302Y-109616597D01*
X75932552Y-109670128D01*
X75778211Y-109748768D01*
X75698256Y-109806859D01*
X75638072Y-109850586D01*
X75638070Y-109850588D01*
X75638069Y-109850588D01*
X75515588Y-109973069D01*
X75515588Y-109973070D01*
X75515586Y-109973072D01*
X75503287Y-109990000D01*
X75413768Y-110113211D01*
X75335128Y-110267550D01*
X75320095Y-110313819D01*
X75280657Y-110371494D01*
X75216298Y-110398692D01*
X75202164Y-110399500D01*
X74307836Y-110399500D01*
X74240797Y-110379815D01*
X74195042Y-110327011D01*
X74189905Y-110313819D01*
X74180276Y-110284185D01*
X74174873Y-110267555D01*
X74174871Y-110267552D01*
X74174871Y-110267550D01*
X74096231Y-110113211D01*
X74093812Y-110109881D01*
X73994414Y-109973072D01*
X73871928Y-109850586D01*
X73731788Y-109748768D01*
X73577445Y-109670127D01*
X73412701Y-109616598D01*
X73412699Y-109616597D01*
X73412698Y-109616597D01*
X73281271Y-109595781D01*
X73241611Y-109589500D01*
X73068389Y-109589500D01*
X73028728Y-109595781D01*
X72897302Y-109616597D01*
X72732552Y-109670128D01*
X72578211Y-109748768D01*
X72498256Y-109806859D01*
X72438072Y-109850586D01*
X72438070Y-109850588D01*
X72438069Y-109850588D01*
X72315588Y-109973069D01*
X72315588Y-109973070D01*
X72315586Y-109973072D01*
X72303287Y-109990000D01*
X72213768Y-110113211D01*
X72135128Y-110267550D01*
X72120095Y-110313819D01*
X72080657Y-110371494D01*
X72016298Y-110398692D01*
X72002164Y-110399500D01*
X71107836Y-110399500D01*
X71040797Y-110379815D01*
X70995042Y-110327011D01*
X70989905Y-110313819D01*
X70980276Y-110284185D01*
X70974873Y-110267555D01*
X70974871Y-110267552D01*
X70974871Y-110267550D01*
X70896231Y-110113211D01*
X70893812Y-110109881D01*
X70794414Y-109973072D01*
X70671928Y-109850586D01*
X70531788Y-109748768D01*
X70377445Y-109670127D01*
X70212701Y-109616598D01*
X70212699Y-109616597D01*
X70212698Y-109616597D01*
X70081271Y-109595781D01*
X70041611Y-109589500D01*
X69868389Y-109589500D01*
X69828728Y-109595781D01*
X69697302Y-109616597D01*
X69532552Y-109670128D01*
X69378211Y-109748768D01*
X69298256Y-109806859D01*
X69238072Y-109850586D01*
X69238070Y-109850588D01*
X69238069Y-109850588D01*
X69115588Y-109973069D01*
X69115588Y-109973070D01*
X69115586Y-109973072D01*
X69103287Y-109990000D01*
X69013768Y-110113211D01*
X68935128Y-110267550D01*
X68920095Y-110313819D01*
X68880657Y-110371494D01*
X68816298Y-110398692D01*
X68802164Y-110399500D01*
X67907836Y-110399500D01*
X67840797Y-110379815D01*
X67795042Y-110327011D01*
X67789905Y-110313819D01*
X67780276Y-110284185D01*
X67774873Y-110267555D01*
X67774871Y-110267552D01*
X67774871Y-110267550D01*
X67696231Y-110113211D01*
X67693812Y-110109881D01*
X67594414Y-109973072D01*
X67471928Y-109850586D01*
X67331788Y-109748768D01*
X67177445Y-109670127D01*
X67012701Y-109616598D01*
X67012699Y-109616597D01*
X67012698Y-109616597D01*
X66881271Y-109595781D01*
X66841611Y-109589500D01*
X66668389Y-109589500D01*
X66628728Y-109595781D01*
X66497302Y-109616597D01*
X66332552Y-109670128D01*
X66178211Y-109748768D01*
X66098256Y-109806859D01*
X66038072Y-109850586D01*
X66038070Y-109850588D01*
X66038069Y-109850588D01*
X65915588Y-109973069D01*
X65915588Y-109973070D01*
X65915586Y-109973072D01*
X65903287Y-109990000D01*
X65813768Y-110113211D01*
X65735128Y-110267550D01*
X65720095Y-110313819D01*
X65680657Y-110371494D01*
X65616298Y-110398692D01*
X65602164Y-110399500D01*
X64707836Y-110399500D01*
X64640797Y-110379815D01*
X64595042Y-110327011D01*
X64589905Y-110313819D01*
X64580276Y-110284185D01*
X64574873Y-110267555D01*
X64574871Y-110267552D01*
X64574871Y-110267550D01*
X64496231Y-110113211D01*
X64493812Y-110109881D01*
X64394414Y-109973072D01*
X64271928Y-109850586D01*
X64131788Y-109748768D01*
X63977445Y-109670127D01*
X63812701Y-109616598D01*
X63812699Y-109616597D01*
X63812698Y-109616597D01*
X63681271Y-109595781D01*
X63641611Y-109589500D01*
X63468389Y-109589500D01*
X63428728Y-109595781D01*
X63297302Y-109616597D01*
X63132552Y-109670128D01*
X62978211Y-109748768D01*
X62898256Y-109806859D01*
X62838072Y-109850586D01*
X62838070Y-109850588D01*
X62838069Y-109850588D01*
X62715588Y-109973069D01*
X62715588Y-109973070D01*
X62715586Y-109973072D01*
X62703287Y-109990000D01*
X62613768Y-110113211D01*
X62535128Y-110267550D01*
X62520095Y-110313819D01*
X62480657Y-110371494D01*
X62416298Y-110398692D01*
X62402164Y-110399500D01*
X61507836Y-110399500D01*
X61440797Y-110379815D01*
X61395042Y-110327011D01*
X61389905Y-110313819D01*
X61380276Y-110284185D01*
X61374873Y-110267555D01*
X61374871Y-110267552D01*
X61374871Y-110267550D01*
X61296231Y-110113211D01*
X61293812Y-110109881D01*
X61194414Y-109973072D01*
X61071928Y-109850586D01*
X60931788Y-109748768D01*
X60777445Y-109670127D01*
X60612701Y-109616598D01*
X60612699Y-109616597D01*
X60612698Y-109616597D01*
X60481271Y-109595781D01*
X60441611Y-109589500D01*
X60268389Y-109589500D01*
X60228728Y-109595781D01*
X60097302Y-109616597D01*
X59932552Y-109670128D01*
X59778211Y-109748768D01*
X59698256Y-109806859D01*
X59638072Y-109850586D01*
X59638070Y-109850588D01*
X59638069Y-109850588D01*
X59515588Y-109973069D01*
X59515588Y-109973070D01*
X59515586Y-109973072D01*
X59503287Y-109990000D01*
X59413768Y-110113211D01*
X59335128Y-110267550D01*
X59320095Y-110313819D01*
X59280657Y-110371494D01*
X59216298Y-110398692D01*
X59202164Y-110399500D01*
X50324500Y-110399500D01*
X50257461Y-110379815D01*
X50211706Y-110327011D01*
X50200500Y-110275500D01*
X50200500Y-107720393D01*
X50220185Y-107653354D01*
X50272989Y-107607599D01*
X50342147Y-107597655D01*
X50405703Y-107626680D01*
X50439061Y-107672941D01*
X50476742Y-107763914D01*
X50476744Y-107763918D01*
X50565439Y-107896659D01*
X50565445Y-107896667D01*
X50678332Y-108009554D01*
X50678340Y-108009560D01*
X50811081Y-108098255D01*
X50811085Y-108098257D01*
X50958581Y-108159351D01*
X50958586Y-108159353D01*
X51115168Y-108190499D01*
X51115172Y-108190500D01*
X51115173Y-108190500D01*
X51274828Y-108190500D01*
X51274829Y-108190499D01*
X51431414Y-108159353D01*
X51578916Y-108098256D01*
X51578918Y-108098255D01*
X51644844Y-108054203D01*
X51711664Y-108009557D01*
X51824557Y-107896664D01*
X51913256Y-107763916D01*
X51974353Y-107616414D01*
X52005500Y-107459827D01*
X52005500Y-107300173D01*
X51974353Y-107143586D01*
X51954274Y-107095111D01*
X51913257Y-106996085D01*
X51913255Y-106996081D01*
X51824560Y-106863340D01*
X51824554Y-106863332D01*
X51711667Y-106750445D01*
X51711659Y-106750439D01*
X51578918Y-106661744D01*
X51578914Y-106661742D01*
X51431418Y-106600648D01*
X51431406Y-106600645D01*
X51274831Y-106569500D01*
X51274827Y-106569500D01*
X51115173Y-106569500D01*
X51115168Y-106569500D01*
X50958593Y-106600645D01*
X50958581Y-106600648D01*
X50811085Y-106661742D01*
X50811081Y-106661744D01*
X50678340Y-106750439D01*
X50678332Y-106750445D01*
X50565445Y-106863332D01*
X50565439Y-106863340D01*
X50476744Y-106996081D01*
X50476742Y-106996085D01*
X50439061Y-107087058D01*
X50395220Y-107141462D01*
X50328926Y-107163527D01*
X50261227Y-107146248D01*
X50213616Y-107095111D01*
X50200500Y-107039606D01*
X50200500Y-92645168D01*
X71074500Y-92645168D01*
X71074500Y-92804831D01*
X71105645Y-92961406D01*
X71105648Y-92961418D01*
X71166742Y-93108914D01*
X71166744Y-93108918D01*
X71255439Y-93241659D01*
X71255445Y-93241667D01*
X71368332Y-93354554D01*
X71368340Y-93354560D01*
X71501081Y-93443255D01*
X71501085Y-93443257D01*
X71648581Y-93504351D01*
X71648586Y-93504353D01*
X71805168Y-93535499D01*
X71805172Y-93535500D01*
X71805173Y-93535500D01*
X71964828Y-93535500D01*
X71964829Y-93535499D01*
X72121414Y-93504353D01*
X72268916Y-93443256D01*
X72268918Y-93443255D01*
X72334844Y-93399203D01*
X72401664Y-93354557D01*
X72514557Y-93241664D01*
X72603256Y-93108916D01*
X72664353Y-92961414D01*
X72695500Y-92804827D01*
X72695500Y-92645173D01*
X72664353Y-92488586D01*
X72664351Y-92488581D01*
X72624153Y-92391533D01*
X72607019Y-92350168D01*
X73189500Y-92350168D01*
X73189500Y-92509831D01*
X73220645Y-92666406D01*
X73220648Y-92666418D01*
X73281742Y-92813914D01*
X73281744Y-92813918D01*
X73370439Y-92946659D01*
X73370445Y-92946667D01*
X73483332Y-93059554D01*
X73483340Y-93059560D01*
X73616081Y-93148255D01*
X73616085Y-93148257D01*
X73763581Y-93209351D01*
X73763586Y-93209353D01*
X73920168Y-93240499D01*
X73920172Y-93240500D01*
X73920173Y-93240500D01*
X74079828Y-93240500D01*
X74079829Y-93240499D01*
X74236414Y-93209353D01*
X74383916Y-93148256D01*
X74383918Y-93148255D01*
X74449844Y-93104203D01*
X74516664Y-93059557D01*
X74629557Y-92946664D01*
X74718256Y-92813916D01*
X74779353Y-92666414D01*
X74810500Y-92509827D01*
X74810500Y-92350173D01*
X74779353Y-92193586D01*
X74738701Y-92095443D01*
X74718257Y-92046085D01*
X74718255Y-92046081D01*
X74629560Y-91913340D01*
X74629554Y-91913332D01*
X74516664Y-91800442D01*
X74436955Y-91747183D01*
X74417942Y-91734480D01*
X74383916Y-91711744D01*
X74383913Y-91711742D01*
X74383912Y-91711742D01*
X74236418Y-91650648D01*
X74236406Y-91650645D01*
X74234008Y-91650168D01*
X78174500Y-91650168D01*
X78174500Y-91809831D01*
X78205645Y-91966406D01*
X78205648Y-91966418D01*
X78266742Y-92113914D01*
X78266744Y-92113918D01*
X78355439Y-92246659D01*
X78355445Y-92246667D01*
X78468332Y-92359554D01*
X78468340Y-92359560D01*
X78601081Y-92448255D01*
X78601085Y-92448257D01*
X78748581Y-92509351D01*
X78748586Y-92509353D01*
X78905168Y-92540499D01*
X78905172Y-92540500D01*
X78905173Y-92540500D01*
X79064828Y-92540500D01*
X79064829Y-92540499D01*
X79221414Y-92509353D01*
X79368916Y-92448256D01*
X79368918Y-92448255D01*
X79453808Y-92391533D01*
X79501664Y-92359557D01*
X79614557Y-92246664D01*
X79703256Y-92113916D01*
X79764353Y-91966414D01*
X79795500Y-91809827D01*
X79795500Y-91650173D01*
X79764353Y-91493586D01*
X79764351Y-91493581D01*
X79703257Y-91346085D01*
X79703255Y-91346081D01*
X79614560Y-91213340D01*
X79614554Y-91213332D01*
X79501667Y-91100445D01*
X79501659Y-91100439D01*
X79368918Y-91011744D01*
X79368914Y-91011742D01*
X79221418Y-90950648D01*
X79221406Y-90950645D01*
X79064831Y-90919500D01*
X79064827Y-90919500D01*
X78905173Y-90919500D01*
X78905168Y-90919500D01*
X78748593Y-90950645D01*
X78748581Y-90950648D01*
X78601085Y-91011742D01*
X78601081Y-91011744D01*
X78468340Y-91100439D01*
X78468332Y-91100445D01*
X78355445Y-91213332D01*
X78355439Y-91213340D01*
X78266744Y-91346081D01*
X78266742Y-91346085D01*
X78205648Y-91493581D01*
X78205645Y-91493593D01*
X78174500Y-91650168D01*
X74234008Y-91650168D01*
X74079831Y-91619500D01*
X74079827Y-91619500D01*
X73920173Y-91619500D01*
X73920168Y-91619500D01*
X73763593Y-91650645D01*
X73763581Y-91650648D01*
X73616085Y-91711742D01*
X73616081Y-91711744D01*
X73483340Y-91800439D01*
X73483332Y-91800445D01*
X73370445Y-91913332D01*
X73370439Y-91913340D01*
X73281744Y-92046081D01*
X73281742Y-92046085D01*
X73220648Y-92193581D01*
X73220645Y-92193593D01*
X73189500Y-92350168D01*
X72607019Y-92350168D01*
X72603257Y-92341085D01*
X72603255Y-92341081D01*
X72514560Y-92208340D01*
X72514554Y-92208332D01*
X72401667Y-92095445D01*
X72401659Y-92095439D01*
X72268918Y-92006744D01*
X72268914Y-92006742D01*
X72121418Y-91945648D01*
X72121406Y-91945645D01*
X71964831Y-91914500D01*
X71964827Y-91914500D01*
X71805173Y-91914500D01*
X71805168Y-91914500D01*
X71648593Y-91945645D01*
X71648581Y-91945648D01*
X71501085Y-92006742D01*
X71501081Y-92006744D01*
X71368340Y-92095439D01*
X71368332Y-92095445D01*
X71255445Y-92208332D01*
X71255439Y-92208340D01*
X71166744Y-92341081D01*
X71166742Y-92341085D01*
X71105648Y-92488581D01*
X71105645Y-92488593D01*
X71074500Y-92645168D01*
X50200500Y-92645168D01*
X50200500Y-89999885D01*
X59149783Y-89999885D01*
X59149783Y-90159548D01*
X59180928Y-90316123D01*
X59180931Y-90316135D01*
X59242025Y-90463631D01*
X59242027Y-90463635D01*
X59330722Y-90596376D01*
X59330728Y-90596384D01*
X59443615Y-90709271D01*
X59443623Y-90709277D01*
X59576364Y-90797972D01*
X59576368Y-90797974D01*
X59706602Y-90851918D01*
X59723869Y-90859070D01*
X59850800Y-90884318D01*
X59880451Y-90890216D01*
X59880455Y-90890217D01*
X59880456Y-90890217D01*
X60040111Y-90890217D01*
X60040112Y-90890216D01*
X60196697Y-90859070D01*
X60344199Y-90797973D01*
X60344201Y-90797972D01*
X60410127Y-90753920D01*
X60476947Y-90709274D01*
X60589840Y-90596381D01*
X60612099Y-90563068D01*
X60665711Y-90518262D01*
X60735035Y-90509553D01*
X60798063Y-90539707D01*
X60818304Y-90563066D01*
X60836623Y-90590482D01*
X60836626Y-90590486D01*
X60949513Y-90703373D01*
X60949521Y-90703379D01*
X61082262Y-90792074D01*
X61082266Y-90792076D01*
X61229762Y-90853170D01*
X61229767Y-90853172D01*
X61386349Y-90884318D01*
X61386353Y-90884319D01*
X61386354Y-90884319D01*
X61546009Y-90884319D01*
X61546010Y-90884318D01*
X61702595Y-90853172D01*
X61800929Y-90812440D01*
X61850095Y-90792076D01*
X61850099Y-90792074D01*
X61974022Y-90709271D01*
X61982845Y-90703376D01*
X62095738Y-90590483D01*
X62143994Y-90518262D01*
X62184436Y-90457737D01*
X62184438Y-90457733D01*
X62213253Y-90388168D01*
X68164500Y-90388168D01*
X68164500Y-90547831D01*
X68195645Y-90704406D01*
X68195648Y-90704418D01*
X68256742Y-90851914D01*
X68256744Y-90851918D01*
X68345439Y-90984659D01*
X68345445Y-90984667D01*
X68458332Y-91097554D01*
X68458340Y-91097560D01*
X68591081Y-91186255D01*
X68591085Y-91186257D01*
X68738581Y-91247351D01*
X68738586Y-91247353D01*
X68895168Y-91278499D01*
X68895172Y-91278500D01*
X68895173Y-91278500D01*
X69054828Y-91278500D01*
X69054829Y-91278499D01*
X69211414Y-91247353D01*
X69358916Y-91186256D01*
X69358918Y-91186255D01*
X69424844Y-91142203D01*
X69491664Y-91097557D01*
X69604557Y-90984664D01*
X69671606Y-90884318D01*
X69693255Y-90851918D01*
X69693257Y-90851914D01*
X69718043Y-90792074D01*
X69754353Y-90704414D01*
X69785500Y-90547827D01*
X69785500Y-90388173D01*
X69754353Y-90231586D01*
X69724514Y-90159548D01*
X69693257Y-90084085D01*
X69693255Y-90084081D01*
X69604560Y-89951340D01*
X69604554Y-89951332D01*
X69491667Y-89838445D01*
X69491659Y-89838439D01*
X69423281Y-89792750D01*
X69423252Y-89792731D01*
X69358916Y-89749744D01*
X69347131Y-89744862D01*
X69347127Y-89744860D01*
X69211418Y-89688648D01*
X69211406Y-89688645D01*
X69054831Y-89657500D01*
X69054827Y-89657500D01*
X68895173Y-89657500D01*
X68895168Y-89657500D01*
X68738593Y-89688645D01*
X68738581Y-89688648D01*
X68591085Y-89749742D01*
X68591081Y-89749744D01*
X68458340Y-89838439D01*
X68458332Y-89838445D01*
X68345445Y-89951332D01*
X68345439Y-89951340D01*
X68256744Y-90084081D01*
X68256742Y-90084085D01*
X68195648Y-90231581D01*
X68195645Y-90231593D01*
X68164500Y-90388168D01*
X62213253Y-90388168D01*
X62235429Y-90334629D01*
X62235429Y-90334628D01*
X62245534Y-90310233D01*
X62276681Y-90153646D01*
X62276681Y-89993992D01*
X62245534Y-89837405D01*
X62245532Y-89837400D01*
X62184438Y-89689904D01*
X62184436Y-89689900D01*
X62095741Y-89557159D01*
X62095735Y-89557151D01*
X61982848Y-89444264D01*
X61982840Y-89444258D01*
X61850099Y-89355563D01*
X61850095Y-89355561D01*
X61702599Y-89294467D01*
X61702587Y-89294464D01*
X61643507Y-89282712D01*
X61581596Y-89250327D01*
X61547021Y-89189611D01*
X61546249Y-89146022D01*
X61544903Y-89145890D01*
X61545500Y-89139828D01*
X61545500Y-88980172D01*
X61545499Y-88980168D01*
X61514354Y-88823593D01*
X61514353Y-88823586D01*
X61494300Y-88775173D01*
X61494298Y-88775168D01*
X69109500Y-88775168D01*
X69109500Y-88934831D01*
X69140645Y-89091406D01*
X69140648Y-89091418D01*
X69201742Y-89238914D01*
X69201744Y-89238918D01*
X69290439Y-89371659D01*
X69290445Y-89371667D01*
X69403333Y-89484555D01*
X69403336Y-89484557D01*
X69536084Y-89573256D01*
X69683586Y-89634353D01*
X69840168Y-89665499D01*
X69840172Y-89665500D01*
X69840173Y-89665500D01*
X69999828Y-89665500D01*
X69999829Y-89665499D01*
X70156414Y-89634353D01*
X70295681Y-89576667D01*
X70303914Y-89573257D01*
X70303918Y-89573255D01*
X70369844Y-89529203D01*
X70436664Y-89484557D01*
X70549557Y-89371664D01*
X70624759Y-89259116D01*
X70638255Y-89238918D01*
X70638257Y-89238914D01*
X70699351Y-89091418D01*
X70699353Y-89091414D01*
X70730500Y-88934827D01*
X70730500Y-88775173D01*
X70699353Y-88618586D01*
X70638256Y-88471084D01*
X70638255Y-88471082D01*
X70635925Y-88465457D01*
X70637543Y-88464786D01*
X70624991Y-88404518D01*
X70642148Y-88355224D01*
X70640387Y-88354283D01*
X70643252Y-88348921D01*
X70643256Y-88348916D01*
X70704353Y-88201414D01*
X70735500Y-88044827D01*
X70735500Y-87885173D01*
X70704353Y-87728586D01*
X70704351Y-87728581D01*
X70643257Y-87581085D01*
X70643255Y-87581081D01*
X70554560Y-87448340D01*
X70554554Y-87448332D01*
X70441667Y-87335445D01*
X70441659Y-87335439D01*
X70308918Y-87246744D01*
X70308914Y-87246742D01*
X70161418Y-87185648D01*
X70161406Y-87185645D01*
X70004831Y-87154500D01*
X70004827Y-87154500D01*
X69845173Y-87154500D01*
X69845168Y-87154500D01*
X69688593Y-87185645D01*
X69688581Y-87185648D01*
X69541085Y-87246742D01*
X69541081Y-87246744D01*
X69408340Y-87335439D01*
X69408332Y-87335445D01*
X69295445Y-87448332D01*
X69295439Y-87448340D01*
X69206744Y-87581081D01*
X69206742Y-87581085D01*
X69145648Y-87728581D01*
X69145645Y-87728593D01*
X69114500Y-87885168D01*
X69114500Y-88044831D01*
X69145645Y-88201406D01*
X69145647Y-88201414D01*
X69203772Y-88341742D01*
X69209075Y-88354543D01*
X69207458Y-88355212D01*
X69220007Y-88415494D01*
X69202870Y-88464783D01*
X69204614Y-88465715D01*
X69201744Y-88471082D01*
X69140647Y-88618585D01*
X69140645Y-88618593D01*
X69109500Y-88775168D01*
X61494298Y-88775168D01*
X61453257Y-88676085D01*
X61453255Y-88676081D01*
X61364560Y-88543340D01*
X61364554Y-88543332D01*
X61251667Y-88430445D01*
X61251659Y-88430439D01*
X61118918Y-88341744D01*
X61118914Y-88341742D01*
X60971418Y-88280648D01*
X60971406Y-88280645D01*
X60814831Y-88249500D01*
X60814827Y-88249500D01*
X60655173Y-88249500D01*
X60655168Y-88249500D01*
X60498593Y-88280645D01*
X60498581Y-88280648D01*
X60351085Y-88341742D01*
X60351081Y-88341744D01*
X60218340Y-88430439D01*
X60218332Y-88430445D01*
X60105445Y-88543332D01*
X60105439Y-88543340D01*
X60016744Y-88676081D01*
X60016742Y-88676085D01*
X59955648Y-88823581D01*
X59955645Y-88823593D01*
X59924500Y-88980168D01*
X59924500Y-89139828D01*
X59925097Y-89145890D01*
X59922355Y-89146159D01*
X59917099Y-89203999D01*
X59874159Y-89259116D01*
X59825964Y-89280055D01*
X59723874Y-89300362D01*
X59723864Y-89300365D01*
X59576368Y-89361459D01*
X59576364Y-89361461D01*
X59443623Y-89450156D01*
X59443615Y-89450162D01*
X59330728Y-89563049D01*
X59330722Y-89563057D01*
X59242027Y-89695798D01*
X59242025Y-89695802D01*
X59180931Y-89843298D01*
X59180928Y-89843310D01*
X59149783Y-89999885D01*
X50200500Y-89999885D01*
X50200500Y-88980168D01*
X57434500Y-88980168D01*
X57434500Y-89139831D01*
X57465645Y-89296406D01*
X57465648Y-89296418D01*
X57526742Y-89443914D01*
X57526744Y-89443918D01*
X57615439Y-89576659D01*
X57615445Y-89576667D01*
X57728332Y-89689554D01*
X57728340Y-89689560D01*
X57861081Y-89778255D01*
X57861085Y-89778257D01*
X58003871Y-89837400D01*
X58008586Y-89839353D01*
X58165168Y-89870499D01*
X58165172Y-89870500D01*
X58165173Y-89870500D01*
X58324828Y-89870500D01*
X58324829Y-89870499D01*
X58481414Y-89839353D01*
X58628916Y-89778256D01*
X58628918Y-89778255D01*
X58694844Y-89734203D01*
X58761664Y-89689557D01*
X58874557Y-89576664D01*
X58959087Y-89450156D01*
X58963255Y-89443918D01*
X58963257Y-89443914D01*
X59022717Y-89300364D01*
X59024353Y-89296414D01*
X59055500Y-89139827D01*
X59055500Y-88980173D01*
X59024353Y-88823586D01*
X59004300Y-88775173D01*
X58963257Y-88676085D01*
X58963255Y-88676081D01*
X58874560Y-88543340D01*
X58874554Y-88543332D01*
X58761667Y-88430445D01*
X58761659Y-88430439D01*
X58628918Y-88341744D01*
X58628914Y-88341742D01*
X58481418Y-88280648D01*
X58481406Y-88280645D01*
X58324831Y-88249500D01*
X58324827Y-88249500D01*
X58165173Y-88249500D01*
X58165168Y-88249500D01*
X58008593Y-88280645D01*
X58008581Y-88280648D01*
X57861085Y-88341742D01*
X57861081Y-88341744D01*
X57728340Y-88430439D01*
X57728332Y-88430445D01*
X57615445Y-88543332D01*
X57615439Y-88543340D01*
X57526744Y-88676081D01*
X57526742Y-88676085D01*
X57465648Y-88823581D01*
X57465645Y-88823593D01*
X57434500Y-88980168D01*
X50200500Y-88980168D01*
X50200500Y-82455168D01*
X56386500Y-82455168D01*
X56386500Y-82614831D01*
X56417645Y-82771406D01*
X56417648Y-82771418D01*
X56478742Y-82918914D01*
X56478744Y-82918918D01*
X56567439Y-83051659D01*
X56567445Y-83051667D01*
X56680332Y-83164554D01*
X56680340Y-83164560D01*
X56813081Y-83253255D01*
X56813085Y-83253257D01*
X56960581Y-83314351D01*
X56960586Y-83314353D01*
X57117168Y-83345499D01*
X57117172Y-83345500D01*
X57117173Y-83345500D01*
X57276828Y-83345500D01*
X57276828Y-83345499D01*
X57363494Y-83328261D01*
X57394800Y-83322034D01*
X57402007Y-83322678D01*
X57408760Y-83320074D01*
X57436341Y-83325751D01*
X57464391Y-83328261D01*
X57470106Y-83332701D01*
X57477195Y-83334160D01*
X57497328Y-83353847D01*
X57519569Y-83371124D01*
X57523200Y-83379145D01*
X57527151Y-83383009D01*
X57536889Y-83409388D01*
X57539854Y-83415937D01*
X57540259Y-83417704D01*
X57552647Y-83479982D01*
X57556886Y-83490216D01*
X57559210Y-83500351D01*
X57557708Y-83525266D01*
X57560376Y-83550084D01*
X57555643Y-83559538D01*
X57555007Y-83570094D01*
X57540273Y-83590242D01*
X57529100Y-83612563D01*
X57520005Y-83617958D01*
X57513765Y-83626493D01*
X57490480Y-83635476D01*
X57469011Y-83648214D01*
X57456602Y-83648546D01*
X57448578Y-83651642D01*
X57436190Y-83649092D01*
X57414156Y-83649682D01*
X57337831Y-83634500D01*
X57337827Y-83634500D01*
X57178173Y-83634500D01*
X57178168Y-83634500D01*
X57021593Y-83665645D01*
X57021581Y-83665648D01*
X56874085Y-83726742D01*
X56874081Y-83726744D01*
X56741340Y-83815439D01*
X56741332Y-83815445D01*
X56628445Y-83928332D01*
X56628439Y-83928340D01*
X56539744Y-84061081D01*
X56539742Y-84061085D01*
X56478648Y-84208581D01*
X56478645Y-84208593D01*
X56447500Y-84365168D01*
X56447500Y-84524830D01*
X56478645Y-84681406D01*
X56478648Y-84681418D01*
X56539742Y-84828914D01*
X56539744Y-84828918D01*
X56628439Y-84961659D01*
X56628445Y-84961667D01*
X56741332Y-85074554D01*
X56741340Y-85074560D01*
X56874081Y-85163255D01*
X56874085Y-85163257D01*
X57010659Y-85219827D01*
X57021586Y-85224353D01*
X57178168Y-85255499D01*
X57178172Y-85255500D01*
X57178173Y-85255500D01*
X57337828Y-85255500D01*
X57337829Y-85255499D01*
X57494414Y-85224353D01*
X57592748Y-85183621D01*
X57641914Y-85163257D01*
X57641918Y-85163255D01*
X57707844Y-85119203D01*
X57774664Y-85074557D01*
X57789053Y-85060168D01*
X60054500Y-85060168D01*
X60054500Y-85219831D01*
X60085645Y-85376406D01*
X60085648Y-85376418D01*
X60146742Y-85523914D01*
X60146744Y-85523918D01*
X60235439Y-85656659D01*
X60235445Y-85656667D01*
X60348332Y-85769554D01*
X60348340Y-85769560D01*
X60486149Y-85861641D01*
X60484670Y-85863854D01*
X60526293Y-85904735D01*
X60542000Y-85965139D01*
X60542000Y-86017331D01*
X60573145Y-86173906D01*
X60573148Y-86173918D01*
X60634242Y-86321414D01*
X60634244Y-86321418D01*
X60722939Y-86454159D01*
X60722945Y-86454167D01*
X60835832Y-86567054D01*
X60835840Y-86567060D01*
X60968581Y-86655755D01*
X60968585Y-86655757D01*
X61116081Y-86716851D01*
X61116086Y-86716853D01*
X61272668Y-86747999D01*
X61272672Y-86748000D01*
X61272673Y-86748000D01*
X61432328Y-86748000D01*
X61432329Y-86747999D01*
X61588914Y-86716853D01*
X61736416Y-86655756D01*
X61736418Y-86655755D01*
X61817757Y-86601406D01*
X61869164Y-86567057D01*
X61982057Y-86454164D01*
X62070756Y-86321416D01*
X62131853Y-86173914D01*
X62160305Y-86030874D01*
X63525208Y-86030874D01*
X63525208Y-86190537D01*
X63556353Y-86347112D01*
X63556356Y-86347124D01*
X63617450Y-86494620D01*
X63617452Y-86494624D01*
X63706147Y-86627365D01*
X63706153Y-86627373D01*
X63819040Y-86740260D01*
X63819048Y-86740266D01*
X63951789Y-86828961D01*
X63951793Y-86828963D01*
X64099289Y-86890057D01*
X64099294Y-86890059D01*
X64255876Y-86921205D01*
X64255880Y-86921206D01*
X64255881Y-86921206D01*
X64415536Y-86921206D01*
X64415537Y-86921205D01*
X64572122Y-86890059D01*
X64719624Y-86828962D01*
X64719626Y-86828961D01*
X64785552Y-86784909D01*
X64852372Y-86740263D01*
X64965265Y-86627370D01*
X65053964Y-86494622D01*
X65115061Y-86347120D01*
X65127384Y-86285168D01*
X92654500Y-86285168D01*
X92654500Y-86444831D01*
X92685645Y-86601406D01*
X92685648Y-86601418D01*
X92746742Y-86748914D01*
X92746744Y-86748918D01*
X92835439Y-86881659D01*
X92835445Y-86881667D01*
X92948332Y-86994554D01*
X92948340Y-86994560D01*
X93081081Y-87083255D01*
X93081085Y-87083257D01*
X93228581Y-87144351D01*
X93228586Y-87144353D01*
X93385168Y-87175499D01*
X93385172Y-87175500D01*
X93385173Y-87175500D01*
X93544828Y-87175500D01*
X93544829Y-87175499D01*
X93701414Y-87144353D01*
X93848916Y-87083256D01*
X93848918Y-87083255D01*
X93914844Y-87039203D01*
X93981664Y-86994557D01*
X94094557Y-86881664D01*
X94183256Y-86748916D01*
X94183636Y-86748000D01*
X94203621Y-86699748D01*
X94244353Y-86601414D01*
X94275500Y-86444827D01*
X94275500Y-86285173D01*
X94244353Y-86128586D01*
X94203882Y-86030879D01*
X94183257Y-85981085D01*
X94183255Y-85981081D01*
X94094560Y-85848340D01*
X94094554Y-85848332D01*
X93981667Y-85735445D01*
X93981659Y-85735439D01*
X93848918Y-85646744D01*
X93848914Y-85646742D01*
X93701418Y-85585648D01*
X93701406Y-85585645D01*
X93544831Y-85554500D01*
X93544827Y-85554500D01*
X93385173Y-85554500D01*
X93385168Y-85554500D01*
X93228593Y-85585645D01*
X93228581Y-85585648D01*
X93081085Y-85646742D01*
X93081081Y-85646744D01*
X92948340Y-85735439D01*
X92948332Y-85735445D01*
X92835445Y-85848332D01*
X92835439Y-85848340D01*
X92746744Y-85981081D01*
X92746742Y-85981085D01*
X92685648Y-86128581D01*
X92685645Y-86128593D01*
X92654500Y-86285168D01*
X65127384Y-86285168D01*
X65146208Y-86190533D01*
X65146208Y-86030879D01*
X65115061Y-85874292D01*
X65115059Y-85874287D01*
X65053965Y-85726791D01*
X65053963Y-85726788D01*
X64999306Y-85644987D01*
X64978428Y-85578310D01*
X64996913Y-85510930D01*
X65033518Y-85472994D01*
X65062693Y-85453500D01*
X65077845Y-85443376D01*
X65190738Y-85330483D01*
X65240840Y-85255500D01*
X65279436Y-85197737D01*
X65279438Y-85197733D01*
X65330457Y-85074560D01*
X65340534Y-85050233D01*
X65371681Y-84893646D01*
X65371681Y-84733992D01*
X65340534Y-84577405D01*
X65330195Y-84552445D01*
X65279438Y-84429904D01*
X65279436Y-84429900D01*
X65190741Y-84297159D01*
X65190735Y-84297151D01*
X65077848Y-84184264D01*
X65077840Y-84184258D01*
X64945099Y-84095563D01*
X64945095Y-84095561D01*
X64797599Y-84034467D01*
X64797587Y-84034464D01*
X64641012Y-84003319D01*
X64641008Y-84003319D01*
X64481354Y-84003319D01*
X64481349Y-84003319D01*
X64324774Y-84034464D01*
X64324762Y-84034467D01*
X64177266Y-84095561D01*
X64177262Y-84095563D01*
X64044521Y-84184258D01*
X64044513Y-84184264D01*
X63931626Y-84297151D01*
X63931620Y-84297159D01*
X63842925Y-84429900D01*
X63842923Y-84429904D01*
X63781829Y-84577400D01*
X63781826Y-84577412D01*
X63750681Y-84733987D01*
X63750681Y-84893650D01*
X63781826Y-85050225D01*
X63781829Y-85050237D01*
X63841382Y-85194011D01*
X63842925Y-85197735D01*
X63857689Y-85219831D01*
X63897583Y-85279538D01*
X63918460Y-85346216D01*
X63899975Y-85413596D01*
X63863371Y-85451530D01*
X63819044Y-85481148D01*
X63819040Y-85481151D01*
X63706153Y-85594038D01*
X63706147Y-85594046D01*
X63617452Y-85726787D01*
X63617450Y-85726791D01*
X63556356Y-85874287D01*
X63556353Y-85874299D01*
X63525208Y-86030874D01*
X62160305Y-86030874D01*
X62163000Y-86017327D01*
X62163000Y-85857673D01*
X62131853Y-85701086D01*
X62087516Y-85594046D01*
X62070757Y-85553585D01*
X62070755Y-85553581D01*
X61982060Y-85420840D01*
X61982054Y-85420832D01*
X61869167Y-85307945D01*
X61869163Y-85307942D01*
X61731351Y-85215859D01*
X61732824Y-85213654D01*
X61691178Y-85172711D01*
X61675500Y-85112360D01*
X61675500Y-85060172D01*
X61675499Y-85060168D01*
X61655904Y-84961659D01*
X61644353Y-84903586D01*
X61644351Y-84903581D01*
X61583257Y-84756085D01*
X61583255Y-84756081D01*
X61494560Y-84623340D01*
X61494554Y-84623332D01*
X61381667Y-84510445D01*
X61381659Y-84510439D01*
X61248918Y-84421744D01*
X61248914Y-84421742D01*
X61101418Y-84360648D01*
X61101406Y-84360645D01*
X60944831Y-84329500D01*
X60944827Y-84329500D01*
X60785173Y-84329500D01*
X60785168Y-84329500D01*
X60628593Y-84360645D01*
X60628581Y-84360648D01*
X60481085Y-84421742D01*
X60481081Y-84421744D01*
X60348340Y-84510439D01*
X60348332Y-84510445D01*
X60235445Y-84623332D01*
X60235439Y-84623340D01*
X60146744Y-84756081D01*
X60146742Y-84756085D01*
X60085648Y-84903581D01*
X60085645Y-84903593D01*
X60054500Y-85060168D01*
X57789053Y-85060168D01*
X57822307Y-85026914D01*
X57882822Y-84966400D01*
X57887554Y-84961667D01*
X57887557Y-84961664D01*
X57941789Y-84880500D01*
X57976255Y-84828918D01*
X57976257Y-84828914D01*
X58006425Y-84756081D01*
X58037353Y-84681414D01*
X58062656Y-84554207D01*
X58068500Y-84524830D01*
X58068500Y-84365172D01*
X58068499Y-84365168D01*
X58056812Y-84306414D01*
X58037353Y-84208586D01*
X58037093Y-84207960D01*
X58037055Y-84207607D01*
X58035585Y-84202759D01*
X58036504Y-84202480D01*
X58029621Y-84138493D01*
X58060892Y-84076012D01*
X58120979Y-84040356D01*
X58175842Y-84038885D01*
X58252171Y-84054067D01*
X58252172Y-84054068D01*
X58252173Y-84054068D01*
X58411828Y-84054068D01*
X58411829Y-84054067D01*
X58568414Y-84022921D01*
X58671731Y-83980126D01*
X58715914Y-83961825D01*
X58715918Y-83961823D01*
X58820987Y-83891618D01*
X58848664Y-83873125D01*
X58961557Y-83760232D01*
X59024756Y-83665648D01*
X59025940Y-83663876D01*
X66161500Y-83663876D01*
X66161500Y-83823539D01*
X66192645Y-83980114D01*
X66192648Y-83980126D01*
X66253742Y-84127622D01*
X66253744Y-84127626D01*
X66342439Y-84260367D01*
X66342445Y-84260375D01*
X66455332Y-84373262D01*
X66455340Y-84373268D01*
X66588081Y-84461963D01*
X66588085Y-84461965D01*
X66705123Y-84510443D01*
X66735586Y-84523061D01*
X66829789Y-84541799D01*
X66892168Y-84554207D01*
X66892172Y-84554208D01*
X66892173Y-84554208D01*
X67051828Y-84554208D01*
X67051828Y-84554207D01*
X67114210Y-84541799D01*
X67183801Y-84548026D01*
X67238979Y-84590888D01*
X67262224Y-84656778D01*
X67262402Y-84663416D01*
X67262402Y-84722831D01*
X67293547Y-84879406D01*
X67293550Y-84879418D01*
X67354644Y-85026914D01*
X67354646Y-85026918D01*
X67443341Y-85159659D01*
X67443347Y-85159667D01*
X67556234Y-85272554D01*
X67556242Y-85272560D01*
X67688983Y-85361255D01*
X67688987Y-85361257D01*
X67832835Y-85420840D01*
X67836488Y-85422353D01*
X67983171Y-85451530D01*
X67993070Y-85453499D01*
X67993074Y-85453500D01*
X67993075Y-85453500D01*
X68152730Y-85453500D01*
X68152731Y-85453499D01*
X68309316Y-85422353D01*
X68411066Y-85380207D01*
X68440547Y-85367996D01*
X68510016Y-85360527D01*
X68572495Y-85391802D01*
X68602560Y-85435104D01*
X68656744Y-85565918D01*
X68745439Y-85698659D01*
X68745445Y-85698667D01*
X68858332Y-85811554D01*
X68858340Y-85811560D01*
X68991081Y-85900255D01*
X68991085Y-85900257D01*
X69138581Y-85961351D01*
X69138586Y-85961353D01*
X69237766Y-85981081D01*
X69295168Y-85992499D01*
X69295172Y-85992500D01*
X69295173Y-85992500D01*
X69454828Y-85992500D01*
X69454829Y-85992499D01*
X69611414Y-85961353D01*
X69758916Y-85900256D01*
X69758918Y-85900255D01*
X69836626Y-85848332D01*
X69891664Y-85811557D01*
X70004557Y-85698664D01*
X70093256Y-85565916D01*
X70154353Y-85418414D01*
X70185500Y-85261827D01*
X70185500Y-85102173D01*
X70154353Y-84945586D01*
X70132841Y-84893650D01*
X70093257Y-84798085D01*
X70093255Y-84798081D01*
X70004560Y-84665340D01*
X70004554Y-84665332D01*
X69891667Y-84552445D01*
X69891659Y-84552439D01*
X69758918Y-84463744D01*
X69758914Y-84463742D01*
X69611413Y-84402646D01*
X69605613Y-84400887D01*
X69547175Y-84362590D01*
X69518718Y-84298777D01*
X69529279Y-84229710D01*
X69538503Y-84213342D01*
X69598256Y-84123916D01*
X69653656Y-83990168D01*
X72664500Y-83990168D01*
X72664500Y-84149831D01*
X72695645Y-84306406D01*
X72695648Y-84306418D01*
X72756742Y-84453914D01*
X72756744Y-84453918D01*
X72845439Y-84586659D01*
X72845445Y-84586667D01*
X72958332Y-84699554D01*
X72958340Y-84699560D01*
X73091081Y-84788255D01*
X73091085Y-84788257D01*
X73189246Y-84828916D01*
X73238586Y-84849353D01*
X73389673Y-84879406D01*
X73395168Y-84880499D01*
X73395172Y-84880500D01*
X73395173Y-84880500D01*
X73554828Y-84880500D01*
X73554829Y-84880499D01*
X73711414Y-84849353D01*
X73858916Y-84788256D01*
X73858918Y-84788255D01*
X73956838Y-84722827D01*
X73991664Y-84699557D01*
X74104557Y-84586664D01*
X74165745Y-84495089D01*
X74193255Y-84453918D01*
X74193257Y-84453914D01*
X74220453Y-84388256D01*
X74254353Y-84306414D01*
X74285500Y-84149827D01*
X74285500Y-83990173D01*
X74254353Y-83833586D01*
X74241830Y-83803353D01*
X74193257Y-83686086D01*
X74175942Y-83660172D01*
X74129167Y-83590168D01*
X82439500Y-83590168D01*
X82439500Y-83749831D01*
X82470645Y-83906406D01*
X82470648Y-83906418D01*
X82531742Y-84053914D01*
X82531744Y-84053918D01*
X82620439Y-84186659D01*
X82620445Y-84186667D01*
X82733332Y-84299554D01*
X82733340Y-84299560D01*
X82866081Y-84388255D01*
X82866085Y-84388257D01*
X83013581Y-84449351D01*
X83013586Y-84449353D01*
X83170168Y-84480499D01*
X83170172Y-84480500D01*
X83170173Y-84480500D01*
X83329828Y-84480500D01*
X83329829Y-84480499D01*
X83486414Y-84449353D01*
X83603422Y-84400887D01*
X83633914Y-84388257D01*
X83633918Y-84388255D01*
X83721851Y-84329500D01*
X83766664Y-84299557D01*
X83879557Y-84186664D01*
X83924203Y-84119844D01*
X83968255Y-84053918D01*
X83968257Y-84053914D01*
X83998826Y-83980114D01*
X84029353Y-83906414D01*
X84060500Y-83749827D01*
X84060500Y-83595168D01*
X88374500Y-83595168D01*
X88374500Y-83754831D01*
X88405645Y-83911406D01*
X88405648Y-83911418D01*
X88466742Y-84058914D01*
X88466744Y-84058918D01*
X88555439Y-84191659D01*
X88555445Y-84191667D01*
X88668332Y-84304554D01*
X88668340Y-84304560D01*
X88801081Y-84393255D01*
X88801085Y-84393257D01*
X88936510Y-84449351D01*
X88948586Y-84454353D01*
X89105168Y-84485499D01*
X89105172Y-84485500D01*
X89105173Y-84485500D01*
X89264828Y-84485500D01*
X89264829Y-84485499D01*
X89421414Y-84454353D01*
X89546244Y-84402647D01*
X89568914Y-84393257D01*
X89568918Y-84393255D01*
X89664334Y-84329500D01*
X89701664Y-84304557D01*
X89814557Y-84191664D01*
X89859827Y-84123913D01*
X89903255Y-84058918D01*
X89903257Y-84058914D01*
X89931730Y-83990173D01*
X89964353Y-83911414D01*
X89995500Y-83754827D01*
X89995500Y-83595173D01*
X89964353Y-83438586D01*
X89952259Y-83409388D01*
X89903257Y-83291085D01*
X89903255Y-83291081D01*
X89814560Y-83158340D01*
X89814554Y-83158332D01*
X89701667Y-83045445D01*
X89701659Y-83045439D01*
X89568918Y-82956744D01*
X89568914Y-82956742D01*
X89421418Y-82895648D01*
X89421406Y-82895645D01*
X89264831Y-82864500D01*
X89264827Y-82864500D01*
X89105173Y-82864500D01*
X89105168Y-82864500D01*
X88948593Y-82895645D01*
X88948581Y-82895648D01*
X88801085Y-82956742D01*
X88801081Y-82956744D01*
X88668340Y-83045439D01*
X88668332Y-83045445D01*
X88555445Y-83158332D01*
X88555439Y-83158340D01*
X88466744Y-83291081D01*
X88466742Y-83291085D01*
X88405648Y-83438581D01*
X88405645Y-83438593D01*
X88374500Y-83595168D01*
X84060500Y-83595168D01*
X84060500Y-83590173D01*
X84029353Y-83433586D01*
X84019330Y-83409388D01*
X83968257Y-83286085D01*
X83968255Y-83286081D01*
X83879560Y-83153340D01*
X83879554Y-83153332D01*
X83766667Y-83040445D01*
X83766659Y-83040439D01*
X83633918Y-82951744D01*
X83633914Y-82951742D01*
X83486418Y-82890648D01*
X83486406Y-82890645D01*
X83329831Y-82859500D01*
X83329827Y-82859500D01*
X83170173Y-82859500D01*
X83170168Y-82859500D01*
X83013593Y-82890645D01*
X83013581Y-82890648D01*
X82866085Y-82951742D01*
X82866081Y-82951744D01*
X82733340Y-83040439D01*
X82733332Y-83040445D01*
X82620445Y-83153332D01*
X82620439Y-83153340D01*
X82531744Y-83286081D01*
X82531742Y-83286085D01*
X82470648Y-83433581D01*
X82470645Y-83433593D01*
X82439500Y-83590168D01*
X74129167Y-83590168D01*
X74104557Y-83553336D01*
X74104555Y-83553333D01*
X73991667Y-83440445D01*
X73991659Y-83440439D01*
X73858918Y-83351744D01*
X73858914Y-83351742D01*
X73711418Y-83290648D01*
X73711406Y-83290645D01*
X73554831Y-83259500D01*
X73554827Y-83259500D01*
X73395173Y-83259500D01*
X73395168Y-83259500D01*
X73238593Y-83290645D01*
X73238581Y-83290648D01*
X73091085Y-83351742D01*
X73091081Y-83351744D01*
X72958340Y-83440439D01*
X72958332Y-83440445D01*
X72845445Y-83553332D01*
X72845439Y-83553340D01*
X72756744Y-83686081D01*
X72756742Y-83686085D01*
X72695648Y-83833581D01*
X72695645Y-83833593D01*
X72664500Y-83990168D01*
X69653656Y-83990168D01*
X69659353Y-83976414D01*
X69690500Y-83819827D01*
X69690500Y-83660173D01*
X69659353Y-83503586D01*
X69649573Y-83479974D01*
X69598257Y-83356085D01*
X69598255Y-83356081D01*
X69509560Y-83223340D01*
X69509554Y-83223332D01*
X69396667Y-83110445D01*
X69396659Y-83110439D01*
X69263918Y-83021744D01*
X69263914Y-83021742D01*
X69116418Y-82960648D01*
X69116406Y-82960645D01*
X68959831Y-82929500D01*
X68959827Y-82929500D01*
X68800173Y-82929500D01*
X68800168Y-82929500D01*
X68643593Y-82960645D01*
X68643581Y-82960648D01*
X68496085Y-83021742D01*
X68496081Y-83021744D01*
X68363340Y-83110439D01*
X68363332Y-83110445D01*
X68250445Y-83223332D01*
X68250439Y-83223340D01*
X68161744Y-83356081D01*
X68161742Y-83356085D01*
X68100648Y-83503581D01*
X68100645Y-83503593D01*
X68069500Y-83660168D01*
X68069500Y-83715533D01*
X68060557Y-83745988D01*
X68053255Y-83776892D01*
X68050782Y-83779278D01*
X68049815Y-83782572D01*
X68025832Y-83803353D01*
X68002976Y-83825408D01*
X67998596Y-83826952D01*
X67997011Y-83828327D01*
X67969692Y-83837150D01*
X67930692Y-83844908D01*
X67861101Y-83838681D01*
X67805923Y-83795819D01*
X67782678Y-83729929D01*
X67782500Y-83723291D01*
X67782500Y-83663878D01*
X67782499Y-83663876D01*
X67780330Y-83652971D01*
X67751353Y-83507294D01*
X67740037Y-83479974D01*
X67690257Y-83359793D01*
X67690255Y-83359789D01*
X67601560Y-83227048D01*
X67601554Y-83227040D01*
X67488667Y-83114153D01*
X67488659Y-83114147D01*
X67355918Y-83025452D01*
X67355914Y-83025450D01*
X67208418Y-82964356D01*
X67208406Y-82964353D01*
X67051831Y-82933208D01*
X67051827Y-82933208D01*
X66892173Y-82933208D01*
X66892168Y-82933208D01*
X66735593Y-82964353D01*
X66735581Y-82964356D01*
X66588085Y-83025450D01*
X66588081Y-83025452D01*
X66455340Y-83114147D01*
X66455332Y-83114153D01*
X66342445Y-83227040D01*
X66342439Y-83227048D01*
X66253744Y-83359789D01*
X66253742Y-83359793D01*
X66192648Y-83507289D01*
X66192645Y-83507301D01*
X66161500Y-83663876D01*
X59025940Y-83663876D01*
X59050255Y-83627486D01*
X59050257Y-83627482D01*
X59057359Y-83610337D01*
X59111351Y-83479986D01*
X59111353Y-83479982D01*
X59142500Y-83323395D01*
X59142500Y-83163741D01*
X59111353Y-83007154D01*
X59093625Y-82964355D01*
X59050257Y-82859653D01*
X59050255Y-82859649D01*
X58961560Y-82726908D01*
X58961554Y-82726900D01*
X58848667Y-82614013D01*
X58848659Y-82614007D01*
X58715918Y-82525312D01*
X58715914Y-82525310D01*
X58568418Y-82464216D01*
X58568406Y-82464213D01*
X58411831Y-82433068D01*
X58411827Y-82433068D01*
X58252173Y-82433068D01*
X58223450Y-82438781D01*
X58134198Y-82456534D01*
X58064607Y-82450305D01*
X58009430Y-82407442D01*
X57988392Y-82359110D01*
X57976353Y-82298586D01*
X57915256Y-82151084D01*
X57847826Y-82050168D01*
X73681500Y-82050168D01*
X73681500Y-82209831D01*
X73712645Y-82366406D01*
X73712648Y-82366418D01*
X73773742Y-82513914D01*
X73773744Y-82513918D01*
X73862439Y-82646659D01*
X73862445Y-82646667D01*
X73975332Y-82759554D01*
X73975340Y-82759560D01*
X74108081Y-82848255D01*
X74108085Y-82848257D01*
X74222499Y-82895648D01*
X74255586Y-82909353D01*
X74375514Y-82933208D01*
X74412168Y-82940499D01*
X74412172Y-82940500D01*
X74412173Y-82940500D01*
X74571828Y-82940500D01*
X74571829Y-82940499D01*
X74728414Y-82909353D01*
X74848401Y-82859653D01*
X74875914Y-82848257D01*
X74875918Y-82848255D01*
X74941844Y-82804203D01*
X75008664Y-82759557D01*
X75121557Y-82646664D01*
X75166203Y-82579844D01*
X75210255Y-82513918D01*
X75210257Y-82513914D01*
X75271351Y-82366418D01*
X75271353Y-82366414D01*
X75302500Y-82209827D01*
X75302500Y-82050173D01*
X75271353Y-81893586D01*
X75271351Y-81893581D01*
X75210257Y-81746085D01*
X75210255Y-81746081D01*
X75121560Y-81613340D01*
X75121554Y-81613332D01*
X75008667Y-81500445D01*
X75008659Y-81500439D01*
X74875918Y-81411744D01*
X74875914Y-81411742D01*
X74728418Y-81350648D01*
X74728406Y-81350645D01*
X74571831Y-81319500D01*
X74571827Y-81319500D01*
X74412173Y-81319500D01*
X74412168Y-81319500D01*
X74255593Y-81350645D01*
X74255581Y-81350648D01*
X74108085Y-81411742D01*
X74108081Y-81411744D01*
X73975340Y-81500439D01*
X73975332Y-81500445D01*
X73862445Y-81613332D01*
X73862439Y-81613340D01*
X73773744Y-81746081D01*
X73773742Y-81746085D01*
X73712648Y-81893581D01*
X73712645Y-81893593D01*
X73681500Y-82050168D01*
X57847826Y-82050168D01*
X57826557Y-82018336D01*
X57826554Y-82018332D01*
X57713667Y-81905445D01*
X57713659Y-81905439D01*
X57580918Y-81816744D01*
X57580914Y-81816742D01*
X57433418Y-81755648D01*
X57433406Y-81755645D01*
X57276831Y-81724500D01*
X57276827Y-81724500D01*
X57117173Y-81724500D01*
X57117168Y-81724500D01*
X56960593Y-81755645D01*
X56960581Y-81755648D01*
X56813085Y-81816742D01*
X56813081Y-81816744D01*
X56680340Y-81905439D01*
X56680332Y-81905445D01*
X56567445Y-82018332D01*
X56567439Y-82018340D01*
X56478744Y-82151081D01*
X56478742Y-82151085D01*
X56417648Y-82298581D01*
X56417645Y-82298593D01*
X56386500Y-82455168D01*
X50200500Y-82455168D01*
X50200500Y-80061961D01*
X56566293Y-80061961D01*
X56566293Y-80221624D01*
X56597438Y-80378199D01*
X56597441Y-80378211D01*
X56658535Y-80525707D01*
X56658537Y-80525711D01*
X56747232Y-80658452D01*
X56747238Y-80658460D01*
X56860125Y-80771347D01*
X56860133Y-80771353D01*
X56992874Y-80860048D01*
X56992878Y-80860050D01*
X57140374Y-80921144D01*
X57140379Y-80921146D01*
X57296961Y-80952292D01*
X57296965Y-80952293D01*
X57296966Y-80952293D01*
X57456621Y-80952293D01*
X57456622Y-80952292D01*
X57613207Y-80921146D01*
X57760709Y-80860049D01*
X57760711Y-80860048D01*
X57826637Y-80815996D01*
X57893457Y-80771350D01*
X58006350Y-80658457D01*
X58095049Y-80525709D01*
X58156146Y-80378207D01*
X58187293Y-80221620D01*
X58187293Y-80061966D01*
X58156146Y-79905379D01*
X58156144Y-79905374D01*
X58095050Y-79757878D01*
X58095048Y-79757874D01*
X58006353Y-79625133D01*
X58006347Y-79625125D01*
X57893460Y-79512238D01*
X57893452Y-79512232D01*
X57760711Y-79423537D01*
X57760707Y-79423535D01*
X57613211Y-79362441D01*
X57613199Y-79362438D01*
X57456624Y-79331293D01*
X57456620Y-79331293D01*
X57296966Y-79331293D01*
X57296961Y-79331293D01*
X57140386Y-79362438D01*
X57140374Y-79362441D01*
X56992878Y-79423535D01*
X56992874Y-79423537D01*
X56860133Y-79512232D01*
X56860125Y-79512238D01*
X56747238Y-79625125D01*
X56747232Y-79625133D01*
X56658537Y-79757874D01*
X56658535Y-79757878D01*
X56597441Y-79905374D01*
X56597438Y-79905386D01*
X56566293Y-80061961D01*
X50200500Y-80061961D01*
X50200500Y-77130168D01*
X50519500Y-77130168D01*
X50519500Y-77289831D01*
X50550645Y-77446406D01*
X50550648Y-77446418D01*
X50611742Y-77593914D01*
X50611744Y-77593918D01*
X50700439Y-77726659D01*
X50700445Y-77726667D01*
X50813332Y-77839554D01*
X50813340Y-77839560D01*
X50946081Y-77928255D01*
X50946085Y-77928257D01*
X51091121Y-77988332D01*
X51093586Y-77989353D01*
X51250168Y-78020499D01*
X51250172Y-78020500D01*
X51250173Y-78020500D01*
X51409828Y-78020500D01*
X51409829Y-78020499D01*
X51566414Y-77989353D01*
X51713916Y-77928256D01*
X51713918Y-77928255D01*
X51786795Y-77879560D01*
X51846664Y-77839557D01*
X51959557Y-77726664D01*
X52008823Y-77652932D01*
X59146736Y-77652932D01*
X59146736Y-77812595D01*
X59177881Y-77969170D01*
X59177884Y-77969182D01*
X59238978Y-78116678D01*
X59238980Y-78116682D01*
X59327675Y-78249423D01*
X59327681Y-78249431D01*
X59440568Y-78362318D01*
X59440576Y-78362324D01*
X59573317Y-78451019D01*
X59573321Y-78451021D01*
X59720817Y-78512115D01*
X59720822Y-78512117D01*
X59877404Y-78543263D01*
X59877408Y-78543264D01*
X59877409Y-78543264D01*
X60037064Y-78543264D01*
X60037065Y-78543263D01*
X60193650Y-78512117D01*
X60341152Y-78451020D01*
X60341154Y-78451019D01*
X60407080Y-78406967D01*
X60473900Y-78362321D01*
X60586793Y-78249428D01*
X60672549Y-78121085D01*
X60675491Y-78116682D01*
X60675493Y-78116678D01*
X60728652Y-77988340D01*
X60736589Y-77969178D01*
X60767736Y-77812591D01*
X60767736Y-77652937D01*
X60736589Y-77496350D01*
X60732923Y-77487499D01*
X60675493Y-77348849D01*
X60675491Y-77348845D01*
X60586796Y-77216104D01*
X60586790Y-77216096D01*
X60473903Y-77103209D01*
X60473895Y-77103203D01*
X60341154Y-77014508D01*
X60341150Y-77014506D01*
X60193654Y-76953412D01*
X60193642Y-76953409D01*
X60037067Y-76922264D01*
X60037063Y-76922264D01*
X59877409Y-76922264D01*
X59877404Y-76922264D01*
X59720829Y-76953409D01*
X59720817Y-76953412D01*
X59573321Y-77014506D01*
X59573317Y-77014508D01*
X59440576Y-77103203D01*
X59440568Y-77103209D01*
X59327681Y-77216096D01*
X59327675Y-77216104D01*
X59238980Y-77348845D01*
X59238978Y-77348849D01*
X59177884Y-77496345D01*
X59177881Y-77496357D01*
X59146736Y-77652932D01*
X52008823Y-77652932D01*
X52021530Y-77633914D01*
X52048255Y-77593918D01*
X52048257Y-77593914D01*
X52092335Y-77487499D01*
X52109353Y-77446414D01*
X52140500Y-77289827D01*
X52140500Y-77130173D01*
X52109353Y-76973586D01*
X52100996Y-76953411D01*
X52048257Y-76826085D01*
X52048255Y-76826081D01*
X51959560Y-76693340D01*
X51959554Y-76693332D01*
X51846667Y-76580445D01*
X51846659Y-76580439D01*
X51713918Y-76491744D01*
X51713914Y-76491742D01*
X51566418Y-76430648D01*
X51566406Y-76430645D01*
X51484632Y-76414379D01*
X51409831Y-76399500D01*
X51409827Y-76399500D01*
X51250173Y-76399500D01*
X51250168Y-76399500D01*
X51093593Y-76430645D01*
X51093581Y-76430648D01*
X50946085Y-76491742D01*
X50946081Y-76491744D01*
X50813340Y-76580439D01*
X50813332Y-76580445D01*
X50700445Y-76693332D01*
X50700439Y-76693340D01*
X50611744Y-76826081D01*
X50611742Y-76826085D01*
X50550648Y-76973581D01*
X50550645Y-76973593D01*
X50519500Y-77130168D01*
X50200500Y-77130168D01*
X50200500Y-76298849D01*
X60850819Y-76298849D01*
X60850819Y-76458512D01*
X60881964Y-76615087D01*
X60881967Y-76615099D01*
X60943061Y-76762595D01*
X60943063Y-76762599D01*
X61031758Y-76895340D01*
X61031764Y-76895348D01*
X61144651Y-77008235D01*
X61144659Y-77008241D01*
X61277400Y-77096936D01*
X61277404Y-77096938D01*
X61424900Y-77158032D01*
X61424905Y-77158034D01*
X61581487Y-77189180D01*
X61581491Y-77189181D01*
X61581492Y-77189181D01*
X61741147Y-77189181D01*
X61741148Y-77189180D01*
X61897733Y-77158034D01*
X62030098Y-77103207D01*
X62045233Y-77096938D01*
X62045237Y-77096936D01*
X62168602Y-77014506D01*
X62177983Y-77008238D01*
X62290876Y-76895345D01*
X62379575Y-76762597D01*
X62380836Y-76759554D01*
X62420208Y-76664500D01*
X62440672Y-76615095D01*
X62471819Y-76458508D01*
X62471819Y-76298854D01*
X62440672Y-76142267D01*
X62410553Y-76069552D01*
X62379576Y-75994766D01*
X62379574Y-75994762D01*
X62290879Y-75862021D01*
X62290873Y-75862013D01*
X62177986Y-75749126D01*
X62177978Y-75749120D01*
X62045237Y-75660425D01*
X62045233Y-75660423D01*
X61897737Y-75599329D01*
X61897725Y-75599326D01*
X61741150Y-75568181D01*
X61741146Y-75568181D01*
X61581492Y-75568181D01*
X61581487Y-75568181D01*
X61424912Y-75599326D01*
X61424900Y-75599329D01*
X61277404Y-75660423D01*
X61277400Y-75660425D01*
X61144659Y-75749120D01*
X61144651Y-75749126D01*
X61031764Y-75862013D01*
X61031758Y-75862021D01*
X60943063Y-75994762D01*
X60943061Y-75994766D01*
X60881967Y-76142262D01*
X60881964Y-76142274D01*
X60850819Y-76298849D01*
X50200500Y-76298849D01*
X50200500Y-75165168D01*
X66119500Y-75165168D01*
X66119500Y-75324831D01*
X66150645Y-75481406D01*
X66150648Y-75481418D01*
X66211742Y-75628914D01*
X66211744Y-75628918D01*
X66300439Y-75761659D01*
X66300445Y-75761667D01*
X66413332Y-75874554D01*
X66413340Y-75874560D01*
X66546081Y-75963255D01*
X66546085Y-75963257D01*
X66693581Y-76024351D01*
X66693586Y-76024353D01*
X66833286Y-76052141D01*
X66850168Y-76055499D01*
X66850172Y-76055500D01*
X66850173Y-76055500D01*
X67009828Y-76055500D01*
X67009828Y-76055499D01*
X67026713Y-76052141D01*
X67044874Y-76053765D01*
X67062787Y-76050327D01*
X67078956Y-76056814D01*
X67096304Y-76058366D01*
X67110705Y-76069552D01*
X67127633Y-76076344D01*
X67137727Y-76090542D01*
X67151483Y-76101227D01*
X67157550Y-76118424D01*
X67168118Y-76133288D01*
X67168933Y-76150687D01*
X67174730Y-76167115D01*
X67170536Y-76184862D01*
X67171391Y-76203081D01*
X67160227Y-76228494D01*
X67158664Y-76235113D01*
X67158249Y-76235837D01*
X67156231Y-76239325D01*
X67120312Y-76293083D01*
X67108125Y-76322504D01*
X67104033Y-76329580D01*
X67084410Y-76348261D01*
X67067412Y-76369356D01*
X67059483Y-76371995D01*
X67053430Y-76377758D01*
X67026822Y-76382865D01*
X67001118Y-76391421D01*
X66996692Y-76391500D01*
X66865168Y-76391500D01*
X66708593Y-76422645D01*
X66708581Y-76422648D01*
X66561085Y-76483742D01*
X66561081Y-76483744D01*
X66428340Y-76572439D01*
X66428332Y-76572445D01*
X66315445Y-76685332D01*
X66315439Y-76685340D01*
X66226744Y-76818081D01*
X66226742Y-76818085D01*
X66165648Y-76965581D01*
X66165645Y-76965593D01*
X66134500Y-77122168D01*
X66134500Y-77281831D01*
X66165645Y-77438406D01*
X66165648Y-77438418D01*
X66226742Y-77585914D01*
X66226744Y-77585918D01*
X66315439Y-77718659D01*
X66315445Y-77718667D01*
X66376097Y-77779319D01*
X66409582Y-77840642D01*
X66404598Y-77910334D01*
X66376097Y-77954681D01*
X66342445Y-77988332D01*
X66342439Y-77988340D01*
X66253744Y-78121081D01*
X66253742Y-78121085D01*
X66192648Y-78268581D01*
X66192645Y-78268593D01*
X66161500Y-78425168D01*
X66161500Y-78584831D01*
X66192645Y-78741406D01*
X66192648Y-78741418D01*
X66253742Y-78888914D01*
X66253744Y-78888918D01*
X66342439Y-79021659D01*
X66342445Y-79021667D01*
X66455332Y-79134554D01*
X66455340Y-79134560D01*
X66588081Y-79223255D01*
X66588085Y-79223257D01*
X66735581Y-79284351D01*
X66735586Y-79284353D01*
X66892168Y-79315499D01*
X66892172Y-79315500D01*
X66892173Y-79315500D01*
X67051828Y-79315500D01*
X67051829Y-79315499D01*
X67208414Y-79284353D01*
X67355916Y-79223256D01*
X67355918Y-79223255D01*
X67421844Y-79179203D01*
X67488664Y-79134557D01*
X67601557Y-79021664D01*
X67690256Y-78888916D01*
X67694132Y-78879560D01*
X67751351Y-78741418D01*
X67751353Y-78741414D01*
X67782500Y-78584827D01*
X67782500Y-78425173D01*
X67751353Y-78268586D01*
X67743418Y-78249428D01*
X67690257Y-78121085D01*
X67690255Y-78121081D01*
X67601560Y-77988340D01*
X67601554Y-77988332D01*
X67540903Y-77927681D01*
X67507418Y-77866358D01*
X67512402Y-77796666D01*
X67540903Y-77752319D01*
X67574554Y-77718667D01*
X67574557Y-77718664D01*
X67663256Y-77585916D01*
X67672314Y-77564045D01*
X67716153Y-77509644D01*
X67782447Y-77487578D01*
X67786875Y-77487499D01*
X67918396Y-77487499D01*
X67918397Y-77487498D01*
X68074982Y-77456352D01*
X68222484Y-77395255D01*
X68222486Y-77395254D01*
X68320404Y-77329827D01*
X68355232Y-77306556D01*
X68468125Y-77193663D01*
X68483824Y-77170168D01*
X71819500Y-77170168D01*
X71819500Y-77329831D01*
X71850645Y-77486406D01*
X71850648Y-77486418D01*
X71911742Y-77633914D01*
X71911744Y-77633918D01*
X72000439Y-77766659D01*
X72000445Y-77766667D01*
X72113332Y-77879554D01*
X72113340Y-77879560D01*
X72246081Y-77968255D01*
X72246085Y-77968257D01*
X72372210Y-78020499D01*
X72393586Y-78029353D01*
X72547524Y-78059973D01*
X72550168Y-78060499D01*
X72550172Y-78060500D01*
X72550173Y-78060500D01*
X72709828Y-78060500D01*
X72709829Y-78060499D01*
X72866414Y-78029353D01*
X72965448Y-77988332D01*
X73013914Y-77968257D01*
X73013918Y-77968255D01*
X73100603Y-77910334D01*
X73146664Y-77879557D01*
X73259557Y-77766664D01*
X73335547Y-77652937D01*
X73348255Y-77633918D01*
X73348257Y-77633914D01*
X73381015Y-77554829D01*
X73409353Y-77486414D01*
X73423159Y-77417003D01*
X73427503Y-77395168D01*
X87534500Y-77395168D01*
X87534500Y-77554831D01*
X87565645Y-77711406D01*
X87565648Y-77711418D01*
X87626742Y-77858914D01*
X87626744Y-77858918D01*
X87715439Y-77991659D01*
X87715445Y-77991667D01*
X87722428Y-77998650D01*
X87755913Y-78059973D01*
X87756365Y-78110521D01*
X87744500Y-78170174D01*
X87744500Y-78329831D01*
X87775645Y-78486406D01*
X87775648Y-78486418D01*
X87836742Y-78633914D01*
X87836744Y-78633918D01*
X87925439Y-78766659D01*
X87925445Y-78766667D01*
X88038332Y-78879554D01*
X88038340Y-78879560D01*
X88171081Y-78968255D01*
X88171085Y-78968257D01*
X88300011Y-79021659D01*
X88318586Y-79029353D01*
X88475168Y-79060499D01*
X88475172Y-79060500D01*
X88475173Y-79060500D01*
X88634828Y-79060500D01*
X88634829Y-79060499D01*
X88791414Y-79029353D01*
X88938916Y-78968256D01*
X88938918Y-78968255D01*
X89057660Y-78888914D01*
X89071664Y-78879557D01*
X89184557Y-78766664D01*
X89273256Y-78633916D01*
X89334353Y-78486414D01*
X89365500Y-78329827D01*
X89365500Y-78170173D01*
X89334353Y-78013586D01*
X89324316Y-77989354D01*
X89273257Y-77866085D01*
X89273255Y-77866081D01*
X89184560Y-77733340D01*
X89184554Y-77733332D01*
X89177571Y-77726349D01*
X89144086Y-77665026D01*
X89143635Y-77614476D01*
X89155500Y-77554829D01*
X89155500Y-77395172D01*
X89155499Y-77395168D01*
X89149476Y-77364890D01*
X89124353Y-77238586D01*
X89115039Y-77216100D01*
X89063257Y-77091085D01*
X89063255Y-77091081D01*
X88974560Y-76958340D01*
X88974554Y-76958332D01*
X88861667Y-76845445D01*
X88861659Y-76845439D01*
X88728918Y-76756744D01*
X88728914Y-76756742D01*
X88581418Y-76695648D01*
X88581406Y-76695645D01*
X88424831Y-76664500D01*
X88424827Y-76664500D01*
X88265173Y-76664500D01*
X88265168Y-76664500D01*
X88108593Y-76695645D01*
X88108581Y-76695648D01*
X87961085Y-76756742D01*
X87961081Y-76756744D01*
X87828340Y-76845439D01*
X87828332Y-76845445D01*
X87715445Y-76958332D01*
X87715439Y-76958340D01*
X87626744Y-77091081D01*
X87626742Y-77091085D01*
X87565648Y-77238581D01*
X87565645Y-77238593D01*
X87534500Y-77395168D01*
X73427503Y-77395168D01*
X73433526Y-77364890D01*
X73440499Y-77329830D01*
X73440500Y-77329828D01*
X73440500Y-77170172D01*
X73440499Y-77170168D01*
X73438085Y-77158032D01*
X73409353Y-77013586D01*
X73407137Y-77008235D01*
X73348257Y-76866085D01*
X73348255Y-76866081D01*
X73259560Y-76733340D01*
X73259554Y-76733332D01*
X73146667Y-76620445D01*
X73146659Y-76620439D01*
X73013918Y-76531744D01*
X73013914Y-76531742D01*
X72866418Y-76470648D01*
X72866406Y-76470645D01*
X72709831Y-76439500D01*
X72709827Y-76439500D01*
X72550173Y-76439500D01*
X72550168Y-76439500D01*
X72393593Y-76470645D01*
X72393581Y-76470648D01*
X72246085Y-76531742D01*
X72246081Y-76531744D01*
X72113340Y-76620439D01*
X72113332Y-76620445D01*
X72000445Y-76733332D01*
X72000439Y-76733340D01*
X71911744Y-76866081D01*
X71911742Y-76866085D01*
X71850648Y-77013581D01*
X71850645Y-77013593D01*
X71819500Y-77170168D01*
X68483824Y-77170168D01*
X68556824Y-77060915D01*
X68617921Y-76913413D01*
X68649068Y-76756826D01*
X68649068Y-76597172D01*
X68617921Y-76440585D01*
X68604985Y-76409354D01*
X68556825Y-76293084D01*
X68556823Y-76293080D01*
X68468128Y-76160339D01*
X68468122Y-76160331D01*
X68357959Y-76050168D01*
X85879500Y-76050168D01*
X85879500Y-76209831D01*
X85910645Y-76366406D01*
X85910648Y-76366418D01*
X85971742Y-76513914D01*
X85971744Y-76513918D01*
X86060439Y-76646659D01*
X86060445Y-76646667D01*
X86173332Y-76759554D01*
X86173340Y-76759560D01*
X86306081Y-76848255D01*
X86306085Y-76848257D01*
X86453581Y-76909351D01*
X86453586Y-76909353D01*
X86610168Y-76940499D01*
X86610172Y-76940500D01*
X86610173Y-76940500D01*
X86769828Y-76940500D01*
X86769829Y-76940499D01*
X86926414Y-76909353D01*
X87073916Y-76848256D01*
X87073918Y-76848255D01*
X87202117Y-76762595D01*
X87206664Y-76759557D01*
X87319557Y-76646664D01*
X87408256Y-76513916D01*
X87469353Y-76366414D01*
X87500500Y-76209827D01*
X87500500Y-76050173D01*
X87469353Y-75893586D01*
X87440512Y-75823960D01*
X87433044Y-75754492D01*
X87464319Y-75692012D01*
X87467378Y-75688841D01*
X87514557Y-75641664D01*
X87575690Y-75550172D01*
X87603255Y-75508918D01*
X87603257Y-75508914D01*
X87664351Y-75361418D01*
X87664353Y-75361414D01*
X87695500Y-75204827D01*
X87695500Y-75050168D01*
X94029500Y-75050168D01*
X94029500Y-75209831D01*
X94060645Y-75366406D01*
X94060648Y-75366418D01*
X94121742Y-75513914D01*
X94121744Y-75513918D01*
X94210439Y-75646659D01*
X94210445Y-75646667D01*
X94323332Y-75759554D01*
X94323340Y-75759560D01*
X94456081Y-75848255D01*
X94456085Y-75848257D01*
X94575325Y-75897647D01*
X94603586Y-75909353D01*
X94760168Y-75940499D01*
X94760172Y-75940500D01*
X94760173Y-75940500D01*
X94919828Y-75940500D01*
X94919829Y-75940499D01*
X95076414Y-75909353D01*
X95132392Y-75886165D01*
X95229545Y-75845925D01*
X95230310Y-75847772D01*
X95289714Y-75835397D01*
X95354961Y-75860388D01*
X95394341Y-75911546D01*
X95436742Y-76013914D01*
X95436744Y-76013918D01*
X95525439Y-76146659D01*
X95525445Y-76146667D01*
X95638332Y-76259554D01*
X95638340Y-76259560D01*
X95771081Y-76348255D01*
X95771085Y-76348257D01*
X95899760Y-76401555D01*
X95918586Y-76409353D01*
X96025644Y-76430648D01*
X96075168Y-76440499D01*
X96075172Y-76440500D01*
X96075173Y-76440500D01*
X96234828Y-76440500D01*
X96234829Y-76440499D01*
X96391414Y-76409353D01*
X96495069Y-76366418D01*
X96538914Y-76348257D01*
X96538918Y-76348255D01*
X96621487Y-76293084D01*
X96671664Y-76259557D01*
X96784557Y-76146664D01*
X96849033Y-76050168D01*
X96873255Y-76013918D01*
X96873257Y-76013914D01*
X96920234Y-75900500D01*
X96934353Y-75866414D01*
X96965500Y-75709827D01*
X96965500Y-75550173D01*
X96934353Y-75393586D01*
X96921024Y-75361406D01*
X96873257Y-75246085D01*
X96873255Y-75246081D01*
X96784560Y-75113340D01*
X96784554Y-75113332D01*
X96671667Y-75000445D01*
X96671659Y-75000439D01*
X96538918Y-74911744D01*
X96538914Y-74911742D01*
X96391418Y-74850648D01*
X96391406Y-74850645D01*
X96234831Y-74819500D01*
X96234827Y-74819500D01*
X96075173Y-74819500D01*
X96075168Y-74819500D01*
X95918593Y-74850645D01*
X95918585Y-74850647D01*
X95893386Y-74861085D01*
X95771084Y-74911744D01*
X95771083Y-74911744D01*
X95765457Y-74914075D01*
X95764694Y-74912233D01*
X95705248Y-74924600D01*
X95640009Y-74899589D01*
X95600660Y-74848456D01*
X95558256Y-74746084D01*
X95558254Y-74746081D01*
X95558254Y-74746080D01*
X95469560Y-74613340D01*
X95469554Y-74613332D01*
X95356667Y-74500445D01*
X95356659Y-74500439D01*
X95223918Y-74411744D01*
X95223914Y-74411742D01*
X95076418Y-74350648D01*
X95076406Y-74350645D01*
X94919831Y-74319500D01*
X94919827Y-74319500D01*
X94760173Y-74319500D01*
X94760168Y-74319500D01*
X94603593Y-74350645D01*
X94603581Y-74350648D01*
X94456085Y-74411742D01*
X94456081Y-74411744D01*
X94323340Y-74500439D01*
X94323332Y-74500445D01*
X94210445Y-74613332D01*
X94210439Y-74613340D01*
X94121744Y-74746081D01*
X94121742Y-74746085D01*
X94060648Y-74893581D01*
X94060645Y-74893593D01*
X94029500Y-75050168D01*
X87695500Y-75050168D01*
X87695500Y-75045173D01*
X87664353Y-74888586D01*
X87652962Y-74861085D01*
X87603257Y-74741085D01*
X87603255Y-74741081D01*
X87514560Y-74608340D01*
X87514554Y-74608332D01*
X87401667Y-74495445D01*
X87401659Y-74495439D01*
X87268918Y-74406744D01*
X87268914Y-74406742D01*
X87121418Y-74345648D01*
X87121406Y-74345645D01*
X86964831Y-74314500D01*
X86964827Y-74314500D01*
X86805173Y-74314500D01*
X86805168Y-74314500D01*
X86648593Y-74345645D01*
X86648581Y-74345648D01*
X86501085Y-74406742D01*
X86501081Y-74406744D01*
X86368340Y-74495439D01*
X86368332Y-74495445D01*
X86255445Y-74608332D01*
X86255439Y-74608340D01*
X86166744Y-74741081D01*
X86166742Y-74741085D01*
X86105648Y-74888581D01*
X86105645Y-74888593D01*
X86074500Y-75045168D01*
X86074500Y-75204831D01*
X86105645Y-75361406D01*
X86105647Y-75361414D01*
X86134486Y-75431037D01*
X86141955Y-75500507D01*
X86110680Y-75562986D01*
X86107608Y-75566170D01*
X86060440Y-75613339D01*
X86060436Y-75613343D01*
X85971744Y-75746081D01*
X85971742Y-75746085D01*
X85910648Y-75893581D01*
X85910645Y-75893593D01*
X85879500Y-76050168D01*
X68357959Y-76050168D01*
X68355235Y-76047444D01*
X68355227Y-76047438D01*
X68222486Y-75958743D01*
X68222482Y-75958741D01*
X68074986Y-75897647D01*
X68074974Y-75897644D01*
X67918399Y-75866499D01*
X67918395Y-75866499D01*
X67758741Y-75866499D01*
X67741849Y-75869859D01*
X67672257Y-75863630D01*
X67617080Y-75820766D01*
X67593837Y-75754876D01*
X67609906Y-75686880D01*
X67614557Y-75679350D01*
X67627202Y-75660425D01*
X67648256Y-75628916D01*
X67709353Y-75481414D01*
X67740500Y-75324827D01*
X67740500Y-75165173D01*
X67709353Y-75008586D01*
X67705980Y-75000443D01*
X67648257Y-74861085D01*
X67648255Y-74861081D01*
X67559560Y-74728340D01*
X67559554Y-74728332D01*
X67446667Y-74615445D01*
X67446659Y-74615439D01*
X67313918Y-74526744D01*
X67313914Y-74526742D01*
X67166418Y-74465648D01*
X67166406Y-74465645D01*
X67116399Y-74455698D01*
X67009830Y-74434500D01*
X67009827Y-74434500D01*
X66850173Y-74434500D01*
X66850168Y-74434500D01*
X66693593Y-74465645D01*
X66693581Y-74465648D01*
X66546085Y-74526742D01*
X66546081Y-74526744D01*
X66413340Y-74615439D01*
X66413332Y-74615445D01*
X66300445Y-74728332D01*
X66300439Y-74728340D01*
X66211744Y-74861081D01*
X66211742Y-74861085D01*
X66150648Y-75008581D01*
X66150645Y-75008593D01*
X66119500Y-75165168D01*
X50200500Y-75165168D01*
X50200500Y-74340168D01*
X76404500Y-74340168D01*
X76404500Y-74499831D01*
X76435645Y-74656406D01*
X76435648Y-74656418D01*
X76496742Y-74803914D01*
X76496744Y-74803918D01*
X76585439Y-74936659D01*
X76585445Y-74936667D01*
X76698332Y-75049554D01*
X76698340Y-75049560D01*
X76831081Y-75138255D01*
X76831085Y-75138257D01*
X76978581Y-75199351D01*
X76978586Y-75199353D01*
X77135168Y-75230499D01*
X77135172Y-75230500D01*
X77135173Y-75230500D01*
X77294828Y-75230500D01*
X77294828Y-75230499D01*
X77444229Y-75200782D01*
X77513819Y-75207009D01*
X77568996Y-75249872D01*
X77590036Y-75298208D01*
X77595645Y-75326406D01*
X77595648Y-75326418D01*
X77656742Y-75473914D01*
X77656744Y-75473918D01*
X77745439Y-75606659D01*
X77745445Y-75606667D01*
X77858332Y-75719554D01*
X77858340Y-75719560D01*
X77991081Y-75808255D01*
X77991085Y-75808257D01*
X78131500Y-75866418D01*
X78138586Y-75869353D01*
X78280815Y-75897644D01*
X78295168Y-75900499D01*
X78295172Y-75900500D01*
X78295173Y-75900500D01*
X78454828Y-75900500D01*
X78454829Y-75900499D01*
X78611414Y-75869353D01*
X78758916Y-75808256D01*
X78758918Y-75808255D01*
X78831795Y-75759560D01*
X78891664Y-75719557D01*
X79004557Y-75606664D01*
X79075489Y-75500507D01*
X79093255Y-75473918D01*
X79093257Y-75473914D01*
X79126527Y-75393593D01*
X79154353Y-75326414D01*
X79185500Y-75169827D01*
X79185500Y-75010173D01*
X79154353Y-74853586D01*
X79133779Y-74803916D01*
X79093257Y-74706085D01*
X79093255Y-74706081D01*
X79004560Y-74573340D01*
X79004554Y-74573332D01*
X78891667Y-74460445D01*
X78891659Y-74460439D01*
X78758918Y-74371744D01*
X78758914Y-74371742D01*
X78611418Y-74310648D01*
X78611406Y-74310645D01*
X78454831Y-74279500D01*
X78454827Y-74279500D01*
X78295173Y-74279500D01*
X78295168Y-74279500D01*
X78145771Y-74309217D01*
X78141106Y-74308799D01*
X78136806Y-74310662D01*
X78106629Y-74305714D01*
X78076179Y-74302990D01*
X78072479Y-74300115D01*
X78067857Y-74299358D01*
X78045151Y-74278886D01*
X78021002Y-74260127D01*
X78018477Y-74254838D01*
X78015964Y-74252572D01*
X78009347Y-74235707D01*
X78001938Y-74220184D01*
X78000806Y-74216027D01*
X77994353Y-74183586D01*
X77987397Y-74166793D01*
X77985328Y-74159196D01*
X77985867Y-74131821D01*
X77982940Y-74104596D01*
X77986545Y-74097393D01*
X77986704Y-74089340D01*
X78001959Y-74066599D01*
X78014215Y-74042117D01*
X78017274Y-74038945D01*
X78064557Y-73991664D01*
X78153256Y-73858916D01*
X78155756Y-73852882D01*
X78208879Y-73724629D01*
X78214353Y-73711414D01*
X78245500Y-73554827D01*
X78245500Y-73395173D01*
X78239532Y-73365172D01*
X78239531Y-73365168D01*
X83379500Y-73365168D01*
X83379500Y-73524831D01*
X83410645Y-73681406D01*
X83410648Y-73681418D01*
X83471742Y-73828914D01*
X83471744Y-73828918D01*
X83560439Y-73961659D01*
X83560445Y-73961667D01*
X83673332Y-74074554D01*
X83673340Y-74074560D01*
X83806081Y-74163255D01*
X83806085Y-74163257D01*
X83943521Y-74220184D01*
X83953586Y-74224353D01*
X84095453Y-74252572D01*
X84110168Y-74255499D01*
X84110172Y-74255500D01*
X84110173Y-74255500D01*
X84269828Y-74255500D01*
X84269829Y-74255499D01*
X84426414Y-74224353D01*
X84573916Y-74163256D01*
X84573918Y-74163255D01*
X84676940Y-74094418D01*
X84706664Y-74074557D01*
X84819557Y-73961664D01*
X84864203Y-73894844D01*
X84908255Y-73828918D01*
X84908257Y-73828914D01*
X84929277Y-73778168D01*
X92094500Y-73778168D01*
X92094500Y-73937831D01*
X92125645Y-74094406D01*
X92125648Y-74094418D01*
X92186742Y-74241914D01*
X92186744Y-74241918D01*
X92275439Y-74374659D01*
X92275445Y-74374667D01*
X92388332Y-74487554D01*
X92388340Y-74487560D01*
X92521081Y-74576255D01*
X92521085Y-74576257D01*
X92615690Y-74615443D01*
X92668586Y-74637353D01*
X92764433Y-74656418D01*
X92825168Y-74668499D01*
X92825172Y-74668500D01*
X92825173Y-74668500D01*
X92984828Y-74668500D01*
X92984829Y-74668499D01*
X93141414Y-74637353D01*
X93288916Y-74576256D01*
X93288918Y-74576255D01*
X93363019Y-74526742D01*
X93421664Y-74487557D01*
X93534557Y-74374664D01*
X93623256Y-74241916D01*
X93684353Y-74094414D01*
X93715500Y-73937827D01*
X93715500Y-73778173D01*
X93684353Y-73621586D01*
X93684351Y-73621581D01*
X93623257Y-73474085D01*
X93623255Y-73474081D01*
X93534560Y-73341340D01*
X93534554Y-73341332D01*
X93421667Y-73228445D01*
X93421659Y-73228439D01*
X93288918Y-73139744D01*
X93288914Y-73139742D01*
X93141418Y-73078648D01*
X93141406Y-73078645D01*
X92984831Y-73047500D01*
X92984827Y-73047500D01*
X92825173Y-73047500D01*
X92825168Y-73047500D01*
X92668593Y-73078645D01*
X92668581Y-73078648D01*
X92521085Y-73139742D01*
X92521081Y-73139744D01*
X92388340Y-73228439D01*
X92388332Y-73228445D01*
X92275445Y-73341332D01*
X92275439Y-73341340D01*
X92186744Y-73474081D01*
X92186742Y-73474085D01*
X92125648Y-73621581D01*
X92125645Y-73621593D01*
X92094500Y-73778168D01*
X84929277Y-73778168D01*
X84951453Y-73724629D01*
X84951453Y-73724628D01*
X84956925Y-73711418D01*
X84969353Y-73681414D01*
X85000500Y-73524827D01*
X85000500Y-73365173D01*
X84969353Y-73208586D01*
X84969351Y-73208581D01*
X84908257Y-73061085D01*
X84908255Y-73061081D01*
X84819560Y-72928340D01*
X84819554Y-72928332D01*
X84706667Y-72815445D01*
X84706659Y-72815439D01*
X84573918Y-72726744D01*
X84573914Y-72726742D01*
X84426418Y-72665648D01*
X84426406Y-72665645D01*
X84269831Y-72634500D01*
X84269827Y-72634500D01*
X84110173Y-72634500D01*
X84110168Y-72634500D01*
X83953593Y-72665645D01*
X83953581Y-72665648D01*
X83806085Y-72726742D01*
X83806081Y-72726744D01*
X83673340Y-72815439D01*
X83673332Y-72815445D01*
X83560445Y-72928332D01*
X83560439Y-72928340D01*
X83471744Y-73061081D01*
X83471742Y-73061085D01*
X83410648Y-73208581D01*
X83410645Y-73208593D01*
X83379500Y-73365168D01*
X78239531Y-73365168D01*
X78214354Y-73238593D01*
X78214353Y-73238586D01*
X78214351Y-73238581D01*
X78153257Y-73091085D01*
X78153255Y-73091081D01*
X78064560Y-72958340D01*
X78064554Y-72958332D01*
X77951667Y-72845445D01*
X77951659Y-72845439D01*
X77818918Y-72756744D01*
X77818914Y-72756742D01*
X77671418Y-72695648D01*
X77671406Y-72695645D01*
X77514831Y-72664500D01*
X77514827Y-72664500D01*
X77355173Y-72664500D01*
X77355168Y-72664500D01*
X77198593Y-72695645D01*
X77198581Y-72695648D01*
X77051085Y-72756742D01*
X77051081Y-72756744D01*
X76918340Y-72845439D01*
X76918332Y-72845445D01*
X76805445Y-72958332D01*
X76805439Y-72958340D01*
X76716744Y-73091081D01*
X76716742Y-73091085D01*
X76655648Y-73238581D01*
X76655645Y-73238593D01*
X76624500Y-73395168D01*
X76624500Y-73554831D01*
X76655645Y-73711406D01*
X76655648Y-73711418D01*
X76659590Y-73720934D01*
X76667059Y-73790403D01*
X76635783Y-73852882D01*
X76632712Y-73856066D01*
X76585440Y-73903339D01*
X76585436Y-73903343D01*
X76496744Y-74036081D01*
X76496742Y-74036085D01*
X76435648Y-74183581D01*
X76435645Y-74183593D01*
X76404500Y-74340168D01*
X50200500Y-74340168D01*
X50200500Y-71950168D01*
X64184500Y-71950168D01*
X64184500Y-72109831D01*
X64215645Y-72266406D01*
X64215648Y-72266418D01*
X64276742Y-72413914D01*
X64276744Y-72413918D01*
X64365439Y-72546659D01*
X64365445Y-72546667D01*
X64478332Y-72659554D01*
X64478340Y-72659560D01*
X64611081Y-72748255D01*
X64611085Y-72748257D01*
X64758581Y-72809351D01*
X64758586Y-72809353D01*
X64915168Y-72840499D01*
X64915172Y-72840500D01*
X64915173Y-72840500D01*
X65074828Y-72840500D01*
X65074829Y-72840499D01*
X65231414Y-72809353D01*
X65378916Y-72748256D01*
X65378918Y-72748255D01*
X65502548Y-72665648D01*
X65511664Y-72659557D01*
X65624557Y-72546664D01*
X65713256Y-72413916D01*
X65770727Y-72275168D01*
X78539500Y-72275168D01*
X78539500Y-72434831D01*
X78570645Y-72591406D01*
X78570648Y-72591418D01*
X78631742Y-72738914D01*
X78631744Y-72738918D01*
X78720439Y-72871659D01*
X78720445Y-72871667D01*
X78833332Y-72984554D01*
X78833340Y-72984560D01*
X78966081Y-73073255D01*
X78966085Y-73073257D01*
X79113581Y-73134351D01*
X79113586Y-73134353D01*
X79270168Y-73165499D01*
X79270172Y-73165500D01*
X79270173Y-73165500D01*
X79429828Y-73165500D01*
X79429829Y-73165499D01*
X79586414Y-73134353D01*
X79690882Y-73091081D01*
X79733914Y-73073257D01*
X79733918Y-73073255D01*
X79859176Y-72989560D01*
X79866664Y-72984557D01*
X79979557Y-72871664D01*
X80062015Y-72748257D01*
X80068255Y-72738918D01*
X80068257Y-72738914D01*
X80129351Y-72591418D01*
X80129353Y-72591414D01*
X80160500Y-72434827D01*
X80160500Y-72280168D01*
X81479500Y-72280168D01*
X81479500Y-72439831D01*
X81510645Y-72596406D01*
X81510648Y-72596418D01*
X81571742Y-72743914D01*
X81571744Y-72743918D01*
X81660439Y-72876659D01*
X81660445Y-72876667D01*
X81773332Y-72989554D01*
X81773340Y-72989560D01*
X81906081Y-73078255D01*
X81906085Y-73078257D01*
X82041510Y-73134351D01*
X82053586Y-73139353D01*
X82210168Y-73170499D01*
X82210172Y-73170500D01*
X82210173Y-73170500D01*
X82369828Y-73170500D01*
X82369829Y-73170499D01*
X82526414Y-73139353D01*
X82673916Y-73078256D01*
X82673918Y-73078255D01*
X82739844Y-73034203D01*
X82806664Y-72989557D01*
X82919557Y-72876664D01*
X82999686Y-72756742D01*
X83008255Y-72743918D01*
X83008257Y-72743914D01*
X83069351Y-72596418D01*
X83069353Y-72596414D01*
X83100500Y-72439827D01*
X83100500Y-72280173D01*
X83069353Y-72123586D01*
X83025063Y-72016659D01*
X83008257Y-71976085D01*
X83008255Y-71976081D01*
X82919560Y-71843340D01*
X82919554Y-71843332D01*
X82806667Y-71730445D01*
X82806659Y-71730439D01*
X82673918Y-71641744D01*
X82673914Y-71641742D01*
X82526418Y-71580648D01*
X82526406Y-71580645D01*
X82369831Y-71549500D01*
X82369827Y-71549500D01*
X82210173Y-71549500D01*
X82210168Y-71549500D01*
X82053593Y-71580645D01*
X82053581Y-71580648D01*
X81906085Y-71641742D01*
X81906081Y-71641744D01*
X81773340Y-71730439D01*
X81773332Y-71730445D01*
X81660445Y-71843332D01*
X81660439Y-71843340D01*
X81571744Y-71976081D01*
X81571742Y-71976085D01*
X81510648Y-72123581D01*
X81510645Y-72123593D01*
X81479500Y-72280168D01*
X80160500Y-72280168D01*
X80160500Y-72275173D01*
X80129353Y-72118586D01*
X80087134Y-72016659D01*
X80068257Y-71971085D01*
X80068255Y-71971081D01*
X79979560Y-71838340D01*
X79979554Y-71838332D01*
X79866667Y-71725445D01*
X79866659Y-71725439D01*
X79733918Y-71636744D01*
X79733914Y-71636742D01*
X79586418Y-71575648D01*
X79586406Y-71575645D01*
X79429831Y-71544500D01*
X79429827Y-71544500D01*
X79270173Y-71544500D01*
X79270168Y-71544500D01*
X79113593Y-71575645D01*
X79113581Y-71575648D01*
X78966085Y-71636742D01*
X78966081Y-71636744D01*
X78833340Y-71725439D01*
X78833332Y-71725445D01*
X78720445Y-71838332D01*
X78720439Y-71838340D01*
X78631744Y-71971081D01*
X78631742Y-71971085D01*
X78570648Y-72118581D01*
X78570645Y-72118593D01*
X78539500Y-72275168D01*
X65770727Y-72275168D01*
X65774353Y-72266414D01*
X65783933Y-72218255D01*
X65805499Y-72109831D01*
X65805500Y-72109828D01*
X65805500Y-71950172D01*
X65805499Y-71950168D01*
X65792320Y-71883914D01*
X65774353Y-71793586D01*
X65774351Y-71793581D01*
X65713257Y-71646085D01*
X65713255Y-71646081D01*
X65624560Y-71513340D01*
X65624554Y-71513332D01*
X65531390Y-71420168D01*
X88719500Y-71420168D01*
X88719500Y-71579831D01*
X88750645Y-71736406D01*
X88750648Y-71736418D01*
X88811742Y-71883914D01*
X88811744Y-71883918D01*
X88900439Y-72016659D01*
X88900445Y-72016667D01*
X89013332Y-72129554D01*
X89013340Y-72129560D01*
X89146081Y-72218255D01*
X89146085Y-72218257D01*
X89293581Y-72279351D01*
X89293586Y-72279353D01*
X89450168Y-72310499D01*
X89450172Y-72310500D01*
X89450173Y-72310500D01*
X89609828Y-72310500D01*
X89609829Y-72310499D01*
X89766414Y-72279353D01*
X89913916Y-72218256D01*
X89913918Y-72218255D01*
X89979844Y-72174203D01*
X90046664Y-72129557D01*
X90159557Y-72016664D01*
X90248256Y-71883916D01*
X90309353Y-71736414D01*
X90340500Y-71579827D01*
X90340500Y-71420173D01*
X90309353Y-71263586D01*
X90291092Y-71219500D01*
X90248257Y-71116085D01*
X90248255Y-71116081D01*
X90159560Y-70983340D01*
X90159554Y-70983332D01*
X90046667Y-70870445D01*
X90046659Y-70870439D01*
X89913918Y-70781744D01*
X89913914Y-70781742D01*
X89766418Y-70720648D01*
X89766406Y-70720645D01*
X89609831Y-70689500D01*
X89609827Y-70689500D01*
X89450173Y-70689500D01*
X89450168Y-70689500D01*
X89293593Y-70720645D01*
X89293581Y-70720648D01*
X89146085Y-70781742D01*
X89146081Y-70781744D01*
X89013340Y-70870439D01*
X89013332Y-70870445D01*
X88900445Y-70983332D01*
X88900439Y-70983340D01*
X88811744Y-71116081D01*
X88811742Y-71116085D01*
X88750648Y-71263581D01*
X88750645Y-71263593D01*
X88719500Y-71420168D01*
X65531390Y-71420168D01*
X65511667Y-71400445D01*
X65511659Y-71400439D01*
X65378918Y-71311744D01*
X65378914Y-71311742D01*
X65231418Y-71250648D01*
X65231406Y-71250645D01*
X65074831Y-71219500D01*
X65074827Y-71219500D01*
X64915173Y-71219500D01*
X64915168Y-71219500D01*
X64758593Y-71250645D01*
X64758581Y-71250648D01*
X64611085Y-71311742D01*
X64611081Y-71311744D01*
X64478340Y-71400439D01*
X64478332Y-71400445D01*
X64365445Y-71513332D01*
X64365439Y-71513340D01*
X64276744Y-71646081D01*
X64276742Y-71646085D01*
X64215648Y-71793581D01*
X64215645Y-71793593D01*
X64184500Y-71950168D01*
X50200500Y-71950168D01*
X50200500Y-70227158D01*
X58376500Y-70227158D01*
X58376500Y-70386821D01*
X58407645Y-70543396D01*
X58407648Y-70543408D01*
X58468742Y-70690904D01*
X58468744Y-70690908D01*
X58557439Y-70823649D01*
X58557445Y-70823657D01*
X58670332Y-70936544D01*
X58670340Y-70936550D01*
X58803081Y-71025245D01*
X58803085Y-71025247D01*
X58950581Y-71086341D01*
X58950586Y-71086343D01*
X59100105Y-71116084D01*
X59107168Y-71117489D01*
X59107172Y-71117490D01*
X59107173Y-71117490D01*
X59266828Y-71117490D01*
X59266829Y-71117489D01*
X59423414Y-71086343D01*
X59570916Y-71025246D01*
X59570918Y-71025245D01*
X59623664Y-70990000D01*
X73620000Y-70990000D01*
X75710000Y-70990000D01*
X75710000Y-69090000D01*
X73620000Y-69090000D01*
X73620000Y-70990000D01*
X59623664Y-70990000D01*
X59636844Y-70981193D01*
X59703664Y-70936547D01*
X59816557Y-70823654D01*
X59905256Y-70690906D01*
X59905839Y-70689500D01*
X59966351Y-70543408D01*
X59966353Y-70543404D01*
X59997500Y-70386817D01*
X59997500Y-70227163D01*
X59992949Y-70204283D01*
X59999176Y-70134691D01*
X60042039Y-70079514D01*
X60045646Y-70077009D01*
X60116664Y-70029557D01*
X60229557Y-69916664D01*
X60274203Y-69849844D01*
X60318255Y-69783918D01*
X60318257Y-69783914D01*
X60338621Y-69734748D01*
X60379353Y-69636414D01*
X60410500Y-69479827D01*
X60410500Y-69320173D01*
X60379353Y-69163586D01*
X60379351Y-69163581D01*
X60347254Y-69086090D01*
X60318255Y-69016082D01*
X60318255Y-69016081D01*
X60229560Y-68883340D01*
X60229554Y-68883332D01*
X60116667Y-68770445D01*
X60116659Y-68770439D01*
X59983918Y-68681744D01*
X59983914Y-68681742D01*
X59836418Y-68620648D01*
X59836406Y-68620645D01*
X59679831Y-68589500D01*
X59679827Y-68589500D01*
X59520173Y-68589500D01*
X59520168Y-68589500D01*
X59363593Y-68620645D01*
X59363581Y-68620648D01*
X59216085Y-68681742D01*
X59216081Y-68681744D01*
X59083340Y-68770439D01*
X59083332Y-68770445D01*
X58970445Y-68883332D01*
X58970439Y-68883340D01*
X58881744Y-69016081D01*
X58881742Y-69016085D01*
X58820648Y-69163581D01*
X58820645Y-69163593D01*
X58789500Y-69320168D01*
X58789500Y-69479827D01*
X58794051Y-69502709D01*
X58787822Y-69572301D01*
X58744958Y-69627477D01*
X58741324Y-69630000D01*
X58670336Y-69677432D01*
X58670332Y-69677435D01*
X58557445Y-69790322D01*
X58557439Y-69790330D01*
X58468744Y-69923071D01*
X58468742Y-69923075D01*
X58407648Y-70070571D01*
X58407645Y-70070583D01*
X58376500Y-70227158D01*
X50200500Y-70227158D01*
X50200500Y-69610000D01*
X51950000Y-69610000D01*
X53850000Y-69610000D01*
X53850000Y-67520000D01*
X51950000Y-67520000D01*
X51950000Y-69610000D01*
X50200500Y-69610000D01*
X50200500Y-63685168D01*
X59014500Y-63685168D01*
X59014500Y-63844831D01*
X59045645Y-64001406D01*
X59045648Y-64001418D01*
X59106742Y-64148914D01*
X59106744Y-64148918D01*
X59195439Y-64281659D01*
X59195445Y-64281667D01*
X59308332Y-64394554D01*
X59308340Y-64394560D01*
X59441081Y-64483255D01*
X59441085Y-64483257D01*
X59588581Y-64544351D01*
X59588586Y-64544353D01*
X59745168Y-64575499D01*
X59745172Y-64575500D01*
X59745173Y-64575500D01*
X59904828Y-64575500D01*
X59904829Y-64575499D01*
X60061414Y-64544353D01*
X60208916Y-64483256D01*
X60208918Y-64483255D01*
X60274844Y-64439203D01*
X60341664Y-64394557D01*
X60454557Y-64281664D01*
X60531562Y-64166418D01*
X60543255Y-64148918D01*
X60543257Y-64148914D01*
X60599413Y-64013340D01*
X60604353Y-64001414D01*
X60635500Y-63844827D01*
X60635500Y-63685173D01*
X60604353Y-63528586D01*
X60565796Y-63435500D01*
X60543257Y-63381085D01*
X60543255Y-63381081D01*
X60454560Y-63248340D01*
X60454554Y-63248332D01*
X60341667Y-63135445D01*
X60341659Y-63135439D01*
X60208918Y-63046744D01*
X60208914Y-63046742D01*
X60061418Y-62985648D01*
X60061406Y-62985645D01*
X59904831Y-62954500D01*
X59904827Y-62954500D01*
X59745173Y-62954500D01*
X59745168Y-62954500D01*
X59588593Y-62985645D01*
X59588581Y-62985648D01*
X59441085Y-63046742D01*
X59441081Y-63046744D01*
X59308340Y-63135439D01*
X59308332Y-63135445D01*
X59195445Y-63248332D01*
X59195439Y-63248340D01*
X59106744Y-63381081D01*
X59106742Y-63381085D01*
X59045648Y-63528581D01*
X59045645Y-63528593D01*
X59014500Y-63685168D01*
X50200500Y-63685168D01*
X50200500Y-60340168D01*
X52929500Y-60340168D01*
X52929500Y-60499831D01*
X52960645Y-60656406D01*
X52960648Y-60656418D01*
X53021742Y-60803913D01*
X53105856Y-60929799D01*
X53126734Y-60996477D01*
X53108249Y-61063857D01*
X53105857Y-61067580D01*
X53056742Y-61141087D01*
X52995648Y-61288581D01*
X52995645Y-61288593D01*
X52964500Y-61445168D01*
X52964500Y-61604831D01*
X52995645Y-61761406D01*
X52995648Y-61761418D01*
X53049359Y-61891088D01*
X53056744Y-61908916D01*
X53079689Y-61943256D01*
X53136686Y-62028559D01*
X53157563Y-62095237D01*
X53139078Y-62162617D01*
X53136686Y-62166339D01*
X53086742Y-62241087D01*
X53025648Y-62388581D01*
X53025645Y-62388593D01*
X52994500Y-62545168D01*
X52994500Y-62704831D01*
X53025645Y-62861406D01*
X53025648Y-62861418D01*
X53086742Y-63008914D01*
X53086744Y-63008918D01*
X53175439Y-63141659D01*
X53175445Y-63141667D01*
X53288332Y-63254554D01*
X53288340Y-63254560D01*
X53421081Y-63343255D01*
X53421085Y-63343257D01*
X53530791Y-63388698D01*
X53568586Y-63404353D01*
X53703515Y-63431192D01*
X53725168Y-63435499D01*
X53725172Y-63435500D01*
X53725173Y-63435500D01*
X53884828Y-63435500D01*
X53884829Y-63435499D01*
X54041414Y-63404353D01*
X54188916Y-63343256D01*
X54188918Y-63343255D01*
X54254844Y-63299203D01*
X54321664Y-63254557D01*
X54434557Y-63141664D01*
X54523256Y-63008916D01*
X54584353Y-62861414D01*
X54615500Y-62704827D01*
X54615500Y-62545173D01*
X54612385Y-62529512D01*
X68972430Y-62529512D01*
X68972430Y-62689175D01*
X69003575Y-62845750D01*
X69003578Y-62845762D01*
X69064672Y-62993258D01*
X69064674Y-62993262D01*
X69153369Y-63126003D01*
X69153375Y-63126011D01*
X69266262Y-63238898D01*
X69266270Y-63238904D01*
X69399011Y-63327599D01*
X69399015Y-63327601D01*
X69528129Y-63381081D01*
X69546516Y-63388697D01*
X69574759Y-63394315D01*
X69597346Y-63398808D01*
X69659257Y-63431192D01*
X69693831Y-63491908D01*
X69690092Y-63561677D01*
X69687716Y-63567877D01*
X69635648Y-63693581D01*
X69635645Y-63693593D01*
X69604500Y-63850168D01*
X69604500Y-64009831D01*
X69635645Y-64166406D01*
X69635648Y-64166418D01*
X69696742Y-64313914D01*
X69696744Y-64313918D01*
X69785439Y-64446659D01*
X69785445Y-64446667D01*
X69898332Y-64559554D01*
X69898340Y-64559560D01*
X70031081Y-64648255D01*
X70031085Y-64648257D01*
X70178581Y-64709351D01*
X70178586Y-64709353D01*
X70335168Y-64740499D01*
X70335172Y-64740500D01*
X70335173Y-64740500D01*
X70494828Y-64740500D01*
X70494829Y-64740499D01*
X70651414Y-64709353D01*
X70798916Y-64648256D01*
X70798918Y-64648255D01*
X70864844Y-64604203D01*
X70931664Y-64559557D01*
X71041053Y-64450168D01*
X82804500Y-64450168D01*
X82804500Y-64609831D01*
X82835645Y-64766406D01*
X82835648Y-64766418D01*
X82896742Y-64913914D01*
X82896744Y-64913918D01*
X82985439Y-65046659D01*
X82985445Y-65046667D01*
X83098332Y-65159554D01*
X83098340Y-65159560D01*
X83231081Y-65248255D01*
X83231085Y-65248257D01*
X83378581Y-65309351D01*
X83378586Y-65309353D01*
X83535168Y-65340499D01*
X83535172Y-65340500D01*
X83535173Y-65340500D01*
X83694828Y-65340500D01*
X83694829Y-65340499D01*
X83851414Y-65309353D01*
X83998916Y-65248256D01*
X83998918Y-65248255D01*
X84064844Y-65204203D01*
X84131664Y-65159557D01*
X84244557Y-65046664D01*
X84333256Y-64913916D01*
X84394353Y-64766414D01*
X84425500Y-64609827D01*
X84425500Y-64450173D01*
X84394353Y-64293586D01*
X84334430Y-64148918D01*
X84333257Y-64146085D01*
X84333255Y-64146081D01*
X84244560Y-64013340D01*
X84244554Y-64013332D01*
X84131667Y-63900445D01*
X84131659Y-63900439D01*
X83998918Y-63811744D01*
X83998914Y-63811742D01*
X83851418Y-63750648D01*
X83851406Y-63750645D01*
X83694831Y-63719500D01*
X83694827Y-63719500D01*
X83535173Y-63719500D01*
X83535168Y-63719500D01*
X83378593Y-63750645D01*
X83378581Y-63750648D01*
X83231085Y-63811742D01*
X83231081Y-63811744D01*
X83098340Y-63900439D01*
X83098332Y-63900445D01*
X82985445Y-64013332D01*
X82985439Y-64013340D01*
X82896744Y-64146081D01*
X82896742Y-64146085D01*
X82835648Y-64293581D01*
X82835645Y-64293593D01*
X82804500Y-64450168D01*
X71041053Y-64450168D01*
X71044557Y-64446664D01*
X71133256Y-64313916D01*
X71194353Y-64166414D01*
X71225500Y-64009827D01*
X71225500Y-63850173D01*
X71194353Y-63693586D01*
X71139715Y-63561677D01*
X71133257Y-63546085D01*
X71133255Y-63546081D01*
X71044560Y-63413340D01*
X71044554Y-63413332D01*
X70931667Y-63300445D01*
X70931659Y-63300439D01*
X70798918Y-63211744D01*
X70798914Y-63211742D01*
X70651418Y-63150648D01*
X70651408Y-63150645D01*
X70600582Y-63140535D01*
X70538671Y-63108149D01*
X70504097Y-63047433D01*
X70507838Y-62977664D01*
X70510203Y-62971488D01*
X70562283Y-62845758D01*
X70593430Y-62689171D01*
X70593430Y-62529517D01*
X70562283Y-62372930D01*
X70562281Y-62372925D01*
X70501187Y-62225429D01*
X70501185Y-62225425D01*
X70412490Y-62092684D01*
X70412484Y-62092676D01*
X70299597Y-61979789D01*
X70299589Y-61979783D01*
X70166848Y-61891088D01*
X70166844Y-61891086D01*
X70019348Y-61829992D01*
X70019336Y-61829989D01*
X69862761Y-61798844D01*
X69862757Y-61798844D01*
X69703103Y-61798844D01*
X69703098Y-61798844D01*
X69546523Y-61829989D01*
X69546511Y-61829992D01*
X69399015Y-61891086D01*
X69399011Y-61891088D01*
X69266270Y-61979783D01*
X69266262Y-61979789D01*
X69153375Y-62092676D01*
X69153369Y-62092684D01*
X69064674Y-62225425D01*
X69064672Y-62225429D01*
X69003578Y-62372925D01*
X69003575Y-62372937D01*
X68972430Y-62529512D01*
X54612385Y-62529512D01*
X54584353Y-62388586D01*
X54577866Y-62372925D01*
X54523258Y-62241087D01*
X54443313Y-62121440D01*
X54422436Y-62054763D01*
X54440921Y-61987383D01*
X54443300Y-61983679D01*
X54493256Y-61908916D01*
X54554353Y-61761414D01*
X54585500Y-61604827D01*
X54585500Y-61445173D01*
X54554353Y-61288586D01*
X54534157Y-61239828D01*
X54515479Y-61194735D01*
X54515478Y-61194734D01*
X54494948Y-61145168D01*
X80234500Y-61145168D01*
X80234500Y-61304831D01*
X80265645Y-61461406D01*
X80265648Y-61461418D01*
X80326742Y-61608914D01*
X80326744Y-61608918D01*
X80415439Y-61741659D01*
X80415445Y-61741667D01*
X80528332Y-61854554D01*
X80528340Y-61854560D01*
X80661081Y-61943255D01*
X80661085Y-61943257D01*
X80808581Y-62004351D01*
X80808586Y-62004353D01*
X80965168Y-62035499D01*
X80965172Y-62035500D01*
X80965173Y-62035500D01*
X81124828Y-62035500D01*
X81124829Y-62035499D01*
X81281414Y-62004353D01*
X81428916Y-61943256D01*
X81428918Y-61943255D01*
X81526197Y-61878255D01*
X81561664Y-61854557D01*
X81674557Y-61741664D01*
X81763256Y-61608916D01*
X81824353Y-61461414D01*
X81855500Y-61304827D01*
X81855500Y-61145173D01*
X81842570Y-61080168D01*
X94429500Y-61080168D01*
X94429500Y-61239831D01*
X94460645Y-61396406D01*
X94460648Y-61396418D01*
X94521742Y-61543914D01*
X94521744Y-61543918D01*
X94610439Y-61676659D01*
X94610445Y-61676667D01*
X94723332Y-61789554D01*
X94723340Y-61789560D01*
X94856081Y-61878255D01*
X94856085Y-61878257D01*
X95003581Y-61939351D01*
X95003586Y-61939353D01*
X95160168Y-61970499D01*
X95160172Y-61970500D01*
X95160173Y-61970500D01*
X95319828Y-61970500D01*
X95319829Y-61970499D01*
X95476414Y-61939353D01*
X95592937Y-61891088D01*
X95623914Y-61878257D01*
X95623918Y-61878255D01*
X95742765Y-61798844D01*
X95756664Y-61789557D01*
X95869557Y-61676664D01*
X95958256Y-61543916D01*
X96019353Y-61396414D01*
X96050500Y-61239827D01*
X96050500Y-61080173D01*
X96019353Y-60923586D01*
X96000230Y-60877418D01*
X95958257Y-60776085D01*
X95958255Y-60776081D01*
X95869560Y-60643340D01*
X95869554Y-60643332D01*
X95756667Y-60530445D01*
X95756659Y-60530439D01*
X95623918Y-60441744D01*
X95623914Y-60441742D01*
X95476418Y-60380648D01*
X95476406Y-60380645D01*
X95319831Y-60349500D01*
X95319827Y-60349500D01*
X95160173Y-60349500D01*
X95160168Y-60349500D01*
X95003593Y-60380645D01*
X95003581Y-60380648D01*
X94856085Y-60441742D01*
X94856081Y-60441744D01*
X94723340Y-60530439D01*
X94723332Y-60530445D01*
X94610445Y-60643332D01*
X94610439Y-60643340D01*
X94521744Y-60776081D01*
X94521742Y-60776085D01*
X94460648Y-60923581D01*
X94460645Y-60923593D01*
X94429500Y-61080168D01*
X81842570Y-61080168D01*
X81824353Y-60988586D01*
X81805012Y-60941893D01*
X81763257Y-60841085D01*
X81763255Y-60841081D01*
X81674560Y-60708340D01*
X81674554Y-60708332D01*
X81561667Y-60595445D01*
X81561659Y-60595439D01*
X81428918Y-60506744D01*
X81428914Y-60506742D01*
X81281418Y-60445648D01*
X81281406Y-60445645D01*
X81124831Y-60414500D01*
X81124827Y-60414500D01*
X80965173Y-60414500D01*
X80965168Y-60414500D01*
X80808593Y-60445645D01*
X80808581Y-60445648D01*
X80661085Y-60506742D01*
X80661081Y-60506744D01*
X80528340Y-60595439D01*
X80528332Y-60595445D01*
X80415445Y-60708332D01*
X80415439Y-60708340D01*
X80326744Y-60841081D01*
X80326742Y-60841085D01*
X80265648Y-60988581D01*
X80265645Y-60988593D01*
X80234500Y-61145168D01*
X54494948Y-61145168D01*
X54493256Y-61141084D01*
X54407294Y-61012433D01*
X54405608Y-61009591D01*
X54397751Y-60978820D01*
X54388265Y-60948522D01*
X54389172Y-60945215D01*
X54388324Y-60941893D01*
X54398350Y-60911760D01*
X54406750Y-60881142D01*
X54409124Y-60877447D01*
X54458256Y-60803916D01*
X54519353Y-60656414D01*
X54550500Y-60499827D01*
X54550500Y-60340173D01*
X54519353Y-60183586D01*
X54519351Y-60183581D01*
X54458257Y-60036085D01*
X54458255Y-60036081D01*
X54369560Y-59903340D01*
X54369554Y-59903332D01*
X54256667Y-59790445D01*
X54256659Y-59790439D01*
X54123918Y-59701744D01*
X54123914Y-59701742D01*
X53976418Y-59640648D01*
X53976406Y-59640645D01*
X53819831Y-59609500D01*
X53819827Y-59609500D01*
X53660173Y-59609500D01*
X53660168Y-59609500D01*
X53503593Y-59640645D01*
X53503581Y-59640648D01*
X53356085Y-59701742D01*
X53356081Y-59701744D01*
X53223340Y-59790439D01*
X53223332Y-59790445D01*
X53110445Y-59903332D01*
X53110439Y-59903340D01*
X53021744Y-60036081D01*
X53021742Y-60036085D01*
X52960648Y-60183581D01*
X52960645Y-60183593D01*
X52929500Y-60340168D01*
X50200500Y-60340168D01*
X50200500Y-57355000D01*
X51905000Y-57355000D01*
X53805000Y-57355000D01*
X53805000Y-56880168D01*
X65119500Y-56880168D01*
X65119500Y-57039831D01*
X65150645Y-57196406D01*
X65150648Y-57196418D01*
X65211742Y-57343914D01*
X65211744Y-57343918D01*
X65300439Y-57476659D01*
X65300445Y-57476667D01*
X65413332Y-57589554D01*
X65413340Y-57589560D01*
X65546081Y-57678255D01*
X65546085Y-57678257D01*
X65623928Y-57710500D01*
X65693586Y-57739353D01*
X65850168Y-57770499D01*
X65850172Y-57770500D01*
X65850173Y-57770500D01*
X66009828Y-57770500D01*
X66009829Y-57770499D01*
X66166414Y-57739353D01*
X66264748Y-57698621D01*
X66313914Y-57678257D01*
X66313918Y-57678255D01*
X66403714Y-57618255D01*
X66446664Y-57589557D01*
X66559557Y-57476664D01*
X66604203Y-57409844D01*
X66648255Y-57343918D01*
X66648257Y-57343914D01*
X66673109Y-57283916D01*
X66709353Y-57196414D01*
X66740432Y-57040168D01*
X83304500Y-57040168D01*
X83304500Y-57199831D01*
X83335645Y-57356406D01*
X83335648Y-57356418D01*
X83396742Y-57503914D01*
X83396744Y-57503918D01*
X83485439Y-57636659D01*
X83485445Y-57636667D01*
X83598332Y-57749554D01*
X83598340Y-57749560D01*
X83731081Y-57838255D01*
X83731085Y-57838257D01*
X83878581Y-57899351D01*
X83878586Y-57899353D01*
X84035168Y-57930499D01*
X84035172Y-57930500D01*
X84035173Y-57930500D01*
X84194828Y-57930500D01*
X84194829Y-57930499D01*
X84351414Y-57899353D01*
X84498916Y-57838256D01*
X84498918Y-57838255D01*
X84600322Y-57770499D01*
X84631664Y-57749557D01*
X84744557Y-57636664D01*
X84789203Y-57569844D01*
X84833255Y-57503918D01*
X84833257Y-57503914D01*
X84853621Y-57454748D01*
X84894353Y-57356414D01*
X84925500Y-57199827D01*
X84925500Y-57040173D01*
X84894353Y-56883586D01*
X84868084Y-56820168D01*
X96414500Y-56820168D01*
X96414500Y-56979831D01*
X96445645Y-57136406D01*
X96445648Y-57136418D01*
X96506742Y-57283914D01*
X96506744Y-57283918D01*
X96595439Y-57416659D01*
X96595445Y-57416667D01*
X96708332Y-57529554D01*
X96708340Y-57529560D01*
X96841081Y-57618255D01*
X96841085Y-57618257D01*
X96985940Y-57678257D01*
X96988586Y-57679353D01*
X97145168Y-57710499D01*
X97145172Y-57710500D01*
X97145173Y-57710500D01*
X97304828Y-57710500D01*
X97304829Y-57710499D01*
X97461414Y-57679353D01*
X97608916Y-57618256D01*
X97608918Y-57618255D01*
X97674844Y-57574203D01*
X97741664Y-57529557D01*
X97854557Y-57416664D01*
X97943256Y-57283916D01*
X98004353Y-57136414D01*
X98035500Y-56979827D01*
X98035500Y-56820173D01*
X98004353Y-56663586D01*
X98004351Y-56663581D01*
X97943257Y-56516085D01*
X97943255Y-56516081D01*
X97854560Y-56383340D01*
X97854554Y-56383332D01*
X97741667Y-56270445D01*
X97741659Y-56270439D01*
X97608918Y-56181744D01*
X97608914Y-56181742D01*
X97461418Y-56120648D01*
X97461406Y-56120645D01*
X97304831Y-56089500D01*
X97304827Y-56089500D01*
X97145173Y-56089500D01*
X97145168Y-56089500D01*
X96988593Y-56120645D01*
X96988581Y-56120648D01*
X96841085Y-56181742D01*
X96841081Y-56181744D01*
X96708340Y-56270439D01*
X96708332Y-56270445D01*
X96595445Y-56383332D01*
X96595439Y-56383340D01*
X96506744Y-56516081D01*
X96506742Y-56516085D01*
X96445648Y-56663581D01*
X96445645Y-56663593D01*
X96414500Y-56820168D01*
X84868084Y-56820168D01*
X84848787Y-56773581D01*
X84833255Y-56736081D01*
X84744560Y-56603340D01*
X84744554Y-56603332D01*
X84631667Y-56490445D01*
X84631659Y-56490439D01*
X84498918Y-56401744D01*
X84498914Y-56401742D01*
X84351418Y-56340648D01*
X84351406Y-56340645D01*
X84194831Y-56309500D01*
X84194827Y-56309500D01*
X84035173Y-56309500D01*
X84035168Y-56309500D01*
X83878593Y-56340645D01*
X83878581Y-56340648D01*
X83731085Y-56401742D01*
X83731081Y-56401744D01*
X83598340Y-56490439D01*
X83598332Y-56490445D01*
X83485445Y-56603332D01*
X83485439Y-56603340D01*
X83396744Y-56736081D01*
X83396742Y-56736085D01*
X83335648Y-56883581D01*
X83335645Y-56883593D01*
X83304500Y-57040168D01*
X66740432Y-57040168D01*
X66740500Y-57039827D01*
X66740500Y-56880173D01*
X66709353Y-56723586D01*
X66684503Y-56663593D01*
X66648257Y-56576085D01*
X66648255Y-56576081D01*
X66559560Y-56443340D01*
X66559554Y-56443332D01*
X66446667Y-56330445D01*
X66446659Y-56330439D01*
X66313918Y-56241744D01*
X66313914Y-56241742D01*
X66166418Y-56180648D01*
X66166406Y-56180645D01*
X66009831Y-56149500D01*
X66009827Y-56149500D01*
X65850173Y-56149500D01*
X65850168Y-56149500D01*
X65693593Y-56180645D01*
X65693581Y-56180648D01*
X65546085Y-56241742D01*
X65546081Y-56241744D01*
X65413340Y-56330439D01*
X65413332Y-56330445D01*
X65300445Y-56443332D01*
X65300439Y-56443340D01*
X65211744Y-56576081D01*
X65211742Y-56576085D01*
X65150648Y-56723581D01*
X65150645Y-56723593D01*
X65119500Y-56880168D01*
X53805000Y-56880168D01*
X53805000Y-55265000D01*
X51905000Y-55265000D01*
X51905000Y-57355000D01*
X50200500Y-57355000D01*
X50200500Y-54515168D01*
X62239500Y-54515168D01*
X62239500Y-54674831D01*
X62270645Y-54831406D01*
X62270648Y-54831418D01*
X62331742Y-54978914D01*
X62331744Y-54978918D01*
X62420439Y-55111659D01*
X62420445Y-55111667D01*
X62533332Y-55224554D01*
X62533340Y-55224560D01*
X62666081Y-55313255D01*
X62666085Y-55313257D01*
X62813581Y-55374351D01*
X62813586Y-55374353D01*
X62970168Y-55405499D01*
X62970172Y-55405500D01*
X62970173Y-55405500D01*
X63129828Y-55405500D01*
X63129829Y-55405499D01*
X63286414Y-55374353D01*
X63433916Y-55313256D01*
X63433918Y-55313255D01*
X63499844Y-55269203D01*
X63566664Y-55224557D01*
X63679557Y-55111664D01*
X63768256Y-54978916D01*
X63829353Y-54831414D01*
X63860500Y-54674827D01*
X63860500Y-54515173D01*
X63829353Y-54358586D01*
X63829351Y-54358581D01*
X63781477Y-54243001D01*
X93027138Y-54243001D01*
X93830012Y-54243001D01*
X93812795Y-54252941D01*
X93756940Y-54308796D01*
X93717444Y-54377205D01*
X93697000Y-54453505D01*
X93697000Y-54532497D01*
X93717444Y-54608797D01*
X93756940Y-54677206D01*
X93812795Y-54733061D01*
X93830012Y-54743001D01*
X93027138Y-54743001D01*
X93035430Y-54784691D01*
X93035430Y-54784693D01*
X93110807Y-54966672D01*
X93110814Y-54966685D01*
X93220248Y-55130463D01*
X93220251Y-55130467D01*
X93359533Y-55269749D01*
X93359537Y-55269752D01*
X93523315Y-55379186D01*
X93523328Y-55379193D01*
X93705306Y-55454570D01*
X93705318Y-55454573D01*
X93898504Y-55493000D01*
X93898508Y-55493001D01*
X94297000Y-55493001D01*
X94297000Y-54793001D01*
X94797000Y-54793001D01*
X94797000Y-55493001D01*
X95195492Y-55493001D01*
X95195495Y-55493000D01*
X95388681Y-55454573D01*
X95388693Y-55454570D01*
X95570671Y-55379193D01*
X95570684Y-55379186D01*
X95734462Y-55269752D01*
X95734466Y-55269749D01*
X95873748Y-55130467D01*
X95873751Y-55130463D01*
X95983185Y-54966685D01*
X95983192Y-54966672D01*
X96058569Y-54784693D01*
X96058569Y-54784691D01*
X96066862Y-54743001D01*
X95263988Y-54743001D01*
X95281205Y-54733061D01*
X95337060Y-54677206D01*
X95376556Y-54608797D01*
X95397000Y-54532497D01*
X95397000Y-54453505D01*
X95376556Y-54377205D01*
X95337060Y-54308796D01*
X95281205Y-54252941D01*
X95263988Y-54243001D01*
X96066862Y-54243001D01*
X96058569Y-54201310D01*
X96058569Y-54201308D01*
X95983192Y-54019329D01*
X95983185Y-54019316D01*
X95873751Y-53855538D01*
X95873748Y-53855534D01*
X95734466Y-53716252D01*
X95734462Y-53716249D01*
X95570684Y-53606815D01*
X95570669Y-53606807D01*
X95565012Y-53604464D01*
X95510610Y-53560621D01*
X95488548Y-53494326D01*
X95505830Y-53426627D01*
X95508403Y-53422826D01*
X95529280Y-53386667D01*
X95587008Y-53286679D01*
X95626500Y-53139294D01*
X95626500Y-52986708D01*
X95587008Y-52839323D01*
X95558628Y-52790168D01*
X95510717Y-52707183D01*
X95510712Y-52707177D01*
X95402823Y-52599288D01*
X95402817Y-52599283D01*
X95270681Y-52522994D01*
X95270682Y-52522994D01*
X95258595Y-52519755D01*
X95123293Y-52483501D01*
X94970707Y-52483501D01*
X94835404Y-52519755D01*
X94823318Y-52522994D01*
X94691182Y-52599283D01*
X94691176Y-52599288D01*
X94583287Y-52707177D01*
X94583282Y-52707183D01*
X94506993Y-52839319D01*
X94506992Y-52839323D01*
X94467500Y-52986708D01*
X94467500Y-53139294D01*
X94498213Y-53253914D01*
X94506993Y-53286682D01*
X94583282Y-53418818D01*
X94583284Y-53418820D01*
X94583285Y-53418822D01*
X94691179Y-53526716D01*
X94735000Y-53552016D01*
X94783214Y-53602580D01*
X94797000Y-53659402D01*
X94797000Y-54193001D01*
X94297000Y-54193001D01*
X94297000Y-53493001D01*
X93898504Y-53493001D01*
X93705318Y-53531428D01*
X93705306Y-53531431D01*
X93523328Y-53606808D01*
X93523315Y-53606815D01*
X93359537Y-53716249D01*
X93359533Y-53716252D01*
X93220251Y-53855534D01*
X93220248Y-53855538D01*
X93110814Y-54019316D01*
X93110807Y-54019329D01*
X93035430Y-54201308D01*
X93035430Y-54201310D01*
X93027138Y-54243001D01*
X63781477Y-54243001D01*
X63768257Y-54211085D01*
X63768255Y-54211081D01*
X63679560Y-54078340D01*
X63679554Y-54078332D01*
X63566667Y-53965445D01*
X63566659Y-53965439D01*
X63433918Y-53876744D01*
X63433914Y-53876742D01*
X63286418Y-53815648D01*
X63286406Y-53815645D01*
X63129831Y-53784500D01*
X63129827Y-53784500D01*
X62970173Y-53784500D01*
X62970168Y-53784500D01*
X62813593Y-53815645D01*
X62813581Y-53815648D01*
X62666085Y-53876742D01*
X62666081Y-53876744D01*
X62533340Y-53965439D01*
X62533332Y-53965445D01*
X62420445Y-54078332D01*
X62420439Y-54078340D01*
X62331744Y-54211081D01*
X62331742Y-54211085D01*
X62270648Y-54358581D01*
X62270645Y-54358593D01*
X62239500Y-54515168D01*
X50200500Y-54515168D01*
X50200500Y-52745168D01*
X64384500Y-52745168D01*
X64384500Y-52904831D01*
X64415645Y-53061406D01*
X64415648Y-53061418D01*
X64476742Y-53208914D01*
X64476744Y-53208918D01*
X64565439Y-53341659D01*
X64565445Y-53341667D01*
X64678332Y-53454554D01*
X64678340Y-53454560D01*
X64811081Y-53543255D01*
X64811085Y-53543257D01*
X64955341Y-53603009D01*
X64958586Y-53604353D01*
X65069515Y-53626418D01*
X65115168Y-53635499D01*
X65115172Y-53635500D01*
X65115173Y-53635500D01*
X65274828Y-53635500D01*
X65274829Y-53635499D01*
X65431414Y-53604353D01*
X65578916Y-53543256D01*
X65578918Y-53543255D01*
X65654128Y-53493001D01*
X65711664Y-53454557D01*
X65824557Y-53341664D01*
X65883188Y-53253916D01*
X65913255Y-53208918D01*
X65913257Y-53208914D01*
X65974351Y-53061418D01*
X65974353Y-53061414D01*
X66005500Y-52904827D01*
X66005500Y-52790168D01*
X68579500Y-52790168D01*
X68579500Y-52949831D01*
X68610645Y-53106406D01*
X68610648Y-53106418D01*
X68671742Y-53253914D01*
X68671744Y-53253918D01*
X68760439Y-53386659D01*
X68760445Y-53386667D01*
X68873332Y-53499554D01*
X68873340Y-53499560D01*
X69006081Y-53588255D01*
X69006085Y-53588257D01*
X69153581Y-53649351D01*
X69153586Y-53649353D01*
X69310168Y-53680499D01*
X69310172Y-53680500D01*
X69310173Y-53680500D01*
X69469828Y-53680500D01*
X69469829Y-53680499D01*
X69626414Y-53649353D01*
X69773916Y-53588256D01*
X69773918Y-53588255D01*
X69858965Y-53531428D01*
X69906664Y-53499557D01*
X70019557Y-53386664D01*
X70070670Y-53310168D01*
X83939500Y-53310168D01*
X83939500Y-53469831D01*
X83970645Y-53626406D01*
X83970648Y-53626418D01*
X84031742Y-53773914D01*
X84031744Y-53773918D01*
X84120439Y-53906659D01*
X84120445Y-53906667D01*
X84233332Y-54019554D01*
X84233340Y-54019560D01*
X84366081Y-54108255D01*
X84366085Y-54108257D01*
X84495279Y-54161770D01*
X84513586Y-54169353D01*
X84632473Y-54193001D01*
X84670168Y-54200499D01*
X84670172Y-54200500D01*
X84670173Y-54200500D01*
X84829828Y-54200500D01*
X84829829Y-54200499D01*
X84986414Y-54169353D01*
X85133916Y-54108256D01*
X85133918Y-54108255D01*
X85199844Y-54064203D01*
X85266664Y-54019557D01*
X85379557Y-53906664D01*
X85468256Y-53773916D01*
X85529353Y-53626414D01*
X85560500Y-53469827D01*
X85560500Y-53310173D01*
X85529353Y-53153586D01*
X85523432Y-53139291D01*
X85468257Y-53006085D01*
X85468255Y-53006081D01*
X85379560Y-52873340D01*
X85379554Y-52873332D01*
X85266667Y-52760445D01*
X85266659Y-52760439D01*
X85133918Y-52671744D01*
X85133914Y-52671742D01*
X84986418Y-52610648D01*
X84986406Y-52610645D01*
X84976623Y-52608699D01*
X84829831Y-52579500D01*
X84829827Y-52579500D01*
X84670173Y-52579500D01*
X84670168Y-52579500D01*
X84513593Y-52610645D01*
X84513581Y-52610648D01*
X84366085Y-52671742D01*
X84366081Y-52671744D01*
X84233340Y-52760439D01*
X84233332Y-52760445D01*
X84120445Y-52873332D01*
X84120439Y-52873340D01*
X84031744Y-53006081D01*
X84031742Y-53006085D01*
X83970648Y-53153581D01*
X83970645Y-53153593D01*
X83939500Y-53310168D01*
X70070670Y-53310168D01*
X70108256Y-53253916D01*
X70169353Y-53106414D01*
X70200500Y-52949827D01*
X70200500Y-52790173D01*
X70169353Y-52633586D01*
X70159852Y-52610648D01*
X70111191Y-52493169D01*
X91321500Y-52493169D01*
X91321500Y-52652832D01*
X91352645Y-52809407D01*
X91352648Y-52809419D01*
X91413742Y-52956915D01*
X91413744Y-52956919D01*
X91502439Y-53089660D01*
X91502445Y-53089668D01*
X91615332Y-53202555D01*
X91615340Y-53202561D01*
X91748081Y-53291256D01*
X91748085Y-53291258D01*
X91869778Y-53341664D01*
X91895586Y-53352354D01*
X92052168Y-53383500D01*
X92052172Y-53383501D01*
X92052173Y-53383501D01*
X92211828Y-53383501D01*
X92211829Y-53383500D01*
X92368414Y-53352354D01*
X92466748Y-53311622D01*
X92515914Y-53291258D01*
X92515918Y-53291256D01*
X92581844Y-53247204D01*
X92648664Y-53202558D01*
X92761557Y-53089665D01*
X92850256Y-52956917D01*
X92911353Y-52809415D01*
X92942500Y-52652828D01*
X92942500Y-52493174D01*
X92911353Y-52336587D01*
X92899651Y-52308336D01*
X92850257Y-52189086D01*
X92850255Y-52189082D01*
X92761560Y-52056341D01*
X92761554Y-52056333D01*
X92648667Y-51943446D01*
X92648659Y-51943440D01*
X92515918Y-51854745D01*
X92515914Y-51854743D01*
X92368418Y-51793649D01*
X92368406Y-51793646D01*
X92211831Y-51762501D01*
X92211827Y-51762501D01*
X92052173Y-51762501D01*
X92052168Y-51762501D01*
X91895593Y-51793646D01*
X91895581Y-51793649D01*
X91748085Y-51854743D01*
X91748081Y-51854745D01*
X91615340Y-51943440D01*
X91615332Y-51943446D01*
X91502445Y-52056333D01*
X91502439Y-52056341D01*
X91413744Y-52189082D01*
X91413742Y-52189086D01*
X91352648Y-52336582D01*
X91352645Y-52336594D01*
X91321500Y-52493169D01*
X70111191Y-52493169D01*
X70108257Y-52486085D01*
X70108255Y-52486081D01*
X70019560Y-52353340D01*
X70019554Y-52353332D01*
X69906667Y-52240445D01*
X69906659Y-52240439D01*
X69773918Y-52151744D01*
X69773914Y-52151742D01*
X69626418Y-52090648D01*
X69626406Y-52090645D01*
X69469831Y-52059500D01*
X69469827Y-52059500D01*
X69310173Y-52059500D01*
X69310168Y-52059500D01*
X69153593Y-52090645D01*
X69153581Y-52090648D01*
X69006085Y-52151742D01*
X69006081Y-52151744D01*
X68873340Y-52240439D01*
X68873332Y-52240445D01*
X68760445Y-52353332D01*
X68760439Y-52353340D01*
X68671744Y-52486081D01*
X68671742Y-52486085D01*
X68610648Y-52633581D01*
X68610645Y-52633593D01*
X68579500Y-52790168D01*
X66005500Y-52790168D01*
X66005500Y-52745173D01*
X65974353Y-52588586D01*
X65974351Y-52588581D01*
X65913257Y-52441085D01*
X65913255Y-52441081D01*
X65824560Y-52308340D01*
X65824554Y-52308332D01*
X65711667Y-52195445D01*
X65711659Y-52195439D01*
X65578918Y-52106744D01*
X65578914Y-52106742D01*
X65431418Y-52045648D01*
X65431406Y-52045645D01*
X65274831Y-52014500D01*
X65274827Y-52014500D01*
X65115173Y-52014500D01*
X65115168Y-52014500D01*
X64958593Y-52045645D01*
X64958581Y-52045648D01*
X64811085Y-52106742D01*
X64811081Y-52106744D01*
X64678340Y-52195439D01*
X64678332Y-52195445D01*
X64565445Y-52308332D01*
X64565439Y-52308340D01*
X64476744Y-52441081D01*
X64476742Y-52441085D01*
X64415648Y-52588581D01*
X64415645Y-52588593D01*
X64384500Y-52745168D01*
X50200500Y-52745168D01*
X50200500Y-51355169D01*
X84504500Y-51355169D01*
X84504500Y-51514832D01*
X84535645Y-51671407D01*
X84535648Y-51671419D01*
X84596742Y-51818915D01*
X84596744Y-51818919D01*
X84685439Y-51951660D01*
X84685445Y-51951668D01*
X84798332Y-52064555D01*
X84798340Y-52064561D01*
X84931081Y-52153256D01*
X84931085Y-52153258D01*
X85032935Y-52195445D01*
X85078586Y-52214354D01*
X85209725Y-52240439D01*
X85235168Y-52245500D01*
X85235172Y-52245501D01*
X85235173Y-52245501D01*
X85394828Y-52245501D01*
X85394829Y-52245500D01*
X85551414Y-52214354D01*
X85698916Y-52153257D01*
X85698918Y-52153256D01*
X85792622Y-52090645D01*
X85831664Y-52064558D01*
X85944557Y-51951665D01*
X86033256Y-51818917D01*
X86094353Y-51671415D01*
X86125500Y-51514828D01*
X86125500Y-51355174D01*
X86094353Y-51198587D01*
X86094351Y-51198582D01*
X86033257Y-51051086D01*
X86033255Y-51051082D01*
X85944560Y-50918341D01*
X85944554Y-50918333D01*
X85831667Y-50805446D01*
X85831659Y-50805440D01*
X85698918Y-50716745D01*
X85698914Y-50716743D01*
X85551418Y-50655649D01*
X85551406Y-50655646D01*
X85394831Y-50624501D01*
X85394827Y-50624501D01*
X85235173Y-50624501D01*
X85235168Y-50624501D01*
X85078593Y-50655646D01*
X85078581Y-50655649D01*
X84931085Y-50716743D01*
X84931081Y-50716745D01*
X84798340Y-50805440D01*
X84798332Y-50805446D01*
X84685445Y-50918333D01*
X84685439Y-50918341D01*
X84596744Y-51051082D01*
X84596742Y-51051086D01*
X84535648Y-51198582D01*
X84535645Y-51198594D01*
X84504500Y-51355169D01*
X50200500Y-51355169D01*
X50200500Y-47475168D01*
X57074500Y-47475168D01*
X57074500Y-47634831D01*
X57105645Y-47791406D01*
X57105648Y-47791418D01*
X57166742Y-47938914D01*
X57166744Y-47938918D01*
X57255439Y-48071659D01*
X57255445Y-48071667D01*
X57368332Y-48184554D01*
X57368340Y-48184560D01*
X57501081Y-48273255D01*
X57501085Y-48273257D01*
X57648581Y-48334351D01*
X57648586Y-48334353D01*
X57805168Y-48365499D01*
X57805172Y-48365500D01*
X57805173Y-48365500D01*
X57964828Y-48365500D01*
X57964829Y-48365499D01*
X58121414Y-48334353D01*
X58268916Y-48273256D01*
X58268918Y-48273255D01*
X58334844Y-48229203D01*
X58401664Y-48184557D01*
X58514557Y-48071664D01*
X58569011Y-47990168D01*
X67814500Y-47990168D01*
X67814500Y-48149831D01*
X67845645Y-48306406D01*
X67845648Y-48306418D01*
X67906742Y-48453914D01*
X67906744Y-48453918D01*
X67995439Y-48586659D01*
X67995445Y-48586667D01*
X68108332Y-48699554D01*
X68108340Y-48699560D01*
X68241081Y-48788255D01*
X68241085Y-48788257D01*
X68388581Y-48849351D01*
X68388586Y-48849353D01*
X68545168Y-48880499D01*
X68545172Y-48880500D01*
X68545173Y-48880500D01*
X68704828Y-48880500D01*
X68704828Y-48880499D01*
X68771891Y-48867160D01*
X68841481Y-48873387D01*
X68896659Y-48916249D01*
X68919904Y-48982139D01*
X68903837Y-49050136D01*
X68899185Y-49057667D01*
X68826742Y-49166087D01*
X68765648Y-49313581D01*
X68765645Y-49313593D01*
X68734500Y-49470168D01*
X68734500Y-49629831D01*
X68765645Y-49786406D01*
X68765648Y-49786418D01*
X68826742Y-49933914D01*
X68826744Y-49933918D01*
X68915439Y-50066659D01*
X68915445Y-50066667D01*
X69028332Y-50179554D01*
X69028340Y-50179560D01*
X69161081Y-50268255D01*
X69161085Y-50268257D01*
X69308581Y-50329351D01*
X69308586Y-50329353D01*
X69465168Y-50360499D01*
X69465172Y-50360500D01*
X69465173Y-50360500D01*
X69624828Y-50360500D01*
X69624829Y-50360499D01*
X69781414Y-50329353D01*
X69928916Y-50268256D01*
X69928918Y-50268255D01*
X69994844Y-50224203D01*
X70061664Y-50179557D01*
X70174557Y-50066664D01*
X70263256Y-49933916D01*
X70324353Y-49786414D01*
X70355500Y-49629827D01*
X70355500Y-49470173D01*
X70324353Y-49313586D01*
X70324351Y-49313581D01*
X70263257Y-49166085D01*
X70263255Y-49166081D01*
X70174560Y-49033340D01*
X70174554Y-49033332D01*
X70061667Y-48920445D01*
X70061659Y-48920439D01*
X69928918Y-48831744D01*
X69928914Y-48831742D01*
X69781418Y-48770648D01*
X69781406Y-48770645D01*
X69624831Y-48739500D01*
X69624827Y-48739500D01*
X69465173Y-48739500D01*
X69433168Y-48745865D01*
X69398107Y-48752840D01*
X69328516Y-48746611D01*
X69273339Y-48703748D01*
X69250095Y-48637858D01*
X69266163Y-48569861D01*
X69270806Y-48562345D01*
X69343256Y-48453916D01*
X69404353Y-48306414D01*
X69435500Y-48149827D01*
X69435500Y-47990173D01*
X69404353Y-47833586D01*
X69386882Y-47791406D01*
X69346191Y-47693169D01*
X91321500Y-47693169D01*
X91321500Y-47852832D01*
X91352645Y-48009407D01*
X91352648Y-48009419D01*
X91413742Y-48156915D01*
X91413744Y-48156919D01*
X91502439Y-48289660D01*
X91502445Y-48289668D01*
X91615332Y-48402555D01*
X91615340Y-48402561D01*
X91748081Y-48491256D01*
X91748085Y-48491258D01*
X91895581Y-48552352D01*
X91895586Y-48552354D01*
X92052168Y-48583500D01*
X92052172Y-48583501D01*
X92052173Y-48583501D01*
X92211828Y-48583501D01*
X92211829Y-48583500D01*
X92368414Y-48552354D01*
X92515916Y-48491257D01*
X92515918Y-48491256D01*
X92581844Y-48447204D01*
X92648664Y-48402558D01*
X92761557Y-48289665D01*
X92850256Y-48156917D01*
X92911353Y-48009415D01*
X92942500Y-47852828D01*
X92942500Y-47693174D01*
X92911353Y-47536587D01*
X92871529Y-47440443D01*
X92850257Y-47389087D01*
X92837276Y-47369660D01*
X92761557Y-47256337D01*
X92761555Y-47256335D01*
X92761553Y-47256332D01*
X92648667Y-47143446D01*
X92648659Y-47143440D01*
X92515918Y-47054745D01*
X92515914Y-47054743D01*
X92368418Y-46993649D01*
X92368406Y-46993646D01*
X92211831Y-46962501D01*
X92211827Y-46962501D01*
X92052173Y-46962501D01*
X92052168Y-46962501D01*
X91895593Y-46993646D01*
X91895581Y-46993649D01*
X91748085Y-47054743D01*
X91748081Y-47054745D01*
X91615340Y-47143440D01*
X91615332Y-47143446D01*
X91502445Y-47256333D01*
X91502439Y-47256341D01*
X91413744Y-47389082D01*
X91413742Y-47389086D01*
X91352648Y-47536582D01*
X91352645Y-47536594D01*
X91321500Y-47693169D01*
X69346191Y-47693169D01*
X69343257Y-47686085D01*
X69343255Y-47686081D01*
X69254560Y-47553340D01*
X69254554Y-47553332D01*
X69141667Y-47440445D01*
X69141659Y-47440439D01*
X69008918Y-47351744D01*
X69008914Y-47351742D01*
X68861418Y-47290648D01*
X68861406Y-47290645D01*
X68704831Y-47259500D01*
X68704827Y-47259500D01*
X68545173Y-47259500D01*
X68545168Y-47259500D01*
X68388593Y-47290645D01*
X68388581Y-47290648D01*
X68241085Y-47351742D01*
X68241081Y-47351744D01*
X68108340Y-47440439D01*
X68108332Y-47440445D01*
X67995445Y-47553332D01*
X67995439Y-47553340D01*
X67906744Y-47686081D01*
X67906742Y-47686085D01*
X67845648Y-47833581D01*
X67845645Y-47833593D01*
X67814500Y-47990168D01*
X58569011Y-47990168D01*
X58603256Y-47938916D01*
X58664353Y-47791414D01*
X58695500Y-47634827D01*
X58695500Y-47475173D01*
X58664353Y-47318586D01*
X58652781Y-47290648D01*
X58603257Y-47171085D01*
X58603255Y-47171081D01*
X58514560Y-47038340D01*
X58514554Y-47038332D01*
X58401667Y-46925445D01*
X58401659Y-46925439D01*
X58268918Y-46836744D01*
X58268914Y-46836742D01*
X58121418Y-46775648D01*
X58121406Y-46775645D01*
X57964831Y-46744500D01*
X57964827Y-46744500D01*
X57805173Y-46744500D01*
X57805168Y-46744500D01*
X57648593Y-46775645D01*
X57648581Y-46775648D01*
X57501085Y-46836742D01*
X57501081Y-46836744D01*
X57368340Y-46925439D01*
X57368332Y-46925445D01*
X57255445Y-47038332D01*
X57255439Y-47038340D01*
X57166744Y-47171081D01*
X57166742Y-47171085D01*
X57105648Y-47318581D01*
X57105645Y-47318593D01*
X57074500Y-47475168D01*
X50200500Y-47475168D01*
X50200500Y-45465168D01*
X68579500Y-45465168D01*
X68579500Y-45624831D01*
X68610645Y-45781406D01*
X68610648Y-45781418D01*
X68671742Y-45928914D01*
X68671744Y-45928918D01*
X68760439Y-46061659D01*
X68760445Y-46061667D01*
X68873332Y-46174554D01*
X68873340Y-46174560D01*
X69006081Y-46263255D01*
X69006085Y-46263257D01*
X69153581Y-46324351D01*
X69153586Y-46324353D01*
X69310168Y-46355499D01*
X69310172Y-46355500D01*
X69310173Y-46355500D01*
X69469828Y-46355500D01*
X69469829Y-46355499D01*
X69626414Y-46324353D01*
X69773916Y-46263256D01*
X69773918Y-46263255D01*
X69839844Y-46219203D01*
X69893775Y-46183169D01*
X78326500Y-46183169D01*
X78326500Y-46342832D01*
X78357645Y-46499407D01*
X78357648Y-46499419D01*
X78418742Y-46646915D01*
X78418744Y-46646919D01*
X78507439Y-46779660D01*
X78507445Y-46779668D01*
X78620332Y-46892555D01*
X78620340Y-46892561D01*
X78753081Y-46981256D01*
X78753085Y-46981258D01*
X78890895Y-47038340D01*
X78900586Y-47042354D01*
X79057168Y-47073500D01*
X79057172Y-47073501D01*
X79057173Y-47073501D01*
X79216828Y-47073501D01*
X79216829Y-47073500D01*
X79373414Y-47042354D01*
X79520916Y-46981257D01*
X79520918Y-46981256D01*
X79614520Y-46918713D01*
X79653664Y-46892558D01*
X79766557Y-46779665D01*
X79770897Y-46773169D01*
X80591500Y-46773169D01*
X80591500Y-46932832D01*
X80622645Y-47089407D01*
X80622648Y-47089419D01*
X80683742Y-47236915D01*
X80683744Y-47236919D01*
X80772439Y-47369660D01*
X80772445Y-47369668D01*
X80885332Y-47482555D01*
X80885340Y-47482561D01*
X81018081Y-47571256D01*
X81018085Y-47571258D01*
X81165581Y-47632352D01*
X81165586Y-47632354D01*
X81322168Y-47663500D01*
X81322172Y-47663501D01*
X81322173Y-47663501D01*
X81481828Y-47663501D01*
X81481829Y-47663500D01*
X81638414Y-47632354D01*
X81782864Y-47572521D01*
X81782865Y-47572521D01*
X81783755Y-47572152D01*
X81785916Y-47571257D01*
X81785917Y-47571256D01*
X81785918Y-47571256D01*
X81851844Y-47527204D01*
X81918664Y-47482558D01*
X82031557Y-47369665D01*
X82105167Y-47259500D01*
X82120255Y-47236919D01*
X82120257Y-47236915D01*
X82158973Y-47143446D01*
X82181353Y-47089415D01*
X82212500Y-46932828D01*
X82212500Y-46773174D01*
X82181353Y-46616587D01*
X82161788Y-46569353D01*
X82120257Y-46469086D01*
X82120255Y-46469082D01*
X82031560Y-46336341D01*
X82031554Y-46336333D01*
X81918667Y-46223446D01*
X81918659Y-46223440D01*
X81785918Y-46134745D01*
X81785914Y-46134743D01*
X81638418Y-46073649D01*
X81638406Y-46073646D01*
X81481831Y-46042501D01*
X81481827Y-46042501D01*
X81322173Y-46042501D01*
X81322168Y-46042501D01*
X81165593Y-46073646D01*
X81165581Y-46073649D01*
X81018085Y-46134743D01*
X81018081Y-46134745D01*
X80885340Y-46223440D01*
X80885332Y-46223446D01*
X80772445Y-46336333D01*
X80772439Y-46336341D01*
X80683744Y-46469082D01*
X80683742Y-46469086D01*
X80622648Y-46616582D01*
X80622645Y-46616594D01*
X80591500Y-46773169D01*
X79770897Y-46773169D01*
X79855256Y-46646917D01*
X79916353Y-46499415D01*
X79947500Y-46342828D01*
X79947500Y-46183174D01*
X79916353Y-46026587D01*
X79892416Y-45968797D01*
X79855257Y-45879086D01*
X79855255Y-45879083D01*
X79784355Y-45772973D01*
X79784353Y-45772971D01*
X79766555Y-45746334D01*
X79730389Y-45710168D01*
X87299500Y-45710168D01*
X87299500Y-45869831D01*
X87330645Y-46026406D01*
X87330648Y-46026418D01*
X87391742Y-46173914D01*
X87391744Y-46173918D01*
X87480439Y-46306659D01*
X87480445Y-46306667D01*
X87593332Y-46419554D01*
X87593340Y-46419560D01*
X87726081Y-46508255D01*
X87726085Y-46508257D01*
X87873581Y-46569351D01*
X87873586Y-46569353D01*
X88030168Y-46600499D01*
X88030172Y-46600500D01*
X88030173Y-46600500D01*
X88189828Y-46600500D01*
X88189829Y-46600499D01*
X88346414Y-46569353D01*
X88493916Y-46508256D01*
X88493918Y-46508255D01*
X88559844Y-46464203D01*
X88626664Y-46419557D01*
X88739557Y-46306664D01*
X88822071Y-46183173D01*
X88828255Y-46173918D01*
X88828257Y-46173914D01*
X88874754Y-46061659D01*
X88889353Y-46026414D01*
X88920500Y-45869827D01*
X88920500Y-45710173D01*
X88910624Y-45660522D01*
X88910624Y-45660519D01*
X88899183Y-45603001D01*
X93027138Y-45603001D01*
X93830012Y-45603001D01*
X93812795Y-45612941D01*
X93756940Y-45668796D01*
X93717444Y-45737205D01*
X93697000Y-45813505D01*
X93697000Y-45892497D01*
X93717444Y-45968797D01*
X93756940Y-46037206D01*
X93812795Y-46093061D01*
X93830012Y-46103001D01*
X93027138Y-46103001D01*
X93035430Y-46144691D01*
X93035430Y-46144693D01*
X93110807Y-46326672D01*
X93110814Y-46326684D01*
X93220248Y-46490463D01*
X93220251Y-46490467D01*
X93359533Y-46629749D01*
X93359537Y-46629752D01*
X93523315Y-46739186D01*
X93523328Y-46739193D01*
X93705306Y-46814570D01*
X93705318Y-46814573D01*
X93898504Y-46853000D01*
X93898508Y-46853001D01*
X94297000Y-46853001D01*
X94297000Y-46153001D01*
X94797000Y-46153001D01*
X94797000Y-46686598D01*
X94777315Y-46753637D01*
X94735002Y-46793984D01*
X94691182Y-46819284D01*
X94691176Y-46819288D01*
X94583287Y-46927177D01*
X94583282Y-46927183D01*
X94506993Y-47059319D01*
X94506992Y-47059323D01*
X94467500Y-47206708D01*
X94467500Y-47359294D01*
X94489243Y-47440439D01*
X94506993Y-47506682D01*
X94583282Y-47638818D01*
X94583284Y-47638820D01*
X94583285Y-47638822D01*
X94691179Y-47746716D01*
X94691180Y-47746717D01*
X94691182Y-47746718D01*
X94823318Y-47823007D01*
X94823319Y-47823007D01*
X94823322Y-47823009D01*
X94970707Y-47862501D01*
X94970710Y-47862501D01*
X95123290Y-47862501D01*
X95123293Y-47862501D01*
X95270678Y-47823009D01*
X95402821Y-47746716D01*
X95510715Y-47638822D01*
X95587008Y-47506679D01*
X95626500Y-47359294D01*
X95626500Y-47206708D01*
X95587008Y-47059323D01*
X95577211Y-47042355D01*
X95506651Y-46920141D01*
X95509122Y-46918713D01*
X95488901Y-46866444D01*
X95502922Y-46797996D01*
X95551723Y-46747994D01*
X95565019Y-46741533D01*
X95570683Y-46739186D01*
X95734462Y-46629752D01*
X95734466Y-46629749D01*
X95873748Y-46490467D01*
X95873751Y-46490463D01*
X95983186Y-46326684D01*
X95983192Y-46326672D01*
X96058569Y-46144693D01*
X96058569Y-46144691D01*
X96066862Y-46103001D01*
X95263988Y-46103001D01*
X95281205Y-46093061D01*
X95337060Y-46037206D01*
X95376556Y-45968797D01*
X95397000Y-45892497D01*
X95397000Y-45813505D01*
X95376556Y-45737205D01*
X95337060Y-45668796D01*
X95281205Y-45612941D01*
X95263988Y-45603001D01*
X96066862Y-45603001D01*
X96058569Y-45561310D01*
X96058569Y-45561308D01*
X95983192Y-45379329D01*
X95983185Y-45379316D01*
X95873751Y-45215538D01*
X95873748Y-45215534D01*
X95734466Y-45076252D01*
X95734462Y-45076249D01*
X95570684Y-44966815D01*
X95570671Y-44966808D01*
X95388693Y-44891431D01*
X95388681Y-44891428D01*
X95195495Y-44853001D01*
X94797000Y-44853001D01*
X94797000Y-45553001D01*
X94297000Y-45553001D01*
X94297000Y-44853001D01*
X93898504Y-44853001D01*
X93705318Y-44891428D01*
X93705306Y-44891431D01*
X93523328Y-44966808D01*
X93523315Y-44966815D01*
X93359537Y-45076249D01*
X93359533Y-45076252D01*
X93220251Y-45215534D01*
X93220248Y-45215538D01*
X93110814Y-45379316D01*
X93110807Y-45379329D01*
X93035430Y-45561308D01*
X93035430Y-45561310D01*
X93027138Y-45603001D01*
X88899183Y-45603001D01*
X88889354Y-45553591D01*
X88889353Y-45553590D01*
X88889353Y-45553586D01*
X88885690Y-45544743D01*
X88828257Y-45406085D01*
X88828255Y-45406081D01*
X88739560Y-45273340D01*
X88739554Y-45273332D01*
X88626667Y-45160445D01*
X88626659Y-45160439D01*
X88493918Y-45071744D01*
X88493914Y-45071742D01*
X88346418Y-45010648D01*
X88346406Y-45010645D01*
X88189831Y-44979500D01*
X88189827Y-44979500D01*
X88030173Y-44979500D01*
X88030168Y-44979500D01*
X87873593Y-45010645D01*
X87873581Y-45010648D01*
X87726085Y-45071742D01*
X87726081Y-45071744D01*
X87593340Y-45160439D01*
X87593332Y-45160445D01*
X87480445Y-45273332D01*
X87480439Y-45273340D01*
X87391744Y-45406081D01*
X87391742Y-45406085D01*
X87330648Y-45553581D01*
X87330645Y-45553593D01*
X87299500Y-45710168D01*
X79730389Y-45710168D01*
X79653667Y-45633446D01*
X79653659Y-45633440D01*
X79520918Y-45544745D01*
X79520914Y-45544743D01*
X79373418Y-45483649D01*
X79373406Y-45483646D01*
X79216831Y-45452501D01*
X79216827Y-45452501D01*
X79057173Y-45452501D01*
X79057168Y-45452501D01*
X78900593Y-45483646D01*
X78900581Y-45483649D01*
X78753085Y-45544743D01*
X78753081Y-45544745D01*
X78620340Y-45633440D01*
X78620332Y-45633446D01*
X78507445Y-45746333D01*
X78507439Y-45746341D01*
X78418744Y-45879082D01*
X78418742Y-45879086D01*
X78357648Y-46026582D01*
X78357645Y-46026594D01*
X78326500Y-46183169D01*
X69893775Y-46183169D01*
X69906664Y-46174557D01*
X69948664Y-46132557D01*
X69991821Y-46089401D01*
X70019554Y-46061667D01*
X70019557Y-46061664D01*
X70064203Y-45994844D01*
X70108255Y-45928918D01*
X70108257Y-45928914D01*
X70132731Y-45869827D01*
X70169353Y-45781414D01*
X70200500Y-45624827D01*
X70200500Y-45465173D01*
X70169353Y-45308586D01*
X70154752Y-45273336D01*
X70108257Y-45161085D01*
X70108255Y-45161081D01*
X70019560Y-45028340D01*
X70019554Y-45028332D01*
X69906667Y-44915445D01*
X69906659Y-44915439D01*
X69773918Y-44826744D01*
X69773914Y-44826742D01*
X69626418Y-44765648D01*
X69626406Y-44765645D01*
X69469831Y-44734500D01*
X69469827Y-44734500D01*
X69310173Y-44734500D01*
X69310168Y-44734500D01*
X69153593Y-44765645D01*
X69153581Y-44765648D01*
X69006085Y-44826742D01*
X69006081Y-44826744D01*
X68873340Y-44915439D01*
X68873332Y-44915445D01*
X68760445Y-45028332D01*
X68760439Y-45028340D01*
X68671744Y-45161081D01*
X68671742Y-45161085D01*
X68610648Y-45308581D01*
X68610645Y-45308593D01*
X68579500Y-45465168D01*
X50200500Y-45465168D01*
X50200500Y-43475168D01*
X68799500Y-43475168D01*
X68799500Y-43634831D01*
X68830645Y-43791406D01*
X68830648Y-43791418D01*
X68891742Y-43938914D01*
X68891744Y-43938918D01*
X68980439Y-44071659D01*
X68980445Y-44071667D01*
X69093332Y-44184554D01*
X69093340Y-44184560D01*
X69226081Y-44273255D01*
X69226085Y-44273257D01*
X69373581Y-44334351D01*
X69373586Y-44334353D01*
X69530168Y-44365499D01*
X69530172Y-44365500D01*
X69530173Y-44365500D01*
X69689828Y-44365500D01*
X69689829Y-44365499D01*
X69846414Y-44334353D01*
X69993916Y-44273256D01*
X69993918Y-44273255D01*
X70059844Y-44229203D01*
X70126664Y-44184557D01*
X70239557Y-44071664D01*
X70328256Y-43938916D01*
X70389353Y-43791414D01*
X70420500Y-43634827D01*
X70420500Y-43475173D01*
X70389353Y-43318586D01*
X70336163Y-43190173D01*
X70336161Y-43190168D01*
X83109500Y-43190168D01*
X83109500Y-43349831D01*
X83140645Y-43506406D01*
X83140648Y-43506418D01*
X83201742Y-43653914D01*
X83201744Y-43653918D01*
X83290439Y-43786659D01*
X83290445Y-43786667D01*
X83403332Y-43899554D01*
X83403340Y-43899560D01*
X83536081Y-43988255D01*
X83536085Y-43988257D01*
X83683581Y-44049351D01*
X83683586Y-44049353D01*
X83840168Y-44080499D01*
X83840172Y-44080500D01*
X83840173Y-44080500D01*
X83999828Y-44080500D01*
X83999829Y-44080499D01*
X84156414Y-44049353D01*
X84303916Y-43988256D01*
X84303918Y-43988255D01*
X84377762Y-43938914D01*
X84436664Y-43899557D01*
X84549557Y-43786664D01*
X84638256Y-43653916D01*
X84646163Y-43634828D01*
X84699351Y-43506418D01*
X84699353Y-43506414D01*
X84730500Y-43349827D01*
X84730500Y-43190173D01*
X84699353Y-43033586D01*
X84654559Y-42925443D01*
X84638257Y-42886085D01*
X84638255Y-42886081D01*
X84549560Y-42753340D01*
X84549554Y-42753332D01*
X84436667Y-42640445D01*
X84436659Y-42640439D01*
X84303918Y-42551744D01*
X84303914Y-42551742D01*
X84156418Y-42490648D01*
X84156406Y-42490645D01*
X83999831Y-42459500D01*
X83999827Y-42459500D01*
X83840173Y-42459500D01*
X83840168Y-42459500D01*
X83683593Y-42490645D01*
X83683581Y-42490648D01*
X83536085Y-42551742D01*
X83536081Y-42551744D01*
X83403340Y-42640439D01*
X83403332Y-42640445D01*
X83290445Y-42753332D01*
X83290439Y-42753340D01*
X83201744Y-42886081D01*
X83201742Y-42886085D01*
X83140648Y-43033581D01*
X83140645Y-43033593D01*
X83109500Y-43190168D01*
X70336161Y-43190168D01*
X70328257Y-43171085D01*
X70328255Y-43171081D01*
X70239560Y-43038340D01*
X70239554Y-43038332D01*
X70126667Y-42925445D01*
X70126659Y-42925439D01*
X69993918Y-42836744D01*
X69993914Y-42836742D01*
X69846418Y-42775648D01*
X69846406Y-42775645D01*
X69689831Y-42744500D01*
X69689827Y-42744500D01*
X69530173Y-42744500D01*
X69530168Y-42744500D01*
X69373593Y-42775645D01*
X69373581Y-42775648D01*
X69226085Y-42836742D01*
X69226081Y-42836744D01*
X69093340Y-42925439D01*
X69093332Y-42925445D01*
X68980445Y-43038332D01*
X68980439Y-43038340D01*
X68891744Y-43171081D01*
X68891742Y-43171085D01*
X68830648Y-43318581D01*
X68830645Y-43318593D01*
X68799500Y-43475168D01*
X50200500Y-43475168D01*
X50200500Y-41570168D01*
X68921500Y-41570168D01*
X68921500Y-41729831D01*
X68952645Y-41886406D01*
X68952648Y-41886418D01*
X69013742Y-42033914D01*
X69013744Y-42033918D01*
X69102439Y-42166659D01*
X69102445Y-42166667D01*
X69215332Y-42279554D01*
X69215340Y-42279560D01*
X69348081Y-42368255D01*
X69348085Y-42368257D01*
X69495581Y-42429351D01*
X69495586Y-42429353D01*
X69647146Y-42459500D01*
X69652168Y-42460499D01*
X69652172Y-42460500D01*
X69652173Y-42460500D01*
X69811828Y-42460500D01*
X69811829Y-42460499D01*
X69968414Y-42429353D01*
X70115916Y-42368256D01*
X70115918Y-42368255D01*
X70181844Y-42324203D01*
X70248664Y-42279557D01*
X70361557Y-42166664D01*
X70416011Y-42085168D01*
X86029500Y-42085168D01*
X86029500Y-42244831D01*
X86060645Y-42401406D01*
X86060648Y-42401418D01*
X86121742Y-42548914D01*
X86121744Y-42548918D01*
X86210439Y-42681659D01*
X86210445Y-42681667D01*
X86323333Y-42794555D01*
X86323336Y-42794557D01*
X86432088Y-42867222D01*
X86476893Y-42920833D01*
X86485600Y-42990158D01*
X86477758Y-43017776D01*
X86425648Y-43143581D01*
X86425645Y-43143593D01*
X86394500Y-43300168D01*
X86394500Y-43459831D01*
X86425645Y-43616406D01*
X86425648Y-43616418D01*
X86486742Y-43763914D01*
X86486744Y-43763918D01*
X86575439Y-43896659D01*
X86575445Y-43896667D01*
X86688332Y-44009554D01*
X86688340Y-44009560D01*
X86821081Y-44098255D01*
X86821085Y-44098257D01*
X86968581Y-44159351D01*
X86968586Y-44159353D01*
X87095311Y-44184560D01*
X87125168Y-44190499D01*
X87125172Y-44190500D01*
X87125173Y-44190500D01*
X87284828Y-44190500D01*
X87284829Y-44190499D01*
X87441414Y-44159353D01*
X87588916Y-44098256D01*
X87588918Y-44098255D01*
X87662108Y-44049351D01*
X87721664Y-44009557D01*
X87834557Y-43896664D01*
X87904888Y-43791406D01*
X87923255Y-43763918D01*
X87923257Y-43763914D01*
X87976724Y-43634831D01*
X87984353Y-43616414D01*
X88015500Y-43459827D01*
X88015500Y-43300173D01*
X87984353Y-43143586D01*
X87940759Y-43038340D01*
X87923257Y-42996085D01*
X87923255Y-42996081D01*
X87834560Y-42863340D01*
X87834554Y-42863332D01*
X87721666Y-42750444D01*
X87675365Y-42719507D01*
X87612911Y-42677776D01*
X87568106Y-42624166D01*
X87559399Y-42554841D01*
X87567239Y-42527228D01*
X87619353Y-42401414D01*
X87650500Y-42244827D01*
X87650500Y-42085173D01*
X87650500Y-42085170D01*
X87649505Y-42080168D01*
X88559500Y-42080168D01*
X88559500Y-42239831D01*
X88590645Y-42396406D01*
X88590648Y-42396418D01*
X88651742Y-42543914D01*
X88651744Y-42543918D01*
X88740439Y-42676659D01*
X88740445Y-42676667D01*
X88853332Y-42789554D01*
X88853340Y-42789560D01*
X88986081Y-42878255D01*
X88986085Y-42878257D01*
X89133581Y-42939351D01*
X89133586Y-42939353D01*
X89290168Y-42970499D01*
X89290172Y-42970500D01*
X89290173Y-42970500D01*
X89449828Y-42970500D01*
X89449829Y-42970499D01*
X89606414Y-42939353D01*
X89735015Y-42886085D01*
X89753914Y-42878257D01*
X89753918Y-42878255D01*
X89819844Y-42834203D01*
X89886664Y-42789557D01*
X89999557Y-42676664D01*
X90084915Y-42548916D01*
X90088255Y-42543918D01*
X90088257Y-42543914D01*
X90149351Y-42396418D01*
X90149353Y-42396414D01*
X90180500Y-42239827D01*
X90180500Y-42080173D01*
X90149353Y-41923586D01*
X90133953Y-41886406D01*
X90088257Y-41776085D01*
X90088255Y-41776081D01*
X89999560Y-41643340D01*
X89999554Y-41643332D01*
X89886667Y-41530445D01*
X89886659Y-41530439D01*
X89753918Y-41441744D01*
X89753914Y-41441742D01*
X89606418Y-41380648D01*
X89606406Y-41380645D01*
X89449831Y-41349500D01*
X89449827Y-41349500D01*
X89290173Y-41349500D01*
X89290168Y-41349500D01*
X89133593Y-41380645D01*
X89133581Y-41380648D01*
X88986085Y-41441742D01*
X88986081Y-41441744D01*
X88853340Y-41530439D01*
X88853332Y-41530445D01*
X88740445Y-41643332D01*
X88740439Y-41643340D01*
X88651744Y-41776081D01*
X88651742Y-41776085D01*
X88590648Y-41923581D01*
X88590645Y-41923593D01*
X88559500Y-42080168D01*
X87649505Y-42080168D01*
X87631709Y-41990707D01*
X87619353Y-41928586D01*
X87601882Y-41886406D01*
X87558257Y-41781085D01*
X87558255Y-41781081D01*
X87469560Y-41648340D01*
X87469554Y-41648332D01*
X87356667Y-41535445D01*
X87356659Y-41535439D01*
X87223918Y-41446744D01*
X87223914Y-41446742D01*
X87076418Y-41385648D01*
X87076406Y-41385645D01*
X86919831Y-41354500D01*
X86919827Y-41354500D01*
X86760173Y-41354500D01*
X86760168Y-41354500D01*
X86603593Y-41385645D01*
X86603581Y-41385648D01*
X86456085Y-41446742D01*
X86456081Y-41446744D01*
X86323340Y-41535439D01*
X86323332Y-41535445D01*
X86210445Y-41648332D01*
X86210439Y-41648340D01*
X86121744Y-41781081D01*
X86121742Y-41781085D01*
X86060648Y-41928581D01*
X86060645Y-41928593D01*
X86029500Y-42085168D01*
X70416011Y-42085168D01*
X70450256Y-42033916D01*
X70457919Y-42015417D01*
X70486735Y-41945847D01*
X70511353Y-41886414D01*
X70542500Y-41729827D01*
X70542500Y-41570173D01*
X70511353Y-41413586D01*
X70499781Y-41385648D01*
X70450257Y-41266085D01*
X70450255Y-41266081D01*
X70361560Y-41133340D01*
X70361554Y-41133332D01*
X70248667Y-41020445D01*
X70248659Y-41020439D01*
X70115918Y-40931744D01*
X70115914Y-40931742D01*
X69968418Y-40870648D01*
X69968406Y-40870645D01*
X69811831Y-40839500D01*
X69811827Y-40839500D01*
X69652173Y-40839500D01*
X69652168Y-40839500D01*
X69495593Y-40870645D01*
X69495581Y-40870648D01*
X69348085Y-40931742D01*
X69348081Y-40931744D01*
X69215340Y-41020439D01*
X69215332Y-41020445D01*
X69102445Y-41133332D01*
X69102439Y-41133340D01*
X69013744Y-41266081D01*
X69013742Y-41266085D01*
X68952648Y-41413581D01*
X68952645Y-41413593D01*
X68921500Y-41570168D01*
X50200500Y-41570168D01*
X50200500Y-39470168D01*
X68364500Y-39470168D01*
X68364500Y-39629831D01*
X68395645Y-39786406D01*
X68395648Y-39786418D01*
X68456742Y-39933914D01*
X68456744Y-39933918D01*
X68545439Y-40066659D01*
X68545445Y-40066667D01*
X68658332Y-40179554D01*
X68658340Y-40179560D01*
X68791081Y-40268255D01*
X68791085Y-40268257D01*
X68938581Y-40329351D01*
X68938586Y-40329353D01*
X69095168Y-40360499D01*
X69095172Y-40360500D01*
X69095173Y-40360500D01*
X69254828Y-40360500D01*
X69254829Y-40360499D01*
X69411414Y-40329353D01*
X69558916Y-40268256D01*
X69558918Y-40268255D01*
X69624844Y-40224203D01*
X69691664Y-40179557D01*
X69804557Y-40066664D01*
X69893256Y-39933916D01*
X69893257Y-39933914D01*
X69921553Y-39865602D01*
X72949500Y-39865602D01*
X72949500Y-40134397D01*
X72984582Y-40400880D01*
X72984583Y-40400885D01*
X72984584Y-40400891D01*
X72993770Y-40435172D01*
X73054152Y-40660524D01*
X73157011Y-40908850D01*
X73157019Y-40908866D01*
X73221437Y-41020439D01*
X73291413Y-41141641D01*
X73291415Y-41141644D01*
X73291416Y-41141645D01*
X73455042Y-41354888D01*
X73455048Y-41354895D01*
X73645104Y-41544951D01*
X73645111Y-41544957D01*
X73734439Y-41613500D01*
X73858359Y-41708587D01*
X73983929Y-41781085D01*
X74091133Y-41842980D01*
X74091149Y-41842988D01*
X74246008Y-41907132D01*
X74339474Y-41945847D01*
X74599109Y-42015416D01*
X74787319Y-42040193D01*
X74865602Y-42050500D01*
X74865603Y-42050500D01*
X75134398Y-42050500D01*
X75194905Y-42042534D01*
X75400891Y-42015416D01*
X75660526Y-41945847D01*
X75855737Y-41864987D01*
X75908850Y-41842988D01*
X75908853Y-41842986D01*
X75908859Y-41842984D01*
X76141641Y-41708587D01*
X76354890Y-41544956D01*
X76544956Y-41354890D01*
X76708587Y-41141641D01*
X76842984Y-40908859D01*
X76847104Y-40898914D01*
X76908198Y-40751418D01*
X76945847Y-40660526D01*
X77006232Y-40435168D01*
X81479500Y-40435168D01*
X81479500Y-40594831D01*
X81510645Y-40751406D01*
X81510648Y-40751418D01*
X81571742Y-40898914D01*
X81571744Y-40898918D01*
X81660439Y-41031659D01*
X81660445Y-41031667D01*
X81773332Y-41144554D01*
X81773340Y-41144560D01*
X81906081Y-41233255D01*
X81906085Y-41233257D01*
X82053581Y-41294351D01*
X82053586Y-41294353D01*
X82210168Y-41325499D01*
X82210172Y-41325500D01*
X82210173Y-41325500D01*
X82369828Y-41325500D01*
X82369829Y-41325499D01*
X82526414Y-41294353D01*
X82673916Y-41233256D01*
X82673918Y-41233255D01*
X82739844Y-41189203D01*
X82806664Y-41144557D01*
X82919557Y-41031664D01*
X82986321Y-40931744D01*
X83008255Y-40898918D01*
X83008257Y-40898914D01*
X83069351Y-40751418D01*
X83069353Y-40751414D01*
X83074971Y-40723169D01*
X91311500Y-40723169D01*
X91311500Y-40882832D01*
X91342645Y-41039407D01*
X91342648Y-41039419D01*
X91403742Y-41186915D01*
X91403744Y-41186919D01*
X91492439Y-41319660D01*
X91492445Y-41319668D01*
X91605332Y-41432555D01*
X91605340Y-41432561D01*
X91738081Y-41521256D01*
X91738085Y-41521258D01*
X91856178Y-41570173D01*
X91885586Y-41582354D01*
X92042168Y-41613500D01*
X92042172Y-41613501D01*
X92042173Y-41613501D01*
X92201828Y-41613501D01*
X92201829Y-41613500D01*
X92358414Y-41582354D01*
X92471668Y-41535443D01*
X92505914Y-41521258D01*
X92505918Y-41521256D01*
X92624919Y-41441742D01*
X92638664Y-41432558D01*
X92751557Y-41319665D01*
X92809293Y-41233257D01*
X92840255Y-41186919D01*
X92840257Y-41186915D01*
X92862450Y-41133336D01*
X92901353Y-41039415D01*
X92932500Y-40882828D01*
X92932500Y-40723174D01*
X92901353Y-40566587D01*
X92846920Y-40435173D01*
X92840257Y-40419086D01*
X92840255Y-40419082D01*
X92751560Y-40286341D01*
X92751554Y-40286333D01*
X92638667Y-40173446D01*
X92638659Y-40173440D01*
X92505918Y-40084745D01*
X92505914Y-40084743D01*
X92358418Y-40023649D01*
X92358406Y-40023646D01*
X92201831Y-39992501D01*
X92201827Y-39992501D01*
X92042173Y-39992501D01*
X92042168Y-39992501D01*
X91885593Y-40023646D01*
X91885581Y-40023649D01*
X91738085Y-40084743D01*
X91738081Y-40084745D01*
X91605340Y-40173440D01*
X91605332Y-40173446D01*
X91492445Y-40286333D01*
X91492439Y-40286341D01*
X91403744Y-40419082D01*
X91403742Y-40419086D01*
X91342648Y-40566582D01*
X91342645Y-40566594D01*
X91311500Y-40723169D01*
X83074971Y-40723169D01*
X83100500Y-40594827D01*
X83100500Y-40435173D01*
X83069353Y-40278586D01*
X83065074Y-40268255D01*
X83008257Y-40131085D01*
X83008255Y-40131081D01*
X82919560Y-39998340D01*
X82919554Y-39998332D01*
X82806667Y-39885445D01*
X82806659Y-39885439D01*
X82673918Y-39796744D01*
X82673914Y-39796742D01*
X82526418Y-39735648D01*
X82526406Y-39735645D01*
X82369831Y-39704500D01*
X82369827Y-39704500D01*
X82210173Y-39704500D01*
X82210168Y-39704500D01*
X82053593Y-39735645D01*
X82053581Y-39735648D01*
X81906085Y-39796742D01*
X81906081Y-39796744D01*
X81773340Y-39885439D01*
X81773332Y-39885445D01*
X81660445Y-39998332D01*
X81660439Y-39998340D01*
X81571744Y-40131081D01*
X81571742Y-40131085D01*
X81510648Y-40278581D01*
X81510645Y-40278593D01*
X81479500Y-40435168D01*
X77006232Y-40435168D01*
X77015416Y-40400891D01*
X77050500Y-40134397D01*
X77050500Y-39865603D01*
X77043719Y-39814099D01*
X77029291Y-39704500D01*
X77015416Y-39599109D01*
X76945847Y-39339474D01*
X76874027Y-39166085D01*
X76842988Y-39091149D01*
X76842980Y-39091133D01*
X76744431Y-38920443D01*
X76708587Y-38858359D01*
X76544956Y-38645110D01*
X76544951Y-38645104D01*
X76354895Y-38455048D01*
X76354888Y-38455042D01*
X76141645Y-38291416D01*
X76141644Y-38291415D01*
X76141641Y-38291413D01*
X76048832Y-38237830D01*
X75908866Y-38157019D01*
X75908850Y-38157011D01*
X75660524Y-38054152D01*
X75530708Y-38019368D01*
X75400891Y-37984584D01*
X75400885Y-37984583D01*
X75400880Y-37984582D01*
X75134398Y-37949500D01*
X75134397Y-37949500D01*
X74865603Y-37949500D01*
X74865602Y-37949500D01*
X74599119Y-37984582D01*
X74599112Y-37984583D01*
X74599109Y-37984584D01*
X74544239Y-37999286D01*
X74339475Y-38054152D01*
X74091149Y-38157011D01*
X74091133Y-38157019D01*
X73858354Y-38291416D01*
X73645111Y-38455042D01*
X73645104Y-38455048D01*
X73455048Y-38645104D01*
X73455042Y-38645111D01*
X73291416Y-38858354D01*
X73157019Y-39091133D01*
X73157011Y-39091149D01*
X73054152Y-39339475D01*
X72984585Y-39599106D01*
X72984582Y-39599119D01*
X72949500Y-39865602D01*
X69921553Y-39865602D01*
X69942886Y-39814099D01*
X69942888Y-39814092D01*
X69954353Y-39786414D01*
X69985500Y-39629827D01*
X69985500Y-39470173D01*
X69954353Y-39313586D01*
X69954351Y-39313581D01*
X69893257Y-39166085D01*
X69893255Y-39166081D01*
X69804560Y-39033340D01*
X69804554Y-39033332D01*
X69691667Y-38920445D01*
X69691659Y-38920439D01*
X69558918Y-38831744D01*
X69558914Y-38831742D01*
X69411418Y-38770648D01*
X69411406Y-38770645D01*
X69254831Y-38739500D01*
X69254827Y-38739500D01*
X69095173Y-38739500D01*
X69095168Y-38739500D01*
X68938593Y-38770645D01*
X68938581Y-38770648D01*
X68791085Y-38831742D01*
X68791081Y-38831744D01*
X68658340Y-38920439D01*
X68658332Y-38920445D01*
X68545445Y-39033332D01*
X68545439Y-39033340D01*
X68456744Y-39166081D01*
X68456742Y-39166085D01*
X68395648Y-39313581D01*
X68395645Y-39313593D01*
X68364500Y-39470168D01*
X50200500Y-39470168D01*
X50200500Y-35924500D01*
X50220185Y-35857461D01*
X50272989Y-35811706D01*
X50324500Y-35800500D01*
X86723916Y-35800500D01*
X86790955Y-35820185D01*
G37*
%TD.AperFunction*%
%TD*%
M02*
