%TF.GenerationSoftware,KiCad,Pcbnew,9.0.3*%
%TF.CreationDate,2026-09-22T23:36:47+05:30*%
%TF.ProjectId,Accoustic_Sensing_Node,4163636f-7573-4746-9963-5f53656e7369,rev?*%
%TF.SameCoordinates,Original*%
%TF.FileFunction,Soldermask,Top*%
%TF.FilePolarity,Negative*%
%FSLAX46Y46*%
G04 Gerber Fmt 4.6, Leading zero omitted, Abs format (unit mm)*
G04 Created by KiCad (PCBNEW 9.0.3) date 2026-09-22 23:36:47*
%MOMM*%
%LPD*%
G01*
G04 APERTURE LIST*
G04 Aperture macros list*
%AMRoundRect*
0 Rectangle with rounded corners*
0 $1 Rounding radius*
0 $2 $3 $4 $5 $6 $7 $8 $9 X,Y pos of 4 corners*
0 Add a 4 corners polygon primitive as box body*
4,1,4,$2,$3,$4,$5,$6,$7,$8,$9,$2,$3,0*
0 Add four circle primitives for the rounded corners*
1,1,$1+$1,$2,$3*
1,1,$1+$1,$4,$5*
1,1,$1+$1,$6,$7*
1,1,$1+$1,$8,$9*
0 Add four rect primitives between the rounded corners*
20,1,$1+$1,$2,$3,$4,$5,0*
20,1,$1+$1,$4,$5,$6,$7,0*
20,1,$1+$1,$6,$7,$8,$9,0*
20,1,$1+$1,$8,$9,$2,$3,0*%
%AMOutline5P*
0 Free polygon, 5 corners , with rotation*
0 The origin of the aperture is its center*
0 number of corners: always 5*
0 $1 to $10 corner X, Y*
0 $11 Rotation angle, in degrees counterclockwise*
0 create outline with 5 corners*
4,1,5,$1,$2,$3,$4,$5,$6,$7,$8,$9,$10,$1,$2,$11*%
%AMOutline6P*
0 Free polygon, 6 corners , with rotation*
0 The origin of the aperture is its center*
0 number of corners: always 6*
0 $1 to $12 corner X, Y*
0 $13 Rotation angle, in degrees counterclockwise*
0 create outline with 6 corners*
4,1,6,$1,$2,$3,$4,$5,$6,$7,$8,$9,$10,$11,$12,$1,$2,$13*%
%AMOutline7P*
0 Free polygon, 7 corners , with rotation*
0 The origin of the aperture is its center*
0 number of corners: always 7*
0 $1 to $14 corner X, Y*
0 $15 Rotation angle, in degrees counterclockwise*
0 create outline with 7 corners*
4,1,7,$1,$2,$3,$4,$5,$6,$7,$8,$9,$10,$11,$12,$13,$14,$1,$2,$15*%
%AMOutline8P*
0 Free polygon, 8 corners , with rotation*
0 The origin of the aperture is its center*
0 number of corners: always 8*
0 $1 to $16 corner X, Y*
0 $17 Rotation angle, in degrees counterclockwise*
0 create outline with 8 corners*
4,1,8,$1,$2,$3,$4,$5,$6,$7,$8,$9,$10,$11,$12,$13,$14,$15,$16,$1,$2,$17*%
G04 Aperture macros list end*
%ADD10RoundRect,0.250000X0.250000X0.475000X-0.250000X0.475000X-0.250000X-0.475000X0.250000X-0.475000X0*%
%ADD11RoundRect,0.147500X0.147500X0.172500X-0.147500X0.172500X-0.147500X-0.172500X0.147500X-0.172500X0*%
%ADD12RoundRect,0.140000X-0.170000X0.140000X-0.170000X-0.140000X0.170000X-0.140000X0.170000X0.140000X0*%
%ADD13RoundRect,0.140000X0.219203X0.021213X0.021213X0.219203X-0.219203X-0.021213X-0.021213X-0.219203X0*%
%ADD14RoundRect,0.225000X0.250000X-0.225000X0.250000X0.225000X-0.250000X0.225000X-0.250000X-0.225000X0*%
%ADD15RoundRect,0.150000X-0.200000X0.150000X-0.200000X-0.150000X0.200000X-0.150000X0.200000X0.150000X0*%
%ADD16R,1.524000X0.508000*%
%ADD17RoundRect,0.147500X-0.172500X0.147500X-0.172500X-0.147500X0.172500X-0.147500X0.172500X0.147500X0*%
%ADD18RoundRect,0.175000X-0.725000X-0.175000X0.725000X-0.175000X0.725000X0.175000X-0.725000X0.175000X0*%
%ADD19RoundRect,0.200000X-0.700000X-0.200000X0.700000X-0.200000X0.700000X0.200000X-0.700000X0.200000X0*%
%ADD20RoundRect,0.135000X-0.135000X-0.185000X0.135000X-0.185000X0.135000X0.185000X-0.135000X0.185000X0*%
%ADD21RoundRect,0.150000X0.150000X-0.587500X0.150000X0.587500X-0.150000X0.587500X-0.150000X-0.587500X0*%
%ADD22RoundRect,0.250000X-0.475000X0.250000X-0.475000X-0.250000X0.475000X-0.250000X0.475000X0.250000X0*%
%ADD23RoundRect,0.150000X0.825000X0.150000X-0.825000X0.150000X-0.825000X-0.150000X0.825000X-0.150000X0*%
%ADD24RoundRect,0.250000X-0.250000X-0.475000X0.250000X-0.475000X0.250000X0.475000X-0.250000X0.475000X0*%
%ADD25RoundRect,0.140000X-0.140000X-0.170000X0.140000X-0.170000X0.140000X0.170000X-0.140000X0.170000X0*%
%ADD26RoundRect,0.135000X0.185000X-0.135000X0.185000X0.135000X-0.185000X0.135000X-0.185000X-0.135000X0*%
%ADD27RoundRect,0.250000X0.375000X0.625000X-0.375000X0.625000X-0.375000X-0.625000X0.375000X-0.625000X0*%
%ADD28RoundRect,0.135000X0.135000X0.185000X-0.135000X0.185000X-0.135000X-0.185000X0.135000X-0.185000X0*%
%ADD29RoundRect,0.062500X-0.062500X0.337500X-0.062500X-0.337500X0.062500X-0.337500X0.062500X0.337500X0*%
%ADD30RoundRect,0.062500X-0.337500X0.062500X-0.337500X-0.062500X0.337500X-0.062500X0.337500X0.062500X0*%
%ADD31R,3.350000X3.350000*%
%ADD32RoundRect,0.225000X-0.225000X-0.250000X0.225000X-0.250000X0.225000X0.250000X-0.225000X0.250000X0*%
%ADD33RoundRect,0.225000X0.225000X0.250000X-0.225000X0.250000X-0.225000X-0.250000X0.225000X-0.250000X0*%
%ADD34RoundRect,0.135000X-0.185000X0.135000X-0.185000X-0.135000X0.185000X-0.135000X0.185000X0.135000X0*%
%ADD35RoundRect,0.140000X0.021213X-0.219203X0.219203X-0.021213X-0.021213X0.219203X-0.219203X0.021213X0*%
%ADD36RoundRect,0.225000X-0.250000X0.225000X-0.250000X-0.225000X0.250000X-0.225000X0.250000X0.225000X0*%
%ADD37RoundRect,0.150000X0.150000X-0.512500X0.150000X0.512500X-0.150000X0.512500X-0.150000X-0.512500X0*%
%ADD38RoundRect,0.150000X-0.150000X0.587500X-0.150000X-0.587500X0.150000X-0.587500X0.150000X0.587500X0*%
%ADD39RoundRect,0.250000X0.250000X-0.275000X0.250000X0.275000X-0.250000X0.275000X-0.250000X-0.275000X0*%
%ADD40RoundRect,0.250000X0.275000X-0.850000X0.275000X0.850000X-0.275000X0.850000X-0.275000X-0.850000X0*%
%ADD41RoundRect,0.050000X0.050000X-0.225000X0.050000X0.225000X-0.050000X0.225000X-0.050000X-0.225000X0*%
%ADD42RoundRect,0.050000X0.225000X0.050000X-0.225000X0.050000X-0.225000X-0.050000X0.225000X-0.050000X0*%
%ADD43RoundRect,0.140000X0.170000X-0.140000X0.170000X0.140000X-0.170000X0.140000X-0.170000X-0.140000X0*%
%ADD44RoundRect,0.250000X-0.565685X0.070711X0.070711X-0.565685X0.565685X-0.070711X-0.070711X0.565685X0*%
%ADD45RoundRect,0.243750X0.456250X-0.243750X0.456250X0.243750X-0.456250X0.243750X-0.456250X-0.243750X0*%
%ADD46RoundRect,0.102000X-0.889000X-0.889000X0.889000X-0.889000X0.889000X0.889000X-0.889000X0.889000X0*%
%ADD47RoundRect,0.121000X-0.381000X-0.121000X0.381000X-0.121000X0.381000X0.121000X-0.381000X0.121000X0*%
%ADD48RoundRect,0.121000X-0.121000X-0.381000X0.121000X-0.381000X0.121000X0.381000X-0.121000X0.381000X0*%
%ADD49RoundRect,0.250000X0.450000X-0.262500X0.450000X0.262500X-0.450000X0.262500X-0.450000X-0.262500X0*%
%ADD50RoundRect,0.250000X-0.300000X-0.300000X0.300000X-0.300000X0.300000X0.300000X-0.300000X0.300000X0*%
%ADD51RoundRect,0.120000X-0.280000X-0.480000X0.280000X-0.480000X0.280000X0.480000X-0.280000X0.480000X0*%
%ADD52RoundRect,0.120000X0.280000X0.480000X-0.280000X0.480000X-0.280000X-0.480000X0.280000X-0.480000X0*%
%ADD53RoundRect,0.250000X-0.250000X0.275000X-0.250000X-0.275000X0.250000X-0.275000X0.250000X0.275000X0*%
%ADD54RoundRect,0.250000X-0.275000X0.850000X-0.275000X-0.850000X0.275000X-0.850000X0.275000X0.850000X0*%
%ADD55RoundRect,0.218750X0.381250X-0.218750X0.381250X0.218750X-0.381250X0.218750X-0.381250X-0.218750X0*%
%ADD56RoundRect,0.147500X0.172500X-0.147500X0.172500X0.147500X-0.172500X0.147500X-0.172500X-0.147500X0*%
%ADD57RoundRect,0.243750X0.243750X0.456250X-0.243750X0.456250X-0.243750X-0.456250X0.243750X-0.456250X0*%
%ADD58RoundRect,0.135000X0.035355X-0.226274X0.226274X-0.035355X-0.035355X0.226274X-0.226274X0.035355X0*%
%ADD59RoundRect,0.250000X-0.475000X0.337500X-0.475000X-0.337500X0.475000X-0.337500X0.475000X0.337500X0*%
%ADD60RoundRect,0.225000X-0.017678X0.335876X-0.335876X0.017678X0.017678X-0.335876X0.335876X-0.017678X0*%
%ADD61C,3.100000*%
%ADD62C,5.400000*%
%ADD63RoundRect,0.150000X0.200000X-0.150000X0.200000X0.150000X-0.200000X0.150000X-0.200000X-0.150000X0*%
%ADD64RoundRect,0.225000X0.335876X0.017678X0.017678X0.335876X-0.335876X-0.017678X-0.017678X-0.335876X0*%
%ADD65RoundRect,0.135000X-0.226274X-0.035355X-0.035355X-0.226274X0.226274X0.035355X0.035355X0.226274X0*%
%ADD66RoundRect,0.250000X-0.275000X-0.250000X0.275000X-0.250000X0.275000X0.250000X-0.275000X0.250000X0*%
%ADD67RoundRect,0.250000X-0.850000X-0.275000X0.850000X-0.275000X0.850000X0.275000X-0.850000X0.275000X0*%
%ADD68RoundRect,0.050000X-0.350000X-0.050000X0.350000X-0.050000X0.350000X0.050000X-0.350000X0.050000X0*%
%ADD69RoundRect,0.050000X-0.050000X-0.350000X0.050000X-0.350000X0.050000X0.350000X-0.050000X0.350000X0*%
%ADD70R,3.000000X2.900000*%
%ADD71RoundRect,0.250000X-0.070711X-0.565685X0.565685X0.070711X0.070711X0.565685X-0.565685X-0.070711X0*%
%ADD72Outline6P,-1.270000X0.992000X-0.762000X1.500000X0.762000X1.500000X1.270000X0.992000X1.270000X-1.500000X-1.270000X-1.500000X0.000000*%
%ADD73Outline6P,-1.225000X1.010000X-0.735000X1.500000X0.735000X1.500000X1.225000X1.010000X1.225000X-1.500000X-1.225000X-1.500000X0.000000*%
%ADD74RoundRect,0.147500X-0.147500X-0.172500X0.147500X-0.172500X0.147500X0.172500X-0.147500X0.172500X0*%
%ADD75C,0.650000*%
%ADD76RoundRect,0.150000X0.500000X-0.150000X0.500000X0.150000X-0.500000X0.150000X-0.500000X-0.150000X0*%
%ADD77RoundRect,0.075000X0.575000X-0.075000X0.575000X0.075000X-0.575000X0.075000X-0.575000X-0.075000X0*%
%ADD78O,2.100000X1.000000*%
%ADD79O,1.600000X1.000000*%
%ADD80RoundRect,0.250000X-2.600000X0.600000X-2.600000X-0.600000X2.600000X-0.600000X2.600000X0.600000X0*%
G04 APERTURE END LIST*
%TO.C,J5*%
G36*
X51960000Y-69610000D02*
G01*
X53840000Y-69610000D01*
X53840000Y-67520000D01*
X51960000Y-67520000D01*
X51960000Y-69610000D01*
G37*
%TO.C,J2*%
G36*
X53795000Y-55265000D02*
G01*
X51915000Y-55265000D01*
X51915000Y-57355000D01*
X53795000Y-57355000D01*
X53795000Y-55265000D01*
G37*
%TO.C,J4*%
G36*
X73620000Y-69100000D02*
G01*
X75710000Y-69100000D01*
X75710000Y-70980000D01*
X73620000Y-70980000D01*
X73620000Y-69100000D01*
G37*
%TD*%
D10*
%TO.C,C20*%
X82302000Y-45018001D03*
X80402000Y-45018001D03*
%TD*%
D11*
%TO.C,L1*%
X52860000Y-44705000D03*
X51890000Y-44705000D03*
%TD*%
D12*
%TO.C,C46*%
X68685000Y-56950000D03*
X68685000Y-57910000D03*
%TD*%
D13*
%TO.C,C40*%
X58764411Y-77299411D03*
X58085589Y-76620589D03*
%TD*%
D12*
%TO.C,C42*%
X63440000Y-85305000D03*
X63440000Y-86265000D03*
%TD*%
D14*
%TO.C,C3*%
X51895000Y-47605000D03*
X51895000Y-46055000D03*
%TD*%
D15*
%TO.C,D8*%
X69870000Y-78407500D03*
X69870000Y-77007500D03*
%TD*%
D16*
%TO.C,SW1*%
X96480000Y-81774000D03*
X96480000Y-77456000D03*
%TD*%
%TO.C,SW2*%
X96500000Y-88014000D03*
X96500000Y-83696000D03*
%TD*%
D17*
%TO.C,L3*%
X71635000Y-66045000D03*
X71635000Y-67015000D03*
%TD*%
D12*
%TO.C,C52*%
X69785000Y-60125000D03*
X69785000Y-61085000D03*
%TD*%
D18*
%TO.C,U3*%
X57010000Y-59325000D03*
D19*
X57010000Y-60425000D03*
X57010000Y-61525000D03*
X57010000Y-62625000D03*
X57010000Y-63725000D03*
X57010000Y-64825000D03*
X57010000Y-65925000D03*
X57010000Y-67025000D03*
D18*
X57010000Y-68125000D03*
X66510000Y-68125000D03*
D19*
X66510000Y-67025000D03*
X66510000Y-65925000D03*
X66510000Y-64825000D03*
X66510000Y-63725000D03*
X66510000Y-62625000D03*
X66510000Y-61525000D03*
X66510000Y-60425000D03*
D18*
X66510000Y-59325000D03*
%TD*%
D20*
%TO.C,R3*%
X95205000Y-66390000D03*
X96225000Y-66390000D03*
%TD*%
%TO.C,R9*%
X65500000Y-57845000D03*
X66520000Y-57845000D03*
%TD*%
D21*
%TO.C,D13*%
X90075000Y-99457500D03*
X89125000Y-101332500D03*
X91025000Y-101332500D03*
%TD*%
D22*
%TO.C,C2*%
X57545000Y-54640000D03*
X57545000Y-56540000D03*
%TD*%
D23*
%TO.C,U6*%
X75895000Y-84650000D03*
X75895000Y-83380000D03*
X75895000Y-82110000D03*
X75895000Y-80840000D03*
X70945000Y-80840000D03*
X70945000Y-82110000D03*
X70945000Y-83380000D03*
X70945000Y-84650000D03*
%TD*%
D24*
%TO.C,C22*%
X71665000Y-78020000D03*
X73565000Y-78020000D03*
%TD*%
D25*
%TO.C,C12*%
X63045000Y-57855000D03*
X64005000Y-57855000D03*
%TD*%
D26*
%TO.C,R19*%
X54660000Y-95695000D03*
X54660000Y-94675000D03*
%TD*%
D27*
%TO.C,F1*%
X96237000Y-40803001D03*
X93437000Y-40803001D03*
%TD*%
D28*
%TO.C,R8*%
X58035000Y-69640000D03*
X57015000Y-69640000D03*
%TD*%
D29*
%TO.C,U9*%
X88910000Y-60015000D03*
X88410000Y-60015000D03*
X87910000Y-60015000D03*
X87410000Y-60015000D03*
X86910000Y-60015000D03*
X86410000Y-60015000D03*
X85910000Y-60015000D03*
D30*
X84960000Y-60965000D03*
X84960000Y-61465000D03*
X84960000Y-61965000D03*
X84960000Y-62465000D03*
X84960000Y-62965000D03*
X84960000Y-63465000D03*
X84960000Y-63965000D03*
D29*
X85910000Y-64915000D03*
X86410000Y-64915000D03*
X86910000Y-64915000D03*
X87410000Y-64915000D03*
X87910000Y-64915000D03*
X88410000Y-64915000D03*
X88910000Y-64915000D03*
D30*
X89860000Y-63965000D03*
X89860000Y-63465000D03*
X89860000Y-62965000D03*
X89860000Y-62465000D03*
X89860000Y-61965000D03*
X89860000Y-61465000D03*
X89860000Y-60965000D03*
D31*
X87410000Y-62465000D03*
%TD*%
D15*
%TO.C,D1*%
X59335000Y-56032500D03*
X59335000Y-54632500D03*
%TD*%
D12*
%TO.C,C16*%
X72110000Y-87950000D03*
X72110000Y-88910000D03*
%TD*%
D26*
%TO.C,R16*%
X84930000Y-47840000D03*
X84930000Y-46820000D03*
%TD*%
D14*
%TO.C,C10*%
X78970000Y-90600000D03*
X78970000Y-89050000D03*
%TD*%
D25*
%TO.C,C7*%
X88797000Y-47928001D03*
X89757000Y-47928001D03*
%TD*%
D32*
%TO.C,C15*%
X73540000Y-66265000D03*
X75090000Y-66265000D03*
%TD*%
D33*
%TO.C,C19*%
X82297000Y-43178001D03*
X80747000Y-43178001D03*
%TD*%
D34*
%TO.C,R32*%
X92905000Y-72025000D03*
X92905000Y-73045000D03*
%TD*%
D35*
%TO.C,C11*%
X77880589Y-53629411D03*
X78559411Y-52950589D03*
%TD*%
D26*
%TO.C,R31*%
X94840000Y-74115000D03*
X94840000Y-73095000D03*
%TD*%
D32*
%TO.C,C1*%
X64635000Y-54335000D03*
X66185000Y-54335000D03*
%TD*%
%TO.C,C14*%
X63045000Y-56000000D03*
X64595000Y-56000000D03*
%TD*%
D36*
%TO.C,C35*%
X55715000Y-79255000D03*
X55715000Y-80805000D03*
%TD*%
D37*
%TO.C,U2*%
X87840749Y-51810501D03*
X88790749Y-51810501D03*
X89740749Y-51810501D03*
X89740749Y-49535501D03*
X88790749Y-49535501D03*
X87840749Y-49535501D03*
%TD*%
D38*
%TO.C,Q3*%
X94825000Y-68295000D03*
X92925000Y-68295000D03*
X93875000Y-70170000D03*
%TD*%
%TO.C,Q2*%
X79325000Y-67045000D03*
X77425000Y-67045000D03*
X78375000Y-68920000D03*
%TD*%
D39*
%TO.C,J5*%
X52900000Y-70145000D03*
D40*
X51425000Y-68620000D03*
X54375000Y-68620000D03*
%TD*%
D38*
%TO.C,Q1*%
X84190000Y-66947500D03*
X82290000Y-66947500D03*
X83240000Y-68822500D03*
%TD*%
D20*
%TO.C,R13*%
X86385000Y-37745000D03*
X87405000Y-37745000D03*
%TD*%
D34*
%TO.C,R25*%
X94050000Y-76450000D03*
X94050000Y-77470000D03*
%TD*%
D41*
%TO.C,U4*%
X74000000Y-91500000D03*
X74400000Y-91500000D03*
X74800000Y-91500000D03*
X75200000Y-91500000D03*
X75600000Y-91500000D03*
X76000000Y-91500000D03*
D42*
X76500000Y-91000000D03*
X76500000Y-90600000D03*
X76500000Y-90200000D03*
X76500000Y-89800000D03*
X76500000Y-89400000D03*
X76500000Y-89000000D03*
D41*
X76000000Y-88500000D03*
X75600000Y-88500000D03*
X75200000Y-88500000D03*
X74800000Y-88500000D03*
X74400000Y-88500000D03*
X74000000Y-88500000D03*
D42*
X73500000Y-89000000D03*
X73500000Y-89400000D03*
X73500000Y-89800000D03*
X73500000Y-90200000D03*
X73500000Y-90600000D03*
X73500000Y-91000000D03*
%TD*%
D13*
%TO.C,C34*%
X56099411Y-76894411D03*
X55420589Y-76215589D03*
%TD*%
D43*
%TO.C,C13*%
X77017000Y-47268001D03*
X77017000Y-46308001D03*
%TD*%
D44*
%TO.C,Y2*%
X61424365Y-73554365D03*
X62980000Y-75110000D03*
X64182081Y-73907919D03*
X62626446Y-72352284D03*
%TD*%
D25*
%TO.C,C33*%
X51930000Y-75890000D03*
X52890000Y-75890000D03*
%TD*%
D17*
%TO.C,L5*%
X52890000Y-73880000D03*
X52890000Y-74850000D03*
%TD*%
D20*
%TO.C,R1*%
X95225000Y-60195000D03*
X96245000Y-60195000D03*
%TD*%
D26*
%TO.C,R6*%
X70900000Y-92725000D03*
X70900000Y-91705000D03*
%TD*%
D20*
%TO.C,R28*%
X69770000Y-55565000D03*
X70790000Y-55565000D03*
%TD*%
D45*
%TO.C,D2*%
X95735000Y-58772500D03*
X95735000Y-56897500D03*
%TD*%
%TO.C,D7*%
X89375000Y-40995000D03*
X89375000Y-39120000D03*
%TD*%
D25*
%TO.C,C5*%
X51900000Y-43275000D03*
X52860000Y-43275000D03*
%TD*%
%TO.C,C6*%
X51900000Y-39355000D03*
X52860000Y-39355000D03*
%TD*%
D24*
%TO.C,C9*%
X63655000Y-70160000D03*
X65555000Y-70160000D03*
%TD*%
D46*
%TO.C,CH334F1*%
X81652000Y-50173001D03*
D47*
X79652000Y-48923001D03*
X79652000Y-49423001D03*
X79652000Y-49923001D03*
X79652000Y-50423001D03*
X79652000Y-50923001D03*
X79652000Y-51423001D03*
D48*
X80402000Y-52173001D03*
X80902000Y-52173001D03*
X81402000Y-52173001D03*
X81902000Y-52173001D03*
X82402000Y-52173001D03*
X82902000Y-52173001D03*
D47*
X83652000Y-51423001D03*
X83652000Y-50923001D03*
X83652000Y-50423001D03*
X83652000Y-49923001D03*
X83652000Y-49423001D03*
X83652000Y-48923001D03*
D48*
X82902000Y-48173001D03*
X82402000Y-48173001D03*
X81902000Y-48173001D03*
X81402000Y-48173001D03*
X80902000Y-48173001D03*
X80402000Y-48173001D03*
%TD*%
D49*
%TO.C,R11*%
X68840000Y-65547500D03*
X68840000Y-63722500D03*
%TD*%
D35*
%TO.C,C21*%
X60375589Y-72334411D03*
X61054411Y-71655589D03*
%TD*%
D50*
%TO.C,D5*%
X93397000Y-43398001D03*
X96197000Y-43398001D03*
%TD*%
D51*
%TO.C,U1*%
X55870000Y-37550000D03*
X55870000Y-39550000D03*
X55870000Y-41550000D03*
X55870000Y-43550000D03*
X55870000Y-45550000D03*
X55870000Y-47550000D03*
X55870000Y-49550000D03*
X55870000Y-51550000D03*
D52*
X70870000Y-51550000D03*
X70870000Y-49550000D03*
X70870000Y-47550000D03*
X70870000Y-45550000D03*
X70870000Y-43550000D03*
X70870000Y-41550000D03*
X70870000Y-39550000D03*
X70870000Y-37550000D03*
%TD*%
D22*
%TO.C,C47*%
X70305000Y-56945000D03*
X70305000Y-58845000D03*
%TD*%
D12*
%TO.C,C49*%
X82025000Y-60260000D03*
X82025000Y-61220000D03*
%TD*%
D53*
%TO.C,J2*%
X52855000Y-54730000D03*
D54*
X54330000Y-56255000D03*
X51380000Y-56255000D03*
%TD*%
D45*
%TO.C,D4*%
X95735000Y-64912500D03*
X95735000Y-63037500D03*
%TD*%
D20*
%TO.C,R14*%
X88855000Y-37735000D03*
X89875000Y-37735000D03*
%TD*%
D55*
%TO.C,FB1*%
X98902000Y-42925501D03*
X98902000Y-40800501D03*
%TD*%
D12*
%TO.C,C48*%
X83080000Y-60260000D03*
X83080000Y-61220000D03*
%TD*%
D14*
%TO.C,C45*%
X92770000Y-77485000D03*
X92770000Y-75935000D03*
%TD*%
D37*
%TO.C,U5*%
X58470000Y-105415000D03*
X59420000Y-105415000D03*
X60370000Y-105415000D03*
X60370000Y-103140000D03*
X59420000Y-103140000D03*
X58470000Y-103140000D03*
%TD*%
D34*
%TO.C,R29*%
X83610000Y-62265000D03*
X83610000Y-63285000D03*
%TD*%
D24*
%TO.C,C24*%
X83927000Y-45013001D03*
X85827000Y-45013001D03*
%TD*%
D26*
%TO.C,R10*%
X77525000Y-87150000D03*
X77525000Y-86130000D03*
%TD*%
D56*
%TO.C,L2*%
X52865000Y-41900000D03*
X52865000Y-40930000D03*
%TD*%
D35*
%TO.C,C32*%
X59675589Y-76704411D03*
X60354411Y-76025589D03*
%TD*%
D57*
%TO.C,D11*%
X74142500Y-55560000D03*
X72267500Y-55560000D03*
%TD*%
D36*
%TO.C,C37*%
X58495000Y-99720000D03*
X58495000Y-101270000D03*
%TD*%
D58*
%TO.C,R12*%
X77149376Y-52875624D03*
X77870624Y-52154376D03*
%TD*%
D59*
%TO.C,C25*%
X53880000Y-80727500D03*
X53880000Y-82802500D03*
%TD*%
D35*
%TO.C,C26*%
X58175589Y-75239411D03*
X58854411Y-74560589D03*
%TD*%
D43*
%TO.C,C43*%
X68430000Y-78535000D03*
X68430000Y-77575000D03*
%TD*%
D10*
%TO.C,C27*%
X60285000Y-107785000D03*
X58385000Y-107785000D03*
%TD*%
D34*
%TO.C,R4*%
X91197000Y-51428001D03*
X91197000Y-52448001D03*
%TD*%
D25*
%TO.C,C30*%
X51935000Y-72920000D03*
X52895000Y-72920000D03*
%TD*%
D60*
%TO.C,C8*%
X60803008Y-70171992D03*
X59706992Y-71268008D03*
%TD*%
D22*
%TO.C,C41*%
X53325000Y-107370000D03*
X53325000Y-109270000D03*
%TD*%
D36*
%TO.C,C44*%
X92020000Y-83680000D03*
X92020000Y-85230000D03*
%TD*%
D61*
%TO.C,H1*%
X75000000Y-40000000D03*
D62*
X75000000Y-40000000D03*
%TD*%
D20*
%TO.C,R21*%
X54670000Y-93275000D03*
X55690000Y-93275000D03*
%TD*%
D63*
%TO.C,D10*%
X91225000Y-76062500D03*
X91225000Y-77462500D03*
%TD*%
D20*
%TO.C,R30*%
X84135000Y-55155000D03*
X85155000Y-55155000D03*
%TD*%
D64*
%TO.C,C38*%
X57008008Y-75988008D03*
X55911992Y-74891992D03*
%TD*%
D34*
%TO.C,R20*%
X78047000Y-46263001D03*
X78047000Y-47283001D03*
%TD*%
D12*
%TO.C,C31*%
X52370000Y-79255000D03*
X52370000Y-80215000D03*
%TD*%
D45*
%TO.C,D6*%
X86850000Y-41000000D03*
X86850000Y-39125000D03*
%TD*%
D25*
%TO.C,C17*%
X69475000Y-67025000D03*
X70435000Y-67025000D03*
%TD*%
D65*
%TO.C,R22*%
X60344376Y-74644376D03*
X61065624Y-75365624D03*
%TD*%
D57*
%TO.C,D12*%
X89132500Y-55155000D03*
X87257500Y-55155000D03*
%TD*%
D26*
%TO.C,R24*%
X93495000Y-84710000D03*
X93495000Y-83690000D03*
%TD*%
D22*
%TO.C,C4*%
X61170000Y-54610000D03*
X61170000Y-56510000D03*
%TD*%
D66*
%TO.C,J4*%
X73085000Y-70040000D03*
D67*
X74610000Y-68565000D03*
X74610000Y-71515000D03*
%TD*%
D33*
%TO.C,C28*%
X56750000Y-71815000D03*
X55200000Y-71815000D03*
%TD*%
D26*
%TO.C,R17*%
X84190000Y-72445000D03*
X84190000Y-71425000D03*
%TD*%
D22*
%TO.C,C39*%
X55365000Y-107365000D03*
X55365000Y-109265000D03*
%TD*%
D43*
%TO.C,C18*%
X78575000Y-87105000D03*
X78575000Y-86145000D03*
%TD*%
D36*
%TO.C,C29*%
X51030000Y-79535000D03*
X51030000Y-81085000D03*
%TD*%
D58*
%TO.C,R23*%
X58925000Y-76020000D03*
X59646248Y-75298752D03*
%TD*%
D12*
%TO.C,C53*%
X68695000Y-60130000D03*
X68695000Y-61090000D03*
%TD*%
D32*
%TO.C,C36*%
X72565000Y-86285000D03*
X74115000Y-86285000D03*
%TD*%
D26*
%TO.C,R5*%
X91162000Y-48428001D03*
X91162000Y-47408001D03*
%TD*%
D68*
%TO.C,U7*%
X60870000Y-78185000D03*
X60870000Y-78535000D03*
X60870000Y-78885000D03*
X60870000Y-79235000D03*
X60870000Y-79585000D03*
X60870000Y-79935000D03*
X60870000Y-80285000D03*
X60870000Y-80635000D03*
X60870000Y-80985000D03*
X60870000Y-81335000D03*
X60870000Y-81685000D03*
X60870000Y-82035000D03*
X60870000Y-82385000D03*
X60870000Y-82735000D03*
D69*
X61745000Y-82910000D03*
X62095000Y-82910000D03*
X62445000Y-82910000D03*
X62795000Y-82910000D03*
X63145000Y-82910000D03*
X63495000Y-82910000D03*
X63845000Y-82910000D03*
X64195000Y-82910000D03*
X64545000Y-82910000D03*
X64895000Y-82910000D03*
D68*
X65770000Y-82735000D03*
X65770000Y-82385000D03*
X65770000Y-82035000D03*
X65770000Y-81685000D03*
X65770000Y-81335000D03*
X65770000Y-80985000D03*
X65770000Y-80635000D03*
X65770000Y-80285000D03*
X65770000Y-79935000D03*
X65770000Y-79585000D03*
X65770000Y-79235000D03*
X65770000Y-78885000D03*
X65770000Y-78535000D03*
X65770000Y-78185000D03*
D69*
X64895000Y-78010000D03*
X64545000Y-78010000D03*
X64195000Y-78010000D03*
X63845000Y-78010000D03*
X63495000Y-78010000D03*
X63145000Y-78010000D03*
X62795000Y-78010000D03*
X62445000Y-78010000D03*
X62095000Y-78010000D03*
X61745000Y-78010000D03*
D70*
X63320000Y-80510000D03*
%TD*%
D38*
%TO.C,Q4*%
X89532500Y-68307500D03*
X87632500Y-68307500D03*
X88582500Y-70182500D03*
%TD*%
D71*
%TO.C,Y1*%
X75966365Y-51718636D03*
X77522000Y-50163001D03*
X76319919Y-48960920D03*
X74764284Y-50516555D03*
%TD*%
D72*
%TO.C,J3*%
X60355000Y-110690000D03*
X63555000Y-110690000D03*
X66755000Y-110690000D03*
X69955000Y-110690000D03*
X73155000Y-110690000D03*
D73*
X76355000Y-110690000D03*
X79555000Y-110690000D03*
D72*
X82755000Y-110690000D03*
X85955000Y-110690000D03*
X89155000Y-110690000D03*
X92355000Y-110590000D03*
%TD*%
D34*
%TO.C,R7*%
X70910000Y-88855000D03*
X70910000Y-89875000D03*
%TD*%
%TO.C,R18*%
X82290000Y-70480000D03*
X82290000Y-71500000D03*
%TD*%
D74*
%TO.C,L6*%
X53400000Y-79255000D03*
X54370000Y-79255000D03*
%TD*%
D22*
%TO.C,C51*%
X81340000Y-57120000D03*
X81340000Y-59020000D03*
%TD*%
D75*
%TO.C,J1*%
X95047000Y-53063001D03*
X95047000Y-47283001D03*
D76*
X93907000Y-53373001D03*
X93907000Y-52573001D03*
D77*
X93907000Y-51423001D03*
X93907000Y-50423001D03*
X93907000Y-49923001D03*
X93907000Y-48923001D03*
D76*
X93907000Y-47773001D03*
X93907000Y-46973001D03*
X93907000Y-46973001D03*
X93907000Y-47773001D03*
D77*
X93907000Y-48423001D03*
X93907000Y-49423001D03*
X93907000Y-50923001D03*
X93907000Y-51923001D03*
D76*
X93907000Y-52573001D03*
X93907000Y-53373001D03*
D78*
X94547000Y-54493001D03*
D79*
X98727000Y-54493001D03*
D78*
X94547000Y-45853001D03*
D79*
X98727000Y-45853001D03*
%TD*%
D12*
%TO.C,C50*%
X79705000Y-57120000D03*
X79705000Y-58080000D03*
%TD*%
D34*
%TO.C,R27*%
X70415000Y-62115000D03*
X70415000Y-63135000D03*
%TD*%
D29*
%TO.C,U8*%
X75735000Y-59980000D03*
X75235000Y-59980000D03*
X74735000Y-59980000D03*
X74235000Y-59980000D03*
X73735000Y-59980000D03*
X73235000Y-59980000D03*
X72735000Y-59980000D03*
D30*
X71785000Y-60930000D03*
X71785000Y-61430000D03*
X71785000Y-61930000D03*
X71785000Y-62430000D03*
X71785000Y-62930000D03*
X71785000Y-63430000D03*
X71785000Y-63930000D03*
D29*
X72735000Y-64880000D03*
X73235000Y-64880000D03*
X73735000Y-64880000D03*
X74235000Y-64880000D03*
X74735000Y-64880000D03*
X75235000Y-64880000D03*
X75735000Y-64880000D03*
D30*
X76685000Y-63930000D03*
X76685000Y-63430000D03*
X76685000Y-62930000D03*
X76685000Y-62430000D03*
X76685000Y-61930000D03*
X76685000Y-61430000D03*
X76685000Y-60930000D03*
D31*
X74235000Y-62430000D03*
%TD*%
D25*
%TO.C,C23*%
X66485000Y-73630000D03*
X67445000Y-73630000D03*
%TD*%
D26*
%TO.C,R15*%
X86042000Y-47798001D03*
X86042000Y-46778001D03*
%TD*%
D15*
%TO.C,D9*%
X90485000Y-85070000D03*
X90485000Y-83670000D03*
%TD*%
D28*
%TO.C,R26*%
X67135000Y-85885000D03*
X66115000Y-85885000D03*
%TD*%
D80*
%TO.C,L7*%
X53715000Y-100795000D03*
X53715000Y-105295000D03*
%TD*%
D74*
%TO.C,L4*%
X52900000Y-71815000D03*
X53870000Y-71815000D03*
%TD*%
M02*
