%TF.GenerationSoftware,KiCad,Pcbnew,9.0.3*%
%TF.CreationDate,2026-09-22T23:36:47+05:30*%
%TF.ProjectId,Accoustic_Sensing_Node,4163636f-7573-4746-9963-5f53656e7369,rev?*%
%TF.SameCoordinates,Original*%
%TF.FileFunction,Legend,Top*%
%TF.FilePolarity,Positive*%
%FSLAX46Y46*%
G04 Gerber Fmt 4.6, Leading zero omitted, Abs format (unit mm)*
G04 Created by KiCad (PCBNEW 9.0.3) date 2026-09-22 23:36:47*
%MOMM*%
%LPD*%
G01*
G04 APERTURE LIST*
%ADD10C,0.120000*%
%ADD11C,0.152400*%
%ADD12C,0.203200*%
%ADD13C,0.100000*%
G04 APERTURE END LIST*
D10*
%TO.C,C20*%
X81613252Y-44283001D02*
X81090748Y-44283001D01*
X81613252Y-45753001D02*
X81090748Y-45753001D01*
%TO.C,C46*%
X68325000Y-57322164D02*
X68325000Y-57537836D01*
X69045000Y-57322164D02*
X69045000Y-57537836D01*
%TO.C,C40*%
X58246693Y-77290810D02*
X58094190Y-77138307D01*
X58755810Y-76781693D02*
X58603307Y-76629190D01*
%TO.C,C42*%
X63080000Y-85677164D02*
X63080000Y-85892836D01*
X63800000Y-85677164D02*
X63800000Y-85892836D01*
%TO.C,C3*%
X51385000Y-46970580D02*
X51385000Y-46689420D01*
X52405000Y-46970580D02*
X52405000Y-46689420D01*
%TO.C,D8*%
X69270000Y-77007500D02*
X69270000Y-78967500D01*
X69270000Y-78967500D02*
X70470000Y-78967500D01*
X70470000Y-77007500D02*
X70470000Y-78967500D01*
D11*
%TO.C,SW1*%
X94956000Y-77583000D02*
X94956000Y-81647000D01*
X94956000Y-81647000D02*
X95385260Y-81647000D01*
X95385260Y-77583000D02*
X94956000Y-77583000D01*
X97574740Y-81647000D02*
X98004000Y-81647000D01*
X98004000Y-77583000D02*
X97574740Y-77583000D01*
X98004000Y-81647000D02*
X98004000Y-77583000D01*
X96556200Y-83183700D02*
G75*
G02*
X96403800Y-83183700I-76200J0D01*
G01*
X96403800Y-83183700D02*
G75*
G02*
X96556200Y-83183700I76200J0D01*
G01*
%TO.C,SW2*%
X94976000Y-83823000D02*
X94976000Y-87887000D01*
X94976000Y-87887000D02*
X95405260Y-87887000D01*
X95405260Y-83823000D02*
X94976000Y-83823000D01*
X97594740Y-87887000D02*
X98024000Y-87887000D01*
X98024000Y-83823000D02*
X97594740Y-83823000D01*
X98024000Y-87887000D02*
X98024000Y-83823000D01*
X96576200Y-89423700D02*
G75*
G02*
X96423800Y-89423700I-76200J0D01*
G01*
X96423800Y-89423700D02*
G75*
G02*
X96576200Y-89423700I76200J0D01*
G01*
D10*
%TO.C,C52*%
X69425000Y-60497164D02*
X69425000Y-60712836D01*
X70145000Y-60497164D02*
X70145000Y-60712836D01*
%TO.C,U3*%
X56800000Y-58565000D02*
X56800000Y-58715000D01*
X56800000Y-58565000D02*
X66720000Y-58565000D01*
X56800000Y-68735000D02*
X56800000Y-68885000D01*
X56800000Y-68885000D02*
X66720000Y-68885000D01*
X66720000Y-58565000D02*
X66720000Y-58715000D01*
X66720000Y-68735000D02*
X66720000Y-68885000D01*
X56330000Y-58715000D02*
X56090000Y-58385000D01*
X56570000Y-58385000D01*
X56330000Y-58715000D01*
G36*
X56330000Y-58715000D02*
G01*
X56090000Y-58385000D01*
X56570000Y-58385000D01*
X56330000Y-58715000D01*
G37*
%TO.C,R3*%
X95561359Y-66010000D02*
X95868641Y-66010000D01*
X95561359Y-66770000D02*
X95868641Y-66770000D01*
%TO.C,R9*%
X65856359Y-57465000D02*
X66163641Y-57465000D01*
X65856359Y-58225000D02*
X66163641Y-58225000D01*
%TO.C,D13*%
X88515000Y-100395000D02*
X88515000Y-99745000D01*
X88515000Y-100395000D02*
X88515000Y-101045000D01*
X91635000Y-100395000D02*
X91635000Y-99745000D01*
X91635000Y-100395000D02*
X91635000Y-101045000D01*
X88565000Y-101557500D02*
X88235000Y-101797500D01*
X88235000Y-101317500D01*
X88565000Y-101557500D01*
G36*
X88565000Y-101557500D02*
G01*
X88235000Y-101797500D01*
X88235000Y-101317500D01*
X88565000Y-101557500D01*
G37*
%TO.C,C2*%
X56810000Y-55328748D02*
X56810000Y-55851252D01*
X58280000Y-55328748D02*
X58280000Y-55851252D01*
%TO.C,U6*%
X73420000Y-80185000D02*
X71470000Y-80185000D01*
X73420000Y-80185000D02*
X75370000Y-80185000D01*
X73420000Y-85305000D02*
X71470000Y-85305000D01*
X73420000Y-85305000D02*
X75370000Y-85305000D01*
X76360000Y-85540000D02*
X75880000Y-85540000D01*
X76120000Y-85210000D01*
X76360000Y-85540000D01*
G36*
X76360000Y-85540000D02*
G01*
X75880000Y-85540000D01*
X76120000Y-85210000D01*
X76360000Y-85540000D01*
G37*
%TO.C,C22*%
X72353748Y-77285000D02*
X72876252Y-77285000D01*
X72353748Y-78755000D02*
X72876252Y-78755000D01*
%TO.C,C12*%
X63417164Y-57495000D02*
X63632836Y-57495000D01*
X63417164Y-58215000D02*
X63632836Y-58215000D01*
%TO.C,R19*%
X54280000Y-95338641D02*
X54280000Y-95031359D01*
X55040000Y-95338641D02*
X55040000Y-95031359D01*
%TO.C,F1*%
X95439064Y-39893001D02*
X94234936Y-39893001D01*
X95439064Y-41713001D02*
X94234936Y-41713001D01*
%TO.C,R8*%
X57678641Y-69260000D02*
X57371359Y-69260000D01*
X57678641Y-70020000D02*
X57371359Y-70020000D01*
%TO.C,U9*%
X84800000Y-59855000D02*
X85525000Y-59855000D01*
X84800000Y-60580000D02*
X84800000Y-59855000D01*
X84800000Y-64350000D02*
X84800000Y-65075000D01*
X84800000Y-65075000D02*
X85525000Y-65075000D01*
X89295000Y-59855000D02*
X89780000Y-59855000D01*
X90020000Y-60580000D02*
X90020000Y-60155000D01*
X90020000Y-64350000D02*
X90020000Y-65075000D01*
X90020000Y-65075000D02*
X89295000Y-65075000D01*
X90350000Y-60095000D02*
X90020000Y-59855000D01*
X90350000Y-59615000D01*
X90350000Y-60095000D01*
G36*
X90350000Y-60095000D02*
G01*
X90020000Y-59855000D01*
X90350000Y-59615000D01*
X90350000Y-60095000D01*
G37*
%TO.C,D1*%
X58735000Y-54632500D02*
X58735000Y-56592500D01*
X58735000Y-56592500D02*
X59935000Y-56592500D01*
X59935000Y-54632500D02*
X59935000Y-56592500D01*
%TO.C,C16*%
X71750000Y-88322164D02*
X71750000Y-88537836D01*
X72470000Y-88322164D02*
X72470000Y-88537836D01*
%TO.C,R16*%
X84550000Y-47483641D02*
X84550000Y-47176359D01*
X85310000Y-47483641D02*
X85310000Y-47176359D01*
%TO.C,C10*%
X78460000Y-89965580D02*
X78460000Y-89684420D01*
X79480000Y-89965580D02*
X79480000Y-89684420D01*
%TO.C,C7*%
X89169164Y-47568001D02*
X89384836Y-47568001D01*
X89169164Y-48288001D02*
X89384836Y-48288001D01*
%TO.C,C15*%
X74174420Y-65755000D02*
X74455580Y-65755000D01*
X74174420Y-66775000D02*
X74455580Y-66775000D01*
%TO.C,C19*%
X81662580Y-42668001D02*
X81381420Y-42668001D01*
X81662580Y-43688001D02*
X81381420Y-43688001D01*
%TO.C,R32*%
X92525000Y-72381359D02*
X92525000Y-72688641D01*
X93285000Y-72381359D02*
X93285000Y-72688641D01*
%TO.C,C11*%
X77889190Y-53111693D02*
X78041693Y-52959190D01*
X78398307Y-53620810D02*
X78550810Y-53468307D01*
%TO.C,R31*%
X94460000Y-73758641D02*
X94460000Y-73451359D01*
X95220000Y-73758641D02*
X95220000Y-73451359D01*
%TO.C,C1*%
X65269420Y-53825000D02*
X65550580Y-53825000D01*
X65269420Y-54845000D02*
X65550580Y-54845000D01*
%TO.C,C14*%
X63679420Y-55490000D02*
X63960580Y-55490000D01*
X63679420Y-56510000D02*
X63960580Y-56510000D01*
%TO.C,C35*%
X55205000Y-79889420D02*
X55205000Y-80170580D01*
X56225000Y-79889420D02*
X56225000Y-80170580D01*
%TO.C,U2*%
X87230749Y-50673001D02*
X87230749Y-49873001D01*
X87230749Y-50673001D02*
X87230749Y-51473001D01*
X90350749Y-50673001D02*
X90350749Y-49873001D01*
X90350749Y-50673001D02*
X90350749Y-51473001D01*
X87280749Y-51973001D02*
X86950749Y-52213001D01*
X86950749Y-51733001D01*
X87280749Y-51973001D01*
G36*
X87280749Y-51973001D02*
G01*
X86950749Y-52213001D01*
X86950749Y-51733001D01*
X87280749Y-51973001D01*
G37*
%TO.C,Q3*%
X92315000Y-69232500D02*
X92315000Y-68582500D01*
X92315000Y-69232500D02*
X92315000Y-69882500D01*
X95435000Y-69232500D02*
X95435000Y-68582500D01*
X95435000Y-69232500D02*
X95435000Y-69882500D01*
X95715000Y-68310000D02*
X95385000Y-68070000D01*
X95715000Y-67830000D01*
X95715000Y-68310000D01*
G36*
X95715000Y-68310000D02*
G01*
X95385000Y-68070000D01*
X95715000Y-67830000D01*
X95715000Y-68310000D01*
G37*
%TO.C,Q2*%
X76815000Y-67982500D02*
X76815000Y-67332500D01*
X76815000Y-67982500D02*
X76815000Y-68632500D01*
X79935000Y-67982500D02*
X79935000Y-67332500D01*
X79935000Y-67982500D02*
X79935000Y-68632500D01*
X80215000Y-67060000D02*
X79885000Y-66820000D01*
X80215000Y-66580000D01*
X80215000Y-67060000D01*
G36*
X80215000Y-67060000D02*
G01*
X79885000Y-66820000D01*
X80215000Y-66580000D01*
X80215000Y-67060000D01*
G37*
%TO.C,J5*%
X51500000Y-69980000D02*
X52140000Y-69980000D01*
X51550000Y-67260000D02*
X54250000Y-67260000D01*
X52140000Y-69980000D02*
X52140000Y-70610000D01*
X54300000Y-69980000D02*
X53660000Y-69980000D01*
%TO.C,Q1*%
X81680000Y-67885000D02*
X81680000Y-67235000D01*
X81680000Y-67885000D02*
X81680000Y-68535000D01*
X84800000Y-67885000D02*
X84800000Y-67235000D01*
X84800000Y-67885000D02*
X84800000Y-68535000D01*
X85080000Y-66962500D02*
X84750000Y-66722500D01*
X85080000Y-66482500D01*
X85080000Y-66962500D01*
G36*
X85080000Y-66962500D02*
G01*
X84750000Y-66722500D01*
X85080000Y-66482500D01*
X85080000Y-66962500D01*
G37*
%TO.C,R13*%
X86741359Y-37365000D02*
X87048641Y-37365000D01*
X86741359Y-38125000D02*
X87048641Y-38125000D01*
%TO.C,R25*%
X93670000Y-76806359D02*
X93670000Y-77113641D01*
X94430000Y-76806359D02*
X94430000Y-77113641D01*
%TO.C,U4*%
X73400000Y-88400000D02*
X73400000Y-88650000D01*
X73400000Y-88400000D02*
X73650000Y-88400000D01*
X76600000Y-88400000D02*
X76350000Y-88400000D01*
X76600000Y-88400000D02*
X76600000Y-88650000D01*
X76600000Y-91600000D02*
X76350000Y-91600000D01*
X76600000Y-91600000D02*
X76600000Y-91350000D01*
X73400000Y-91600000D02*
X73070000Y-91840000D01*
X73070000Y-91360000D01*
X73400000Y-91600000D01*
G36*
X73400000Y-91600000D02*
G01*
X73070000Y-91840000D01*
X73070000Y-91360000D01*
X73400000Y-91600000D01*
G37*
%TO.C,C34*%
X55581693Y-76885810D02*
X55429190Y-76733307D01*
X56090810Y-76376693D02*
X55938307Y-76224190D01*
%TO.C,C13*%
X76657000Y-46895837D02*
X76657000Y-46680165D01*
X77377000Y-46895837D02*
X77377000Y-46680165D01*
%TO.C,Y2*%
X60137430Y-73483655D02*
X63050710Y-76396935D01*
X62555736Y-71065349D02*
X60137430Y-73483655D01*
%TO.C,C33*%
X52302164Y-75530000D02*
X52517836Y-75530000D01*
X52302164Y-76250000D02*
X52517836Y-76250000D01*
%TO.C,R1*%
X95581359Y-59815000D02*
X95888641Y-59815000D01*
X95581359Y-60575000D02*
X95888641Y-60575000D01*
%TO.C,R6*%
X70520000Y-92368641D02*
X70520000Y-92061359D01*
X71280000Y-92368641D02*
X71280000Y-92061359D01*
%TO.C,R28*%
X70126359Y-55185000D02*
X70433641Y-55185000D01*
X70126359Y-55945000D02*
X70433641Y-55945000D01*
%TO.C,D2*%
X94775000Y-56835000D02*
X94775000Y-59520000D01*
X94775000Y-59520000D02*
X96695000Y-59520000D01*
X96695000Y-59520000D02*
X96695000Y-56835000D01*
%TO.C,D7*%
X88415000Y-39057500D02*
X88415000Y-41742500D01*
X88415000Y-41742500D02*
X90335000Y-41742500D01*
X90335000Y-41742500D02*
X90335000Y-39057500D01*
%TO.C,C5*%
X52272164Y-42915000D02*
X52487836Y-42915000D01*
X52272164Y-43635000D02*
X52487836Y-43635000D01*
%TO.C,C6*%
X52272164Y-38995000D02*
X52487836Y-38995000D01*
X52272164Y-39715000D02*
X52487836Y-39715000D01*
%TO.C,C9*%
X64343748Y-69425000D02*
X64866252Y-69425000D01*
X64343748Y-70895000D02*
X64866252Y-70895000D01*
D12*
%TO.C,CH334F1*%
X79652000Y-52173001D02*
X79652000Y-51823001D01*
X80002000Y-48173001D02*
X79652000Y-48523001D01*
X80002000Y-52173001D02*
X79652000Y-52173001D01*
X83302000Y-52173001D02*
X83652000Y-52173001D01*
X83652000Y-48173001D02*
X83302000Y-48173001D01*
X83652000Y-48523001D02*
X83652000Y-48173001D01*
X83652000Y-51823001D02*
X83652000Y-52173001D01*
X78731000Y-48903001D02*
G75*
G02*
X78477000Y-48903001I-127000J0D01*
G01*
X78477000Y-48903001D02*
G75*
G02*
X78731000Y-48903001I127000J0D01*
G01*
D10*
%TO.C,R11*%
X68105000Y-64862064D02*
X68105000Y-64407936D01*
X69575000Y-64862064D02*
X69575000Y-64407936D01*
%TO.C,C21*%
X60384190Y-71816693D02*
X60536693Y-71664190D01*
X60893307Y-72325810D02*
X61045810Y-72173307D01*
%TO.C,D5*%
X92587000Y-42398001D02*
X92587000Y-44398001D01*
X92587000Y-42398001D02*
X96447000Y-42398001D01*
X92587000Y-44398001D02*
X96447000Y-44398001D01*
%TO.C,U1*%
D13*
X55370000Y-36050000D02*
X71370000Y-36050000D01*
X71370000Y-53050000D01*
X55370000Y-53050000D01*
X55370000Y-36050000D01*
D10*
%TO.C,C47*%
X69570000Y-57633748D02*
X69570000Y-58156252D01*
X71040000Y-57633748D02*
X71040000Y-58156252D01*
%TO.C,C49*%
X81665000Y-60632164D02*
X81665000Y-60847836D01*
X82385000Y-60632164D02*
X82385000Y-60847836D01*
%TO.C,J2*%
X51455000Y-54895000D02*
X52095000Y-54895000D01*
X53615000Y-54895000D02*
X53615000Y-54265000D01*
X54205000Y-57615000D02*
X51505000Y-57615000D01*
X54255000Y-54895000D02*
X53615000Y-54895000D01*
%TO.C,D4*%
X94775000Y-62975000D02*
X94775000Y-65660000D01*
X94775000Y-65660000D02*
X96695000Y-65660000D01*
X96695000Y-65660000D02*
X96695000Y-62975000D01*
%TO.C,R14*%
X89211359Y-37355000D02*
X89518641Y-37355000D01*
X89211359Y-38115000D02*
X89518641Y-38115000D01*
%TO.C,FB1*%
X98342000Y-42262623D02*
X98342000Y-41463379D01*
X99462000Y-42262623D02*
X99462000Y-41463379D01*
%TO.C,C48*%
X82720000Y-60632164D02*
X82720000Y-60847836D01*
X83440000Y-60632164D02*
X83440000Y-60847836D01*
%TO.C,C45*%
X92260000Y-76850580D02*
X92260000Y-76569420D01*
X93280000Y-76850580D02*
X93280000Y-76569420D01*
%TO.C,U5*%
X57860000Y-104277500D02*
X57860000Y-103477500D01*
X57860000Y-104277500D02*
X57860000Y-105077500D01*
X60980000Y-104277500D02*
X60980000Y-103477500D01*
X60980000Y-104277500D02*
X60980000Y-105077500D01*
X57910000Y-105577500D02*
X57580000Y-105817500D01*
X57580000Y-105337500D01*
X57910000Y-105577500D01*
G36*
X57910000Y-105577500D02*
G01*
X57580000Y-105817500D01*
X57580000Y-105337500D01*
X57910000Y-105577500D01*
G37*
%TO.C,R29*%
X83230000Y-62621359D02*
X83230000Y-62928641D01*
X83990000Y-62621359D02*
X83990000Y-62928641D01*
%TO.C,C24*%
X84615748Y-44278001D02*
X85138252Y-44278001D01*
X84615748Y-45748001D02*
X85138252Y-45748001D01*
%TO.C,R10*%
X77145000Y-86793641D02*
X77145000Y-86486359D01*
X77905000Y-86793641D02*
X77905000Y-86486359D01*
%TO.C,C32*%
X59684190Y-76186693D02*
X59836693Y-76034190D01*
X60193307Y-76695810D02*
X60345810Y-76543307D01*
%TO.C,D11*%
X72205000Y-56520000D02*
X74890000Y-56520000D01*
X74890000Y-54600000D02*
X72205000Y-54600000D01*
X74890000Y-56520000D02*
X74890000Y-54600000D01*
%TO.C,C37*%
X57985000Y-100354420D02*
X57985000Y-100635580D01*
X59005000Y-100354420D02*
X59005000Y-100635580D01*
%TO.C,R12*%
X77132659Y-52354940D02*
X77349940Y-52137659D01*
X77670060Y-52892341D02*
X77887341Y-52675060D01*
%TO.C,C25*%
X53145000Y-81503748D02*
X53145000Y-82026252D01*
X54615000Y-81503748D02*
X54615000Y-82026252D01*
%TO.C,C26*%
X58184190Y-74721693D02*
X58336693Y-74569190D01*
X58693307Y-75230810D02*
X58845810Y-75078307D01*
%TO.C,C43*%
X68070000Y-78162836D02*
X68070000Y-77947164D01*
X68790000Y-78162836D02*
X68790000Y-77947164D01*
%TO.C,C27*%
X59596252Y-107050000D02*
X59073748Y-107050000D01*
X59596252Y-108520000D02*
X59073748Y-108520000D01*
%TO.C,R4*%
X90817000Y-51784360D02*
X90817000Y-52091642D01*
X91577000Y-51784360D02*
X91577000Y-52091642D01*
%TO.C,C30*%
X52307164Y-72560000D02*
X52522836Y-72560000D01*
X52307164Y-73280000D02*
X52522836Y-73280000D01*
%TO.C,C8*%
X59993781Y-70259970D02*
X59794970Y-70458781D01*
X60715030Y-70981219D02*
X60516219Y-71180030D01*
%TO.C,C41*%
X52590000Y-108058748D02*
X52590000Y-108581252D01*
X54060000Y-108058748D02*
X54060000Y-108581252D01*
%TO.C,C44*%
X91510000Y-84314420D02*
X91510000Y-84595580D01*
X92530000Y-84314420D02*
X92530000Y-84595580D01*
%TO.C,R21*%
X55026359Y-92895000D02*
X55333641Y-92895000D01*
X55026359Y-93655000D02*
X55333641Y-93655000D01*
%TO.C,D10*%
X90625000Y-77462500D02*
X90625000Y-75502500D01*
X91825000Y-75502500D02*
X90625000Y-75502500D01*
X91825000Y-77462500D02*
X91825000Y-75502500D01*
%TO.C,R30*%
X84491359Y-54775000D02*
X84798641Y-54775000D01*
X84491359Y-55535000D02*
X84798641Y-55535000D01*
%TO.C,C38*%
X56198781Y-75900030D02*
X55999970Y-75701219D01*
X56920030Y-75178781D02*
X56721219Y-74979970D01*
%TO.C,R20*%
X77667000Y-46619360D02*
X77667000Y-46926642D01*
X78427000Y-46619360D02*
X78427000Y-46926642D01*
%TO.C,C31*%
X52010000Y-79627164D02*
X52010000Y-79842836D01*
X52730000Y-79627164D02*
X52730000Y-79842836D01*
%TO.C,D6*%
X85890000Y-39062500D02*
X85890000Y-41747500D01*
X85890000Y-41747500D02*
X87810000Y-41747500D01*
X87810000Y-41747500D02*
X87810000Y-39062500D01*
%TO.C,C17*%
X69847164Y-66665000D02*
X70062836Y-66665000D01*
X69847164Y-67385000D02*
X70062836Y-67385000D01*
%TO.C,R22*%
X60327659Y-75165060D02*
X60544940Y-75382341D01*
X60865060Y-74627659D02*
X61082341Y-74844940D01*
%TO.C,D12*%
X87195000Y-56115000D02*
X89880000Y-56115000D01*
X89880000Y-54195000D02*
X87195000Y-54195000D01*
X89880000Y-56115000D02*
X89880000Y-54195000D01*
%TO.C,R24*%
X93115000Y-84353641D02*
X93115000Y-84046359D01*
X93875000Y-84353641D02*
X93875000Y-84046359D01*
%TO.C,C4*%
X60435000Y-55298748D02*
X60435000Y-55821252D01*
X61905000Y-55298748D02*
X61905000Y-55821252D01*
%TO.C,J4*%
X73250000Y-68640000D02*
X73250000Y-69280000D01*
X73250000Y-69280000D02*
X72620000Y-69280000D01*
X73250000Y-71440000D02*
X73250000Y-70800000D01*
X75970000Y-68690000D02*
X75970000Y-71390000D01*
%TO.C,C28*%
X56115580Y-71305000D02*
X55834420Y-71305000D01*
X56115580Y-72325000D02*
X55834420Y-72325000D01*
%TO.C,R17*%
X83810000Y-72088641D02*
X83810000Y-71781359D01*
X84570000Y-72088641D02*
X84570000Y-71781359D01*
%TO.C,C39*%
X54630000Y-108053748D02*
X54630000Y-108576252D01*
X56100000Y-108053748D02*
X56100000Y-108576252D01*
%TO.C,C18*%
X78215000Y-86732836D02*
X78215000Y-86517164D01*
X78935000Y-86732836D02*
X78935000Y-86517164D01*
%TO.C,C29*%
X50520000Y-80169420D02*
X50520000Y-80450580D01*
X51540000Y-80169420D02*
X51540000Y-80450580D01*
%TO.C,R23*%
X58908283Y-75499316D02*
X59125564Y-75282035D01*
X59445684Y-76036717D02*
X59662965Y-75819436D01*
%TO.C,C53*%
X68335000Y-60502164D02*
X68335000Y-60717836D01*
X69055000Y-60502164D02*
X69055000Y-60717836D01*
%TO.C,C36*%
X73199420Y-85775000D02*
X73480580Y-85775000D01*
X73199420Y-86795000D02*
X73480580Y-86795000D01*
%TO.C,R5*%
X90782000Y-48071642D02*
X90782000Y-47764360D01*
X91542000Y-48071642D02*
X91542000Y-47764360D01*
%TO.C,U7*%
X61385000Y-77820000D02*
X61010000Y-77820000D01*
X61385000Y-83095000D02*
X60710000Y-83095000D01*
X65255000Y-77825000D02*
X65930000Y-77825000D01*
X65255000Y-83095000D02*
X65930000Y-83095000D01*
X60710000Y-77820000D02*
X60470000Y-77490000D01*
X60950000Y-77490000D01*
X60710000Y-77820000D01*
G36*
X60710000Y-77820000D02*
G01*
X60470000Y-77490000D01*
X60950000Y-77490000D01*
X60710000Y-77820000D01*
G37*
%TO.C,Q4*%
X87022500Y-69245000D02*
X87022500Y-68595000D01*
X87022500Y-69245000D02*
X87022500Y-69895000D01*
X90142500Y-69245000D02*
X90142500Y-68595000D01*
X90142500Y-69245000D02*
X90142500Y-69895000D01*
X90422500Y-68322500D02*
X90092500Y-68082500D01*
X90422500Y-67842500D01*
X90422500Y-68322500D01*
G36*
X90422500Y-68322500D02*
G01*
X90092500Y-68082500D01*
X90422500Y-67842500D01*
X90422500Y-68322500D01*
G37*
%TO.C,Y1*%
X73477349Y-50587265D02*
X75895655Y-53005571D01*
X75895655Y-53005571D02*
X78808935Y-50092291D01*
%TO.C,R7*%
X70530000Y-89211359D02*
X70530000Y-89518641D01*
X71290000Y-89211359D02*
X71290000Y-89518641D01*
%TO.C,R18*%
X81910000Y-70836359D02*
X81910000Y-71143641D01*
X82670000Y-70836359D02*
X82670000Y-71143641D01*
%TO.C,C51*%
X80605000Y-57808748D02*
X80605000Y-58331252D01*
X82075000Y-57808748D02*
X82075000Y-58331252D01*
%TO.C,J1*%
X92952000Y-52973001D02*
X92952000Y-53773001D01*
X95872000Y-45473001D02*
X97652000Y-45473001D01*
X95872000Y-54873001D02*
X97652000Y-54873001D01*
%TO.C,C50*%
X79345000Y-57492164D02*
X79345000Y-57707836D01*
X80065000Y-57492164D02*
X80065000Y-57707836D01*
%TO.C,R27*%
X70035000Y-62471359D02*
X70035000Y-62778641D01*
X70795000Y-62471359D02*
X70795000Y-62778641D01*
%TO.C,U8*%
X71625000Y-59820000D02*
X72350000Y-59820000D01*
X71625000Y-60545000D02*
X71625000Y-59820000D01*
X71625000Y-64315000D02*
X71625000Y-65040000D01*
X71625000Y-65040000D02*
X72350000Y-65040000D01*
X76120000Y-59820000D02*
X76605000Y-59820000D01*
X76845000Y-60545000D02*
X76845000Y-60120000D01*
X76845000Y-64315000D02*
X76845000Y-65040000D01*
X76845000Y-65040000D02*
X76120000Y-65040000D01*
X77175000Y-60060000D02*
X76845000Y-59820000D01*
X77175000Y-59580000D01*
X77175000Y-60060000D01*
G36*
X77175000Y-60060000D02*
G01*
X76845000Y-59820000D01*
X77175000Y-59580000D01*
X77175000Y-60060000D01*
G37*
%TO.C,C23*%
X66857164Y-73270000D02*
X67072836Y-73270000D01*
X66857164Y-73990000D02*
X67072836Y-73990000D01*
%TO.C,R15*%
X85662000Y-47441642D02*
X85662000Y-47134360D01*
X86422000Y-47441642D02*
X86422000Y-47134360D01*
%TO.C,D9*%
X89885000Y-83670000D02*
X89885000Y-85630000D01*
X89885000Y-85630000D02*
X91085000Y-85630000D01*
X91085000Y-83670000D02*
X91085000Y-85630000D01*
%TO.C,R26*%
X66778641Y-85505000D02*
X66471359Y-85505000D01*
X66778641Y-86265000D02*
X66471359Y-86265000D01*
%TO.C,L7*%
X50605000Y-106155000D02*
X50605000Y-99935000D01*
X56825000Y-99935000D02*
X56825000Y-106155000D01*
%TD*%
M02*
