M48
; DRILL file {KiCad 9.0.3} date 2026-09-22T23:36:50+0530
; FORMAT={-:-/ absolute / metric / decimal}
; #@! TF.CreationDate,2026-09-22T23:36:50+05:30
; #@! TF.GenerationSoftware,Kicad,Pcbnew,9.0.3
; #@! TF.FileFunction,MixedPlating,1,4
FMAT,2
METRIC
; #@! TA.AperFunction,Plated,PTH,ViaDrill
T1C0.300
; #@! TA.AperFunction,Plated,PTH,ComponentDrill
T2C0.600
; #@! TA.AperFunction,Plated,PTH,ComponentDrill
T3C1.200
; #@! TA.AperFunction,Plated,PTH,ComponentDrill
T4C2.700
; #@! TA.AperFunction,NonPlated,NPTH,ComponentDrill
T5C0.650
%
G90
G05
T1
X50.575Y-40.475
X50.6Y-37.195
X50.6Y-38.255
X50.6Y-39.36
X50.695Y-66.885
X50.745Y-44.555
X50.745Y-45.615
X50.745Y-52.56
X50.75Y-51.605
X50.755Y-42.44
X50.755Y-43.5
X50.755Y-46.545
X50.755Y-47.605
X50.755Y-48.505
X50.755Y-49.565
X50.765Y-53.535
X50.775Y-50.515
X50.845Y-84.23
X50.855Y-85.305
X50.915Y-72.83
X50.915Y-73.89
X50.92Y-74.915
X50.92Y-75.975
X51.195Y-107.38
X51.33Y-77.21
X51.385Y-59.07
X51.445Y-103.885
X51.45Y-102.23
X51.47Y-103.07
X51.635Y-70.44
X51.64Y-71.285
X51.755Y-66.885
X51.825Y-73.9
X51.83Y-74.925
X51.87Y-84.225
X51.88Y-85.3
X51.895Y-37.18
X51.895Y-38.22
X51.915Y-40.455
X51.915Y-41.515
X52.22Y-51.075
X52.225Y-50.12
X52.235Y-53.05
X52.24Y-52.05
X52.25Y-49.03
X52.28Y-103.885
X52.285Y-102.23
X52.305Y-103.07
X52.415Y-57.985
X52.79Y-66.885
X52.93Y-84.225
X52.94Y-85.3
X53.12Y-103.885
X53.125Y-102.23
X53.145Y-103.07
X53.475Y-48.555
X53.475Y-49.615
X53.475Y-57.985
X53.485Y-46.44
X53.485Y-47.5
X53.485Y-50.545
X53.485Y-51.605
X53.485Y-52.505
X53.485Y-53.565
X53.72Y-36.865
X53.74Y-60.42
X53.775Y-61.525
X53.805Y-62.625
X53.82Y-39.075
X53.82Y-45.165
X53.835Y-40.06
X53.845Y-38.15
X53.845Y-42.205
X53.845Y-44.19
X53.85Y-66.885
X53.855Y-41.095
X53.855Y-43.24
X53.88Y-84.23
X53.885Y-85.295
X53.94Y-103.89
X53.945Y-102.235
X53.965Y-103.075
X53.975Y-72.93
X53.985Y-73.91
X53.985Y-74.97
X53.99Y-75.995
X53.99Y-77.055
X53.99Y-77.985
X54.03Y-70.44
X54.335Y-59.04
X54.395Y-54.475
X54.705Y-38.135
X54.715Y-36.865
X54.775Y-103.89
X54.78Y-102.235
X54.8Y-103.075
X54.97Y-66.87
X55.0Y-77.04
X55.0Y-77.97
X55.035Y-72.93
X55.09Y-70.44
X55.36Y-57.215
X55.36Y-58.275
X55.37Y-54.89
X55.37Y-55.95
X55.455Y-67.59
X55.47Y-68.71
X55.495Y-69.635
X55.615Y-103.89
X55.62Y-102.235
X55.64Y-103.075
X55.975Y-77.995
X56.06Y-72.925
X56.275Y-73.71
X56.53Y-103.865
X56.535Y-102.21
X56.555Y-103.05
X56.99Y-108.465
X57.15Y-39.55
X57.197Y-82.535
X57.258Y-84.445
X57.377Y-80.142
X57.46Y-103.75
X57.47Y-104.6
X57.49Y-102.93
X57.525Y-93.275
X57.885Y-47.555
X58.245Y-89.06
X58.332Y-83.244
X58.405Y-39.74
X58.935Y-104.277
X59.187Y-70.307
X59.212Y-73.02
X59.415Y-60.315
X59.415Y-61.355
X59.425Y-58.2
X59.425Y-59.24
X59.425Y-62.305
X59.6Y-69.4
X59.61Y-68.095
X59.7Y-39.705
X59.72Y-46.28
X59.72Y-47.32
X59.73Y-44.165
X59.73Y-45.205
X59.73Y-48.27
X59.73Y-49.31
X59.73Y-50.23
X59.73Y-51.27
X59.825Y-63.765
X59.89Y-104.277
X59.957Y-77.733
X59.96Y-90.08
X60.15Y-65.125
X60.355Y-100.515
X60.555Y-68.05
X60.66Y-39.72
X60.735Y-89.06
X60.75Y-46.265
X60.75Y-47.325
X60.76Y-44.15
X60.76Y-45.21
X60.76Y-48.255
X60.76Y-49.315
X60.76Y-50.215
X60.76Y-51.275
X60.865Y-85.14
X61.1Y-65.115
X61.165Y-100.02
X61.165Y-101.815
X61.175Y-103.44
X61.18Y-102.635
X61.195Y-100.955
X61.205Y-104.26
X61.352Y-85.938
X61.466Y-90.074
X61.661Y-76.379
X61.73Y-71.055
X61.83Y-81.835
X61.835Y-81.02
X61.955Y-39.685
X62.225Y-61.015
X62.225Y-62.055
X62.235Y-58.9
X62.235Y-59.94
X62.235Y-63.005
X62.245Y-64.27
X62.86Y-81.82
X62.865Y-80.105
X62.865Y-81.005
X62.92Y-39.705
X63.05Y-54.595
X63.275Y-66.2
X63.285Y-67.11
X63.285Y-68.03
X63.575Y-43.045
X63.585Y-40.93
X63.585Y-41.97
X63.585Y-45.035
X63.585Y-46.075
X63.585Y-46.995
X63.585Y-48.035
X63.595Y-48.945
X63.595Y-49.865
X63.595Y-50.905
X63.79Y-81.825
X63.795Y-81.01
X63.8Y-80.105
X63.81Y-79.245
X64.215Y-39.67
X64.336Y-86.111
X64.38Y-61.225
X64.38Y-62.265
X64.39Y-59.11
X64.39Y-60.15
X64.39Y-63.215
X64.39Y-64.255
X64.39Y-65.175
X64.39Y-66.215
X64.4Y-67.125
X64.4Y-68.045
X64.535Y-43.04
X64.545Y-40.925
X64.545Y-41.985
X64.545Y-45.03
X64.545Y-46.09
X64.545Y-46.99
X64.545Y-48.05
X64.545Y-95.415
X64.555Y-48.96
X64.555Y-49.86
X64.555Y-50.92
X64.56Y-96.265
X64.56Y-97.185
X64.561Y-84.814
X64.705Y-81.82
X64.71Y-81.005
X64.715Y-80.1
X64.725Y-79.24
X64.995Y-72.03
X65.175Y-39.685
X65.195Y-52.825
X65.575Y-95.4
X65.59Y-96.27
X65.59Y-97.17
X65.93Y-56.96
X66.1Y-72.01
X66.32Y-89.855
X66.47Y-39.65
X66.93Y-75.245
X66.945Y-77.202
X66.972Y-78.505
X66.972Y-83.744
X67.775Y-95.425
X67.79Y-96.275
X67.79Y-97.195
X67.839Y-76.677
X68.073Y-84.643
X68.075Y-86.705
X68.625Y-48.07
X68.805Y-95.41
X68.82Y-96.28
X68.82Y-97.18
X68.88Y-83.74
X68.915Y-37.535
X68.975Y-90.468
X69.175Y-39.55
X69.36Y-51.145
X69.37Y-52.055
X69.375Y-85.182
X69.385Y-48.605
X69.39Y-45.545
X69.39Y-52.87
X69.395Y-46.49
X69.395Y-47.53
X69.545Y-49.55
X69.61Y-43.555
X69.732Y-41.65
X69.783Y-62.609
X69.92Y-88.855
X69.925Y-87.965
X70.155Y-67.905
X70.415Y-63.93
X70.675Y-64.89
X71.08Y-68.87
X71.095Y-69.865
X71.105Y-67.905
X71.545Y-65.135
X71.72Y-70.715
X71.845Y-71.64
X71.885Y-92.725
X72.035Y-58.31
X72.197Y-89.663
X72.26Y-68.645
X72.265Y-67.65
X72.33Y-45.685
X72.33Y-46.725
X72.34Y-43.57
X72.34Y-44.61
X72.34Y-47.675
X72.34Y-48.715
X72.34Y-49.635
X72.34Y-50.675
X72.35Y-51.585
X72.63Y-77.25
X72.785Y-61.125
X72.795Y-63.71
X72.795Y-71.695
X72.8Y-61.975
X72.8Y-62.895
X72.985Y-72.58
X73.235Y-94.02
X73.24Y-67.585
X73.245Y-96.605
X73.25Y-94.87
X73.25Y-95.79
X73.38Y-45.685
X73.38Y-46.725
X73.39Y-43.57
X73.39Y-44.61
X73.39Y-47.675
X73.39Y-48.715
X73.475Y-84.07
X73.815Y-61.11
X73.825Y-63.695
X73.83Y-61.98
X73.83Y-62.88
X73.85Y-72.605
X74.0Y-92.43
X74.095Y-80.84
X74.165Y-67.545
X74.165Y-103.905
X74.18Y-104.755
X74.18Y-105.675
X74.265Y-94.005
X74.275Y-96.59
X74.28Y-94.875
X74.28Y-95.775
X74.435Y-45.705
X74.435Y-46.745
X74.445Y-43.59
X74.445Y-44.63
X74.445Y-47.695
X74.445Y-48.735
X74.492Y-82.13
X74.61Y-73.66
X74.755Y-63.7
X74.76Y-62.885
X74.765Y-61.98
X74.775Y-61.12
X75.115Y-67.53
X75.175Y-58.665
X75.195Y-103.89
X75.205Y-96.595
X75.21Y-95.78
X75.21Y-104.76
X75.21Y-105.66
X75.215Y-94.875
X75.225Y-94.015
X75.535Y-72.62
X75.67Y-63.695
X75.675Y-62.88
X75.68Y-61.975
X75.69Y-61.115
X75.82Y-55.565
X75.985Y-67.545
X76.12Y-96.59
X76.125Y-95.775
X76.13Y-94.87
X76.14Y-94.01
X76.4Y-86.13
X76.405Y-68.37
X76.405Y-69.225
X76.405Y-70.315
X76.415Y-72.42
X76.42Y-71.415
X76.42Y-76.755
X76.43Y-78.012
X77.025Y-45.295
X77.215Y-74.42
X77.435Y-73.475
X78.375Y-75.09
X78.535Y-98.78
X78.545Y-101.365
X78.55Y-99.63
X78.55Y-100.55
X78.985Y-91.73
X79.137Y-46.263
X79.35Y-72.355
X79.405Y-87.88
X79.49Y-53.96
X79.565Y-98.765
X79.575Y-101.35
X79.58Y-99.635
X79.58Y-100.535
X80.505Y-101.355
X80.51Y-100.54
X80.515Y-99.635
X80.525Y-98.775
X80.607Y-49.318
X80.61Y-50.165
X80.622Y-51.088
X80.71Y-106.055
X80.725Y-106.905
X80.725Y-107.825
X80.84Y-81.015
X80.845Y-80.2
X80.85Y-79.295
X80.86Y-78.435
X81.045Y-61.225
X81.402Y-46.853
X81.42Y-101.35
X81.425Y-100.535
X81.43Y-99.63
X81.44Y-98.77
X81.637Y-49.303
X81.652Y-50.173
X81.652Y-51.073
X81.74Y-106.04
X81.755Y-81.01
X81.755Y-106.91
X81.755Y-107.81
X81.76Y-80.195
X81.765Y-79.29
X81.775Y-78.43
X82.045Y-90.65
X82.05Y-89.835
X82.055Y-88.93
X82.065Y-88.07
X82.29Y-40.515
X82.29Y-72.36
X82.582Y-51.078
X82.587Y-50.173
X82.597Y-49.313
X82.96Y-90.645
X82.965Y-89.83
X82.97Y-88.925
X82.98Y-88.065
X83.25Y-83.67
X83.615Y-64.53
X83.91Y-104.85
X83.92Y-43.27
X83.925Y-105.7
X83.925Y-106.62
X84.115Y-57.12
X84.19Y-73.445
X84.75Y-53.39
X84.94Y-104.835
X84.955Y-105.705
X84.955Y-106.605
X85.315Y-51.435
X85.795Y-43.255
X85.935Y-71.625
X85.94Y-70.81
X85.945Y-69.905
X85.955Y-69.045
X85.96Y-61.125
X85.97Y-63.71
X85.975Y-61.975
X85.975Y-62.895
X86.69Y-76.13
X86.84Y-42.165
X86.885Y-75.125
X86.99Y-61.11
X87.0Y-63.695
X87.005Y-61.98
X87.005Y-62.88
X87.08Y-104.15
X87.095Y-105.0
X87.095Y-105.92
X87.205Y-43.38
X87.39Y-36.58
X87.93Y-63.7
X87.935Y-62.885
X87.94Y-61.98
X87.95Y-61.12
X88.11Y-45.79
X88.11Y-104.135
X88.125Y-105.005
X88.125Y-105.905
X88.345Y-77.475
X88.405Y-58.375
X88.555Y-78.25
X88.845Y-63.695
X88.85Y-62.88
X88.855Y-61.975
X88.865Y-61.115
X89.185Y-83.675
X89.37Y-42.16
X89.53Y-71.5
X89.87Y-36.58
X91.175Y-45.715
X91.195Y-53.62
X91.205Y-55.15
X92.122Y-40.803
X92.132Y-47.773
X92.132Y-52.573
X92.35Y-107.585
X92.905Y-73.858
X93.465Y-86.365
X94.185Y-102.165
X94.19Y-101.35
X94.84Y-75.13
X94.965Y-89.38
X94.975Y-91.965
X94.98Y-90.23
X94.98Y-91.15
X95.215Y-102.15
X95.22Y-101.335
X95.24Y-61.16
X95.995Y-89.365
X96.005Y-91.95
X96.01Y-90.235
X96.01Y-91.135
X96.145Y-102.155
X96.15Y-101.34
X96.155Y-72.46
X96.155Y-75.63
X96.235Y-67.36
X96.245Y-61.14
X96.39Y-49.207
X96.39Y-50.155
X96.39Y-53.035
X96.395Y-47.242
X96.395Y-48.177
X96.395Y-51.07
X96.395Y-52.005
X96.935Y-91.955
X96.94Y-91.14
X96.945Y-90.235
X96.955Y-89.375
X97.06Y-102.15
X97.065Y-101.335
X97.225Y-56.9
X97.295Y-48.177
X97.295Y-50.16
X97.295Y-52.005
X97.3Y-47.247
X97.3Y-51.075
X97.31Y-49.207
X97.31Y-53.035
X97.85Y-91.95
X97.855Y-91.135
X97.86Y-90.23
X97.87Y-89.37
X98.11Y-48.182
X98.11Y-50.165
X98.11Y-52.01
X98.115Y-47.252
X98.115Y-51.08
X98.125Y-49.212
X98.125Y-53.04
X98.315Y-75.35
X98.32Y-74.535
X98.325Y-73.63
X98.335Y-72.77
X99.23Y-75.345
X99.235Y-74.53
X99.24Y-73.625
X99.25Y-72.765
T3
X60.355Y-110.69
X63.555Y-110.69
X66.755Y-110.69
X69.955Y-110.69
X73.155Y-110.69
X76.355Y-110.69
X79.555Y-110.69
X82.755Y-110.69
X85.955Y-110.69
X89.155Y-110.69
X92.355Y-110.59
T4
X75.0Y-40.0
T5
X95.047Y-47.283
X95.047Y-53.063
T2
G00X93.997Y-45.853
M15
G01X95.097Y-45.853
M16
G05
G00X93.997Y-54.493
M15
G01X95.097Y-54.493
M16
G05
G00X98.427Y-45.853
M15
G01X99.027Y-45.853
M16
G05
G00X98.427Y-54.493
M15
G01X99.027Y-54.493
M16
G05
M30
